<svg xmlns="http://www.w3.org/2000/svg" viewBox="-32.48 -69.68 64.96 73.68" width="64.96" height="73.68"><g transform="translate(0,0) scale(0.74,0.74)"><defs><clipPath id="c-k0"><path d="M-18.79,-2.53C-18.79,-2.25 -18.85,-1.95 -18.96,-1.71C-19.07,-1.46 -19.23,-1.26 -19.44,-1.06C-19.66,-0.86 -19.92,-0.68 -20.24,-0.52C-20.55,-0.35 -20.91,-0.21 -21.32,-0.08C-21.72,0.05 -22.17,0.16 -22.66,0.24C-23.15,0.33 -23.66,0.4 -24.26,0.44C-24.86,0.48 -25.61,0.51 -26.29,0.51C-26.97,0.51 -27.71,0.48 -28.32,0.44C-28.92,0.4 -29.43,0.33 -29.92,0.24C-30.41,0.16 -30.86,0.05 -31.26,-0.08C-31.66,-0.21 -32.03,-0.35 -32.34,-0.52C-32.65,-0.68 -32.92,-0.86 -33.14,-1.06C-33.35,-1.26 -33.51,-1.46 -33.62,-1.71C-33.73,-1.95 -33.79,-2.25 -33.79,-2.53C-33.79,-2.8 -33.73,-3.1 -33.62,-3.35C-33.51,-3.59 -33.35,-3.8 -33.14,-4C-32.92,-4.19 -32.65,-4.38 -32.34,-4.54C-32.03,-4.7 -31.66,-4.85 -31.26,-4.98C-30.86,-5.1 -30.41,-5.21 -29.92,-5.3C-29.43,-5.38 -28.92,-5.45 -28.32,-5.49C-27.71,-5.54 -26.97,-5.56 -26.29,-5.56C-25.61,-5.56 -24.86,-5.54 -24.26,-5.49C-23.66,-5.45 -23.15,-5.38 -22.66,-5.3C-22.17,-5.21 -21.72,-5.1 -21.32,-4.98C-20.91,-4.85 -20.55,-4.7 -20.24,-4.54C-19.92,-4.38 -19.66,-4.19 -19.44,-4C-19.23,-3.8 -19.07,-3.59 -18.96,-3.35C-18.85,-3.1 -18.79,-2.8 -18.79,-2.53Z"/></clipPath><clipPath id="c-k1"><path d="M33.79,-2.53C33.79,-2.25 33.73,-1.95 33.62,-1.71C33.51,-1.46 33.35,-1.26 33.14,-1.06C32.92,-0.86 32.65,-0.68 32.34,-0.52C32.03,-0.35 31.66,-0.21 31.26,-0.08C30.86,0.05 30.41,0.16 29.92,0.24C29.43,0.33 28.92,0.4 28.32,0.44C27.71,0.48 26.97,0.51 26.29,0.51C25.61,0.51 24.86,0.48 24.26,0.44C23.66,0.4 23.15,0.33 22.66,0.24C22.17,0.16 21.72,0.05 21.32,-0.08C20.91,-0.21 20.55,-0.35 20.24,-0.52C19.92,-0.68 19.66,-0.86 19.44,-1.06C19.23,-1.26 19.07,-1.46 18.96,-1.71C18.85,-1.95 18.79,-2.25 18.79,-2.53C18.79,-2.8 18.85,-3.1 18.96,-3.35C19.07,-3.59 19.23,-3.8 19.44,-4C19.66,-4.19 19.92,-4.38 20.24,-4.54C20.55,-4.7 20.91,-4.85 21.32,-4.98C21.72,-5.1 22.17,-5.21 22.66,-5.3C23.15,-5.38 23.66,-5.45 24.26,-5.49C24.86,-5.54 25.61,-5.56 26.29,-5.56C26.97,-5.56 27.71,-5.54 28.32,-5.49C28.92,-5.45 29.43,-5.38 29.92,-5.3C30.41,-5.21 30.86,-5.1 31.26,-4.98C31.66,-4.85 32.03,-4.7 32.34,-4.54C32.65,-4.38 32.92,-4.19 33.14,-4C33.35,-3.8 33.51,-3.59 33.62,-3.35C33.73,-3.1 33.79,-2.8 33.79,-2.53Z"/></clipPath><clipPath id="c-k2"><path d="M0,-51.55C0.64,-51.55 1.3,-52.46 1.93,-52.8C2.56,-53.14 3.19,-53.44 3.79,-53.58C4.39,-53.71 4.97,-53.72 5.53,-53.6C6.1,-53.49 6.64,-53.2 7.17,-52.88C7.7,-52.55 8.17,-51.73 8.74,-51.68C9.31,-51.63 10.01,-52.33 10.6,-52.56C11.2,-52.79 11.78,-53 12.31,-53.07C12.84,-53.14 13.33,-53.12 13.78,-52.99C14.22,-52.87 14.61,-52.61 14.99,-52.33C15.37,-52.05 15.72,-51.45 16.05,-51.3C16.38,-51.16 16.68,-51.43 16.97,-51.45C17.26,-51.47 17.54,-51.49 17.78,-51.44C18.03,-51.39 18.24,-51.3 18.44,-51.16C18.63,-51.03 18.78,-50.83 18.93,-50.63C19.07,-50.42 19.16,-50.07 19.31,-49.93C19.47,-49.78 19.68,-49.84 19.84,-49.76C20,-49.68 20.15,-49.6 20.27,-49.47C20.39,-49.34 20.48,-49.18 20.55,-48.99C20.62,-48.8 20.66,-48.56 20.69,-48.31C20.72,-48.06 20.63,-47.7 20.74,-47.51C20.84,-47.32 21.15,-47.29 21.32,-47.14C21.49,-46.99 21.65,-46.83 21.75,-46.61C21.86,-46.39 21.92,-46.13 21.95,-45.82C21.97,-45.51 21.94,-45.14 21.91,-44.75C21.87,-44.37 21.65,-43.82 21.71,-43.53C21.77,-43.24 22.12,-43.23 22.28,-43.04C22.43,-42.85 22.58,-42.64 22.65,-42.38C22.73,-42.12 22.75,-41.81 22.72,-41.46C22.7,-41.11 22.6,-40.69 22.49,-40.27C22.38,-39.85 22.06,-39.23 22.07,-38.92C22.09,-38.6 22.45,-38.58 22.58,-38.38C22.72,-38.18 22.85,-37.97 22.9,-37.71C22.95,-37.45 22.95,-37.16 22.89,-36.83C22.83,-36.5 22.71,-36.12 22.56,-35.73C22.42,-35.35 22.04,-34.82 22.04,-34.51C22.04,-34.2 22.43,-34.11 22.57,-33.89C22.7,-33.66 22.83,-33.43 22.88,-33.16C22.92,-32.89 22.91,-32.6 22.83,-32.27C22.76,-31.95 22.61,-31.59 22.44,-31.22C22.28,-30.85 21.84,-30.38 21.83,-30.07C21.82,-29.75 22.24,-29.59 22.39,-29.33C22.54,-29.08 22.67,-28.82 22.71,-28.53C22.76,-28.25 22.74,-27.95 22.66,-27.63C22.57,-27.32 22.4,-26.98 22.22,-26.63C22.03,-26.29 21.55,-25.88 21.55,-25.57C21.55,-25.25 22.03,-25.02 22.21,-24.74C22.4,-24.46 22.56,-24.18 22.65,-23.89C22.73,-23.61 22.74,-23.32 22.7,-23.02C22.65,-22.73 22.52,-22.43 22.37,-22.13C22.23,-21.83 21.74,-21.52 21.81,-21.22C21.89,-20.93 22.53,-20.65 22.84,-20.37C23.14,-20.09 23.42,-19.81 23.62,-19.54C23.82,-19.27 23.96,-19.01 24.03,-18.76C24.1,-18.51 24.08,-18.27 24.05,-18.03C24.02,-17.79 23.71,-17.59 23.84,-17.32C23.98,-17.05 24.56,-16.72 24.86,-16.43C25.16,-16.14 25.45,-15.86 25.65,-15.6C25.86,-15.34 26,-15.09 26.09,-14.86C26.17,-14.63 26.17,-14.43 26.16,-14.22C26.15,-14.02 25.92,-13.89 26.01,-13.64C26.1,-13.39 26.51,-13 26.71,-12.7C26.92,-12.41 27.11,-12.11 27.22,-11.85C27.34,-11.58 27.41,-11.33 27.42,-11.11C27.44,-10.88 27.38,-10.68 27.31,-10.49C27.24,-10.29 26.98,-10.18 27.01,-9.94C27.03,-9.7 27.33,-9.33 27.46,-9.05C27.58,-8.77 27.69,-8.49 27.74,-8.24C27.8,-7.99 27.8,-7.77 27.77,-7.56C27.73,-7.36 27.64,-7.19 27.53,-7.02C27.42,-6.85 27.16,-6.77 27.13,-6.56C27.1,-6.35 27.29,-6 27.34,-5.74C27.39,-5.49 27.43,-5.24 27.42,-5.02C27.4,-4.8 27.35,-4.6 27.27,-4.43C27.18,-4.26 27.04,-4.12 26.89,-3.98C26.75,-3.85 26.48,-3.8 26.38,-3.62C26.29,-3.45 26.35,-3.16 26.3,-2.95C26.26,-2.74 26.2,-2.53 26.1,-2.37C25.99,-2.2 25.86,-2.06 25.69,-1.94C25.52,-1.83 25.3,-1.75 25.07,-1.68C24.85,-1.6 24.53,-1.63 24.33,-1.51C24.14,-1.38 24.08,-1.1 23.9,-0.94C23.73,-0.77 23.55,-0.62 23.3,-0.53C23.05,-0.44 22.75,-0.4 22.41,-0.4C22.07,-0.4 21.66,-0.46 21.24,-0.53C20.81,-0.6 20.2,-0.87 19.88,-0.83C19.57,-0.8 19.55,-0.47 19.35,-0.33C19.14,-0.2 18.92,-0.08 18.64,-0.04C18.36,0.01 18.03,-0.01 17.66,-0.07C17.29,-0.14 16.86,-0.28 16.41,-0.43C15.97,-0.59 15.29,-0.95 14.99,-1C14.69,-1.05 14.75,-0.81 14.6,-0.75C14.46,-0.7 14.3,-0.65 14.12,-0.66C13.93,-0.66 13.71,-0.71 13.47,-0.8C13.23,-0.89 12.96,-1.03 12.67,-1.18C12.39,-1.34 12,-1.66 11.78,-1.72C11.56,-1.77 11.52,-1.54 11.36,-1.5C11.21,-1.45 11.06,-1.41 10.87,-1.43C10.68,-1.46 10.47,-1.52 10.24,-1.62C10.01,-1.73 9.75,-1.89 9.49,-2.07C9.22,-2.24 8.9,-2.63 8.65,-2.67C8.4,-2.7 8.24,-2.37 8.01,-2.27C7.79,-2.18 7.56,-2.1 7.3,-2.1C7.04,-2.1 6.76,-2.15 6.46,-2.27C6.16,-2.39 5.83,-2.59 5.5,-2.8C5.17,-3.01 4.78,-3.5 4.47,-3.54C4.16,-3.58 3.93,-3.15 3.65,-3.01C3.38,-2.87 3.1,-2.75 2.81,-2.72C2.52,-2.69 2.22,-2.72 1.91,-2.82C1.61,-2.92 1.29,-3.1 0.97,-3.31C0.65,-3.51 0.32,-4.03 0,-4.03C-0.32,-4.03 -0.65,-3.51 -0.97,-3.31C-1.29,-3.1 -1.61,-2.92 -1.91,-2.82C-2.22,-2.72 -2.52,-2.69 -2.81,-2.72C-3.1,-2.75 -3.38,-2.87 -3.65,-3.01C-3.93,-3.15 -4.16,-3.58 -4.47,-3.54C-4.78,-3.5 -5.17,-3.01 -5.5,-2.8C-5.83,-2.59 -6.16,-2.39 -6.46,-2.27C-6.76,-2.15 -7.04,-2.1 -7.3,-2.1C-7.56,-2.1 -7.79,-2.18 -8.01,-2.27C-8.24,-2.37 -8.4,-2.7 -8.65,-2.67C-8.9,-2.63 -9.22,-2.24 -9.49,-2.07C-9.75,-1.89 -10.01,-1.73 -10.24,-1.62C-10.47,-1.52 -10.68,-1.46 -10.87,-1.43C-11.06,-1.41 -11.21,-1.45 -11.36,-1.5C-11.52,-1.54 -11.56,-1.77 -11.78,-1.72C-12,-1.66 -12.39,-1.34 -12.67,-1.18C-12.96,-1.03 -13.23,-0.89 -13.47,-0.8C-13.71,-0.71 -13.93,-0.66 -14.12,-0.66C-14.3,-0.65 -14.46,-0.7 -14.6,-0.75C-14.75,-0.81 -14.69,-1.05 -14.99,-1C-15.29,-0.95 -15.97,-0.59 -16.41,-0.43C-16.86,-0.28 -17.29,-0.14 -17.66,-0.07C-18.03,-0.01 -18.36,0.01 -18.64,-0.04C-18.92,-0.08 -19.14,-0.2 -19.35,-0.33C-19.55,-0.47 -19.57,-0.8 -19.88,-0.83C-20.2,-0.87 -20.81,-0.6 -21.24,-0.53C-21.66,-0.46 -22.07,-0.4 -22.41,-0.4C-22.75,-0.4 -23.05,-0.44 -23.3,-0.53C-23.55,-0.62 -23.73,-0.77 -23.9,-0.94C-24.08,-1.1 -24.14,-1.38 -24.33,-1.51C-24.53,-1.63 -24.85,-1.6 -25.07,-1.68C-25.3,-1.75 -25.52,-1.83 -25.69,-1.94C-25.86,-2.06 -25.99,-2.2 -26.1,-2.37C-26.2,-2.53 -26.26,-2.74 -26.3,-2.95C-26.35,-3.16 -26.29,-3.45 -26.38,-3.62C-26.48,-3.8 -26.75,-3.85 -26.89,-3.98C-27.04,-4.12 -27.18,-4.26 -27.27,-4.43C-27.35,-4.6 -27.4,-4.8 -27.42,-5.02C-27.43,-5.24 -27.39,-5.49 -27.34,-5.74C-27.29,-6 -27.1,-6.35 -27.13,-6.56C-27.16,-6.77 -27.42,-6.85 -27.53,-7.02C-27.64,-7.19 -27.73,-7.36 -27.77,-7.56C-27.8,-7.77 -27.8,-7.99 -27.74,-8.24C-27.69,-8.49 -27.58,-8.77 -27.46,-9.05C-27.33,-9.33 -27.03,-9.7 -27.01,-9.94C-26.98,-10.18 -27.24,-10.29 -27.31,-10.49C-27.38,-10.68 -27.44,-10.88 -27.42,-11.11C-27.41,-11.33 -27.34,-11.58 -27.22,-11.85C-27.11,-12.11 -26.92,-12.41 -26.71,-12.7C-26.51,-13 -26.1,-13.39 -26.01,-13.64C-25.92,-13.89 -26.15,-14.02 -26.16,-14.22C-26.17,-14.43 -26.17,-14.63 -26.09,-14.86C-26,-15.09 -25.86,-15.34 -25.65,-15.6C-25.45,-15.86 -25.16,-16.14 -24.86,-16.43C-24.56,-16.72 -23.98,-17.05 -23.84,-17.32C-23.71,-17.59 -24.02,-17.79 -24.05,-18.03C-24.08,-18.27 -24.1,-18.51 -24.03,-18.76C-23.96,-19.01 -23.82,-19.27 -23.62,-19.54C-23.42,-19.81 -23.14,-20.09 -22.84,-20.37C-22.53,-20.65 -21.89,-20.93 -21.81,-21.22C-21.74,-21.52 -22.23,-21.83 -22.37,-22.13C-22.52,-22.43 -22.65,-22.73 -22.7,-23.02C-22.74,-23.32 -22.73,-23.61 -22.65,-23.89C-22.56,-24.18 -22.4,-24.46 -22.21,-24.74C-22.03,-25.02 -21.55,-25.25 -21.55,-25.57C-21.55,-25.88 -22.03,-26.29 -22.22,-26.63C-22.4,-26.98 -22.57,-27.32 -22.66,-27.63C-22.74,-27.95 -22.76,-28.25 -22.71,-28.53C-22.67,-28.82 -22.54,-29.08 -22.39,-29.33C-22.24,-29.59 -21.82,-29.75 -21.83,-30.07C-21.84,-30.38 -22.28,-30.85 -22.44,-31.22C-22.61,-31.59 -22.76,-31.95 -22.83,-32.27C-22.91,-32.6 -22.92,-32.89 -22.88,-33.16C-22.83,-33.43 -22.7,-33.66 -22.57,-33.89C-22.43,-34.11 -22.04,-34.2 -22.04,-34.51C-22.04,-34.82 -22.42,-35.35 -22.56,-35.73C-22.71,-36.12 -22.83,-36.5 -22.89,-36.83C-22.95,-37.16 -22.95,-37.45 -22.9,-37.71C-22.85,-37.97 -22.72,-38.18 -22.58,-38.38C-22.45,-38.58 -22.09,-38.6 -22.07,-38.92C-22.06,-39.23 -22.38,-39.85 -22.49,-40.27C-22.6,-40.69 -22.7,-41.11 -22.72,-41.46C-22.75,-41.81 -22.73,-42.12 -22.65,-42.38C-22.58,-42.64 -22.43,-42.85 -22.28,-43.04C-22.12,-43.23 -21.77,-43.24 -21.71,-43.53C-21.65,-43.82 -21.87,-44.37 -21.91,-44.75C-21.94,-45.14 -21.97,-45.51 -21.95,-45.82C-21.92,-46.13 -21.86,-46.39 -21.75,-46.61C-21.65,-46.83 -21.49,-46.99 -21.32,-47.14C-21.15,-47.29 -20.84,-47.32 -20.74,-47.51C-20.63,-47.7 -20.72,-48.06 -20.69,-48.31C-20.66,-48.56 -20.62,-48.8 -20.55,-48.99C-20.48,-49.18 -20.39,-49.34 -20.27,-49.47C-20.15,-49.6 -20,-49.68 -19.84,-49.76C-19.68,-49.84 -19.47,-49.78 -19.31,-49.93C-19.16,-50.07 -19.07,-50.42 -18.93,-50.63C-18.78,-50.83 -18.63,-51.03 -18.44,-51.16C-18.24,-51.3 -18.03,-51.39 -17.78,-51.44C-17.54,-51.49 -17.26,-51.47 -16.97,-51.45C-16.68,-51.43 -16.38,-51.16 -16.05,-51.3C-15.72,-51.45 -15.37,-52.05 -14.99,-52.33C-14.61,-52.61 -14.22,-52.87 -13.78,-52.99C-13.33,-53.12 -12.84,-53.14 -12.31,-53.07C-11.78,-53 -11.2,-52.79 -10.6,-52.56C-10.01,-52.33 -9.31,-51.63 -8.74,-51.68C-8.17,-51.73 -7.7,-52.55 -7.17,-52.88C-6.64,-53.2 -6.1,-53.49 -5.53,-53.6C-4.97,-53.72 -4.39,-53.71 -3.79,-53.58C-3.19,-53.44 -2.56,-53.14 -1.93,-52.8C-1.3,-52.46 -0.64,-51.55 0,-51.55Z"/></clipPath><clipPath id="c-k3"><path d="M-9.69,-30.32C-8.69,-32.04 -4.96,-32.04 -4.15,-30.32C-3.35,-28.61 -4.7,-21.88 -4.87,-20.03C-5.03,-18.18 -4.31,-19.34 -5.14,-19.2C-5.97,-19.06 -9.02,-19.06 -9.85,-19.2C-10.68,-19.34 -10.15,-18.18 -10.13,-20.03C-10.1,-21.88 -10.68,-28.61 -9.69,-30.32Z"/></clipPath><clipPath id="c-k4"><path d="M4.15,-30.32C4.96,-32.04 8.69,-32.04 9.69,-30.32C10.68,-28.61 10.1,-21.88 10.13,-20.03C10.15,-18.18 10.68,-19.34 9.85,-19.2C9.02,-19.06 5.97,-19.06 5.14,-19.2C4.31,-19.34 5.03,-18.18 4.87,-20.03C4.7,-21.88 3.35,-28.61 4.15,-30.32Z"/></clipPath><clipPath id="c-k5"><path d="M-4.96,-83.92C-4.96,-83.71 -4.99,-83.49 -5.05,-83.29C-5.1,-83.1 -5.19,-82.91 -5.3,-82.75C-5.41,-82.59 -5.55,-82.43 -5.7,-82.31C-5.85,-82.18 -6.03,-82.08 -6.22,-82C-6.41,-81.92 -6.62,-81.86 -6.83,-81.84C-7.05,-81.81 -7.31,-81.81 -7.53,-81.84C-7.74,-81.86 -7.95,-81.92 -8.14,-82C-8.33,-82.08 -8.51,-82.18 -8.66,-82.31C-8.81,-82.43 -8.95,-82.59 -9.06,-82.75C-9.17,-82.91 -9.25,-83.1 -9.31,-83.29C-9.37,-83.49 -9.4,-83.71 -9.4,-83.92C-9.4,-84.13 -9.37,-84.36 -9.31,-84.55C-9.25,-84.75 -9.17,-84.93 -9.06,-85.09C-8.95,-85.26 -8.81,-85.41 -8.66,-85.53C-8.51,-85.66 -8.33,-85.77 -8.14,-85.85C-7.95,-85.92 -7.74,-85.98 -7.53,-86.01C-7.31,-86.03 -7.05,-86.03 -6.83,-86.01C-6.62,-85.98 -6.41,-85.92 -6.22,-85.85C-6.03,-85.77 -5.85,-85.66 -5.7,-85.53C-5.55,-85.41 -5.41,-85.26 -5.3,-85.09C-5.19,-84.93 -5.1,-84.75 -5.05,-84.55C-4.99,-84.36 -4.96,-84.13 -4.96,-83.92Z"/></clipPath><clipPath id="c-k6"><path d="M9.4,-83.92C9.4,-83.71 9.37,-83.49 9.31,-83.29C9.25,-83.1 9.17,-82.91 9.06,-82.75C8.95,-82.59 8.81,-82.43 8.66,-82.31C8.51,-82.18 8.33,-82.08 8.14,-82C7.95,-81.92 7.74,-81.86 7.53,-81.84C7.31,-81.81 7.05,-81.81 6.83,-81.84C6.62,-81.86 6.41,-81.92 6.22,-82C6.03,-82.08 5.85,-82.18 5.7,-82.31C5.55,-82.43 5.41,-82.59 5.3,-82.75C5.19,-82.91 5.1,-83.1 5.05,-83.29C4.99,-83.49 4.96,-83.71 4.96,-83.92C4.96,-84.13 4.99,-84.36 5.05,-84.55C5.1,-84.75 5.19,-84.93 5.3,-85.09C5.41,-85.26 5.55,-85.41 5.7,-85.53C5.85,-85.66 6.03,-85.77 6.22,-85.85C6.41,-85.92 6.62,-85.98 6.83,-86.01C7.05,-86.03 7.31,-86.03 7.53,-86.01C7.74,-85.98 7.95,-85.92 8.14,-85.85C8.33,-85.77 8.51,-85.66 8.66,-85.53C8.81,-85.41 8.95,-85.26 9.06,-85.09C9.17,-84.93 9.25,-84.75 9.31,-84.55C9.37,-84.36 9.4,-84.13 9.4,-83.92Z"/></clipPath><clipPath id="c-k7"><path d="M22.44,-62.49C22.31,-61.2 21.87,-59.71 21.6,-58.61C21.34,-57.51 21.11,-56.74 20.85,-55.89C20.58,-55.05 20.31,-54.28 20.01,-53.53C19.72,-52.79 19.42,-52.09 19.09,-51.41C18.77,-50.74 18.44,-50.1 18.09,-49.48C17.73,-48.87 17.37,-48.29 16.99,-47.73C16.61,-47.18 16.22,-46.65 15.81,-46.15C15.41,-45.64 14.99,-45.17 14.55,-44.72C14.12,-44.28 13.68,-43.86 13.22,-43.46C12.76,-43.07 12.29,-42.7 11.8,-42.36C11.31,-42.03 10.81,-41.71 10.3,-41.43C9.78,-41.15 9.25,-40.89 8.7,-40.66C8.15,-40.44 7.59,-40.24 6.99,-40.07C6.39,-39.9 5.79,-39.75 5.12,-39.64C4.46,-39.52 3.86,-39.44 3.01,-39.38C2.16,-39.32 1,-39.29 0,-39.29C-1,-39.29 -2.16,-39.32 -3.01,-39.38C-3.86,-39.44 -4.46,-39.52 -5.12,-39.64C-5.79,-39.75 -6.39,-39.9 -6.99,-40.07C-7.59,-40.24 -8.15,-40.44 -8.7,-40.66C-9.25,-40.89 -9.78,-41.15 -10.3,-41.43C-10.81,-41.71 -11.31,-42.03 -11.8,-42.36C-12.29,-42.7 -12.76,-43.07 -13.22,-43.46C-13.68,-43.86 -14.12,-44.28 -14.55,-44.72C-14.99,-45.17 -15.41,-45.64 -15.81,-46.15C-16.22,-46.65 -16.61,-47.18 -16.99,-47.73C-17.37,-48.29 -17.73,-48.87 -18.09,-49.48C-18.44,-50.1 -18.77,-50.74 -19.09,-51.41C-19.42,-52.09 -19.72,-52.79 -20.01,-53.53C-20.31,-54.28 -20.58,-55.05 -20.85,-55.89C-21.11,-56.74 -21.34,-57.51 -21.6,-58.61C-21.87,-59.71 -22.31,-61.2 -22.44,-62.49C-22.56,-63.79 -22.41,-65.28 -22.35,-66.38C-22.3,-67.48 -22.22,-68.25 -22.1,-69.09C-21.99,-69.94 -21.86,-70.71 -21.69,-71.45C-21.52,-72.2 -21.33,-72.9 -21.11,-73.58C-20.89,-74.25 -20.64,-74.89 -20.37,-75.5C-20.1,-76.12 -19.79,-76.7 -19.47,-77.26C-19.14,-77.81 -18.79,-78.34 -18.41,-78.84C-18.03,-79.34 -17.62,-79.82 -17.19,-80.26C-16.75,-80.71 -16.29,-81.13 -15.81,-81.53C-15.32,-81.92 -14.81,-82.28 -14.28,-82.62C-13.74,-82.96 -13.17,-83.27 -12.58,-83.56C-11.99,-83.84 -11.37,-84.1 -10.72,-84.32C-10.06,-84.55 -9.39,-84.75 -8.66,-84.92C-7.94,-85.09 -7.2,-85.24 -6.38,-85.35C-5.56,-85.46 -4.82,-85.55 -3.76,-85.61C-2.69,-85.66 -1.25,-85.69 0,-85.69C1.25,-85.69 2.69,-85.66 3.76,-85.61C4.82,-85.55 5.56,-85.46 6.38,-85.35C7.2,-85.24 7.94,-85.09 8.66,-84.92C9.39,-84.75 10.06,-84.55 10.72,-84.32C11.37,-84.1 11.99,-83.84 12.58,-83.56C13.17,-83.27 13.74,-82.96 14.28,-82.62C14.81,-82.28 15.32,-81.92 15.81,-81.53C16.29,-81.13 16.75,-80.71 17.19,-80.26C17.62,-79.82 18.03,-79.34 18.41,-78.84C18.79,-78.34 19.14,-77.81 19.47,-77.26C19.79,-76.7 20.1,-76.12 20.37,-75.5C20.64,-74.89 20.89,-74.25 21.11,-73.58C21.33,-72.9 21.52,-72.2 21.69,-71.45C21.86,-70.71 21.99,-69.94 22.1,-69.09C22.22,-68.25 22.3,-67.48 22.35,-66.38C22.41,-65.28 22.56,-63.79 22.44,-62.49Z"/></clipPath></defs><path d="M-18.79,-2.53C-18.79,-2.25 -18.85,-1.95 -18.96,-1.71C-19.07,-1.46 -19.23,-1.26 -19.44,-1.06C-19.66,-0.86 -19.92,-0.68 -20.24,-0.52C-20.55,-0.35 -20.91,-0.21 -21.32,-0.08C-21.72,0.05 -22.17,0.16 -22.66,0.24C-23.15,0.33 -23.66,0.4 -24.26,0.44C-24.86,0.48 -25.61,0.51 -26.29,0.51C-26.97,0.51 -27.71,0.48 -28.32,0.44C-28.92,0.4 -29.43,0.33 -29.92,0.24C-30.41,0.16 -30.86,0.05 -31.26,-0.08C-31.66,-0.21 -32.03,-0.35 -32.34,-0.52C-32.65,-0.68 -32.92,-0.86 -33.14,-1.06C-33.35,-1.26 -33.51,-1.46 -33.62,-1.71C-33.73,-1.95 -33.79,-2.25 -33.79,-2.53C-33.79,-2.8 -33.73,-3.1 -33.62,-3.35C-33.51,-3.59 -33.35,-3.8 -33.14,-4C-32.92,-4.19 -32.65,-4.38 -32.34,-4.54C-32.03,-4.7 -31.66,-4.85 -31.26,-4.98C-30.86,-5.1 -30.41,-5.21 -29.92,-5.3C-29.43,-5.38 -28.92,-5.45 -28.32,-5.49C-27.71,-5.54 -26.97,-5.56 -26.29,-5.56C-25.61,-5.56 -24.86,-5.54 -24.26,-5.49C-23.66,-5.45 -23.15,-5.38 -22.66,-5.3C-22.17,-5.21 -21.72,-5.1 -21.32,-4.98C-20.91,-4.85 -20.55,-4.7 -20.24,-4.54C-19.92,-4.38 -19.66,-4.19 -19.44,-4C-19.23,-3.8 -19.07,-3.59 -18.96,-3.35C-18.85,-3.1 -18.79,-2.8 -18.79,-2.53Z" fill="#F5E2BF"/><g clip-path="url(#c-k0)"><rect x="-37.16" y="-8.59" width="7.5" height="12.13" fill="#5A4038"/></g><path d="M-18.79,-2.53C-18.79,-2.25 -18.85,-1.95 -18.96,-1.71C-19.07,-1.46 -19.23,-1.26 -19.44,-1.06C-19.66,-0.86 -19.92,-0.68 -20.24,-0.52C-20.55,-0.35 -20.91,-0.21 -21.32,-0.08C-21.72,0.05 -22.17,0.16 -22.66,0.24C-23.15,0.33 -23.66,0.4 -24.26,0.44C-24.86,0.48 -25.61,0.51 -26.29,0.51C-26.97,0.51 -27.71,0.48 -28.32,0.44C-28.92,0.4 -29.43,0.33 -29.92,0.24C-30.41,0.16 -30.86,0.05 -31.26,-0.08C-31.66,-0.21 -32.03,-0.35 -32.34,-0.52C-32.65,-0.68 -32.92,-0.86 -33.14,-1.06C-33.35,-1.26 -33.51,-1.46 -33.62,-1.71C-33.73,-1.95 -33.79,-2.25 -33.79,-2.53C-33.79,-2.8 -33.73,-3.1 -33.62,-3.35C-33.51,-3.59 -33.35,-3.8 -33.14,-4C-32.92,-4.19 -32.65,-4.38 -32.34,-4.54C-32.03,-4.7 -31.66,-4.85 -31.26,-4.98C-30.86,-5.1 -30.41,-5.21 -29.92,-5.3C-29.43,-5.38 -28.92,-5.45 -28.32,-5.49C-27.71,-5.54 -26.97,-5.56 -26.29,-5.56C-25.61,-5.56 -24.86,-5.54 -24.26,-5.49C-23.66,-5.45 -23.15,-5.38 -22.66,-5.3C-22.17,-5.21 -21.72,-5.1 -21.32,-4.98C-20.91,-4.85 -20.55,-4.7 -20.24,-4.54C-19.92,-4.38 -19.66,-4.19 -19.44,-4C-19.23,-3.8 -19.07,-3.59 -18.96,-3.35C-18.85,-3.1 -18.79,-2.8 -18.79,-2.53Z" fill="none" stroke="#4B3326" stroke-width="2.16" stroke-linejoin="round"/><path d="M33.79,-2.53C33.79,-2.25 33.73,-1.95 33.62,-1.71C33.51,-1.46 33.35,-1.26 33.14,-1.06C32.92,-0.86 32.65,-0.68 32.34,-0.52C32.03,-0.35 31.66,-0.21 31.26,-0.08C30.86,0.05 30.41,0.16 29.92,0.24C29.43,0.33 28.92,0.4 28.32,0.44C27.71,0.48 26.97,0.51 26.29,0.51C25.61,0.51 24.86,0.48 24.26,0.44C23.66,0.4 23.15,0.33 22.66,0.24C22.17,0.16 21.72,0.05 21.32,-0.08C20.91,-0.21 20.55,-0.35 20.24,-0.52C19.92,-0.68 19.66,-0.86 19.44,-1.06C19.23,-1.26 19.07,-1.46 18.96,-1.71C18.85,-1.95 18.79,-2.25 18.79,-2.53C18.79,-2.8 18.85,-3.1 18.96,-3.35C19.07,-3.59 19.23,-3.8 19.44,-4C19.66,-4.19 19.92,-4.38 20.24,-4.54C20.55,-4.7 20.91,-4.85 21.32,-4.98C21.72,-5.1 22.17,-5.21 22.66,-5.3C23.15,-5.38 23.66,-5.45 24.26,-5.49C24.86,-5.54 25.61,-5.56 26.29,-5.56C26.97,-5.56 27.71,-5.54 28.32,-5.49C28.92,-5.45 29.43,-5.38 29.92,-5.3C30.41,-5.21 30.86,-5.1 31.26,-4.98C31.66,-4.85 32.03,-4.7 32.34,-4.54C32.65,-4.38 32.92,-4.19 33.14,-4C33.35,-3.8 33.51,-3.59 33.62,-3.35C33.73,-3.1 33.79,-2.8 33.79,-2.53Z" fill="#F5E2BF"/><g clip-path="url(#c-k1)"><rect x="29.66" y="-8.59" width="7.5" height="12.13" fill="#5A4038"/></g><path d="M33.79,-2.53C33.79,-2.25 33.73,-1.95 33.62,-1.71C33.51,-1.46 33.35,-1.26 33.14,-1.06C32.92,-0.86 32.65,-0.68 32.34,-0.52C32.03,-0.35 31.66,-0.21 31.26,-0.08C30.86,0.05 30.41,0.16 29.92,0.24C29.43,0.33 28.92,0.4 28.32,0.44C27.71,0.48 26.97,0.51 26.29,0.51C25.61,0.51 24.86,0.48 24.26,0.44C23.66,0.4 23.15,0.33 22.66,0.24C22.17,0.16 21.72,0.05 21.32,-0.08C20.91,-0.21 20.55,-0.35 20.24,-0.52C19.92,-0.68 19.66,-0.86 19.44,-1.06C19.23,-1.26 19.07,-1.46 18.96,-1.71C18.85,-1.95 18.79,-2.25 18.79,-2.53C18.79,-2.8 18.85,-3.1 18.96,-3.35C19.07,-3.59 19.23,-3.8 19.44,-4C19.66,-4.19 19.92,-4.38 20.24,-4.54C20.55,-4.7 20.91,-4.85 21.32,-4.98C21.72,-5.1 22.17,-5.21 22.66,-5.3C23.15,-5.38 23.66,-5.45 24.26,-5.49C24.86,-5.54 25.61,-5.56 26.29,-5.56C26.97,-5.56 27.71,-5.54 28.32,-5.49C28.92,-5.45 29.43,-5.38 29.92,-5.3C30.41,-5.21 30.86,-5.1 31.26,-4.98C31.66,-4.85 32.03,-4.7 32.34,-4.54C32.65,-4.38 32.92,-4.19 33.14,-4C33.35,-3.8 33.51,-3.59 33.62,-3.35C33.73,-3.1 33.79,-2.8 33.79,-2.53Z" fill="none" stroke="#4B3326" stroke-width="2.16" stroke-linejoin="round"/><path d="M0,-51.55C0.64,-51.55 1.3,-52.46 1.93,-52.8C2.56,-53.14 3.19,-53.44 3.79,-53.58C4.39,-53.71 4.97,-53.72 5.53,-53.6C6.1,-53.49 6.64,-53.2 7.17,-52.88C7.7,-52.55 8.17,-51.73 8.74,-51.68C9.31,-51.63 10.01,-52.33 10.6,-52.56C11.2,-52.79 11.78,-53 12.31,-53.07C12.84,-53.14 13.33,-53.12 13.78,-52.99C14.22,-52.87 14.61,-52.61 14.99,-52.33C15.37,-52.05 15.72,-51.45 16.05,-51.3C16.38,-51.16 16.68,-51.43 16.97,-51.45C17.26,-51.47 17.54,-51.49 17.78,-51.44C18.03,-51.39 18.24,-51.3 18.44,-51.16C18.63,-51.03 18.78,-50.83 18.93,-50.63C19.07,-50.42 19.16,-50.07 19.31,-49.93C19.47,-49.78 19.68,-49.84 19.84,-49.76C20,-49.68 20.15,-49.6 20.27,-49.47C20.39,-49.34 20.48,-49.18 20.55,-48.99C20.62,-48.8 20.66,-48.56 20.69,-48.31C20.72,-48.06 20.63,-47.7 20.74,-47.51C20.84,-47.32 21.15,-47.29 21.32,-47.14C21.49,-46.99 21.65,-46.83 21.75,-46.61C21.86,-46.39 21.92,-46.13 21.95,-45.82C21.97,-45.51 21.94,-45.14 21.91,-44.75C21.87,-44.37 21.65,-43.82 21.71,-43.53C21.77,-43.24 22.12,-43.23 22.28,-43.04C22.43,-42.85 22.58,-42.64 22.65,-42.38C22.73,-42.12 22.75,-41.81 22.72,-41.46C22.7,-41.11 22.6,-40.69 22.49,-40.27C22.38,-39.85 22.06,-39.23 22.07,-38.92C22.09,-38.6 22.45,-38.58 22.58,-38.38C22.72,-38.18 22.85,-37.97 22.9,-37.71C22.95,-37.45 22.95,-37.16 22.89,-36.83C22.83,-36.5 22.71,-36.12 22.56,-35.73C22.42,-35.35 22.04,-34.82 22.04,-34.51C22.04,-34.2 22.43,-34.11 22.57,-33.89C22.7,-33.66 22.83,-33.43 22.88,-33.16C22.92,-32.89 22.91,-32.6 22.83,-32.27C22.76,-31.95 22.61,-31.59 22.44,-31.22C22.28,-30.85 21.84,-30.38 21.83,-30.07C21.82,-29.75 22.24,-29.59 22.39,-29.33C22.54,-29.08 22.67,-28.82 22.71,-28.53C22.76,-28.25 22.74,-27.95 22.66,-27.63C22.57,-27.32 22.4,-26.98 22.22,-26.63C22.03,-26.29 21.55,-25.88 21.55,-25.57C21.55,-25.25 22.03,-25.02 22.21,-24.74C22.4,-24.46 22.56,-24.18 22.65,-23.89C22.73,-23.61 22.74,-23.32 22.7,-23.02C22.65,-22.73 22.52,-22.43 22.37,-22.13C22.23,-21.83 21.74,-21.52 21.81,-21.22C21.89,-20.93 22.53,-20.65 22.84,-20.37C23.14,-20.09 23.42,-19.81 23.62,-19.54C23.82,-19.27 23.96,-19.01 24.03,-18.76C24.1,-18.51 24.08,-18.27 24.05,-18.03C24.02,-17.79 23.71,-17.59 23.84,-17.32C23.98,-17.05 24.56,-16.72 24.86,-16.43C25.16,-16.14 25.45,-15.86 25.65,-15.6C25.86,-15.34 26,-15.09 26.09,-14.86C26.17,-14.63 26.17,-14.43 26.16,-14.22C26.15,-14.02 25.92,-13.89 26.01,-13.64C26.1,-13.39 26.51,-13 26.71,-12.7C26.92,-12.41 27.11,-12.11 27.22,-11.85C27.34,-11.58 27.41,-11.33 27.42,-11.11C27.44,-10.88 27.38,-10.68 27.31,-10.49C27.24,-10.29 26.98,-10.18 27.01,-9.94C27.03,-9.7 27.33,-9.33 27.46,-9.05C27.58,-8.77 27.69,-8.49 27.74,-8.24C27.8,-7.99 27.8,-7.77 27.77,-7.56C27.73,-7.36 27.64,-7.19 27.53,-7.02C27.42,-6.85 27.16,-6.77 27.13,-6.56C27.1,-6.35 27.29,-6 27.34,-5.74C27.39,-5.49 27.43,-5.24 27.42,-5.02C27.4,-4.8 27.35,-4.6 27.27,-4.43C27.18,-4.26 27.04,-4.12 26.89,-3.98C26.75,-3.85 26.48,-3.8 26.38,-3.62C26.29,-3.45 26.35,-3.16 26.3,-2.95C26.26,-2.74 26.2,-2.53 26.1,-2.37C25.99,-2.2 25.86,-2.06 25.69,-1.94C25.52,-1.83 25.3,-1.75 25.07,-1.68C24.85,-1.6 24.53,-1.63 24.33,-1.51C24.14,-1.38 24.08,-1.1 23.9,-0.94C23.73,-0.77 23.55,-0.62 23.3,-0.53C23.05,-0.44 22.75,-0.4 22.41,-0.4C22.07,-0.4 21.66,-0.46 21.24,-0.53C20.81,-0.6 20.2,-0.87 19.88,-0.83C19.57,-0.8 19.55,-0.47 19.35,-0.33C19.14,-0.2 18.92,-0.08 18.64,-0.04C18.36,0.01 18.03,-0.01 17.66,-0.07C17.29,-0.14 16.86,-0.28 16.41,-0.43C15.97,-0.59 15.29,-0.95 14.99,-1C14.69,-1.05 14.75,-0.81 14.6,-0.75C14.46,-0.7 14.3,-0.65 14.12,-0.66C13.93,-0.66 13.71,-0.71 13.47,-0.8C13.23,-0.89 12.96,-1.03 12.67,-1.18C12.39,-1.34 12,-1.66 11.78,-1.72C11.56,-1.77 11.52,-1.54 11.36,-1.5C11.21,-1.45 11.06,-1.41 10.87,-1.43C10.68,-1.46 10.47,-1.52 10.24,-1.62C10.01,-1.73 9.75,-1.89 9.49,-2.07C9.22,-2.24 8.9,-2.63 8.65,-2.67C8.4,-2.7 8.24,-2.37 8.01,-2.27C7.79,-2.18 7.56,-2.1 7.3,-2.1C7.04,-2.1 6.76,-2.15 6.46,-2.27C6.16,-2.39 5.83,-2.59 5.5,-2.8C5.17,-3.01 4.78,-3.5 4.47,-3.54C4.16,-3.58 3.93,-3.15 3.65,-3.01C3.38,-2.87 3.1,-2.75 2.81,-2.72C2.52,-2.69 2.22,-2.72 1.91,-2.82C1.61,-2.92 1.29,-3.1 0.97,-3.31C0.65,-3.51 0.32,-4.03 0,-4.03C-0.32,-4.03 -0.65,-3.51 -0.97,-3.31C-1.29,-3.1 -1.61,-2.92 -1.91,-2.82C-2.22,-2.72 -2.52,-2.69 -2.81,-2.72C-3.1,-2.75 -3.38,-2.87 -3.65,-3.01C-3.93,-3.15 -4.16,-3.58 -4.47,-3.54C-4.78,-3.5 -5.17,-3.01 -5.5,-2.8C-5.83,-2.59 -6.16,-2.39 -6.46,-2.27C-6.76,-2.15 -7.04,-2.1 -7.3,-2.1C-7.56,-2.1 -7.79,-2.18 -8.01,-2.27C-8.24,-2.37 -8.4,-2.7 -8.65,-2.67C-8.9,-2.63 -9.22,-2.24 -9.49,-2.07C-9.75,-1.89 -10.01,-1.73 -10.24,-1.62C-10.47,-1.52 -10.68,-1.46 -10.87,-1.43C-11.06,-1.41 -11.21,-1.45 -11.36,-1.5C-11.52,-1.54 -11.56,-1.77 -11.78,-1.72C-12,-1.66 -12.39,-1.34 -12.67,-1.18C-12.96,-1.03 -13.23,-0.89 -13.47,-0.8C-13.71,-0.71 -13.93,-0.66 -14.12,-0.66C-14.3,-0.65 -14.46,-0.7 -14.6,-0.75C-14.75,-0.81 -14.69,-1.05 -14.99,-1C-15.29,-0.95 -15.97,-0.59 -16.41,-0.43C-16.86,-0.28 -17.29,-0.14 -17.66,-0.07C-18.03,-0.01 -18.36,0.01 -18.64,-0.04C-18.92,-0.08 -19.14,-0.2 -19.35,-0.33C-19.55,-0.47 -19.57,-0.8 -19.88,-0.83C-20.2,-0.87 -20.81,-0.6 -21.24,-0.53C-21.66,-0.46 -22.07,-0.4 -22.41,-0.4C-22.75,-0.4 -23.05,-0.44 -23.3,-0.53C-23.55,-0.62 -23.73,-0.77 -23.9,-0.94C-24.08,-1.1 -24.14,-1.38 -24.33,-1.51C-24.53,-1.63 -24.85,-1.6 -25.07,-1.68C-25.3,-1.75 -25.52,-1.83 -25.69,-1.94C-25.86,-2.06 -25.99,-2.2 -26.1,-2.37C-26.2,-2.53 -26.26,-2.74 -26.3,-2.95C-26.35,-3.16 -26.29,-3.45 -26.38,-3.62C-26.48,-3.8 -26.75,-3.85 -26.89,-3.98C-27.04,-4.12 -27.18,-4.26 -27.27,-4.43C-27.35,-4.6 -27.4,-4.8 -27.42,-5.02C-27.43,-5.24 -27.39,-5.49 -27.34,-5.74C-27.29,-6 -27.1,-6.35 -27.13,-6.56C-27.16,-6.77 -27.42,-6.85 -27.53,-7.02C-27.64,-7.19 -27.73,-7.36 -27.77,-7.56C-27.8,-7.77 -27.8,-7.99 -27.74,-8.24C-27.69,-8.49 -27.58,-8.77 -27.46,-9.05C-27.33,-9.33 -27.03,-9.7 -27.01,-9.94C-26.98,-10.18 -27.24,-10.29 -27.31,-10.49C-27.38,-10.68 -27.44,-10.88 -27.42,-11.11C-27.41,-11.33 -27.34,-11.58 -27.22,-11.85C-27.11,-12.11 -26.92,-12.41 -26.71,-12.7C-26.51,-13 -26.1,-13.39 -26.01,-13.64C-25.92,-13.89 -26.15,-14.02 -26.16,-14.22C-26.17,-14.43 -26.17,-14.63 -26.09,-14.86C-26,-15.09 -25.86,-15.34 -25.65,-15.6C-25.45,-15.86 -25.16,-16.14 -24.86,-16.43C-24.56,-16.72 -23.98,-17.05 -23.84,-17.32C-23.71,-17.59 -24.02,-17.79 -24.05,-18.03C-24.08,-18.27 -24.1,-18.51 -24.03,-18.76C-23.96,-19.01 -23.82,-19.27 -23.62,-19.54C-23.42,-19.81 -23.14,-20.09 -22.84,-20.37C-22.53,-20.65 -21.89,-20.93 -21.81,-21.22C-21.74,-21.52 -22.23,-21.83 -22.37,-22.13C-22.52,-22.43 -22.65,-22.73 -22.7,-23.02C-22.74,-23.32 -22.73,-23.61 -22.65,-23.89C-22.56,-24.18 -22.4,-24.46 -22.21,-24.74C-22.03,-25.02 -21.55,-25.25 -21.55,-25.57C-21.55,-25.88 -22.03,-26.29 -22.22,-26.63C-22.4,-26.98 -22.57,-27.32 -22.66,-27.63C-22.74,-27.95 -22.76,-28.25 -22.71,-28.53C-22.67,-28.82 -22.54,-29.08 -22.39,-29.33C-22.24,-29.59 -21.82,-29.75 -21.83,-30.07C-21.84,-30.38 -22.28,-30.85 -22.44,-31.22C-22.61,-31.59 -22.76,-31.95 -22.83,-32.27C-22.91,-32.6 -22.92,-32.89 -22.88,-33.16C-22.83,-33.43 -22.7,-33.66 -22.57,-33.89C-22.43,-34.11 -22.04,-34.2 -22.04,-34.51C-22.04,-34.82 -22.42,-35.35 -22.56,-35.73C-22.71,-36.12 -22.83,-36.5 -22.89,-36.83C-22.95,-37.16 -22.95,-37.45 -22.9,-37.71C-22.85,-37.97 -22.72,-38.18 -22.58,-38.38C-22.45,-38.58 -22.09,-38.6 -22.07,-38.92C-22.06,-39.23 -22.38,-39.85 -22.49,-40.27C-22.6,-40.69 -22.7,-41.11 -22.72,-41.46C-22.75,-41.81 -22.73,-42.12 -22.65,-42.38C-22.58,-42.64 -22.43,-42.85 -22.28,-43.04C-22.12,-43.23 -21.77,-43.24 -21.71,-43.53C-21.65,-43.82 -21.87,-44.37 -21.91,-44.75C-21.94,-45.14 -21.97,-45.51 -21.95,-45.82C-21.92,-46.13 -21.86,-46.39 -21.75,-46.61C-21.65,-46.83 -21.49,-46.99 -21.32,-47.14C-21.15,-47.29 -20.84,-47.32 -20.74,-47.51C-20.63,-47.7 -20.72,-48.06 -20.69,-48.31C-20.66,-48.56 -20.62,-48.8 -20.55,-48.99C-20.48,-49.18 -20.39,-49.34 -20.27,-49.47C-20.15,-49.6 -20,-49.68 -19.84,-49.76C-19.68,-49.84 -19.47,-49.78 -19.31,-49.93C-19.16,-50.07 -19.07,-50.42 -18.93,-50.63C-18.78,-50.83 -18.63,-51.03 -18.44,-51.16C-18.24,-51.3 -18.03,-51.39 -17.78,-51.44C-17.54,-51.49 -17.26,-51.47 -16.97,-51.45C-16.68,-51.43 -16.38,-51.16 -16.05,-51.3C-15.72,-51.45 -15.37,-52.05 -14.99,-52.33C-14.61,-52.61 -14.22,-52.87 -13.78,-52.99C-13.33,-53.12 -12.84,-53.14 -12.31,-53.07C-11.78,-53 -11.2,-52.79 -10.6,-52.56C-10.01,-52.33 -9.31,-51.63 -8.74,-51.68C-8.17,-51.73 -7.7,-52.55 -7.17,-52.88C-6.64,-53.2 -6.1,-53.49 -5.53,-53.6C-4.97,-53.72 -4.39,-53.71 -3.79,-53.58C-3.19,-53.44 -2.56,-53.14 -1.93,-52.8C-1.3,-52.46 -0.64,-51.55 0,-51.55Z" fill="#F5E2BF"/><g clip-path="url(#c-k2)"></g><path d="M0,-51.55C0.64,-51.55 1.3,-52.46 1.93,-52.8C2.56,-53.14 3.19,-53.44 3.79,-53.58C4.39,-53.71 4.97,-53.72 5.53,-53.6C6.1,-53.49 6.64,-53.2 7.17,-52.88C7.7,-52.55 8.17,-51.73 8.74,-51.68C9.31,-51.63 10.01,-52.33 10.6,-52.56C11.2,-52.79 11.78,-53 12.31,-53.07C12.84,-53.14 13.33,-53.12 13.78,-52.99C14.22,-52.87 14.61,-52.61 14.99,-52.33C15.37,-52.05 15.72,-51.45 16.05,-51.3C16.38,-51.16 16.68,-51.43 16.97,-51.45C17.26,-51.47 17.54,-51.49 17.78,-51.44C18.03,-51.39 18.24,-51.3 18.44,-51.16C18.63,-51.03 18.78,-50.83 18.93,-50.63C19.07,-50.42 19.16,-50.07 19.31,-49.93C19.47,-49.78 19.68,-49.84 19.84,-49.76C20,-49.68 20.15,-49.6 20.27,-49.47C20.39,-49.34 20.48,-49.18 20.55,-48.99C20.62,-48.8 20.66,-48.56 20.69,-48.31C20.72,-48.06 20.63,-47.7 20.74,-47.51C20.84,-47.32 21.15,-47.29 21.32,-47.14C21.49,-46.99 21.65,-46.83 21.75,-46.61C21.86,-46.39 21.92,-46.13 21.95,-45.82C21.97,-45.51 21.94,-45.14 21.91,-44.75C21.87,-44.37 21.65,-43.82 21.71,-43.53C21.77,-43.24 22.12,-43.23 22.28,-43.04C22.43,-42.85 22.58,-42.64 22.65,-42.38C22.73,-42.12 22.75,-41.81 22.72,-41.46C22.7,-41.11 22.6,-40.69 22.49,-40.27C22.38,-39.85 22.06,-39.23 22.07,-38.92C22.09,-38.6 22.45,-38.58 22.58,-38.38C22.72,-38.18 22.85,-37.97 22.9,-37.71C22.95,-37.45 22.95,-37.16 22.89,-36.83C22.83,-36.5 22.71,-36.12 22.56,-35.73C22.42,-35.35 22.04,-34.82 22.04,-34.51C22.04,-34.2 22.43,-34.11 22.57,-33.89C22.7,-33.66 22.83,-33.43 22.88,-33.16C22.92,-32.89 22.91,-32.6 22.83,-32.27C22.76,-31.95 22.61,-31.59 22.44,-31.22C22.28,-30.85 21.84,-30.38 21.83,-30.07C21.82,-29.75 22.24,-29.59 22.39,-29.33C22.54,-29.08 22.67,-28.82 22.71,-28.53C22.76,-28.25 22.74,-27.95 22.66,-27.63C22.57,-27.32 22.4,-26.98 22.22,-26.63C22.03,-26.29 21.55,-25.88 21.55,-25.57C21.55,-25.25 22.03,-25.02 22.21,-24.74C22.4,-24.46 22.56,-24.18 22.65,-23.89C22.73,-23.61 22.74,-23.32 22.7,-23.02C22.65,-22.73 22.52,-22.43 22.37,-22.13C22.23,-21.83 21.74,-21.52 21.81,-21.22C21.89,-20.93 22.53,-20.65 22.84,-20.37C23.14,-20.09 23.42,-19.81 23.62,-19.54C23.82,-19.27 23.96,-19.01 24.03,-18.76C24.1,-18.51 24.08,-18.27 24.05,-18.03C24.02,-17.79 23.71,-17.59 23.84,-17.32C23.98,-17.05 24.56,-16.72 24.86,-16.43C25.16,-16.14 25.45,-15.86 25.65,-15.6C25.86,-15.34 26,-15.09 26.09,-14.86C26.17,-14.63 26.17,-14.43 26.16,-14.22C26.15,-14.02 25.92,-13.89 26.01,-13.64C26.1,-13.39 26.51,-13 26.71,-12.7C26.92,-12.41 27.11,-12.11 27.22,-11.85C27.34,-11.58 27.41,-11.33 27.42,-11.11C27.44,-10.88 27.38,-10.68 27.31,-10.49C27.24,-10.29 26.98,-10.18 27.01,-9.94C27.03,-9.7 27.33,-9.33 27.46,-9.05C27.58,-8.77 27.69,-8.49 27.74,-8.24C27.8,-7.99 27.8,-7.77 27.77,-7.56C27.73,-7.36 27.64,-7.19 27.53,-7.02C27.42,-6.85 27.16,-6.77 27.13,-6.56C27.1,-6.35 27.29,-6 27.34,-5.74C27.39,-5.49 27.43,-5.24 27.42,-5.02C27.4,-4.8 27.35,-4.6 27.27,-4.43C27.18,-4.26 27.04,-4.12 26.89,-3.98C26.75,-3.85 26.48,-3.8 26.38,-3.62C26.29,-3.45 26.35,-3.16 26.3,-2.95C26.26,-2.74 26.2,-2.53 26.1,-2.37C25.99,-2.2 25.86,-2.06 25.69,-1.94C25.52,-1.83 25.3,-1.75 25.07,-1.68C24.85,-1.6 24.53,-1.63 24.33,-1.51C24.14,-1.38 24.08,-1.1 23.9,-0.94C23.73,-0.77 23.55,-0.62 23.3,-0.53C23.05,-0.44 22.75,-0.4 22.41,-0.4C22.07,-0.4 21.66,-0.46 21.24,-0.53C20.81,-0.6 20.2,-0.87 19.88,-0.83C19.57,-0.8 19.55,-0.47 19.35,-0.33C19.14,-0.2 18.92,-0.08 18.64,-0.04C18.36,0.01 18.03,-0.01 17.66,-0.07C17.29,-0.14 16.86,-0.28 16.41,-0.43C15.97,-0.59 15.29,-0.95 14.99,-1C14.69,-1.05 14.75,-0.81 14.6,-0.75C14.46,-0.7 14.3,-0.65 14.12,-0.66C13.93,-0.66 13.71,-0.71 13.47,-0.8C13.23,-0.89 12.96,-1.03 12.67,-1.18C12.39,-1.34 12,-1.66 11.78,-1.72C11.56,-1.77 11.52,-1.54 11.36,-1.5C11.21,-1.45 11.06,-1.41 10.87,-1.43C10.68,-1.46 10.47,-1.52 10.24,-1.62C10.01,-1.73 9.75,-1.89 9.49,-2.07C9.22,-2.24 8.9,-2.63 8.65,-2.67C8.4,-2.7 8.24,-2.37 8.01,-2.27C7.79,-2.18 7.56,-2.1 7.3,-2.1C7.04,-2.1 6.76,-2.15 6.46,-2.27C6.16,-2.39 5.83,-2.59 5.5,-2.8C5.17,-3.01 4.78,-3.5 4.47,-3.54C4.16,-3.58 3.93,-3.15 3.65,-3.01C3.38,-2.87 3.1,-2.75 2.81,-2.72C2.52,-2.69 2.22,-2.72 1.91,-2.82C1.61,-2.92 1.29,-3.1 0.97,-3.31C0.65,-3.51 0.32,-4.03 0,-4.03C-0.32,-4.03 -0.65,-3.51 -0.97,-3.31C-1.29,-3.1 -1.61,-2.92 -1.91,-2.82C-2.22,-2.72 -2.52,-2.69 -2.81,-2.72C-3.1,-2.75 -3.38,-2.87 -3.65,-3.01C-3.93,-3.15 -4.16,-3.58 -4.47,-3.54C-4.78,-3.5 -5.17,-3.01 -5.5,-2.8C-5.83,-2.59 -6.16,-2.39 -6.46,-2.27C-6.76,-2.15 -7.04,-2.1 -7.3,-2.1C-7.56,-2.1 -7.79,-2.18 -8.01,-2.27C-8.24,-2.37 -8.4,-2.7 -8.65,-2.67C-8.9,-2.63 -9.22,-2.24 -9.49,-2.07C-9.75,-1.89 -10.01,-1.73 -10.24,-1.62C-10.47,-1.52 -10.68,-1.46 -10.87,-1.43C-11.06,-1.41 -11.21,-1.45 -11.36,-1.5C-11.52,-1.54 -11.56,-1.77 -11.78,-1.72C-12,-1.66 -12.39,-1.34 -12.67,-1.18C-12.96,-1.03 -13.23,-0.89 -13.47,-0.8C-13.71,-0.71 -13.93,-0.66 -14.12,-0.66C-14.3,-0.65 -14.46,-0.7 -14.6,-0.75C-14.75,-0.81 -14.69,-1.05 -14.99,-1C-15.29,-0.95 -15.97,-0.59 -16.41,-0.43C-16.86,-0.28 -17.29,-0.14 -17.66,-0.07C-18.03,-0.01 -18.36,0.01 -18.64,-0.04C-18.92,-0.08 -19.14,-0.2 -19.35,-0.33C-19.55,-0.47 -19.57,-0.8 -19.88,-0.83C-20.2,-0.87 -20.81,-0.6 -21.24,-0.53C-21.66,-0.46 -22.07,-0.4 -22.41,-0.4C-22.75,-0.4 -23.05,-0.44 -23.3,-0.53C-23.55,-0.62 -23.73,-0.77 -23.9,-0.94C-24.08,-1.1 -24.14,-1.38 -24.33,-1.51C-24.53,-1.63 -24.85,-1.6 -25.07,-1.68C-25.3,-1.75 -25.52,-1.83 -25.69,-1.94C-25.86,-2.06 -25.99,-2.2 -26.1,-2.37C-26.2,-2.53 -26.26,-2.74 -26.3,-2.95C-26.35,-3.16 -26.29,-3.45 -26.38,-3.62C-26.48,-3.8 -26.75,-3.85 -26.89,-3.98C-27.04,-4.12 -27.18,-4.26 -27.27,-4.43C-27.35,-4.6 -27.4,-4.8 -27.42,-5.02C-27.43,-5.24 -27.39,-5.49 -27.34,-5.74C-27.29,-6 -27.1,-6.35 -27.13,-6.56C-27.16,-6.77 -27.42,-6.85 -27.53,-7.02C-27.64,-7.19 -27.73,-7.36 -27.77,-7.56C-27.8,-7.77 -27.8,-7.99 -27.74,-8.24C-27.69,-8.49 -27.58,-8.77 -27.46,-9.05C-27.33,-9.33 -27.03,-9.7 -27.01,-9.94C-26.98,-10.18 -27.24,-10.29 -27.31,-10.49C-27.38,-10.68 -27.44,-10.88 -27.42,-11.11C-27.41,-11.33 -27.34,-11.58 -27.22,-11.85C-27.11,-12.11 -26.92,-12.41 -26.71,-12.7C-26.51,-13 -26.1,-13.39 -26.01,-13.64C-25.92,-13.89 -26.15,-14.02 -26.16,-14.22C-26.17,-14.43 -26.17,-14.63 -26.09,-14.86C-26,-15.09 -25.86,-15.34 -25.65,-15.6C-25.45,-15.86 -25.16,-16.14 -24.86,-16.43C-24.56,-16.72 -23.98,-17.05 -23.84,-17.32C-23.71,-17.59 -24.02,-17.79 -24.05,-18.03C-24.08,-18.27 -24.1,-18.51 -24.03,-18.76C-23.96,-19.01 -23.82,-19.27 -23.62,-19.54C-23.42,-19.81 -23.14,-20.09 -22.84,-20.37C-22.53,-20.65 -21.89,-20.93 -21.81,-21.22C-21.74,-21.52 -22.23,-21.83 -22.37,-22.13C-22.52,-22.43 -22.65,-22.73 -22.7,-23.02C-22.74,-23.32 -22.73,-23.61 -22.65,-23.89C-22.56,-24.18 -22.4,-24.46 -22.21,-24.74C-22.03,-25.02 -21.55,-25.25 -21.55,-25.57C-21.55,-25.88 -22.03,-26.29 -22.22,-26.63C-22.4,-26.98 -22.57,-27.32 -22.66,-27.63C-22.74,-27.95 -22.76,-28.25 -22.71,-28.53C-22.67,-28.82 -22.54,-29.08 -22.39,-29.33C-22.24,-29.59 -21.82,-29.75 -21.83,-30.07C-21.84,-30.38 -22.28,-30.85 -22.44,-31.22C-22.61,-31.59 -22.76,-31.95 -22.83,-32.27C-22.91,-32.6 -22.92,-32.89 -22.88,-33.16C-22.83,-33.43 -22.7,-33.66 -22.57,-33.89C-22.43,-34.11 -22.04,-34.2 -22.04,-34.51C-22.04,-34.82 -22.42,-35.35 -22.56,-35.73C-22.71,-36.12 -22.83,-36.5 -22.89,-36.83C-22.95,-37.16 -22.95,-37.45 -22.9,-37.71C-22.85,-37.97 -22.72,-38.18 -22.58,-38.38C-22.45,-38.58 -22.09,-38.6 -22.07,-38.92C-22.06,-39.23 -22.38,-39.85 -22.49,-40.27C-22.6,-40.69 -22.7,-41.11 -22.72,-41.46C-22.75,-41.81 -22.73,-42.12 -22.65,-42.38C-22.58,-42.64 -22.43,-42.85 -22.28,-43.04C-22.12,-43.23 -21.77,-43.24 -21.71,-43.53C-21.65,-43.82 -21.87,-44.37 -21.91,-44.75C-21.94,-45.14 -21.97,-45.51 -21.95,-45.82C-21.92,-46.13 -21.86,-46.39 -21.75,-46.61C-21.65,-46.83 -21.49,-46.99 -21.32,-47.14C-21.15,-47.29 -20.84,-47.32 -20.74,-47.51C-20.63,-47.7 -20.72,-48.06 -20.69,-48.31C-20.66,-48.56 -20.62,-48.8 -20.55,-48.99C-20.48,-49.18 -20.39,-49.34 -20.27,-49.47C-20.15,-49.6 -20,-49.68 -19.84,-49.76C-19.68,-49.84 -19.47,-49.78 -19.31,-49.93C-19.16,-50.07 -19.07,-50.42 -18.93,-50.63C-18.78,-50.83 -18.63,-51.03 -18.44,-51.16C-18.24,-51.3 -18.03,-51.39 -17.78,-51.44C-17.54,-51.49 -17.26,-51.47 -16.97,-51.45C-16.68,-51.43 -16.38,-51.16 -16.05,-51.3C-15.72,-51.45 -15.37,-52.05 -14.99,-52.33C-14.61,-52.61 -14.22,-52.87 -13.78,-52.99C-13.33,-53.12 -12.84,-53.14 -12.31,-53.07C-11.78,-53 -11.2,-52.79 -10.6,-52.56C-10.01,-52.33 -9.31,-51.63 -8.74,-51.68C-8.17,-51.73 -7.7,-52.55 -7.17,-52.88C-6.64,-53.2 -6.1,-53.49 -5.53,-53.6C-4.97,-53.72 -4.39,-53.71 -3.79,-53.58C-3.19,-53.44 -2.56,-53.14 -1.93,-52.8C-1.3,-52.46 -0.64,-51.55 0,-51.55Z" fill="none" stroke="#4B3326" stroke-width="2.4" stroke-linejoin="round"/><path d="M-19.61,-17.18C-19.13,-16.08 -16.82,-12.88 -16.72,-10.61C-16.63,-8.33 -18.65,-4.71 -19.03,-3.53" fill="none" stroke="#4B3326" stroke-width="1.92" stroke-linecap="round" stroke-linejoin="round" opacity="1"/><path d="M19.61,-17.18C19.13,-16.08 16.82,-12.88 16.72,-10.61C16.63,-8.33 18.65,-4.71 19.03,-3.53" fill="none" stroke="#4B3326" stroke-width="1.92" stroke-linecap="round" stroke-linejoin="round" opacity="1"/><path d="M-9.69,-30.32C-8.69,-32.04 -4.96,-32.04 -4.15,-30.32C-3.35,-28.61 -4.7,-21.88 -4.87,-20.03C-5.03,-18.18 -4.31,-19.34 -5.14,-19.2C-5.97,-19.06 -9.02,-19.06 -9.85,-19.2C-10.68,-19.34 -10.15,-18.18 -10.13,-20.03C-10.1,-21.88 -10.68,-28.61 -9.69,-30.32Z" fill="#F5E2BF"/><g clip-path="url(#c-k3)"><rect x="-37.4964434688" y="-21.690698309632" width="60" height="6.491125829632001" fill="#5A4038"/><rect x="-37.4964434688" y="-21.690698309632" width="60" height="1" fill="#5A4038"/></g><path d="M-9.69,-30.32C-8.69,-32.04 -4.96,-32.04 -4.15,-30.32C-3.35,-28.61 -4.7,-21.88 -4.87,-20.03C-5.03,-18.18 -4.31,-19.34 -5.14,-19.2C-5.97,-19.06 -9.02,-19.06 -9.85,-19.2C-10.68,-19.34 -10.15,-18.18 -10.13,-20.03C-10.1,-21.88 -10.68,-28.61 -9.69,-30.32Z" fill="none" stroke="#4B3326" stroke-width="2.16" stroke-linejoin="round"/><path d="M4.15,-30.32C4.96,-32.04 8.69,-32.04 9.69,-30.32C10.68,-28.61 10.1,-21.88 10.13,-20.03C10.15,-18.18 10.68,-19.34 9.85,-19.2C9.02,-19.06 5.97,-19.06 5.14,-19.2C4.31,-19.34 5.03,-18.18 4.87,-20.03C4.7,-21.88 3.35,-28.61 4.15,-30.32Z" fill="#F5E2BF"/><g clip-path="url(#c-k4)"><rect x="-22.503556531199997" y="-21.690698309632" width="60" height="6.491125829632001" fill="#5A4038"/><rect x="-22.503556531199997" y="-21.690698309632" width="60" height="1" fill="#5A4038"/></g><path d="M4.15,-30.32C4.96,-32.04 8.69,-32.04 9.69,-30.32C10.68,-28.61 10.1,-21.88 10.13,-20.03C10.15,-18.18 10.68,-19.34 9.85,-19.2C9.02,-19.06 5.97,-19.06 5.14,-19.2C4.31,-19.34 5.03,-18.18 4.87,-20.03C4.7,-21.88 3.35,-28.61 4.15,-30.32Z" fill="none" stroke="#4B3326" stroke-width="2.16" stroke-linejoin="round"/><path d="M-20.19,-73.17C-20.41,-74.14 -21.39,-75.27 -21.88,-75.84C-22.36,-76.41 -22.73,-76.42 -23.13,-76.59C-23.53,-76.76 -23.9,-76.82 -24.27,-76.86C-24.64,-76.89 -25,-76.87 -25.35,-76.82C-25.7,-76.78 -26.04,-76.69 -26.38,-76.58C-26.71,-76.47 -27.04,-76.33 -27.37,-76.17C-27.69,-76.01 -28.01,-75.83 -28.33,-75.63C-28.65,-75.44 -28.96,-75.22 -29.27,-75C-29.59,-74.77 -29.89,-74.53 -30.2,-74.29C-30.5,-74.04 -30.81,-73.78 -31.11,-73.51C-31.41,-73.25 -31.71,-72.97 -32.01,-72.69C-32.31,-72.41 -32.61,-72.12 -32.9,-71.83C-33.2,-71.54 -33.49,-71.25 -33.78,-70.93C-34.07,-70.61 -34.7,-70.19 -34.64,-69.93C-34.59,-69.68 -33.84,-69.56 -33.44,-69.4C-33.04,-69.24 -32.65,-69.1 -32.26,-68.96C-31.87,-68.82 -31.48,-68.69 -31.09,-68.56C-30.7,-68.44 -30.31,-68.31 -29.92,-68.2C-29.54,-68.09 -29.15,-67.98 -28.77,-67.89C-28.39,-67.8 -28.01,-67.71 -27.63,-67.64C-27.25,-67.57 -26.88,-67.51 -26.51,-67.47C-26.14,-67.42 -25.77,-67.39 -25.41,-67.39C-25.04,-67.39 -24.68,-67.4 -24.33,-67.44C-23.98,-67.49 -23.63,-67.55 -23.3,-67.66C-22.96,-67.77 -22.63,-67.9 -22.31,-68.09C-21.99,-68.28 -21.68,-68.5 -21.39,-68.82C-21.1,-69.14 -20.77,-69.3 -20.58,-70.03C-20.38,-70.75 -19.98,-72.2 -20.19,-73.17Z" fill="#F5E2BF" stroke="#4B3326" stroke-width="2.4" stroke-linejoin="round"/><path d="M-23.37,-72.45C-23.48,-72.94 -24.04,-73.49 -24.32,-73.77C-24.6,-74.05 -24.81,-74.04 -25.05,-74.12C-25.28,-74.2 -25.5,-74.22 -25.72,-74.23C-25.94,-74.24 -26.15,-74.22 -26.36,-74.19C-26.57,-74.16 -26.78,-74.11 -26.98,-74.05C-27.18,-73.98 -27.38,-73.9 -27.58,-73.82C-27.78,-73.73 -27.97,-73.63 -28.16,-73.53C-28.36,-73.42 -28.55,-73.31 -28.74,-73.19C-28.93,-73.07 -29.12,-72.94 -29.3,-72.81C-29.49,-72.68 -29.68,-72.54 -29.86,-72.4C-30.05,-72.26 -30.23,-72.11 -30.42,-71.96C-30.6,-71.82 -30.78,-71.66 -30.96,-71.51C-31.15,-71.36 -31.33,-71.2 -31.51,-71.04C-31.69,-70.87 -32.07,-70.64 -32.04,-70.52C-32.01,-70.39 -31.57,-70.35 -31.34,-70.27C-31.11,-70.2 -30.88,-70.14 -30.64,-70.08C-30.41,-70.01 -30.18,-69.95 -29.95,-69.9C-29.73,-69.84 -29.5,-69.79 -29.27,-69.74C-29.04,-69.69 -28.81,-69.65 -28.59,-69.61C-28.36,-69.57 -28.14,-69.53 -27.92,-69.51C-27.69,-69.48 -27.47,-69.46 -27.25,-69.44C-27.03,-69.43 -26.81,-69.42 -26.6,-69.43C-26.38,-69.44 -26.17,-69.45 -25.96,-69.48C-25.75,-69.51 -25.54,-69.55 -25.34,-69.61C-25.13,-69.67 -24.93,-69.74 -24.74,-69.85C-24.55,-69.95 -24.36,-70.07 -24.18,-70.24C-24,-70.4 -23.8,-70.49 -23.67,-70.86C-23.53,-71.23 -23.26,-71.97 -23.37,-72.45Z" fill="#F6BDB4"/><path d="M20.19,-73.17C19.98,-72.2 20.38,-70.75 20.58,-70.03C20.77,-69.3 21.1,-69.14 21.39,-68.82C21.68,-68.5 21.99,-68.28 22.31,-68.09C22.63,-67.9 22.96,-67.77 23.3,-67.66C23.63,-67.55 23.98,-67.49 24.33,-67.44C24.68,-67.4 25.04,-67.39 25.41,-67.39C25.77,-67.39 26.14,-67.42 26.51,-67.47C26.88,-67.51 27.25,-67.57 27.63,-67.64C28.01,-67.71 28.39,-67.8 28.77,-67.89C29.15,-67.98 29.54,-68.09 29.92,-68.2C30.31,-68.31 30.7,-68.44 31.09,-68.56C31.48,-68.69 31.87,-68.82 32.26,-68.96C32.65,-69.1 33.04,-69.24 33.44,-69.4C33.84,-69.56 34.59,-69.68 34.64,-69.93C34.7,-70.19 34.07,-70.61 33.78,-70.93C33.49,-71.25 33.2,-71.54 32.9,-71.83C32.61,-72.12 32.31,-72.41 32.01,-72.69C31.71,-72.97 31.41,-73.25 31.11,-73.51C30.81,-73.78 30.5,-74.04 30.2,-74.29C29.89,-74.53 29.59,-74.77 29.27,-75C28.96,-75.22 28.65,-75.44 28.33,-75.63C28.01,-75.83 27.69,-76.01 27.37,-76.17C27.04,-76.33 26.71,-76.47 26.38,-76.58C26.04,-76.69 25.7,-76.78 25.35,-76.82C25,-76.87 24.64,-76.89 24.27,-76.86C23.9,-76.82 23.53,-76.76 23.13,-76.59C22.73,-76.42 22.36,-76.41 21.88,-75.84C21.39,-75.27 20.41,-74.14 20.19,-73.17Z" fill="#F5E2BF" stroke="#4B3326" stroke-width="2.4" stroke-linejoin="round"/><path d="M23.37,-72.45C23.26,-71.97 23.53,-71.23 23.67,-70.86C23.8,-70.49 24,-70.4 24.18,-70.24C24.36,-70.07 24.55,-69.95 24.74,-69.85C24.93,-69.74 25.13,-69.67 25.34,-69.61C25.54,-69.55 25.75,-69.51 25.96,-69.48C26.17,-69.45 26.38,-69.44 26.6,-69.43C26.81,-69.42 27.03,-69.43 27.25,-69.44C27.47,-69.46 27.69,-69.48 27.92,-69.51C28.14,-69.53 28.36,-69.57 28.59,-69.61C28.81,-69.65 29.04,-69.69 29.27,-69.74C29.5,-69.79 29.73,-69.84 29.95,-69.9C30.18,-69.95 30.41,-70.01 30.64,-70.08C30.88,-70.14 31.11,-70.2 31.34,-70.27C31.57,-70.35 32.01,-70.39 32.04,-70.52C32.07,-70.64 31.69,-70.87 31.51,-71.04C31.33,-71.2 31.15,-71.36 30.96,-71.51C30.78,-71.66 30.6,-71.82 30.42,-71.96C30.23,-72.11 30.05,-72.26 29.86,-72.4C29.68,-72.54 29.49,-72.68 29.3,-72.81C29.12,-72.94 28.93,-73.07 28.74,-73.19C28.55,-73.31 28.36,-73.42 28.16,-73.53C27.97,-73.63 27.78,-73.73 27.58,-73.82C27.38,-73.9 27.18,-73.98 26.98,-74.05C26.78,-74.11 26.57,-74.16 26.36,-74.19C26.15,-74.22 25.94,-74.24 25.72,-74.23C25.5,-74.22 25.28,-74.2 25.05,-74.12C24.81,-74.04 24.6,-74.05 24.32,-73.77C24.04,-73.49 23.48,-72.94 23.37,-72.45Z" fill="#F6BDB4"/><path d="M-4.96,-83.92C-4.96,-83.71 -4.99,-83.49 -5.05,-83.29C-5.1,-83.1 -5.19,-82.91 -5.3,-82.75C-5.41,-82.59 -5.55,-82.43 -5.7,-82.31C-5.85,-82.18 -6.03,-82.08 -6.22,-82C-6.41,-81.92 -6.62,-81.86 -6.83,-81.84C-7.05,-81.81 -7.31,-81.81 -7.53,-81.84C-7.74,-81.86 -7.95,-81.92 -8.14,-82C-8.33,-82.08 -8.51,-82.18 -8.66,-82.31C-8.81,-82.43 -8.95,-82.59 -9.06,-82.75C-9.17,-82.91 -9.25,-83.1 -9.31,-83.29C-9.37,-83.49 -9.4,-83.71 -9.4,-83.92C-9.4,-84.13 -9.37,-84.36 -9.31,-84.55C-9.25,-84.75 -9.17,-84.93 -9.06,-85.09C-8.95,-85.26 -8.81,-85.41 -8.66,-85.53C-8.51,-85.66 -8.33,-85.77 -8.14,-85.85C-7.95,-85.92 -7.74,-85.98 -7.53,-86.01C-7.31,-86.03 -7.05,-86.03 -6.83,-86.01C-6.62,-85.98 -6.41,-85.92 -6.22,-85.85C-6.03,-85.77 -5.85,-85.66 -5.7,-85.53C-5.55,-85.41 -5.41,-85.26 -5.3,-85.09C-5.19,-84.93 -5.1,-84.75 -5.05,-84.55C-4.99,-84.36 -4.96,-84.13 -4.96,-83.92Z" fill="#FFF1CF"/><g clip-path="url(#c-k5)"><ellipse cx="-7.179801376849922" cy="-86.36021236138798" rx="2.4384400426126547" ry="1.5517345725716893" fill="#E6C98F" opacity="0.55"/></g><path d="M-4.96,-83.92C-4.96,-83.71 -4.99,-83.49 -5.05,-83.29C-5.1,-83.1 -5.19,-82.91 -5.3,-82.75C-5.41,-82.59 -5.55,-82.43 -5.7,-82.31C-5.85,-82.18 -6.03,-82.08 -6.22,-82C-6.41,-81.92 -6.62,-81.86 -6.83,-81.84C-7.05,-81.81 -7.31,-81.81 -7.53,-81.84C-7.74,-81.86 -7.95,-81.92 -8.14,-82C-8.33,-82.08 -8.51,-82.18 -8.66,-82.31C-8.81,-82.43 -8.95,-82.59 -9.06,-82.75C-9.17,-82.91 -9.25,-83.1 -9.31,-83.29C-9.37,-83.49 -9.4,-83.71 -9.4,-83.92C-9.4,-84.13 -9.37,-84.36 -9.31,-84.55C-9.25,-84.75 -9.17,-84.93 -9.06,-85.09C-8.95,-85.26 -8.81,-85.41 -8.66,-85.53C-8.51,-85.66 -8.33,-85.77 -8.14,-85.85C-7.95,-85.92 -7.74,-85.98 -7.53,-86.01C-7.31,-86.03 -7.05,-86.03 -6.83,-86.01C-6.62,-85.98 -6.41,-85.92 -6.22,-85.85C-6.03,-85.77 -5.85,-85.66 -5.7,-85.53C-5.55,-85.41 -5.41,-85.26 -5.3,-85.09C-5.19,-84.93 -5.1,-84.75 -5.05,-84.55C-4.99,-84.36 -4.96,-84.13 -4.96,-83.92Z" fill="none" stroke="#4B3326" stroke-width="2.04" stroke-linejoin="round"/><path d="M9.4,-83.92C9.4,-83.71 9.37,-83.49 9.31,-83.29C9.25,-83.1 9.17,-82.91 9.06,-82.75C8.95,-82.59 8.81,-82.43 8.66,-82.31C8.51,-82.18 8.33,-82.08 8.14,-82C7.95,-81.92 7.74,-81.86 7.53,-81.84C7.31,-81.81 7.05,-81.81 6.83,-81.84C6.62,-81.86 6.41,-81.92 6.22,-82C6.03,-82.08 5.85,-82.18 5.7,-82.31C5.55,-82.43 5.41,-82.59 5.3,-82.75C5.19,-82.91 5.1,-83.1 5.05,-83.29C4.99,-83.49 4.96,-83.71 4.96,-83.92C4.96,-84.13 4.99,-84.36 5.05,-84.55C5.1,-84.75 5.19,-84.93 5.3,-85.09C5.41,-85.26 5.55,-85.41 5.7,-85.53C5.85,-85.66 6.03,-85.77 6.22,-85.85C6.41,-85.92 6.62,-85.98 6.83,-86.01C7.05,-86.03 7.31,-86.03 7.53,-86.01C7.74,-85.98 7.95,-85.92 8.14,-85.85C8.33,-85.77 8.51,-85.66 8.66,-85.53C8.81,-85.41 8.95,-85.26 9.06,-85.09C9.17,-84.93 9.25,-84.75 9.31,-84.55C9.37,-84.36 9.4,-84.13 9.4,-83.92Z" fill="#FFF1CF"/><g clip-path="url(#c-k6)"><ellipse cx="7.179801376849922" cy="-86.36021236138798" rx="2.4384400426126547" ry="1.5517345725716893" fill="#E6C98F" opacity="0.55"/></g><path d="M9.4,-83.92C9.4,-83.71 9.37,-83.49 9.31,-83.29C9.25,-83.1 9.17,-82.91 9.06,-82.75C8.95,-82.59 8.81,-82.43 8.66,-82.31C8.51,-82.18 8.33,-82.08 8.14,-82C7.95,-81.92 7.74,-81.86 7.53,-81.84C7.31,-81.81 7.05,-81.81 6.83,-81.84C6.62,-81.86 6.41,-81.92 6.22,-82C6.03,-82.08 5.85,-82.18 5.7,-82.31C5.55,-82.43 5.41,-82.59 5.3,-82.75C5.19,-82.91 5.1,-83.1 5.05,-83.29C4.99,-83.49 4.96,-83.71 4.96,-83.92C4.96,-84.13 4.99,-84.36 5.05,-84.55C5.1,-84.75 5.19,-84.93 5.3,-85.09C5.41,-85.26 5.55,-85.41 5.7,-85.53C5.85,-85.66 6.03,-85.77 6.22,-85.85C6.41,-85.92 6.62,-85.98 6.83,-86.01C7.05,-86.03 7.31,-86.03 7.53,-86.01C7.74,-85.98 7.95,-85.92 8.14,-85.85C8.33,-85.77 8.51,-85.66 8.66,-85.53C8.81,-85.41 8.95,-85.26 9.06,-85.09C9.17,-84.93 9.25,-84.75 9.31,-84.55C9.37,-84.36 9.4,-84.13 9.4,-83.92Z" fill="none" stroke="#4B3326" stroke-width="2.04" stroke-linejoin="round"/><path d="M22.44,-62.49C22.31,-61.2 21.87,-59.71 21.6,-58.61C21.34,-57.51 21.11,-56.74 20.85,-55.89C20.58,-55.05 20.31,-54.28 20.01,-53.53C19.72,-52.79 19.42,-52.09 19.09,-51.41C18.77,-50.74 18.44,-50.1 18.09,-49.48C17.73,-48.87 17.37,-48.29 16.99,-47.73C16.61,-47.18 16.22,-46.65 15.81,-46.15C15.41,-45.64 14.99,-45.17 14.55,-44.72C14.12,-44.28 13.68,-43.86 13.22,-43.46C12.76,-43.07 12.29,-42.7 11.8,-42.36C11.31,-42.03 10.81,-41.71 10.3,-41.43C9.78,-41.15 9.25,-40.89 8.7,-40.66C8.15,-40.44 7.59,-40.24 6.99,-40.07C6.39,-39.9 5.79,-39.75 5.12,-39.64C4.46,-39.52 3.86,-39.44 3.01,-39.38C2.16,-39.32 1,-39.29 0,-39.29C-1,-39.29 -2.16,-39.32 -3.01,-39.38C-3.86,-39.44 -4.46,-39.52 -5.12,-39.64C-5.79,-39.75 -6.39,-39.9 -6.99,-40.07C-7.59,-40.24 -8.15,-40.44 -8.7,-40.66C-9.25,-40.89 -9.78,-41.15 -10.3,-41.43C-10.81,-41.71 -11.31,-42.03 -11.8,-42.36C-12.29,-42.7 -12.76,-43.07 -13.22,-43.46C-13.68,-43.86 -14.12,-44.28 -14.55,-44.72C-14.99,-45.17 -15.41,-45.64 -15.81,-46.15C-16.22,-46.65 -16.61,-47.18 -16.99,-47.73C-17.37,-48.29 -17.73,-48.87 -18.09,-49.48C-18.44,-50.1 -18.77,-50.74 -19.09,-51.41C-19.42,-52.09 -19.72,-52.79 -20.01,-53.53C-20.31,-54.28 -20.58,-55.05 -20.85,-55.89C-21.11,-56.74 -21.34,-57.51 -21.6,-58.61C-21.87,-59.71 -22.31,-61.2 -22.44,-62.49C-22.56,-63.79 -22.41,-65.28 -22.35,-66.38C-22.3,-67.48 -22.22,-68.25 -22.1,-69.09C-21.99,-69.94 -21.86,-70.71 -21.69,-71.45C-21.52,-72.2 -21.33,-72.9 -21.11,-73.58C-20.89,-74.25 -20.64,-74.89 -20.37,-75.5C-20.1,-76.12 -19.79,-76.7 -19.47,-77.26C-19.14,-77.81 -18.79,-78.34 -18.41,-78.84C-18.03,-79.34 -17.62,-79.82 -17.19,-80.26C-16.75,-80.71 -16.29,-81.13 -15.81,-81.53C-15.32,-81.92 -14.81,-82.28 -14.28,-82.62C-13.74,-82.96 -13.17,-83.27 -12.58,-83.56C-11.99,-83.84 -11.37,-84.1 -10.72,-84.32C-10.06,-84.55 -9.39,-84.75 -8.66,-84.92C-7.94,-85.09 -7.2,-85.24 -6.38,-85.35C-5.56,-85.46 -4.82,-85.55 -3.76,-85.61C-2.69,-85.66 -1.25,-85.69 0,-85.69C1.25,-85.69 2.69,-85.66 3.76,-85.61C4.82,-85.55 5.56,-85.46 6.38,-85.35C7.2,-85.24 7.94,-85.09 8.66,-84.92C9.39,-84.75 10.06,-84.55 10.72,-84.32C11.37,-84.1 11.99,-83.84 12.58,-83.56C13.17,-83.27 13.74,-82.96 14.28,-82.62C14.81,-82.28 15.32,-81.92 15.81,-81.53C16.29,-81.13 16.75,-80.71 17.19,-80.26C17.62,-79.82 18.03,-79.34 18.41,-78.84C18.79,-78.34 19.14,-77.81 19.47,-77.26C19.79,-76.7 20.1,-76.12 20.37,-75.5C20.64,-74.89 20.89,-74.25 21.11,-73.58C21.33,-72.9 21.52,-72.2 21.69,-71.45C21.86,-70.71 21.99,-69.94 22.1,-69.09C22.22,-68.25 22.3,-67.48 22.35,-66.38C22.41,-65.28 22.56,-63.79 22.44,-62.49Z" fill="#F5E2BF"/><g clip-path="url(#c-k7)"></g><path d="M22.44,-62.49C22.31,-61.2 21.87,-59.71 21.6,-58.61C21.34,-57.51 21.11,-56.74 20.85,-55.89C20.58,-55.05 20.31,-54.28 20.01,-53.53C19.72,-52.79 19.42,-52.09 19.09,-51.41C18.77,-50.74 18.44,-50.1 18.09,-49.48C17.73,-48.87 17.37,-48.29 16.99,-47.73C16.61,-47.18 16.22,-46.65 15.81,-46.15C15.41,-45.64 14.99,-45.17 14.55,-44.72C14.12,-44.28 13.68,-43.86 13.22,-43.46C12.76,-43.07 12.29,-42.7 11.8,-42.36C11.31,-42.03 10.81,-41.71 10.3,-41.43C9.78,-41.15 9.25,-40.89 8.7,-40.66C8.15,-40.44 7.59,-40.24 6.99,-40.07C6.39,-39.9 5.79,-39.75 5.12,-39.64C4.46,-39.52 3.86,-39.44 3.01,-39.38C2.16,-39.32 1,-39.29 0,-39.29C-1,-39.29 -2.16,-39.32 -3.01,-39.38C-3.86,-39.44 -4.46,-39.52 -5.12,-39.64C-5.79,-39.75 -6.39,-39.9 -6.99,-40.07C-7.59,-40.24 -8.15,-40.44 -8.7,-40.66C-9.25,-40.89 -9.78,-41.15 -10.3,-41.43C-10.81,-41.71 -11.31,-42.03 -11.8,-42.36C-12.29,-42.7 -12.76,-43.07 -13.22,-43.46C-13.68,-43.86 -14.12,-44.28 -14.55,-44.72C-14.99,-45.17 -15.41,-45.64 -15.81,-46.15C-16.22,-46.65 -16.61,-47.18 -16.99,-47.73C-17.37,-48.29 -17.73,-48.87 -18.09,-49.48C-18.44,-50.1 -18.77,-50.74 -19.09,-51.41C-19.42,-52.09 -19.72,-52.79 -20.01,-53.53C-20.31,-54.28 -20.58,-55.05 -20.85,-55.89C-21.11,-56.74 -21.34,-57.51 -21.6,-58.61C-21.87,-59.71 -22.31,-61.2 -22.44,-62.49C-22.56,-63.79 -22.41,-65.28 -22.35,-66.38C-22.3,-67.48 -22.22,-68.25 -22.1,-69.09C-21.99,-69.94 -21.86,-70.71 -21.69,-71.45C-21.52,-72.2 -21.33,-72.9 -21.11,-73.58C-20.89,-74.25 -20.64,-74.89 -20.37,-75.5C-20.1,-76.12 -19.79,-76.7 -19.47,-77.26C-19.14,-77.81 -18.79,-78.34 -18.41,-78.84C-18.03,-79.34 -17.62,-79.82 -17.19,-80.26C-16.75,-80.71 -16.29,-81.13 -15.81,-81.53C-15.32,-81.92 -14.81,-82.28 -14.28,-82.62C-13.74,-82.96 -13.17,-83.27 -12.58,-83.56C-11.99,-83.84 -11.37,-84.1 -10.72,-84.32C-10.06,-84.55 -9.39,-84.75 -8.66,-84.92C-7.94,-85.09 -7.2,-85.24 -6.38,-85.35C-5.56,-85.46 -4.82,-85.55 -3.76,-85.61C-2.69,-85.66 -1.25,-85.69 0,-85.69C1.25,-85.69 2.69,-85.66 3.76,-85.61C4.82,-85.55 5.56,-85.46 6.38,-85.35C7.2,-85.24 7.94,-85.09 8.66,-84.92C9.39,-84.75 10.06,-84.55 10.72,-84.32C11.37,-84.1 11.99,-83.84 12.58,-83.56C13.17,-83.27 13.74,-82.96 14.28,-82.62C14.81,-82.28 15.32,-81.92 15.81,-81.53C16.29,-81.13 16.75,-80.71 17.19,-80.26C17.62,-79.82 18.03,-79.34 18.41,-78.84C18.79,-78.34 19.14,-77.81 19.47,-77.26C19.79,-76.7 20.1,-76.12 20.37,-75.5C20.64,-74.89 20.89,-74.25 21.11,-73.58C21.33,-72.9 21.52,-72.2 21.69,-71.45C21.86,-70.71 21.99,-69.94 22.1,-69.09C22.22,-68.25 22.3,-67.48 22.35,-66.38C22.41,-65.28 22.56,-63.79 22.44,-62.49Z" fill="none" stroke="#4B3326" stroke-width="2.4" stroke-linejoin="round"/><ellipse cx="-5.38" cy="-65.74" rx="2.44" ry="2.69" fill="#2E1D19"/><ellipse cx="5.38" cy="-65.74" rx="2.44" ry="2.69" fill="#2E1D19"/><path d="M15.71,-49.5C15.71,-49.08 15.66,-48.64 15.58,-48.25C15.5,-47.85 15.37,-47.49 15.21,-47.13C15.04,-46.77 14.84,-46.42 14.59,-46.08C14.35,-45.75 14.06,-45.43 13.74,-45.12C13.42,-44.81 13.06,-44.52 12.66,-44.24C12.27,-43.96 11.84,-43.7 11.38,-43.45C10.92,-43.21 10.42,-42.98 9.9,-42.77C9.38,-42.56 8.82,-42.37 8.24,-42.2C7.66,-42.03 7.06,-41.87 6.43,-41.74C5.8,-41.61 5.14,-41.5 4.47,-41.42C3.79,-41.33 3.11,-41.26 2.36,-41.22C1.62,-41.17 0.79,-41.15 0,-41.15C-0.79,-41.15 -1.62,-41.17 -2.36,-41.22C-3.11,-41.26 -3.79,-41.33 -4.47,-41.42C-5.14,-41.5 -5.8,-41.61 -6.43,-41.74C-7.06,-41.87 -7.66,-42.03 -8.24,-42.2C-8.82,-42.37 -9.38,-42.56 -9.9,-42.77C-10.42,-42.98 -10.92,-43.21 -11.38,-43.45C-11.84,-43.7 -12.27,-43.96 -12.66,-44.24C-13.06,-44.52 -13.42,-44.81 -13.74,-45.12C-14.06,-45.43 -14.35,-45.75 -14.59,-46.08C-14.84,-46.42 -15.04,-46.77 -15.21,-47.13C-15.37,-47.49 -15.5,-47.85 -15.58,-48.25C-15.66,-48.64 -15.71,-49.08 -15.71,-49.5C-15.71,-49.92 -15.66,-50.36 -15.58,-50.76C-15.5,-51.15 -15.37,-51.52 -15.21,-51.88C-15.04,-52.24 -14.84,-52.59 -14.59,-52.92C-14.35,-53.25 -14.06,-53.58 -13.74,-53.88C-13.42,-54.19 -13.06,-54.49 -12.66,-54.77C-12.27,-55.04 -11.84,-55.31 -11.38,-55.55C-10.92,-55.8 -10.42,-56.03 -9.9,-56.24C-9.38,-56.45 -8.82,-56.64 -8.24,-56.81C-7.66,-56.98 -7.06,-57.13 -6.43,-57.26C-5.8,-57.39 -5.14,-57.5 -4.47,-57.59C-3.79,-57.68 -3.11,-57.74 -2.36,-57.79C-1.62,-57.83 -0.79,-57.85 0,-57.85C0.79,-57.85 1.62,-57.83 2.36,-57.79C3.11,-57.74 3.79,-57.68 4.47,-57.59C5.14,-57.5 5.8,-57.39 6.43,-57.26C7.06,-57.13 7.66,-56.98 8.24,-56.81C8.82,-56.64 9.38,-56.45 9.9,-56.24C10.42,-56.03 10.92,-55.8 11.38,-55.55C11.84,-55.31 12.27,-55.04 12.66,-54.77C13.06,-54.49 13.42,-54.19 13.74,-53.88C14.06,-53.58 14.35,-53.25 14.59,-52.92C14.84,-52.59 15.04,-52.24 15.21,-51.88C15.37,-51.52 15.5,-51.15 15.58,-50.76C15.66,-50.36 15.71,-49.92 15.71,-49.5Z" fill="#F7C3C6" stroke="#4B3326" stroke-width="2.28" stroke-linejoin="round"/><ellipse cx="-5.34" cy="-50.34" rx="1.26" ry="1.53" fill="#C98088"/><ellipse cx="5.34" cy="-50.34" rx="1.26" ry="1.53" fill="#C98088"/><path d="M21.99,-71.85C21.99,-74.01 22.17,-79.19 21.99,-81.09C21.81,-82.99 21.61,-82.56 20.91,-83.24C20.21,-83.93 19.12,-84.6 17.79,-85.18C16.46,-85.76 14.76,-86.3 12.92,-86.72C11.09,-87.15 8.95,-87.49 6.79,-87.71C4.64,-87.93 2.26,-88.05 0,-88.05C-2.26,-88.05 -4.64,-87.93 -6.79,-87.71C-8.95,-87.49 -11.09,-87.15 -12.92,-86.72C-14.76,-86.3 -16.46,-85.76 -17.79,-85.18C-19.12,-84.6 -20.21,-83.93 -20.91,-83.24C-21.61,-82.56 -21.81,-82.99 -21.99,-81.09C-22.17,-79.19 -22.6,-74.32 -21.99,-71.85C-21.38,-69.37 -19.55,-66.85 -18.32,-66.23C-17.1,-65.61 -15.88,-68.44 -14.66,-68.14C-13.44,-67.83 -12.22,-64.42 -10.99,-64.42C-9.77,-64.42 -8.55,-68.14 -7.33,-68.14C-6.11,-68.14 -4.89,-64.42 -3.66,-64.42C-2.44,-64.42 -1.22,-68.14 0,-68.14C1.22,-68.14 2.44,-64.42 3.66,-64.42C4.89,-64.42 6.11,-68.14 7.33,-68.14C8.55,-68.14 9.77,-64.42 10.99,-64.42C12.22,-64.42 13.44,-67.83 14.66,-68.14C15.88,-68.44 17.1,-66.23 18.32,-66.23C19.55,-66.23 21.38,-67.2 21.99,-68.14C22.6,-69.07 21.99,-69.69 21.99,-71.85Z" fill="#f9eed9" stroke="#4B3326" stroke-width="2.04" stroke-linejoin="round"/><path d="M26.26,-70.76C26.26,-70.58 26.26,-69.89 26.26,-69.72" fill="none" stroke="#4B3326" stroke-width="5.16" stroke-linecap="round" stroke-linejoin="round"/><path d="M26.26,-70.76C26.26,-70.58 26.26,-69.89 26.26,-69.72" fill="none" stroke="#E9B949" stroke-width="1.08" stroke-linecap="round" stroke-linejoin="round"/><ellipse cx="26.26" cy="-67.64" rx="2.6" ry="2.73" fill="#FFD45E" stroke="#4B3326" stroke-width="1.8"/><ellipse cx="26.26" cy="-67.64" rx="0.88" ry="0.88" fill="#E9B949"/></g></svg>
