<svg xmlns="http://www.w3.org/2000/svg" viewBox="-50.52 -118.03 98.44 122.03" width="98.44" height="122.03"><g transform="translate(0,0) scale(1.3,1.3)"><defs><clipPath id="c-k0"><path d="M-18.79,-2.34C-18.79,-2.09 -18.85,-1.81 -18.96,-1.58C-19.07,-1.35 -19.23,-1.17 -19.44,-0.98C-19.66,-0.8 -19.92,-0.63 -20.24,-0.48C-20.55,-0.33 -20.91,-0.19 -21.32,-0.07C-21.72,0.04 -22.17,0.14 -22.66,0.22C-23.15,0.3 -23.66,0.37 -24.26,0.41C-24.86,0.45 -25.61,0.47 -26.29,0.47C-26.97,0.47 -27.71,0.45 -28.32,0.41C-28.92,0.37 -29.43,0.3 -29.92,0.22C-30.41,0.14 -30.86,0.04 -31.26,-0.07C-31.66,-0.19 -32.03,-0.33 -32.34,-0.48C-32.65,-0.63 -32.92,-0.8 -33.14,-0.98C-33.35,-1.17 -33.51,-1.35 -33.62,-1.58C-33.73,-1.81 -33.79,-2.09 -33.79,-2.34C-33.79,-2.59 -33.73,-2.87 -33.62,-3.1C-33.51,-3.33 -33.35,-3.52 -33.14,-3.7C-32.92,-3.88 -32.65,-4.05 -32.34,-4.2C-32.03,-4.35 -31.66,-4.49 -31.26,-4.61C-30.86,-4.73 -30.41,-4.83 -29.92,-4.91C-29.43,-4.99 -28.92,-5.05 -28.32,-5.09C-27.71,-5.13 -26.97,-5.15 -26.29,-5.15C-25.61,-5.15 -24.86,-5.13 -24.26,-5.09C-23.66,-5.05 -23.15,-4.99 -22.66,-4.91C-22.17,-4.83 -21.72,-4.73 -21.32,-4.61C-20.91,-4.49 -20.55,-4.35 -20.24,-4.2C-19.92,-4.05 -19.66,-3.88 -19.44,-3.7C-19.23,-3.52 -19.07,-3.33 -18.96,-3.1C-18.85,-2.87 -18.79,-2.59 -18.79,-2.34Z"/></clipPath><clipPath id="c-k1"><path d="M33.79,-2.34C33.79,-2.09 33.73,-1.81 33.62,-1.58C33.51,-1.35 33.35,-1.17 33.14,-0.98C32.92,-0.8 32.65,-0.63 32.34,-0.48C32.03,-0.33 31.66,-0.19 31.26,-0.07C30.86,0.04 30.41,0.14 29.92,0.22C29.43,0.3 28.92,0.37 28.32,0.41C27.71,0.45 26.97,0.47 26.29,0.47C25.61,0.47 24.86,0.45 24.26,0.41C23.66,0.37 23.15,0.3 22.66,0.22C22.17,0.14 21.72,0.04 21.32,-0.07C20.91,-0.19 20.55,-0.33 20.24,-0.48C19.92,-0.63 19.66,-0.8 19.44,-0.98C19.23,-1.17 19.07,-1.35 18.96,-1.58C18.85,-1.81 18.79,-2.09 18.79,-2.34C18.79,-2.59 18.85,-2.87 18.96,-3.1C19.07,-3.33 19.23,-3.52 19.44,-3.7C19.66,-3.88 19.92,-4.05 20.24,-4.2C20.55,-4.35 20.91,-4.49 21.32,-4.61C21.72,-4.73 22.17,-4.83 22.66,-4.91C23.15,-4.99 23.66,-5.05 24.26,-5.09C24.86,-5.13 25.61,-5.15 26.29,-5.15C26.97,-5.15 27.71,-5.13 28.32,-5.09C28.92,-5.05 29.43,-4.99 29.92,-4.91C30.41,-4.83 30.86,-4.73 31.26,-4.61C31.66,-4.49 32.03,-4.35 32.34,-4.2C32.65,-4.05 32.92,-3.88 33.14,-3.7C33.35,-3.52 33.51,-3.33 33.62,-3.1C33.73,-2.87 33.79,-2.59 33.79,-2.34Z"/></clipPath><clipPath id="c-k2"><path d="M0,-47.81C0.65,-47.81 1.31,-48.71 1.94,-49.05C2.58,-49.39 3.21,-49.69 3.81,-49.83C4.41,-49.96 4.99,-49.97 5.56,-49.85C6.12,-49.73 6.65,-49.44 7.18,-49.12C7.71,-48.8 8.16,-47.98 8.74,-47.93C9.31,-47.87 10.03,-48.57 10.63,-48.8C11.23,-49.03 11.82,-49.23 12.36,-49.31C12.89,-49.38 13.38,-49.36 13.82,-49.24C14.26,-49.12 14.65,-48.86 15.02,-48.59C15.39,-48.31 15.73,-47.72 16.05,-47.58C16.38,-47.43 16.69,-47.71 16.98,-47.73C17.27,-47.76 17.56,-47.77 17.8,-47.73C18.05,-47.69 18.27,-47.6 18.45,-47.48C18.64,-47.35 18.79,-47.16 18.94,-46.97C19.08,-46.77 19.17,-46.44 19.31,-46.3C19.46,-46.17 19.68,-46.22 19.83,-46.15C19.99,-46.08 20.15,-46 20.26,-45.88C20.38,-45.76 20.48,-45.61 20.55,-45.43C20.62,-45.25 20.66,-45.03 20.69,-44.8C20.72,-44.58 20.63,-44.25 20.74,-44.06C20.84,-43.88 21.14,-43.85 21.31,-43.71C21.47,-43.57 21.63,-43.42 21.73,-43.21C21.84,-43.01 21.9,-42.76 21.93,-42.48C21.96,-42.19 21.93,-41.85 21.89,-41.5C21.86,-41.15 21.65,-40.64 21.71,-40.38C21.77,-40.11 22.1,-40.09 22.25,-39.91C22.41,-39.72 22.54,-39.53 22.62,-39.29C22.69,-39.04 22.71,-38.76 22.69,-38.43C22.66,-38.11 22.57,-37.73 22.47,-37.34C22.37,-36.96 22.06,-36.4 22.07,-36.11C22.09,-35.82 22.43,-35.78 22.56,-35.59C22.69,-35.4 22.8,-35.2 22.85,-34.96C22.9,-34.72 22.9,-34.45 22.85,-34.15C22.79,-33.84 22.67,-33.5 22.54,-33.14C22.4,-32.79 22.04,-32.31 22.04,-32.03C22.04,-31.74 22.4,-31.65 22.53,-31.43C22.66,-31.22 22.78,-31.01 22.82,-30.76C22.86,-30.51 22.85,-30.23 22.78,-29.93C22.71,-29.64 22.56,-29.3 22.41,-28.97C22.25,-28.63 21.84,-28.21 21.83,-27.92C21.82,-27.62 22.21,-27.46 22.35,-27.22C22.48,-26.98 22.6,-26.74 22.64,-26.48C22.68,-26.21 22.67,-25.94 22.59,-25.64C22.51,-25.35 22.35,-25.04 22.18,-24.72C22,-24.41 21.55,-24.04 21.55,-23.75C21.55,-23.46 22,-23.23 22.17,-22.98C22.34,-22.72 22.5,-22.46 22.57,-22.19C22.65,-21.93 22.67,-21.66 22.63,-21.39C22.59,-21.12 22.46,-20.84 22.33,-20.56C22.19,-20.28 21.74,-19.99 21.81,-19.72C21.89,-19.45 22.51,-19.19 22.8,-18.94C23.09,-18.68 23.37,-18.42 23.56,-18.17C23.76,-17.93 23.9,-17.69 23.97,-17.45C24.05,-17.22 24.04,-16.99 24.02,-16.77C24,-16.55 23.71,-16.36 23.84,-16.11C23.98,-15.87 24.53,-15.56 24.83,-15.29C25.12,-15.03 25.4,-14.77 25.6,-14.53C25.81,-14.29 25.95,-14.06 26.04,-13.85C26.13,-13.63 26.13,-13.44 26.13,-13.25C26.13,-13.06 25.92,-12.94 26.01,-12.7C26.1,-12.47 26.49,-12.12 26.68,-11.85C26.88,-11.57 27.06,-11.31 27.17,-11.06C27.29,-10.81 27.36,-10.59 27.37,-10.37C27.39,-10.16 27.34,-9.98 27.28,-9.79C27.22,-9.61 26.98,-9.5 27.01,-9.28C27.03,-9.06 27.31,-8.72 27.43,-8.47C27.55,-8.21 27.65,-7.95 27.7,-7.72C27.75,-7.49 27.76,-7.29 27.73,-7.1C27.69,-6.91 27.6,-6.74 27.5,-6.59C27.4,-6.43 27.16,-6.35 27.13,-6.15C27.1,-5.95 27.28,-5.64 27.32,-5.4C27.37,-5.17 27.4,-4.94 27.39,-4.74C27.37,-4.53 27.32,-4.35 27.24,-4.19C27.15,-4.03 27.02,-3.9 26.88,-3.77C26.73,-3.64 26.48,-3.59 26.38,-3.43C26.29,-3.27 26.35,-3 26.3,-2.8C26.25,-2.61 26.19,-2.42 26.09,-2.27C25.99,-2.11 25.85,-1.98 25.68,-1.88C25.51,-1.77 25.29,-1.7 25.07,-1.63C24.84,-1.56 24.52,-1.59 24.33,-1.47C24.14,-1.35 24.09,-1.08 23.92,-0.93C23.75,-0.77 23.57,-0.63 23.32,-0.54C23.08,-0.46 22.78,-0.42 22.44,-0.42C22.09,-0.42 21.68,-0.48 21.25,-0.55C20.83,-0.62 20.2,-0.88 19.88,-0.84C19.57,-0.81 19.57,-0.49 19.37,-0.36C19.16,-0.23 18.95,-0.12 18.67,-0.07C18.39,-0.03 18.07,-0.04 17.69,-0.1C17.32,-0.17 16.88,-0.3 16.43,-0.45C15.98,-0.6 15.3,-0.95 14.99,-1C14.69,-1.05 14.76,-0.81 14.62,-0.75C14.47,-0.7 14.32,-0.65 14.14,-0.65C13.95,-0.66 13.74,-0.7 13.49,-0.78C13.25,-0.87 12.97,-1.01 12.69,-1.15C12.4,-1.3 12,-1.62 11.78,-1.66C11.56,-1.71 11.52,-1.49 11.38,-1.44C11.23,-1.39 11.07,-1.35 10.89,-1.37C10.7,-1.39 10.49,-1.44 10.26,-1.54C10.03,-1.64 9.77,-1.8 9.5,-1.97C9.23,-2.13 8.9,-2.52 8.65,-2.54C8.4,-2.57 8.25,-2.24 8.02,-2.14C7.8,-2.05 7.58,-1.96 7.32,-1.96C7.06,-1.95 6.78,-2.01 6.48,-2.12C6.18,-2.23 5.85,-2.42 5.52,-2.63C5.18,-2.83 4.78,-3.32 4.47,-3.35C4.16,-3.38 3.93,-2.95 3.66,-2.82C3.38,-2.68 3.11,-2.55 2.82,-2.52C2.53,-2.48 2.23,-2.51 1.92,-2.61C1.62,-2.7 1.3,-2.89 0.98,-3.09C0.66,-3.29 0.33,-3.81 0,-3.81C-0.33,-3.81 -0.66,-3.29 -0.98,-3.09C-1.3,-2.89 -1.62,-2.7 -1.92,-2.61C-2.23,-2.51 -2.53,-2.48 -2.82,-2.52C-3.11,-2.55 -3.38,-2.68 -3.66,-2.82C-3.93,-2.95 -4.16,-3.38 -4.47,-3.35C-4.78,-3.32 -5.18,-2.83 -5.52,-2.63C-5.85,-2.42 -6.18,-2.23 -6.48,-2.12C-6.78,-2.01 -7.06,-1.95 -7.32,-1.96C-7.58,-1.96 -7.8,-2.05 -8.02,-2.14C-8.25,-2.24 -8.4,-2.57 -8.65,-2.54C-8.9,-2.52 -9.23,-2.13 -9.5,-1.97C-9.77,-1.8 -10.03,-1.64 -10.26,-1.54C-10.49,-1.44 -10.7,-1.39 -10.89,-1.37C-11.07,-1.35 -11.23,-1.39 -11.38,-1.44C-11.52,-1.49 -11.56,-1.71 -11.78,-1.66C-12,-1.62 -12.4,-1.3 -12.69,-1.15C-12.97,-1.01 -13.25,-0.87 -13.49,-0.78C-13.74,-0.7 -13.95,-0.66 -14.14,-0.65C-14.32,-0.65 -14.47,-0.7 -14.62,-0.75C-14.76,-0.81 -14.69,-1.05 -14.99,-1C-15.3,-0.95 -15.98,-0.6 -16.43,-0.45C-16.88,-0.3 -17.32,-0.17 -17.69,-0.1C-18.07,-0.04 -18.39,-0.03 -18.67,-0.07C-18.95,-0.12 -19.16,-0.23 -19.37,-0.36C-19.57,-0.49 -19.57,-0.81 -19.88,-0.84C-20.2,-0.88 -20.83,-0.62 -21.25,-0.55C-21.68,-0.48 -22.09,-0.42 -22.44,-0.42C-22.78,-0.42 -23.08,-0.46 -23.32,-0.54C-23.57,-0.63 -23.75,-0.77 -23.92,-0.93C-24.09,-1.08 -24.14,-1.35 -24.33,-1.47C-24.52,-1.59 -24.84,-1.56 -25.07,-1.63C-25.29,-1.7 -25.51,-1.77 -25.68,-1.88C-25.85,-1.98 -25.99,-2.11 -26.09,-2.27C-26.19,-2.42 -26.25,-2.61 -26.3,-2.8C-26.35,-3 -26.29,-3.27 -26.38,-3.43C-26.48,-3.59 -26.73,-3.64 -26.88,-3.77C-27.02,-3.9 -27.15,-4.03 -27.24,-4.19C-27.32,-4.35 -27.37,-4.53 -27.39,-4.74C-27.4,-4.94 -27.37,-5.17 -27.32,-5.4C-27.28,-5.64 -27.1,-5.95 -27.13,-6.15C-27.16,-6.35 -27.4,-6.43 -27.5,-6.59C-27.6,-6.74 -27.69,-6.91 -27.73,-7.1C-27.76,-7.29 -27.75,-7.49 -27.7,-7.72C-27.65,-7.95 -27.55,-8.21 -27.43,-8.47C-27.31,-8.72 -27.03,-9.06 -27.01,-9.28C-26.98,-9.5 -27.22,-9.61 -27.28,-9.79C-27.34,-9.98 -27.39,-10.16 -27.37,-10.37C-27.36,-10.59 -27.29,-10.81 -27.17,-11.06C-27.06,-11.31 -26.88,-11.57 -26.68,-11.85C-26.49,-12.12 -26.1,-12.47 -26.01,-12.7C-25.92,-12.94 -26.13,-13.06 -26.13,-13.25C-26.13,-13.44 -26.13,-13.63 -26.04,-13.85C-25.95,-14.06 -25.81,-14.29 -25.6,-14.53C-25.4,-14.77 -25.12,-15.03 -24.83,-15.29C-24.53,-15.56 -23.98,-15.87 -23.84,-16.11C-23.71,-16.36 -24,-16.55 -24.02,-16.77C-24.04,-16.99 -24.05,-17.22 -23.97,-17.45C-23.9,-17.69 -23.76,-17.93 -23.56,-18.17C-23.37,-18.42 -23.09,-18.68 -22.8,-18.94C-22.51,-19.19 -21.89,-19.45 -21.81,-19.72C-21.74,-19.99 -22.19,-20.28 -22.33,-20.56C-22.46,-20.84 -22.59,-21.12 -22.63,-21.39C-22.67,-21.66 -22.65,-21.93 -22.57,-22.19C-22.5,-22.46 -22.34,-22.72 -22.17,-22.98C-22,-23.23 -21.55,-23.46 -21.55,-23.75C-21.55,-24.04 -22,-24.41 -22.18,-24.72C-22.35,-25.04 -22.51,-25.35 -22.59,-25.64C-22.67,-25.94 -22.68,-26.21 -22.64,-26.48C-22.6,-26.74 -22.48,-26.98 -22.35,-27.22C-22.21,-27.46 -21.82,-27.62 -21.83,-27.92C-21.84,-28.21 -22.25,-28.63 -22.41,-28.97C-22.56,-29.3 -22.71,-29.64 -22.78,-29.93C-22.85,-30.23 -22.86,-30.51 -22.82,-30.76C-22.78,-31.01 -22.66,-31.22 -22.53,-31.43C-22.4,-31.65 -22.04,-31.74 -22.04,-32.03C-22.04,-32.31 -22.4,-32.79 -22.54,-33.14C-22.67,-33.5 -22.79,-33.84 -22.85,-34.15C-22.9,-34.45 -22.9,-34.72 -22.85,-34.96C-22.8,-35.2 -22.69,-35.4 -22.56,-35.59C-22.43,-35.78 -22.09,-35.82 -22.07,-36.11C-22.06,-36.4 -22.37,-36.96 -22.47,-37.34C-22.57,-37.73 -22.66,-38.11 -22.69,-38.43C-22.71,-38.76 -22.69,-39.04 -22.62,-39.29C-22.54,-39.53 -22.41,-39.72 -22.25,-39.91C-22.1,-40.09 -21.77,-40.11 -21.71,-40.38C-21.65,-40.64 -21.86,-41.15 -21.89,-41.5C-21.93,-41.85 -21.96,-42.19 -21.93,-42.48C-21.9,-42.76 -21.84,-43.01 -21.73,-43.21C-21.63,-43.42 -21.47,-43.57 -21.31,-43.71C-21.14,-43.85 -20.84,-43.88 -20.74,-44.06C-20.63,-44.25 -20.72,-44.58 -20.69,-44.8C-20.66,-45.03 -20.62,-45.25 -20.55,-45.43C-20.48,-45.61 -20.38,-45.76 -20.26,-45.88C-20.15,-46 -19.99,-46.08 -19.83,-46.15C-19.68,-46.22 -19.46,-46.17 -19.31,-46.3C-19.17,-46.44 -19.08,-46.77 -18.94,-46.97C-18.79,-47.16 -18.64,-47.35 -18.45,-47.48C-18.27,-47.6 -18.05,-47.69 -17.8,-47.73C-17.56,-47.77 -17.27,-47.76 -16.98,-47.73C-16.69,-47.71 -16.38,-47.43 -16.05,-47.58C-15.73,-47.72 -15.39,-48.31 -15.02,-48.59C-14.65,-48.86 -14.26,-49.12 -13.82,-49.24C-13.38,-49.36 -12.89,-49.38 -12.36,-49.31C-11.82,-49.23 -11.23,-49.03 -10.63,-48.8C-10.03,-48.57 -9.31,-47.87 -8.74,-47.93C-8.16,-47.98 -7.71,-48.8 -7.18,-49.12C-6.65,-49.44 -6.12,-49.73 -5.56,-49.85C-4.99,-49.97 -4.41,-49.96 -3.81,-49.83C-3.21,-49.69 -2.58,-49.39 -1.94,-49.05C-1.31,-48.71 -0.65,-47.81 0,-47.81Z"/></clipPath><clipPath id="c-k3"><path d="M-9.69,-28.15C-8.69,-29.73 -4.96,-29.73 -4.15,-28.15C-3.35,-26.57 -4.7,-20.4 -4.87,-18.68C-5.03,-16.97 -4.31,-17.99 -5.14,-17.85C-5.97,-17.71 -9.02,-17.71 -9.85,-17.85C-10.68,-17.99 -10.15,-16.97 -10.13,-18.68C-10.1,-20.4 -10.68,-26.57 -9.69,-28.15Z"/></clipPath><clipPath id="c-k4"><path d="M4.15,-28.15C4.96,-29.73 8.69,-29.73 9.69,-28.15C10.68,-26.57 10.1,-20.4 10.13,-18.68C10.15,-16.97 10.68,-17.99 9.85,-17.85C9.02,-17.71 5.97,-17.71 5.14,-17.85C4.31,-17.99 5.03,-16.97 4.87,-18.68C4.7,-20.4 3.35,-26.57 4.15,-28.15Z"/></clipPath><clipPath id="c-k5"><path d="M-4.59,-74.9L-5.37,-75.53L-6.06,-76.17L-6.67,-76.81L-7.21,-77.44L-7.68,-78.07L-8.08,-78.7L-8.41,-79.33L-8.67,-79.96L-8.87,-80.6L-9,-81.25L-9.06,-81.91L-9.05,-82.6L-8.97,-83.3L-8.8,-84.02L-8.56,-84.75L-8.23,-85.51L-9.08,-86.04L-9.61,-85.3L-10.06,-84.53L-10.43,-83.74L-10.73,-82.93L-10.95,-82.09L-11.07,-81.23L-11.11,-80.35L-11.06,-79.45L-10.92,-78.54L-10.69,-77.62L-10.37,-76.69L-9.96,-75.76L-9.46,-74.83L-8.88,-73.89L-8.23,-72.95L-7.5,-72Z"/></clipPath><clipPath id="c-k6"><path d="M7.5,-72L8.23,-72.95L8.88,-73.89L9.46,-74.83L9.96,-75.76L10.37,-76.69L10.69,-77.62L10.92,-78.54L11.06,-79.45L11.11,-80.35L11.07,-81.23L10.95,-82.09L10.73,-82.93L10.43,-83.74L10.06,-84.53L9.61,-85.3L9.08,-86.04L8.23,-85.51L8.56,-84.75L8.8,-84.02L8.97,-83.3L9.05,-82.6L9.06,-81.91L9,-81.25L8.87,-80.6L8.67,-79.96L8.41,-79.33L8.08,-78.7L7.68,-78.07L7.21,-77.44L6.67,-76.81L6.06,-76.17L5.37,-75.53L4.59,-74.9Z"/></clipPath><clipPath id="c-k7"><path d="M18.88,-56.12C18.78,-54.96 18.41,-53.62 18.18,-52.64C17.96,-51.65 17.77,-50.97 17.55,-50.21C17.32,-49.45 17.09,-48.77 16.85,-48.1C16.6,-47.43 16.34,-46.8 16.07,-46.2C15.8,-45.59 15.52,-45.02 15.22,-44.47C14.93,-43.92 14.62,-43.4 14.3,-42.9C13.98,-42.4 13.65,-41.93 13.31,-41.48C12.97,-41.03 12.61,-40.61 12.25,-40.21C11.89,-39.81 11.51,-39.43 11.12,-39.08C10.74,-38.73 10.34,-38.4 9.93,-38.1C9.52,-37.79 9.1,-37.51 8.67,-37.26C8.23,-37.01 7.79,-36.78 7.32,-36.57C6.86,-36.37 6.38,-36.19 5.88,-36.04C5.38,-35.88 4.87,-35.76 4.31,-35.65C3.76,-35.55 3.25,-35.47 2.53,-35.42C1.81,-35.37 0.84,-35.35 0,-35.35C-0.84,-35.35 -1.81,-35.37 -2.53,-35.42C-3.25,-35.47 -3.76,-35.55 -4.31,-35.65C-4.87,-35.76 -5.38,-35.88 -5.88,-36.04C-6.38,-36.19 -6.86,-36.37 -7.32,-36.57C-7.79,-36.78 -8.23,-37.01 -8.67,-37.26C-9.1,-37.51 -9.52,-37.79 -9.93,-38.1C-10.34,-38.4 -10.74,-38.73 -11.12,-39.08C-11.51,-39.43 -11.89,-39.81 -12.25,-40.21C-12.61,-40.61 -12.97,-41.03 -13.31,-41.48C-13.65,-41.93 -13.98,-42.4 -14.3,-42.9C-14.62,-43.4 -14.93,-43.92 -15.22,-44.47C-15.52,-45.02 -15.8,-45.59 -16.07,-46.2C-16.34,-46.8 -16.6,-47.43 -16.85,-48.1C-17.09,-48.77 -17.32,-49.45 -17.55,-50.21C-17.77,-50.97 -17.96,-51.65 -18.18,-52.64C-18.41,-53.62 -18.78,-54.96 -18.88,-56.12C-18.99,-57.28 -18.86,-58.61 -18.81,-59.6C-18.77,-60.58 -18.7,-61.27 -18.6,-62.03C-18.51,-62.79 -18.4,-63.47 -18.26,-64.14C-18.12,-64.81 -17.95,-65.44 -17.77,-66.04C-17.58,-66.65 -17.38,-67.22 -17.14,-67.77C-16.91,-68.32 -16.66,-68.84 -16.39,-69.34C-16.11,-69.83 -15.81,-70.31 -15.49,-70.76C-15.17,-71.21 -14.83,-71.63 -14.47,-72.03C-14.1,-72.43 -13.72,-72.81 -13.31,-73.16C-12.9,-73.51 -12.47,-73.84 -12.02,-74.14C-11.56,-74.45 -11.09,-74.72 -10.59,-74.98C-10.09,-75.23 -9.57,-75.46 -9.02,-75.66C-8.47,-75.87 -7.9,-76.05 -7.29,-76.2C-6.68,-76.35 -6.06,-76.48 -5.37,-76.58C-4.68,-76.69 -4.06,-76.76 -3.16,-76.82C-2.27,-76.87 -1.05,-76.89 0,-76.89C1.05,-76.89 2.27,-76.87 3.16,-76.82C4.06,-76.76 4.68,-76.69 5.37,-76.58C6.06,-76.48 6.68,-76.35 7.29,-76.2C7.9,-76.05 8.47,-75.87 9.02,-75.66C9.57,-75.46 10.09,-75.23 10.59,-74.98C11.09,-74.72 11.56,-74.45 12.02,-74.14C12.47,-73.84 12.9,-73.51 13.31,-73.16C13.72,-72.81 14.1,-72.43 14.47,-72.03C14.83,-71.63 15.17,-71.21 15.49,-70.76C15.81,-70.31 16.11,-69.83 16.39,-69.34C16.66,-68.84 16.91,-68.32 17.14,-67.77C17.38,-67.22 17.58,-66.65 17.77,-66.04C17.95,-65.44 18.12,-64.81 18.26,-64.14C18.4,-63.47 18.51,-62.79 18.6,-62.03C18.7,-61.27 18.77,-60.58 18.81,-59.6C18.86,-58.61 18.99,-57.28 18.88,-56.12Z"/></clipPath></defs><path d="M-18.79,-2.34C-18.79,-2.09 -18.85,-1.81 -18.96,-1.58C-19.07,-1.35 -19.23,-1.17 -19.44,-0.98C-19.66,-0.8 -19.92,-0.63 -20.24,-0.48C-20.55,-0.33 -20.91,-0.19 -21.32,-0.07C-21.72,0.04 -22.17,0.14 -22.66,0.22C-23.15,0.3 -23.66,0.37 -24.26,0.41C-24.86,0.45 -25.61,0.47 -26.29,0.47C-26.97,0.47 -27.71,0.45 -28.32,0.41C-28.92,0.37 -29.43,0.3 -29.92,0.22C-30.41,0.14 -30.86,0.04 -31.26,-0.07C-31.66,-0.19 -32.03,-0.33 -32.34,-0.48C-32.65,-0.63 -32.92,-0.8 -33.14,-0.98C-33.35,-1.17 -33.51,-1.35 -33.62,-1.58C-33.73,-1.81 -33.79,-2.09 -33.79,-2.34C-33.79,-2.59 -33.73,-2.87 -33.62,-3.1C-33.51,-3.33 -33.35,-3.52 -33.14,-3.7C-32.92,-3.88 -32.65,-4.05 -32.34,-4.2C-32.03,-4.35 -31.66,-4.49 -31.26,-4.61C-30.86,-4.73 -30.41,-4.83 -29.92,-4.91C-29.43,-4.99 -28.92,-5.05 -28.32,-5.09C-27.71,-5.13 -26.97,-5.15 -26.29,-5.15C-25.61,-5.15 -24.86,-5.13 -24.26,-5.09C-23.66,-5.05 -23.15,-4.99 -22.66,-4.91C-22.17,-4.83 -21.72,-4.73 -21.32,-4.61C-20.91,-4.49 -20.55,-4.35 -20.24,-4.2C-19.92,-4.05 -19.66,-3.88 -19.44,-3.7C-19.23,-3.52 -19.07,-3.33 -18.96,-3.1C-18.85,-2.87 -18.79,-2.59 -18.79,-2.34Z" fill="#FFFFFF"/><g clip-path="url(#c-k0)"><rect x="-37.16" y="-7.96" width="7.5" height="11.23" fill="#5A4038"/></g><path d="M-18.79,-2.34C-18.79,-2.09 -18.85,-1.81 -18.96,-1.58C-19.07,-1.35 -19.23,-1.17 -19.44,-0.98C-19.66,-0.8 -19.92,-0.63 -20.24,-0.48C-20.55,-0.33 -20.91,-0.19 -21.32,-0.07C-21.72,0.04 -22.17,0.14 -22.66,0.22C-23.15,0.3 -23.66,0.37 -24.26,0.41C-24.86,0.45 -25.61,0.47 -26.29,0.47C-26.97,0.47 -27.71,0.45 -28.32,0.41C-28.92,0.37 -29.43,0.3 -29.92,0.22C-30.41,0.14 -30.86,0.04 -31.26,-0.07C-31.66,-0.19 -32.03,-0.33 -32.34,-0.48C-32.65,-0.63 -32.92,-0.8 -33.14,-0.98C-33.35,-1.17 -33.51,-1.35 -33.62,-1.58C-33.73,-1.81 -33.79,-2.09 -33.79,-2.34C-33.79,-2.59 -33.73,-2.87 -33.62,-3.1C-33.51,-3.33 -33.35,-3.52 -33.14,-3.7C-32.92,-3.88 -32.65,-4.05 -32.34,-4.2C-32.03,-4.35 -31.66,-4.49 -31.26,-4.61C-30.86,-4.73 -30.41,-4.83 -29.92,-4.91C-29.43,-4.99 -28.92,-5.05 -28.32,-5.09C-27.71,-5.13 -26.97,-5.15 -26.29,-5.15C-25.61,-5.15 -24.86,-5.13 -24.26,-5.09C-23.66,-5.05 -23.15,-4.99 -22.66,-4.91C-22.17,-4.83 -21.72,-4.73 -21.32,-4.61C-20.91,-4.49 -20.55,-4.35 -20.24,-4.2C-19.92,-4.05 -19.66,-3.88 -19.44,-3.7C-19.23,-3.52 -19.07,-3.33 -18.96,-3.1C-18.85,-2.87 -18.79,-2.59 -18.79,-2.34Z" fill="none" stroke="#4B3326" stroke-width="2.16" stroke-linejoin="round"/><path d="M33.79,-2.34C33.79,-2.09 33.73,-1.81 33.62,-1.58C33.51,-1.35 33.35,-1.17 33.14,-0.98C32.92,-0.8 32.65,-0.63 32.34,-0.48C32.03,-0.33 31.66,-0.19 31.26,-0.07C30.86,0.04 30.41,0.14 29.92,0.22C29.43,0.3 28.92,0.37 28.32,0.41C27.71,0.45 26.97,0.47 26.29,0.47C25.61,0.47 24.86,0.45 24.26,0.41C23.66,0.37 23.15,0.3 22.66,0.22C22.17,0.14 21.72,0.04 21.32,-0.07C20.91,-0.19 20.55,-0.33 20.24,-0.48C19.92,-0.63 19.66,-0.8 19.44,-0.98C19.23,-1.17 19.07,-1.35 18.96,-1.58C18.85,-1.81 18.79,-2.09 18.79,-2.34C18.79,-2.59 18.85,-2.87 18.96,-3.1C19.07,-3.33 19.23,-3.52 19.44,-3.7C19.66,-3.88 19.92,-4.05 20.24,-4.2C20.55,-4.35 20.91,-4.49 21.32,-4.61C21.72,-4.73 22.17,-4.83 22.66,-4.91C23.15,-4.99 23.66,-5.05 24.26,-5.09C24.86,-5.13 25.61,-5.15 26.29,-5.15C26.97,-5.15 27.71,-5.13 28.32,-5.09C28.92,-5.05 29.43,-4.99 29.92,-4.91C30.41,-4.83 30.86,-4.73 31.26,-4.61C31.66,-4.49 32.03,-4.35 32.34,-4.2C32.65,-4.05 32.92,-3.88 33.14,-3.7C33.35,-3.52 33.51,-3.33 33.62,-3.1C33.73,-2.87 33.79,-2.59 33.79,-2.34Z" fill="#FFFFFF"/><g clip-path="url(#c-k1)"><rect x="29.66" y="-7.96" width="7.5" height="11.23" fill="#5A4038"/></g><path d="M33.79,-2.34C33.79,-2.09 33.73,-1.81 33.62,-1.58C33.51,-1.35 33.35,-1.17 33.14,-0.98C32.92,-0.8 32.65,-0.63 32.34,-0.48C32.03,-0.33 31.66,-0.19 31.26,-0.07C30.86,0.04 30.41,0.14 29.92,0.22C29.43,0.3 28.92,0.37 28.32,0.41C27.71,0.45 26.97,0.47 26.29,0.47C25.61,0.47 24.86,0.45 24.26,0.41C23.66,0.37 23.15,0.3 22.66,0.22C22.17,0.14 21.72,0.04 21.32,-0.07C20.91,-0.19 20.55,-0.33 20.24,-0.48C19.92,-0.63 19.66,-0.8 19.44,-0.98C19.23,-1.17 19.07,-1.35 18.96,-1.58C18.85,-1.81 18.79,-2.09 18.79,-2.34C18.79,-2.59 18.85,-2.87 18.96,-3.1C19.07,-3.33 19.23,-3.52 19.44,-3.7C19.66,-3.88 19.92,-4.05 20.24,-4.2C20.55,-4.35 20.91,-4.49 21.32,-4.61C21.72,-4.73 22.17,-4.83 22.66,-4.91C23.15,-4.99 23.66,-5.05 24.26,-5.09C24.86,-5.13 25.61,-5.15 26.29,-5.15C26.97,-5.15 27.71,-5.13 28.32,-5.09C28.92,-5.05 29.43,-4.99 29.92,-4.91C30.41,-4.83 30.86,-4.73 31.26,-4.61C31.66,-4.49 32.03,-4.35 32.34,-4.2C32.65,-4.05 32.92,-3.88 33.14,-3.7C33.35,-3.52 33.51,-3.33 33.62,-3.1C33.73,-2.87 33.79,-2.59 33.79,-2.34Z" fill="none" stroke="#4B3326" stroke-width="2.16" stroke-linejoin="round"/><path d="M0,-47.81C0.65,-47.81 1.31,-48.71 1.94,-49.05C2.58,-49.39 3.21,-49.69 3.81,-49.83C4.41,-49.96 4.99,-49.97 5.56,-49.85C6.12,-49.73 6.65,-49.44 7.18,-49.12C7.71,-48.8 8.16,-47.98 8.74,-47.93C9.31,-47.87 10.03,-48.57 10.63,-48.8C11.23,-49.03 11.82,-49.23 12.36,-49.31C12.89,-49.38 13.38,-49.36 13.82,-49.24C14.26,-49.12 14.65,-48.86 15.02,-48.59C15.39,-48.31 15.73,-47.72 16.05,-47.58C16.38,-47.43 16.69,-47.71 16.98,-47.73C17.27,-47.76 17.56,-47.77 17.8,-47.73C18.05,-47.69 18.27,-47.6 18.45,-47.48C18.64,-47.35 18.79,-47.16 18.94,-46.97C19.08,-46.77 19.17,-46.44 19.31,-46.3C19.46,-46.17 19.68,-46.22 19.83,-46.15C19.99,-46.08 20.15,-46 20.26,-45.88C20.38,-45.76 20.48,-45.61 20.55,-45.43C20.62,-45.25 20.66,-45.03 20.69,-44.8C20.72,-44.58 20.63,-44.25 20.74,-44.06C20.84,-43.88 21.14,-43.85 21.31,-43.71C21.47,-43.57 21.63,-43.42 21.73,-43.21C21.84,-43.01 21.9,-42.76 21.93,-42.48C21.96,-42.19 21.93,-41.85 21.89,-41.5C21.86,-41.15 21.65,-40.64 21.71,-40.38C21.77,-40.11 22.1,-40.09 22.25,-39.91C22.41,-39.72 22.54,-39.53 22.62,-39.29C22.69,-39.04 22.71,-38.76 22.69,-38.43C22.66,-38.11 22.57,-37.73 22.47,-37.34C22.37,-36.96 22.06,-36.4 22.07,-36.11C22.09,-35.82 22.43,-35.78 22.56,-35.59C22.69,-35.4 22.8,-35.2 22.85,-34.96C22.9,-34.72 22.9,-34.45 22.85,-34.15C22.79,-33.84 22.67,-33.5 22.54,-33.14C22.4,-32.79 22.04,-32.31 22.04,-32.03C22.04,-31.74 22.4,-31.65 22.53,-31.43C22.66,-31.22 22.78,-31.01 22.82,-30.76C22.86,-30.51 22.85,-30.23 22.78,-29.93C22.71,-29.64 22.56,-29.3 22.41,-28.97C22.25,-28.63 21.84,-28.21 21.83,-27.92C21.82,-27.62 22.21,-27.46 22.35,-27.22C22.48,-26.98 22.6,-26.74 22.64,-26.48C22.68,-26.21 22.67,-25.94 22.59,-25.64C22.51,-25.35 22.35,-25.04 22.18,-24.72C22,-24.41 21.55,-24.04 21.55,-23.75C21.55,-23.46 22,-23.23 22.17,-22.98C22.34,-22.72 22.5,-22.46 22.57,-22.19C22.65,-21.93 22.67,-21.66 22.63,-21.39C22.59,-21.12 22.46,-20.84 22.33,-20.56C22.19,-20.28 21.74,-19.99 21.81,-19.72C21.89,-19.45 22.51,-19.19 22.8,-18.94C23.09,-18.68 23.37,-18.42 23.56,-18.17C23.76,-17.93 23.9,-17.69 23.97,-17.45C24.05,-17.22 24.04,-16.99 24.02,-16.77C24,-16.55 23.71,-16.36 23.84,-16.11C23.98,-15.87 24.53,-15.56 24.83,-15.29C25.12,-15.03 25.4,-14.77 25.6,-14.53C25.81,-14.29 25.95,-14.06 26.04,-13.85C26.13,-13.63 26.13,-13.44 26.13,-13.25C26.13,-13.06 25.92,-12.94 26.01,-12.7C26.1,-12.47 26.49,-12.12 26.68,-11.85C26.88,-11.57 27.06,-11.31 27.17,-11.06C27.29,-10.81 27.36,-10.59 27.37,-10.37C27.39,-10.16 27.34,-9.98 27.28,-9.79C27.22,-9.61 26.98,-9.5 27.01,-9.28C27.03,-9.06 27.31,-8.72 27.43,-8.47C27.55,-8.21 27.65,-7.95 27.7,-7.72C27.75,-7.49 27.76,-7.29 27.73,-7.1C27.69,-6.91 27.6,-6.74 27.5,-6.59C27.4,-6.43 27.16,-6.35 27.13,-6.15C27.1,-5.95 27.28,-5.64 27.32,-5.4C27.37,-5.17 27.4,-4.94 27.39,-4.74C27.37,-4.53 27.32,-4.35 27.24,-4.19C27.15,-4.03 27.02,-3.9 26.88,-3.77C26.73,-3.64 26.48,-3.59 26.38,-3.43C26.29,-3.27 26.35,-3 26.3,-2.8C26.25,-2.61 26.19,-2.42 26.09,-2.27C25.99,-2.11 25.85,-1.98 25.68,-1.88C25.51,-1.77 25.29,-1.7 25.07,-1.63C24.84,-1.56 24.52,-1.59 24.33,-1.47C24.14,-1.35 24.09,-1.08 23.92,-0.93C23.75,-0.77 23.57,-0.63 23.32,-0.54C23.08,-0.46 22.78,-0.42 22.44,-0.42C22.09,-0.42 21.68,-0.48 21.25,-0.55C20.83,-0.62 20.2,-0.88 19.88,-0.84C19.57,-0.81 19.57,-0.49 19.37,-0.36C19.16,-0.23 18.95,-0.12 18.67,-0.07C18.39,-0.03 18.07,-0.04 17.69,-0.1C17.32,-0.17 16.88,-0.3 16.43,-0.45C15.98,-0.6 15.3,-0.95 14.99,-1C14.69,-1.05 14.76,-0.81 14.62,-0.75C14.47,-0.7 14.32,-0.65 14.14,-0.65C13.95,-0.66 13.74,-0.7 13.49,-0.78C13.25,-0.87 12.97,-1.01 12.69,-1.15C12.4,-1.3 12,-1.62 11.78,-1.66C11.56,-1.71 11.52,-1.49 11.38,-1.44C11.23,-1.39 11.07,-1.35 10.89,-1.37C10.7,-1.39 10.49,-1.44 10.26,-1.54C10.03,-1.64 9.77,-1.8 9.5,-1.97C9.23,-2.13 8.9,-2.52 8.65,-2.54C8.4,-2.57 8.25,-2.24 8.02,-2.14C7.8,-2.05 7.58,-1.96 7.32,-1.96C7.06,-1.95 6.78,-2.01 6.48,-2.12C6.18,-2.23 5.85,-2.42 5.52,-2.63C5.18,-2.83 4.78,-3.32 4.47,-3.35C4.16,-3.38 3.93,-2.95 3.66,-2.82C3.38,-2.68 3.11,-2.55 2.82,-2.52C2.53,-2.48 2.23,-2.51 1.92,-2.61C1.62,-2.7 1.3,-2.89 0.98,-3.09C0.66,-3.29 0.33,-3.81 0,-3.81C-0.33,-3.81 -0.66,-3.29 -0.98,-3.09C-1.3,-2.89 -1.62,-2.7 -1.92,-2.61C-2.23,-2.51 -2.53,-2.48 -2.82,-2.52C-3.11,-2.55 -3.38,-2.68 -3.66,-2.82C-3.93,-2.95 -4.16,-3.38 -4.47,-3.35C-4.78,-3.32 -5.18,-2.83 -5.52,-2.63C-5.85,-2.42 -6.18,-2.23 -6.48,-2.12C-6.78,-2.01 -7.06,-1.95 -7.32,-1.96C-7.58,-1.96 -7.8,-2.05 -8.02,-2.14C-8.25,-2.24 -8.4,-2.57 -8.65,-2.54C-8.9,-2.52 -9.23,-2.13 -9.5,-1.97C-9.77,-1.8 -10.03,-1.64 -10.26,-1.54C-10.49,-1.44 -10.7,-1.39 -10.89,-1.37C-11.07,-1.35 -11.23,-1.39 -11.38,-1.44C-11.52,-1.49 -11.56,-1.71 -11.78,-1.66C-12,-1.62 -12.4,-1.3 -12.69,-1.15C-12.97,-1.01 -13.25,-0.87 -13.49,-0.78C-13.74,-0.7 -13.95,-0.66 -14.14,-0.65C-14.32,-0.65 -14.47,-0.7 -14.62,-0.75C-14.76,-0.81 -14.69,-1.05 -14.99,-1C-15.3,-0.95 -15.98,-0.6 -16.43,-0.45C-16.88,-0.3 -17.32,-0.17 -17.69,-0.1C-18.07,-0.04 -18.39,-0.03 -18.67,-0.07C-18.95,-0.12 -19.16,-0.23 -19.37,-0.36C-19.57,-0.49 -19.57,-0.81 -19.88,-0.84C-20.2,-0.88 -20.83,-0.62 -21.25,-0.55C-21.68,-0.48 -22.09,-0.42 -22.44,-0.42C-22.78,-0.42 -23.08,-0.46 -23.32,-0.54C-23.57,-0.63 -23.75,-0.77 -23.92,-0.93C-24.09,-1.08 -24.14,-1.35 -24.33,-1.47C-24.52,-1.59 -24.84,-1.56 -25.07,-1.63C-25.29,-1.7 -25.51,-1.77 -25.68,-1.88C-25.85,-1.98 -25.99,-2.11 -26.09,-2.27C-26.19,-2.42 -26.25,-2.61 -26.3,-2.8C-26.35,-3 -26.29,-3.27 -26.38,-3.43C-26.48,-3.59 -26.73,-3.64 -26.88,-3.77C-27.02,-3.9 -27.15,-4.03 -27.24,-4.19C-27.32,-4.35 -27.37,-4.53 -27.39,-4.74C-27.4,-4.94 -27.37,-5.17 -27.32,-5.4C-27.28,-5.64 -27.1,-5.95 -27.13,-6.15C-27.16,-6.35 -27.4,-6.43 -27.5,-6.59C-27.6,-6.74 -27.69,-6.91 -27.73,-7.1C-27.76,-7.29 -27.75,-7.49 -27.7,-7.72C-27.65,-7.95 -27.55,-8.21 -27.43,-8.47C-27.31,-8.72 -27.03,-9.06 -27.01,-9.28C-26.98,-9.5 -27.22,-9.61 -27.28,-9.79C-27.34,-9.98 -27.39,-10.16 -27.37,-10.37C-27.36,-10.59 -27.29,-10.81 -27.17,-11.06C-27.06,-11.31 -26.88,-11.57 -26.68,-11.85C-26.49,-12.12 -26.1,-12.47 -26.01,-12.7C-25.92,-12.94 -26.13,-13.06 -26.13,-13.25C-26.13,-13.44 -26.13,-13.63 -26.04,-13.85C-25.95,-14.06 -25.81,-14.29 -25.6,-14.53C-25.4,-14.77 -25.12,-15.03 -24.83,-15.29C-24.53,-15.56 -23.98,-15.87 -23.84,-16.11C-23.71,-16.36 -24,-16.55 -24.02,-16.77C-24.04,-16.99 -24.05,-17.22 -23.97,-17.45C-23.9,-17.69 -23.76,-17.93 -23.56,-18.17C-23.37,-18.42 -23.09,-18.68 -22.8,-18.94C-22.51,-19.19 -21.89,-19.45 -21.81,-19.72C-21.74,-19.99 -22.19,-20.28 -22.33,-20.56C-22.46,-20.84 -22.59,-21.12 -22.63,-21.39C-22.67,-21.66 -22.65,-21.93 -22.57,-22.19C-22.5,-22.46 -22.34,-22.72 -22.17,-22.98C-22,-23.23 -21.55,-23.46 -21.55,-23.75C-21.55,-24.04 -22,-24.41 -22.18,-24.72C-22.35,-25.04 -22.51,-25.35 -22.59,-25.64C-22.67,-25.94 -22.68,-26.21 -22.64,-26.48C-22.6,-26.74 -22.48,-26.98 -22.35,-27.22C-22.21,-27.46 -21.82,-27.62 -21.83,-27.92C-21.84,-28.21 -22.25,-28.63 -22.41,-28.97C-22.56,-29.3 -22.71,-29.64 -22.78,-29.93C-22.85,-30.23 -22.86,-30.51 -22.82,-30.76C-22.78,-31.01 -22.66,-31.22 -22.53,-31.43C-22.4,-31.65 -22.04,-31.74 -22.04,-32.03C-22.04,-32.31 -22.4,-32.79 -22.54,-33.14C-22.67,-33.5 -22.79,-33.84 -22.85,-34.15C-22.9,-34.45 -22.9,-34.72 -22.85,-34.96C-22.8,-35.2 -22.69,-35.4 -22.56,-35.59C-22.43,-35.78 -22.09,-35.82 -22.07,-36.11C-22.06,-36.4 -22.37,-36.96 -22.47,-37.34C-22.57,-37.73 -22.66,-38.11 -22.69,-38.43C-22.71,-38.76 -22.69,-39.04 -22.62,-39.29C-22.54,-39.53 -22.41,-39.72 -22.25,-39.91C-22.1,-40.09 -21.77,-40.11 -21.71,-40.38C-21.65,-40.64 -21.86,-41.15 -21.89,-41.5C-21.93,-41.85 -21.96,-42.19 -21.93,-42.48C-21.9,-42.76 -21.84,-43.01 -21.73,-43.21C-21.63,-43.42 -21.47,-43.57 -21.31,-43.71C-21.14,-43.85 -20.84,-43.88 -20.74,-44.06C-20.63,-44.25 -20.72,-44.58 -20.69,-44.8C-20.66,-45.03 -20.62,-45.25 -20.55,-45.43C-20.48,-45.61 -20.38,-45.76 -20.26,-45.88C-20.15,-46 -19.99,-46.08 -19.83,-46.15C-19.68,-46.22 -19.46,-46.17 -19.31,-46.3C-19.17,-46.44 -19.08,-46.77 -18.94,-46.97C-18.79,-47.16 -18.64,-47.35 -18.45,-47.48C-18.27,-47.6 -18.05,-47.69 -17.8,-47.73C-17.56,-47.77 -17.27,-47.76 -16.98,-47.73C-16.69,-47.71 -16.38,-47.43 -16.05,-47.58C-15.73,-47.72 -15.39,-48.31 -15.02,-48.59C-14.65,-48.86 -14.26,-49.12 -13.82,-49.24C-13.38,-49.36 -12.89,-49.38 -12.36,-49.31C-11.82,-49.23 -11.23,-49.03 -10.63,-48.8C-10.03,-48.57 -9.31,-47.87 -8.74,-47.93C-8.16,-47.98 -7.71,-48.8 -7.18,-49.12C-6.65,-49.44 -6.12,-49.73 -5.56,-49.85C-4.99,-49.97 -4.41,-49.96 -3.81,-49.83C-3.21,-49.69 -2.58,-49.39 -1.94,-49.05C-1.31,-48.71 -0.65,-47.81 0,-47.81Z" fill="#FFFFFF"/><g clip-path="url(#c-k2)"><path d="M1.12,-24.34C0.94,-24.69 0.81,-25.06 0.71,-25.46C0.6,-25.86 0.54,-26.29 0.49,-26.72C0.45,-27.16 0.44,-27.61 0.44,-28.06C0.44,-28.51 0.47,-28.96 0.5,-29.4C0.53,-29.84 0.58,-30.26 0.63,-30.67C0.68,-31.09 0.74,-31.49 0.82,-31.9C0.9,-32.31 0.99,-32.73 1.11,-33.14C1.22,-33.54 1.35,-33.95 1.49,-34.34C1.64,-34.73 1.81,-35.11 1.99,-35.47C2.18,-35.83 2.38,-36.17 2.62,-36.5C2.85,-36.82 3.11,-37.13 3.39,-37.44C3.67,-37.74 3.98,-38.04 4.3,-38.31C4.62,-38.59 4.96,-38.86 5.31,-39.1C5.66,-39.34 6.03,-39.57 6.39,-39.76C6.75,-39.95 7.12,-40.12 7.49,-40.26C7.87,-40.4 8.25,-40.51 8.65,-40.61C9.05,-40.7 9.48,-40.77 9.9,-40.82C10.32,-40.87 10.75,-40.89 11.17,-40.9C11.6,-40.9 12.03,-40.87 12.43,-40.83C12.84,-40.78 13.23,-40.71 13.62,-40.61C14,-40.51 14.37,-40.38 14.74,-40.22C15.11,-40.06 15.48,-39.86 15.83,-39.65C16.19,-39.44 16.55,-39.21 16.89,-38.96C17.23,-38.71 17.56,-38.44 17.88,-38.17C18.2,-37.89 18.49,-37.61 18.79,-37.32C19.09,-37.02 19.38,-36.72 19.67,-36.4C19.96,-36.08 20.25,-35.74 20.52,-35.39C20.79,-35.04 21.05,-34.67 21.28,-34.3C21.51,-33.93 21.73,-33.55 21.9,-33.16C22.08,-32.77 22.22,-32.38 22.32,-31.97C22.43,-31.56 22.49,-31.14 22.54,-30.7C22.58,-30.26 22.59,-29.8 22.58,-29.34C22.57,-28.88 22.53,-28.4 22.47,-27.94C22.41,-27.48 22.32,-27.02 22.21,-26.58C22.1,-26.15 21.97,-25.73 21.82,-25.32C21.66,-24.91 21.48,-24.52 21.27,-24.12C21.06,-23.72 20.82,-23.32 20.56,-22.94C20.31,-22.56 20.02,-22.18 19.73,-21.83C19.43,-21.48 19.11,-21.15 18.79,-20.86C18.47,-20.57 18.14,-20.31 17.79,-20.09C17.44,-19.86 17.08,-19.68 16.69,-19.52C16.3,-19.37 15.88,-19.24 15.46,-19.14C15.04,-19.03 14.6,-18.96 14.17,-18.9C13.74,-18.84 13.3,-18.81 12.88,-18.79C12.46,-18.77 12.05,-18.76 11.64,-18.78C11.24,-18.79 10.85,-18.83 10.46,-18.88C10.07,-18.94 9.68,-19.02 9.3,-19.12C8.91,-19.22 8.53,-19.34 8.15,-19.47C7.77,-19.6 7.4,-19.75 7.03,-19.92C6.67,-20.08 6.32,-20.25 5.96,-20.44C5.6,-20.63 5.24,-20.82 4.87,-21.04C4.5,-21.25 4.12,-21.48 3.76,-21.72C3.4,-21.96 3.03,-22.22 2.7,-22.5C2.38,-22.77 2.06,-23.06 1.8,-23.37C1.54,-23.68 1.31,-23.99 1.12,-24.34Z" fill="#2E2A33"/><path d="M-19.41,-22.15C-19.16,-22.31 -18.9,-22.45 -18.63,-22.58C-18.36,-22.71 -18.07,-22.82 -17.78,-22.92C-17.49,-23.02 -17.19,-23.1 -16.88,-23.17C-16.58,-23.24 -16.27,-23.29 -15.97,-23.34C-15.66,-23.38 -15.37,-23.41 -15.06,-23.44C-14.75,-23.47 -14.44,-23.5 -14.12,-23.51C-13.79,-23.53 -13.45,-23.54 -13.13,-23.53C-12.8,-23.53 -12.46,-23.51 -12.14,-23.47C-11.82,-23.43 -11.51,-23.37 -11.22,-23.29C-10.93,-23.2 -10.66,-23.09 -10.41,-22.94C-10.17,-22.79 -9.95,-22.6 -9.74,-22.39C-9.53,-22.17 -9.34,-21.92 -9.16,-21.65C-8.98,-21.39 -8.82,-21.1 -8.66,-20.81C-8.49,-20.52 -8.35,-20.21 -8.2,-19.92C-8.05,-19.62 -7.91,-19.34 -7.76,-19.05C-7.62,-18.76 -7.46,-18.48 -7.31,-18.19C-7.16,-17.9 -7,-17.6 -6.86,-17.31C-6.72,-17.01 -6.58,-16.7 -6.47,-16.4C-6.36,-16.1 -6.26,-15.79 -6.2,-15.5C-6.15,-15.2 -6.12,-14.91 -6.13,-14.61C-6.14,-14.31 -6.2,-14.01 -6.28,-13.7C-6.36,-13.4 -6.48,-13.08 -6.61,-12.77C-6.74,-12.47 -6.91,-12.16 -7.07,-11.86C-7.24,-11.57 -7.43,-11.28 -7.63,-11.02C-7.82,-10.76 -8.01,-10.52 -8.22,-10.29C-8.43,-10.07 -8.64,-9.87 -8.88,-9.68C-9.11,-9.49 -9.37,-9.32 -9.63,-9.15C-9.89,-8.99 -10.16,-8.84 -10.44,-8.71C-10.72,-8.57 -11,-8.45 -11.28,-8.34C-11.56,-8.23 -11.84,-8.14 -12.11,-8.05C-12.39,-7.97 -12.67,-7.9 -12.96,-7.84C-13.24,-7.78 -13.54,-7.73 -13.83,-7.7C-14.12,-7.67 -14.42,-7.65 -14.71,-7.64C-15,-7.64 -15.29,-7.65 -15.58,-7.67C-15.86,-7.7 -16.14,-7.74 -16.42,-7.81C-16.7,-7.87 -16.97,-7.95 -17.25,-8.04C-17.53,-8.13 -17.82,-8.25 -18.09,-8.37C-18.37,-8.5 -18.64,-8.64 -18.9,-8.8C-19.16,-8.95 -19.41,-9.12 -19.64,-9.3C-19.87,-9.48 -20.09,-9.67 -20.28,-9.88C-20.47,-10.08 -20.64,-10.3 -20.8,-10.54C-20.97,-10.78 -21.11,-11.04 -21.24,-11.31C-21.38,-11.58 -21.5,-11.86 -21.61,-12.14C-21.72,-12.43 -21.81,-12.72 -21.9,-13.01C-21.99,-13.3 -22.07,-13.59 -22.14,-13.89C-22.22,-14.18 -22.29,-14.48 -22.36,-14.79C-22.42,-15.1 -22.49,-15.43 -22.53,-15.75C-22.58,-16.07 -22.62,-16.4 -22.63,-16.72C-22.64,-17.03 -22.64,-17.35 -22.61,-17.66C-22.58,-17.96 -22.52,-18.25 -22.43,-18.53C-22.34,-18.81 -22.21,-19.08 -22.06,-19.35C-21.91,-19.63 -21.72,-19.9 -21.53,-20.16C-21.33,-20.42 -21.1,-20.68 -20.87,-20.92C-20.65,-21.15 -20.4,-21.38 -20.15,-21.59C-19.91,-21.79 -19.66,-21.98 -19.41,-22.15Z" fill="#2E2A33"/><path d="M-3.3,-43.53C-3.16,-43.59 -3.02,-43.64 -2.88,-43.69C-2.74,-43.73 -2.59,-43.77 -2.44,-43.8C-2.29,-43.83 -2.13,-43.86 -1.98,-43.87C-1.83,-43.89 -1.68,-43.89 -1.53,-43.89C-1.38,-43.88 -1.24,-43.87 -1.1,-43.84C-0.96,-43.82 -0.82,-43.78 -0.68,-43.73C-0.54,-43.68 -0.4,-43.62 -0.26,-43.56C-0.12,-43.49 0.01,-43.41 0.14,-43.33C0.27,-43.25 0.4,-43.15 0.52,-43.06C0.63,-42.97 0.74,-42.87 0.84,-42.77C0.94,-42.66 1.03,-42.55 1.12,-42.44C1.21,-42.32 1.29,-42.19 1.37,-42.06C1.44,-41.93 1.51,-41.79 1.57,-41.65C1.63,-41.52 1.69,-41.37 1.73,-41.23C1.78,-41.1 1.81,-40.96 1.84,-40.82C1.87,-40.68 1.88,-40.55 1.89,-40.41C1.9,-40.27 1.89,-40.12 1.88,-39.98C1.87,-39.84 1.85,-39.69 1.83,-39.55C1.81,-39.41 1.78,-39.26 1.75,-39.12C1.71,-38.98 1.68,-38.85 1.64,-38.71C1.6,-38.57 1.56,-38.43 1.51,-38.29C1.47,-38.15 1.42,-38 1.36,-37.86C1.31,-37.72 1.25,-37.58 1.18,-37.44C1.11,-37.31 1.04,-37.18 0.95,-37.07C0.87,-36.96 0.78,-36.85 0.68,-36.76C0.58,-36.67 0.47,-36.6 0.34,-36.53C0.22,-36.46 0.09,-36.4 -0.05,-36.35C-0.19,-36.3 -0.34,-36.26 -0.48,-36.22C-0.63,-36.18 -0.78,-36.16 -0.93,-36.13C-1.08,-36.1 -1.22,-36.08 -1.36,-36.07C-1.51,-36.05 -1.65,-36.03 -1.8,-36.02C-1.94,-36.01 -2.1,-36 -2.25,-36.01C-2.4,-36.01 -2.55,-36.01 -2.7,-36.03C-2.85,-36.04 -2.99,-36.07 -3.13,-36.1C-3.27,-36.14 -3.4,-36.18 -3.52,-36.24C-3.64,-36.31 -3.76,-36.38 -3.87,-36.47C-3.99,-36.55 -4.1,-36.66 -4.2,-36.76C-4.31,-36.87 -4.41,-36.99 -4.51,-37.11C-4.6,-37.23 -4.69,-37.36 -4.78,-37.48C-4.86,-37.61 -4.94,-37.73 -5.02,-37.86C-5.09,-37.99 -5.16,-38.12 -5.23,-38.25C-5.3,-38.39 -5.37,-38.53 -5.42,-38.67C-5.48,-38.81 -5.54,-38.95 -5.58,-39.1C-5.62,-39.25 -5.66,-39.39 -5.69,-39.54C-5.71,-39.68 -5.72,-39.83 -5.73,-39.97C-5.73,-40.12 -5.72,-40.27 -5.7,-40.42C-5.68,-40.57 -5.65,-40.72 -5.61,-40.88C-5.57,-41.03 -5.52,-41.18 -5.47,-41.33C-5.41,-41.48 -5.35,-41.63 -5.28,-41.76C-5.21,-41.9 -5.13,-42.02 -5.05,-42.15C-4.97,-42.27 -4.88,-42.38 -4.78,-42.49C-4.68,-42.6 -4.56,-42.71 -4.45,-42.81C-4.33,-42.91 -4.21,-43.01 -4.08,-43.09C-3.96,-43.18 -3.82,-43.26 -3.69,-43.34C-3.56,-43.41 -3.43,-43.48 -3.3,-43.53Z" fill="#2E2A33"/><path d="M27.23,-14.52C27.5,-14.52 27.77,-14.53 28.05,-14.51C28.32,-14.5 28.6,-14.48 28.88,-14.45C29.15,-14.42 29.43,-14.37 29.7,-14.31C29.96,-14.25 30.23,-14.18 30.49,-14.09C30.74,-14 30.99,-13.9 31.23,-13.78C31.47,-13.65 31.71,-13.51 31.95,-13.36C32.19,-13.2 32.43,-13.02 32.66,-12.84C32.89,-12.65 33.12,-12.45 33.32,-12.24C33.53,-12.03 33.72,-11.81 33.89,-11.58C34.06,-11.36 34.2,-11.13 34.32,-10.88C34.44,-10.64 34.53,-10.39 34.6,-10.12C34.68,-9.85 34.72,-9.57 34.76,-9.28C34.79,-8.99 34.81,-8.69 34.82,-8.4C34.82,-8.1 34.81,-7.8 34.8,-7.51C34.79,-7.22 34.77,-6.94 34.75,-6.65C34.72,-6.37 34.7,-6.09 34.66,-5.81C34.62,-5.53 34.58,-5.24 34.52,-4.96C34.46,-4.68 34.39,-4.39 34.31,-4.12C34.23,-3.85 34.14,-3.57 34.02,-3.32C33.91,-3.06 33.79,-2.82 33.64,-2.57C33.49,-2.33 33.33,-2.1 33.15,-1.86C32.96,-1.63 32.76,-1.4 32.55,-1.17C32.34,-0.95 32.11,-0.74 31.87,-0.54C31.64,-0.35 31.39,-0.16 31.14,-0.01C30.9,0.15 30.65,0.28 30.38,0.4C30.12,0.51 29.84,0.6 29.55,0.67C29.26,0.74 28.95,0.8 28.64,0.84C28.33,0.87 28.01,0.89 27.7,0.89C27.39,0.89 27.07,0.87 26.78,0.83C26.49,0.79 26.21,0.73 25.95,0.64C25.68,0.55 25.44,0.43 25.2,0.29C24.96,0.15 24.73,-0.03 24.5,-0.22C24.28,-0.41 24.06,-0.62 23.85,-0.83C23.64,-1.05 23.44,-1.28 23.23,-1.49C23.03,-1.71 22.84,-1.93 22.64,-2.14C22.44,-2.36 22.24,-2.56 22.03,-2.78C21.83,-3 21.62,-3.21 21.42,-3.44C21.23,-3.66 21.03,-3.89 20.86,-4.13C20.69,-4.36 20.53,-4.6 20.4,-4.85C20.28,-5.1 20.18,-5.35 20.12,-5.61C20.05,-5.87 20.03,-6.15 20.02,-6.43C20.02,-6.71 20.04,-7.01 20.08,-7.31C20.12,-7.61 20.18,-7.92 20.25,-8.21C20.32,-8.51 20.42,-8.81 20.51,-9.1C20.6,-9.38 20.7,-9.66 20.8,-9.93C20.91,-10.2 21.02,-10.46 21.14,-10.73C21.27,-11 21.41,-11.27 21.55,-11.53C21.7,-11.79 21.86,-12.05 22.03,-12.29C22.2,-12.53 22.38,-12.76 22.57,-12.96C22.77,-13.16 22.96,-13.34 23.18,-13.5C23.4,-13.66 23.64,-13.78 23.89,-13.89C24.14,-14.01 24.41,-14.1 24.68,-14.17C24.96,-14.25 25.25,-14.31 25.53,-14.36C25.82,-14.41 26.11,-14.44 26.4,-14.47C26.68,-14.49 26.95,-14.51 27.23,-14.52Z" fill="#2E2A33"/><path d="M3.97,-7.66C4.05,-7.71 4.13,-7.77 4.22,-7.82C4.31,-7.87 4.4,-7.91 4.49,-7.96C4.59,-8 4.68,-8.04 4.78,-8.07C4.88,-8.11 4.98,-8.14 5.09,-8.16C5.19,-8.19 5.29,-8.21 5.39,-8.22C5.5,-8.24 5.6,-8.25 5.71,-8.26C5.82,-8.28 5.94,-8.28 6.05,-8.29C6.17,-8.29 6.28,-8.29 6.4,-8.28C6.51,-8.27 6.62,-8.26 6.73,-8.23C6.83,-8.21 6.93,-8.18 7.03,-8.14C7.12,-8.1 7.21,-8.05 7.3,-7.99C7.39,-7.93 7.48,-7.86 7.57,-7.78C7.65,-7.71 7.73,-7.63 7.81,-7.55C7.88,-7.46 7.95,-7.37 8.02,-7.29C8.08,-7.2 8.13,-7.11 8.18,-7.03C8.22,-6.94 8.26,-6.85 8.29,-6.76C8.32,-6.66 8.34,-6.56 8.35,-6.47C8.37,-6.37 8.38,-6.27 8.39,-6.16C8.39,-6.06 8.39,-5.96 8.39,-5.86C8.4,-5.76 8.39,-5.66 8.39,-5.56C8.39,-5.46 8.38,-5.36 8.38,-5.26C8.37,-5.15 8.37,-5.05 8.35,-4.94C8.34,-4.84 8.33,-4.73 8.31,-4.63C8.28,-4.53 8.26,-4.43 8.22,-4.34C8.18,-4.25 8.14,-4.16 8.08,-4.08C8.03,-4 7.96,-3.93 7.89,-3.85C7.81,-3.78 7.72,-3.71 7.63,-3.64C7.54,-3.58 7.44,-3.51 7.35,-3.46C7.25,-3.4 7.14,-3.35 7.04,-3.3C6.94,-3.26 6.84,-3.22 6.74,-3.18C6.63,-3.15 6.53,-3.13 6.43,-3.11C6.32,-3.09 6.22,-3.08 6.11,-3.07C6,-3.06 5.89,-3.06 5.78,-3.07C5.67,-3.07 5.55,-3.08 5.44,-3.09C5.33,-3.1 5.23,-3.11 5.12,-3.13C5.01,-3.14 4.9,-3.16 4.79,-3.18C4.68,-3.2 4.56,-3.22 4.44,-3.25C4.33,-3.28 4.22,-3.31 4.11,-3.35C4,-3.38 3.9,-3.43 3.81,-3.48C3.71,-3.53 3.63,-3.58 3.55,-3.65C3.48,-3.71 3.41,-3.79 3.35,-3.87C3.3,-3.96 3.24,-4.05 3.2,-4.15C3.15,-4.25 3.11,-4.35 3.07,-4.46C3.04,-4.56 3.01,-4.67 2.98,-4.77C2.96,-4.87 2.94,-4.97 2.92,-5.07C2.91,-5.17 2.89,-5.26 2.89,-5.36C2.88,-5.46 2.88,-5.56 2.88,-5.66C2.89,-5.76 2.9,-5.86 2.91,-5.95C2.93,-6.05 2.95,-6.15 2.97,-6.24C2.99,-6.33 3.02,-6.42 3.06,-6.51C3.09,-6.6 3.14,-6.68 3.18,-6.77C3.23,-6.85 3.29,-6.94 3.34,-7.02C3.4,-7.1 3.47,-7.18 3.53,-7.25C3.6,-7.33 3.67,-7.4 3.74,-7.47C3.82,-7.54 3.89,-7.6 3.97,-7.66Z" fill="#2E2A33"/></g><path d="M0,-47.81C0.65,-47.81 1.31,-48.71 1.94,-49.05C2.58,-49.39 3.21,-49.69 3.81,-49.83C4.41,-49.96 4.99,-49.97 5.56,-49.85C6.12,-49.73 6.65,-49.44 7.18,-49.12C7.71,-48.8 8.16,-47.98 8.74,-47.93C9.31,-47.87 10.03,-48.57 10.63,-48.8C11.23,-49.03 11.82,-49.23 12.36,-49.31C12.89,-49.38 13.38,-49.36 13.82,-49.24C14.26,-49.12 14.65,-48.86 15.02,-48.59C15.39,-48.31 15.73,-47.72 16.05,-47.58C16.38,-47.43 16.69,-47.71 16.98,-47.73C17.27,-47.76 17.56,-47.77 17.8,-47.73C18.05,-47.69 18.27,-47.6 18.45,-47.48C18.64,-47.35 18.79,-47.16 18.94,-46.97C19.08,-46.77 19.17,-46.44 19.31,-46.3C19.46,-46.17 19.68,-46.22 19.83,-46.15C19.99,-46.08 20.15,-46 20.26,-45.88C20.38,-45.76 20.48,-45.61 20.55,-45.43C20.62,-45.25 20.66,-45.03 20.69,-44.8C20.72,-44.58 20.63,-44.25 20.74,-44.06C20.84,-43.88 21.14,-43.85 21.31,-43.71C21.47,-43.57 21.63,-43.42 21.73,-43.21C21.84,-43.01 21.9,-42.76 21.93,-42.48C21.96,-42.19 21.93,-41.85 21.89,-41.5C21.86,-41.15 21.65,-40.64 21.71,-40.38C21.77,-40.11 22.1,-40.09 22.25,-39.91C22.41,-39.72 22.54,-39.53 22.62,-39.29C22.69,-39.04 22.71,-38.76 22.69,-38.43C22.66,-38.11 22.57,-37.73 22.47,-37.34C22.37,-36.96 22.06,-36.4 22.07,-36.11C22.09,-35.82 22.43,-35.78 22.56,-35.59C22.69,-35.4 22.8,-35.2 22.85,-34.96C22.9,-34.72 22.9,-34.45 22.85,-34.15C22.79,-33.84 22.67,-33.5 22.54,-33.14C22.4,-32.79 22.04,-32.31 22.04,-32.03C22.04,-31.74 22.4,-31.65 22.53,-31.43C22.66,-31.22 22.78,-31.01 22.82,-30.76C22.86,-30.51 22.85,-30.23 22.78,-29.93C22.71,-29.64 22.56,-29.3 22.41,-28.97C22.25,-28.63 21.84,-28.21 21.83,-27.92C21.82,-27.62 22.21,-27.46 22.35,-27.22C22.48,-26.98 22.6,-26.74 22.64,-26.48C22.68,-26.21 22.67,-25.94 22.59,-25.64C22.51,-25.35 22.35,-25.04 22.18,-24.72C22,-24.41 21.55,-24.04 21.55,-23.75C21.55,-23.46 22,-23.23 22.17,-22.98C22.34,-22.72 22.5,-22.46 22.57,-22.19C22.65,-21.93 22.67,-21.66 22.63,-21.39C22.59,-21.12 22.46,-20.84 22.33,-20.56C22.19,-20.28 21.74,-19.99 21.81,-19.72C21.89,-19.45 22.51,-19.19 22.8,-18.94C23.09,-18.68 23.37,-18.42 23.56,-18.17C23.76,-17.93 23.9,-17.69 23.97,-17.45C24.05,-17.22 24.04,-16.99 24.02,-16.77C24,-16.55 23.71,-16.36 23.84,-16.11C23.98,-15.87 24.53,-15.56 24.83,-15.29C25.12,-15.03 25.4,-14.77 25.6,-14.53C25.81,-14.29 25.95,-14.06 26.04,-13.85C26.13,-13.63 26.13,-13.44 26.13,-13.25C26.13,-13.06 25.92,-12.94 26.01,-12.7C26.1,-12.47 26.49,-12.12 26.68,-11.85C26.88,-11.57 27.06,-11.31 27.17,-11.06C27.29,-10.81 27.36,-10.59 27.37,-10.37C27.39,-10.16 27.34,-9.98 27.28,-9.79C27.22,-9.61 26.98,-9.5 27.01,-9.28C27.03,-9.06 27.31,-8.72 27.43,-8.47C27.55,-8.21 27.65,-7.95 27.7,-7.72C27.75,-7.49 27.76,-7.29 27.73,-7.1C27.69,-6.91 27.6,-6.74 27.5,-6.59C27.4,-6.43 27.16,-6.35 27.13,-6.15C27.1,-5.95 27.28,-5.64 27.32,-5.4C27.37,-5.17 27.4,-4.94 27.39,-4.74C27.37,-4.53 27.32,-4.35 27.24,-4.19C27.15,-4.03 27.02,-3.9 26.88,-3.77C26.73,-3.64 26.48,-3.59 26.38,-3.43C26.29,-3.27 26.35,-3 26.3,-2.8C26.25,-2.61 26.19,-2.42 26.09,-2.27C25.99,-2.11 25.85,-1.98 25.68,-1.88C25.51,-1.77 25.29,-1.7 25.07,-1.63C24.84,-1.56 24.52,-1.59 24.33,-1.47C24.14,-1.35 24.09,-1.08 23.92,-0.93C23.75,-0.77 23.57,-0.63 23.32,-0.54C23.08,-0.46 22.78,-0.42 22.44,-0.42C22.09,-0.42 21.68,-0.48 21.25,-0.55C20.83,-0.62 20.2,-0.88 19.88,-0.84C19.57,-0.81 19.57,-0.49 19.37,-0.36C19.16,-0.23 18.95,-0.12 18.67,-0.07C18.39,-0.03 18.07,-0.04 17.69,-0.1C17.32,-0.17 16.88,-0.3 16.43,-0.45C15.98,-0.6 15.3,-0.95 14.99,-1C14.69,-1.05 14.76,-0.81 14.62,-0.75C14.47,-0.7 14.32,-0.65 14.14,-0.65C13.95,-0.66 13.74,-0.7 13.49,-0.78C13.25,-0.87 12.97,-1.01 12.69,-1.15C12.4,-1.3 12,-1.62 11.78,-1.66C11.56,-1.71 11.52,-1.49 11.38,-1.44C11.23,-1.39 11.07,-1.35 10.89,-1.37C10.7,-1.39 10.49,-1.44 10.26,-1.54C10.03,-1.64 9.77,-1.8 9.5,-1.97C9.23,-2.13 8.9,-2.52 8.65,-2.54C8.4,-2.57 8.25,-2.24 8.02,-2.14C7.8,-2.05 7.58,-1.96 7.32,-1.96C7.06,-1.95 6.78,-2.01 6.48,-2.12C6.18,-2.23 5.85,-2.42 5.52,-2.63C5.18,-2.83 4.78,-3.32 4.47,-3.35C4.16,-3.38 3.93,-2.95 3.66,-2.82C3.38,-2.68 3.11,-2.55 2.82,-2.52C2.53,-2.48 2.23,-2.51 1.92,-2.61C1.62,-2.7 1.3,-2.89 0.98,-3.09C0.66,-3.29 0.33,-3.81 0,-3.81C-0.33,-3.81 -0.66,-3.29 -0.98,-3.09C-1.3,-2.89 -1.62,-2.7 -1.92,-2.61C-2.23,-2.51 -2.53,-2.48 -2.82,-2.52C-3.11,-2.55 -3.38,-2.68 -3.66,-2.82C-3.93,-2.95 -4.16,-3.38 -4.47,-3.35C-4.78,-3.32 -5.18,-2.83 -5.52,-2.63C-5.85,-2.42 -6.18,-2.23 -6.48,-2.12C-6.78,-2.01 -7.06,-1.95 -7.32,-1.96C-7.58,-1.96 -7.8,-2.05 -8.02,-2.14C-8.25,-2.24 -8.4,-2.57 -8.65,-2.54C-8.9,-2.52 -9.23,-2.13 -9.5,-1.97C-9.77,-1.8 -10.03,-1.64 -10.26,-1.54C-10.49,-1.44 -10.7,-1.39 -10.89,-1.37C-11.07,-1.35 -11.23,-1.39 -11.38,-1.44C-11.52,-1.49 -11.56,-1.71 -11.78,-1.66C-12,-1.62 -12.4,-1.3 -12.69,-1.15C-12.97,-1.01 -13.25,-0.87 -13.49,-0.78C-13.74,-0.7 -13.95,-0.66 -14.14,-0.65C-14.32,-0.65 -14.47,-0.7 -14.62,-0.75C-14.76,-0.81 -14.69,-1.05 -14.99,-1C-15.3,-0.95 -15.98,-0.6 -16.43,-0.45C-16.88,-0.3 -17.32,-0.17 -17.69,-0.1C-18.07,-0.04 -18.39,-0.03 -18.67,-0.07C-18.95,-0.12 -19.16,-0.23 -19.37,-0.36C-19.57,-0.49 -19.57,-0.81 -19.88,-0.84C-20.2,-0.88 -20.83,-0.62 -21.25,-0.55C-21.68,-0.48 -22.09,-0.42 -22.44,-0.42C-22.78,-0.42 -23.08,-0.46 -23.32,-0.54C-23.57,-0.63 -23.75,-0.77 -23.92,-0.93C-24.09,-1.08 -24.14,-1.35 -24.33,-1.47C-24.52,-1.59 -24.84,-1.56 -25.07,-1.63C-25.29,-1.7 -25.51,-1.77 -25.68,-1.88C-25.85,-1.98 -25.99,-2.11 -26.09,-2.27C-26.19,-2.42 -26.25,-2.61 -26.3,-2.8C-26.35,-3 -26.29,-3.27 -26.38,-3.43C-26.48,-3.59 -26.73,-3.64 -26.88,-3.77C-27.02,-3.9 -27.15,-4.03 -27.24,-4.19C-27.32,-4.35 -27.37,-4.53 -27.39,-4.74C-27.4,-4.94 -27.37,-5.17 -27.32,-5.4C-27.28,-5.64 -27.1,-5.95 -27.13,-6.15C-27.16,-6.35 -27.4,-6.43 -27.5,-6.59C-27.6,-6.74 -27.69,-6.91 -27.73,-7.1C-27.76,-7.29 -27.75,-7.49 -27.7,-7.72C-27.65,-7.95 -27.55,-8.21 -27.43,-8.47C-27.31,-8.72 -27.03,-9.06 -27.01,-9.28C-26.98,-9.5 -27.22,-9.61 -27.28,-9.79C-27.34,-9.98 -27.39,-10.16 -27.37,-10.37C-27.36,-10.59 -27.29,-10.81 -27.17,-11.06C-27.06,-11.31 -26.88,-11.57 -26.68,-11.85C-26.49,-12.12 -26.1,-12.47 -26.01,-12.7C-25.92,-12.94 -26.13,-13.06 -26.13,-13.25C-26.13,-13.44 -26.13,-13.63 -26.04,-13.85C-25.95,-14.06 -25.81,-14.29 -25.6,-14.53C-25.4,-14.77 -25.12,-15.03 -24.83,-15.29C-24.53,-15.56 -23.98,-15.87 -23.84,-16.11C-23.71,-16.36 -24,-16.55 -24.02,-16.77C-24.04,-16.99 -24.05,-17.22 -23.97,-17.45C-23.9,-17.69 -23.76,-17.93 -23.56,-18.17C-23.37,-18.42 -23.09,-18.68 -22.8,-18.94C-22.51,-19.19 -21.89,-19.45 -21.81,-19.72C-21.74,-19.99 -22.19,-20.28 -22.33,-20.56C-22.46,-20.84 -22.59,-21.12 -22.63,-21.39C-22.67,-21.66 -22.65,-21.93 -22.57,-22.19C-22.5,-22.46 -22.34,-22.72 -22.17,-22.98C-22,-23.23 -21.55,-23.46 -21.55,-23.75C-21.55,-24.04 -22,-24.41 -22.18,-24.72C-22.35,-25.04 -22.51,-25.35 -22.59,-25.64C-22.67,-25.94 -22.68,-26.21 -22.64,-26.48C-22.6,-26.74 -22.48,-26.98 -22.35,-27.22C-22.21,-27.46 -21.82,-27.62 -21.83,-27.92C-21.84,-28.21 -22.25,-28.63 -22.41,-28.97C-22.56,-29.3 -22.71,-29.64 -22.78,-29.93C-22.85,-30.23 -22.86,-30.51 -22.82,-30.76C-22.78,-31.01 -22.66,-31.22 -22.53,-31.43C-22.4,-31.65 -22.04,-31.74 -22.04,-32.03C-22.04,-32.31 -22.4,-32.79 -22.54,-33.14C-22.67,-33.5 -22.79,-33.84 -22.85,-34.15C-22.9,-34.45 -22.9,-34.72 -22.85,-34.96C-22.8,-35.2 -22.69,-35.4 -22.56,-35.59C-22.43,-35.78 -22.09,-35.82 -22.07,-36.11C-22.06,-36.4 -22.37,-36.96 -22.47,-37.34C-22.57,-37.73 -22.66,-38.11 -22.69,-38.43C-22.71,-38.76 -22.69,-39.04 -22.62,-39.29C-22.54,-39.53 -22.41,-39.72 -22.25,-39.91C-22.1,-40.09 -21.77,-40.11 -21.71,-40.38C-21.65,-40.64 -21.86,-41.15 -21.89,-41.5C-21.93,-41.85 -21.96,-42.19 -21.93,-42.48C-21.9,-42.76 -21.84,-43.01 -21.73,-43.21C-21.63,-43.42 -21.47,-43.57 -21.31,-43.71C-21.14,-43.85 -20.84,-43.88 -20.74,-44.06C-20.63,-44.25 -20.72,-44.58 -20.69,-44.8C-20.66,-45.03 -20.62,-45.25 -20.55,-45.43C-20.48,-45.61 -20.38,-45.76 -20.26,-45.88C-20.15,-46 -19.99,-46.08 -19.83,-46.15C-19.68,-46.22 -19.46,-46.17 -19.31,-46.3C-19.17,-46.44 -19.08,-46.77 -18.94,-46.97C-18.79,-47.16 -18.64,-47.35 -18.45,-47.48C-18.27,-47.6 -18.05,-47.69 -17.8,-47.73C-17.56,-47.77 -17.27,-47.76 -16.98,-47.73C-16.69,-47.71 -16.38,-47.43 -16.05,-47.58C-15.73,-47.72 -15.39,-48.31 -15.02,-48.59C-14.65,-48.86 -14.26,-49.12 -13.82,-49.24C-13.38,-49.36 -12.89,-49.38 -12.36,-49.31C-11.82,-49.23 -11.23,-49.03 -10.63,-48.8C-10.03,-48.57 -9.31,-47.87 -8.74,-47.93C-8.16,-47.98 -7.71,-48.8 -7.18,-49.12C-6.65,-49.44 -6.12,-49.73 -5.56,-49.85C-4.99,-49.97 -4.41,-49.96 -3.81,-49.83C-3.21,-49.69 -2.58,-49.39 -1.94,-49.05C-1.31,-48.71 -0.65,-47.81 0,-47.81Z" fill="none" stroke="#4B3326" stroke-width="2.4" stroke-linejoin="round"/><path d="M-19.61,-15.98C-19.13,-14.96 -16.82,-12 -16.72,-9.89C-16.63,-7.79 -18.65,-4.43 -19.03,-3.34" fill="none" stroke="#4B3326" stroke-width="1.92" stroke-linecap="round" stroke-linejoin="round" opacity="1"/><path d="M19.61,-15.98C19.13,-14.96 16.82,-12 16.72,-9.89C16.63,-7.79 18.65,-4.43 19.03,-3.34" fill="none" stroke="#4B3326" stroke-width="1.92" stroke-linecap="round" stroke-linejoin="round" opacity="1"/><path d="M-9.69,-28.15C-8.69,-29.73 -4.96,-29.73 -4.15,-28.15C-3.35,-26.57 -4.7,-20.4 -4.87,-18.68C-5.03,-16.97 -4.31,-17.99 -5.14,-17.85C-5.97,-17.71 -9.02,-17.71 -9.85,-17.85C-10.68,-17.99 -10.15,-16.97 -10.13,-18.68C-10.1,-20.4 -10.68,-26.57 -9.69,-28.15Z" fill="#FFFFFF"/><g clip-path="url(#c-k3)"><rect x="-37.4964434688" y="-20.342581829632" width="60" height="6.491125829632001" fill="#5A4038"/><rect x="-37.4964434688" y="-20.342581829632" width="60" height="1" fill="#5A4038"/></g><path d="M-9.69,-28.15C-8.69,-29.73 -4.96,-29.73 -4.15,-28.15C-3.35,-26.57 -4.7,-20.4 -4.87,-18.68C-5.03,-16.97 -4.31,-17.99 -5.14,-17.85C-5.97,-17.71 -9.02,-17.71 -9.85,-17.85C-10.68,-17.99 -10.15,-16.97 -10.13,-18.68C-10.1,-20.4 -10.68,-26.57 -9.69,-28.15Z" fill="none" stroke="#4B3326" stroke-width="2.16" stroke-linejoin="round"/><path d="M4.15,-28.15C4.96,-29.73 8.69,-29.73 9.69,-28.15C10.68,-26.57 10.1,-20.4 10.13,-18.68C10.15,-16.97 10.68,-17.99 9.85,-17.85C9.02,-17.71 5.97,-17.71 5.14,-17.85C4.31,-17.99 5.03,-16.97 4.87,-18.68C4.7,-20.4 3.35,-26.57 4.15,-28.15Z" fill="#FFFFFF"/><g clip-path="url(#c-k4)"><rect x="-22.503556531199997" y="-20.342581829632" width="60" height="6.491125829632001" fill="#5A4038"/><rect x="-22.503556531199997" y="-20.342581829632" width="60" height="1" fill="#5A4038"/></g><path d="M4.15,-28.15C4.96,-29.73 8.69,-29.73 9.69,-28.15C10.68,-26.57 10.1,-20.4 10.13,-18.68C10.15,-16.97 10.68,-17.99 9.85,-17.85C9.02,-17.71 5.97,-17.71 5.14,-17.85C4.31,-17.99 5.03,-16.97 4.87,-18.68C4.7,-20.4 3.35,-26.57 4.15,-28.15Z" fill="none" stroke="#4B3326" stroke-width="2.16" stroke-linejoin="round"/><path d="M-17,-65.67C-17.18,-66.49 -18,-67.45 -18.41,-67.93C-18.82,-68.41 -19.13,-68.41 -19.47,-68.56C-19.8,-68.7 -20.12,-68.75 -20.43,-68.78C-20.74,-68.81 -21.04,-68.79 -21.33,-68.75C-21.63,-68.71 -21.92,-68.64 -22.2,-68.55C-22.48,-68.46 -22.76,-68.34 -23.04,-68.2C-23.31,-68.07 -23.58,-67.92 -23.85,-67.75C-24.11,-67.59 -24.38,-67.41 -24.64,-67.22C-24.9,-67.03 -25.16,-66.83 -25.42,-66.62C-25.68,-66.41 -25.93,-66.19 -26.18,-65.97C-26.44,-65.74 -26.69,-65.51 -26.94,-65.27C-27.19,-65.04 -27.44,-64.8 -27.69,-64.55C-27.94,-64.3 -28.19,-64.06 -28.43,-63.79C-28.68,-63.53 -29.21,-63.17 -29.16,-62.95C-29.11,-62.74 -28.48,-62.64 -28.15,-62.51C-27.81,-62.37 -27.48,-62.25 -27.15,-62.14C-26.82,-62.02 -26.49,-61.91 -26.16,-61.8C-25.84,-61.69 -25.51,-61.59 -25.18,-61.5C-24.86,-61.4 -24.54,-61.31 -24.21,-61.23C-23.89,-61.16 -23.57,-61.08 -23.25,-61.02C-22.94,-60.96 -22.62,-60.91 -22.31,-60.88C-22,-60.84 -21.69,-60.82 -21.38,-60.81C-21.08,-60.81 -20.78,-60.82 -20.48,-60.86C-20.19,-60.9 -19.89,-60.95 -19.61,-61.04C-19.33,-61.13 -19.05,-61.24 -18.78,-61.4C-18.51,-61.57 -18.25,-61.75 -18,-62.02C-17.76,-62.29 -17.49,-62.42 -17.32,-63.03C-17.15,-63.64 -16.81,-64.86 -17,-65.67Z" fill="#2E2A33" stroke="#4B3326" stroke-width="2.4" stroke-linejoin="round"/><path d="M-19.67,-65.08C-19.76,-65.48 -20.23,-65.95 -20.47,-66.18C-20.7,-66.42 -20.88,-66.41 -21.08,-66.48C-21.28,-66.54 -21.46,-66.56 -21.65,-66.57C-21.83,-66.58 -22.01,-66.56 -22.19,-66.54C-22.37,-66.51 -22.54,-66.47 -22.71,-66.42C-22.88,-66.36 -23.05,-66.3 -23.21,-66.22C-23.38,-66.15 -23.54,-66.07 -23.71,-65.98C-23.87,-65.89 -24.03,-65.79 -24.19,-65.69C-24.35,-65.59 -24.51,-65.48 -24.66,-65.37C-24.82,-65.26 -24.98,-65.15 -25.14,-65.03C-25.29,-64.91 -25.45,-64.79 -25.6,-64.66C-25.76,-64.54 -25.91,-64.41 -26.06,-64.28C-26.22,-64.15 -26.37,-64.02 -26.52,-63.88C-26.67,-63.74 -26.99,-63.55 -26.97,-63.44C-26.95,-63.34 -26.57,-63.3 -26.38,-63.24C-26.18,-63.18 -25.99,-63.13 -25.79,-63.07C-25.6,-63.02 -25.41,-62.97 -25.21,-62.93C-25.02,-62.88 -24.83,-62.83 -24.64,-62.79C-24.44,-62.75 -24.25,-62.71 -24.06,-62.68C-23.87,-62.65 -23.68,-62.62 -23.5,-62.59C-23.31,-62.57 -23.12,-62.55 -22.94,-62.54C-22.75,-62.53 -22.57,-62.52 -22.39,-62.53C-22.21,-62.53 -22.03,-62.55 -21.85,-62.57C-21.67,-62.6 -21.5,-62.63 -21.33,-62.68C-21.16,-62.73 -20.99,-62.79 -20.82,-62.88C-20.66,-62.97 -20.5,-63.07 -20.35,-63.21C-20.2,-63.35 -20.03,-63.42 -19.92,-63.74C-19.81,-64.05 -19.58,-64.67 -19.67,-65.08Z" fill="#F6BDB4"/><path d="M17,-65.67C16.81,-64.86 17.15,-63.64 17.32,-63.03C17.49,-62.42 17.76,-62.29 18,-62.02C18.25,-61.75 18.51,-61.57 18.78,-61.4C19.05,-61.24 19.33,-61.13 19.61,-61.04C19.89,-60.95 20.19,-60.9 20.48,-60.86C20.78,-60.82 21.08,-60.81 21.38,-60.81C21.69,-60.82 22,-60.84 22.31,-60.88C22.62,-60.91 22.94,-60.96 23.25,-61.02C23.57,-61.08 23.89,-61.16 24.21,-61.23C24.54,-61.31 24.86,-61.4 25.18,-61.5C25.51,-61.59 25.84,-61.69 26.16,-61.8C26.49,-61.91 26.82,-62.02 27.15,-62.14C27.48,-62.25 27.81,-62.37 28.15,-62.51C28.48,-62.64 29.11,-62.74 29.16,-62.95C29.21,-63.17 28.68,-63.53 28.43,-63.79C28.19,-64.06 27.94,-64.3 27.69,-64.55C27.44,-64.8 27.19,-65.04 26.94,-65.27C26.69,-65.51 26.44,-65.74 26.18,-65.97C25.93,-66.19 25.68,-66.41 25.42,-66.62C25.16,-66.83 24.9,-67.03 24.64,-67.22C24.38,-67.41 24.11,-67.59 23.85,-67.75C23.58,-67.92 23.31,-68.07 23.04,-68.2C22.76,-68.34 22.48,-68.46 22.2,-68.55C21.92,-68.64 21.63,-68.71 21.33,-68.75C21.04,-68.79 20.74,-68.81 20.43,-68.78C20.12,-68.75 19.8,-68.7 19.47,-68.56C19.13,-68.41 18.82,-68.41 18.41,-67.93C18,-67.45 17.18,-66.49 17,-65.67Z" fill="#2E2A33" stroke="#4B3326" stroke-width="2.4" stroke-linejoin="round"/><path d="M19.67,-65.08C19.58,-64.67 19.81,-64.05 19.92,-63.74C20.03,-63.42 20.2,-63.35 20.35,-63.21C20.5,-63.07 20.66,-62.97 20.82,-62.88C20.99,-62.79 21.16,-62.73 21.33,-62.68C21.5,-62.63 21.67,-62.6 21.85,-62.57C22.03,-62.55 22.21,-62.53 22.39,-62.53C22.57,-62.52 22.75,-62.53 22.94,-62.54C23.12,-62.55 23.31,-62.57 23.5,-62.59C23.68,-62.62 23.87,-62.65 24.06,-62.68C24.25,-62.71 24.44,-62.75 24.64,-62.79C24.83,-62.83 25.02,-62.88 25.21,-62.93C25.41,-62.97 25.6,-63.02 25.79,-63.07C25.99,-63.13 26.18,-63.18 26.38,-63.24C26.57,-63.3 26.95,-63.34 26.97,-63.44C26.99,-63.55 26.67,-63.74 26.52,-63.88C26.37,-64.02 26.22,-64.15 26.06,-64.28C25.91,-64.41 25.76,-64.54 25.6,-64.66C25.45,-64.79 25.29,-64.91 25.14,-65.03C24.98,-65.15 24.82,-65.26 24.66,-65.37C24.51,-65.48 24.35,-65.59 24.19,-65.69C24.03,-65.79 23.87,-65.89 23.71,-65.98C23.54,-66.07 23.38,-66.15 23.21,-66.22C23.05,-66.3 22.88,-66.36 22.71,-66.42C22.54,-66.47 22.37,-66.51 22.19,-66.54C22.01,-66.56 21.83,-66.58 21.65,-66.57C21.46,-66.56 21.28,-66.54 21.08,-66.48C20.88,-66.41 20.7,-66.42 20.47,-66.18C20.23,-65.95 19.76,-65.48 19.67,-65.08Z" fill="#F6BDB4"/><path d="M-4.59,-74.9L-5.37,-75.53L-6.06,-76.17L-6.67,-76.81L-7.21,-77.44L-7.68,-78.07L-8.08,-78.7L-8.41,-79.33L-8.67,-79.96L-8.87,-80.6L-9,-81.25L-9.06,-81.91L-9.05,-82.6L-8.97,-83.3L-8.8,-84.02L-8.56,-84.75L-8.23,-85.51L-9.08,-86.04L-9.61,-85.3L-10.06,-84.53L-10.43,-83.74L-10.73,-82.93L-10.95,-82.09L-11.07,-81.23L-11.11,-80.35L-11.06,-79.45L-10.92,-78.54L-10.69,-77.62L-10.37,-76.69L-9.96,-75.76L-9.46,-74.83L-8.88,-73.89L-8.23,-72.95L-7.5,-72Z" fill="#FFF1CF"/><path d="M-7.8,-80.86L-7.99,-81.4L-8.12,-81.95L-8.21,-82.52L-8.27,-83.1L-8.3,-83.7L-8.3,-84.31L-8.26,-84.93L-8.2,-85.56L-9.11,-85.98L-9.55,-85.47L-9.98,-84.95L-10.39,-84.41L-10.79,-83.86L-11.17,-83.29L-11.54,-82.71L-11.9,-82.11L-12.27,-81.5Z" fill="#E6C98F" clip-path="url(#c-k5)"/><path d="M-4.59,-74.9L-5.37,-75.53L-6.06,-76.17L-6.67,-76.81L-7.21,-77.44L-7.68,-78.07L-8.08,-78.7L-8.41,-79.33L-8.67,-79.96L-8.87,-80.6L-9,-81.25L-9.06,-81.91L-9.05,-82.6L-8.97,-83.3L-8.8,-84.02L-8.56,-84.75L-8.23,-85.51L-9.08,-86.04L-9.61,-85.3L-10.06,-84.53L-10.43,-83.74L-10.73,-82.93L-10.95,-82.09L-11.07,-81.23L-11.11,-80.35L-11.06,-79.45L-10.92,-78.54L-10.69,-77.62L-10.37,-76.69L-9.96,-75.76L-9.46,-74.83L-8.88,-73.89L-8.23,-72.95L-7.5,-72Z" fill="none" stroke="#4B3326" stroke-width="2.04" stroke-linejoin="round"/><path d="M7.5,-72L8.23,-72.95L8.88,-73.89L9.46,-74.83L9.96,-75.76L10.37,-76.69L10.69,-77.62L10.92,-78.54L11.06,-79.45L11.11,-80.35L11.07,-81.23L10.95,-82.09L10.73,-82.93L10.43,-83.74L10.06,-84.53L9.61,-85.3L9.08,-86.04L8.23,-85.51L8.56,-84.75L8.8,-84.02L8.97,-83.3L9.05,-82.6L9.06,-81.91L9,-81.25L8.87,-80.6L8.67,-79.96L8.41,-79.33L8.08,-78.7L7.68,-78.07L7.21,-77.44L6.67,-76.81L6.06,-76.17L5.37,-75.53L4.59,-74.9Z" fill="#FFF1CF"/><path d="M12.27,-81.5L11.9,-82.11L11.54,-82.71L11.17,-83.29L10.79,-83.86L10.39,-84.41L9.98,-84.95L9.55,-85.47L9.11,-85.98L8.2,-85.56L8.26,-84.93L8.3,-84.31L8.3,-83.7L8.27,-83.1L8.21,-82.52L8.12,-81.95L7.99,-81.4L7.8,-80.86Z" fill="#E6C98F" clip-path="url(#c-k6)"/><path d="M7.5,-72L8.23,-72.95L8.88,-73.89L9.46,-74.83L9.96,-75.76L10.37,-76.69L10.69,-77.62L10.92,-78.54L11.06,-79.45L11.11,-80.35L11.07,-81.23L10.95,-82.09L10.73,-82.93L10.43,-83.74L10.06,-84.53L9.61,-85.3L9.08,-86.04L8.23,-85.51L8.56,-84.75L8.8,-84.02L8.97,-83.3L9.05,-82.6L9.06,-81.91L9,-81.25L8.87,-80.6L8.67,-79.96L8.41,-79.33L8.08,-78.7L7.68,-78.07L7.21,-77.44L6.67,-76.81L6.06,-76.17L5.37,-75.53L4.59,-74.9Z" fill="none" stroke="#4B3326" stroke-width="2.04" stroke-linejoin="round"/><path d="M18.88,-56.12C18.78,-54.96 18.41,-53.62 18.18,-52.64C17.96,-51.65 17.77,-50.97 17.55,-50.21C17.32,-49.45 17.09,-48.77 16.85,-48.1C16.6,-47.43 16.34,-46.8 16.07,-46.2C15.8,-45.59 15.52,-45.02 15.22,-44.47C14.93,-43.92 14.62,-43.4 14.3,-42.9C13.98,-42.4 13.65,-41.93 13.31,-41.48C12.97,-41.03 12.61,-40.61 12.25,-40.21C11.89,-39.81 11.51,-39.43 11.12,-39.08C10.74,-38.73 10.34,-38.4 9.93,-38.1C9.52,-37.79 9.1,-37.51 8.67,-37.26C8.23,-37.01 7.79,-36.78 7.32,-36.57C6.86,-36.37 6.38,-36.19 5.88,-36.04C5.38,-35.88 4.87,-35.76 4.31,-35.65C3.76,-35.55 3.25,-35.47 2.53,-35.42C1.81,-35.37 0.84,-35.35 0,-35.35C-0.84,-35.35 -1.81,-35.37 -2.53,-35.42C-3.25,-35.47 -3.76,-35.55 -4.31,-35.65C-4.87,-35.76 -5.38,-35.88 -5.88,-36.04C-6.38,-36.19 -6.86,-36.37 -7.32,-36.57C-7.79,-36.78 -8.23,-37.01 -8.67,-37.26C-9.1,-37.51 -9.52,-37.79 -9.93,-38.1C-10.34,-38.4 -10.74,-38.73 -11.12,-39.08C-11.51,-39.43 -11.89,-39.81 -12.25,-40.21C-12.61,-40.61 -12.97,-41.03 -13.31,-41.48C-13.65,-41.93 -13.98,-42.4 -14.3,-42.9C-14.62,-43.4 -14.93,-43.92 -15.22,-44.47C-15.52,-45.02 -15.8,-45.59 -16.07,-46.2C-16.34,-46.8 -16.6,-47.43 -16.85,-48.1C-17.09,-48.77 -17.32,-49.45 -17.55,-50.21C-17.77,-50.97 -17.96,-51.65 -18.18,-52.64C-18.41,-53.62 -18.78,-54.96 -18.88,-56.12C-18.99,-57.28 -18.86,-58.61 -18.81,-59.6C-18.77,-60.58 -18.7,-61.27 -18.6,-62.03C-18.51,-62.79 -18.4,-63.47 -18.26,-64.14C-18.12,-64.81 -17.95,-65.44 -17.77,-66.04C-17.58,-66.65 -17.38,-67.22 -17.14,-67.77C-16.91,-68.32 -16.66,-68.84 -16.39,-69.34C-16.11,-69.83 -15.81,-70.31 -15.49,-70.76C-15.17,-71.21 -14.83,-71.63 -14.47,-72.03C-14.1,-72.43 -13.72,-72.81 -13.31,-73.16C-12.9,-73.51 -12.47,-73.84 -12.02,-74.14C-11.56,-74.45 -11.09,-74.72 -10.59,-74.98C-10.09,-75.23 -9.57,-75.46 -9.02,-75.66C-8.47,-75.87 -7.9,-76.05 -7.29,-76.2C-6.68,-76.35 -6.06,-76.48 -5.37,-76.58C-4.68,-76.69 -4.06,-76.76 -3.16,-76.82C-2.27,-76.87 -1.05,-76.89 0,-76.89C1.05,-76.89 2.27,-76.87 3.16,-76.82C4.06,-76.76 4.68,-76.69 5.37,-76.58C6.06,-76.48 6.68,-76.35 7.29,-76.2C7.9,-76.05 8.47,-75.87 9.02,-75.66C9.57,-75.46 10.09,-75.23 10.59,-74.98C11.09,-74.72 11.56,-74.45 12.02,-74.14C12.47,-73.84 12.9,-73.51 13.31,-73.16C13.72,-72.81 14.1,-72.43 14.47,-72.03C14.83,-71.63 15.17,-71.21 15.49,-70.76C15.81,-70.31 16.11,-69.83 16.39,-69.34C16.66,-68.84 16.91,-68.32 17.14,-67.77C17.38,-67.22 17.58,-66.65 17.77,-66.04C17.95,-65.44 18.12,-64.81 18.26,-64.14C18.4,-63.47 18.51,-62.79 18.6,-62.03C18.7,-61.27 18.77,-60.58 18.81,-59.6C18.86,-58.61 18.99,-57.28 18.88,-56.12Z" fill="#FFFFFF"/><g clip-path="url(#c-k7)"><path d="M13.55,-74.17C13.83,-74.24 14.11,-74.28 14.39,-74.3C14.68,-74.33 14.98,-74.33 15.28,-74.32C15.58,-74.3 15.88,-74.27 16.18,-74.22C16.47,-74.17 16.77,-74.1 17.05,-74.01C17.34,-73.92 17.6,-73.82 17.87,-73.7C18.14,-73.57 18.41,-73.43 18.67,-73.27C18.94,-73.11 19.22,-72.93 19.47,-72.73C19.73,-72.53 19.99,-72.32 20.22,-72.09C20.46,-71.86 20.68,-71.62 20.87,-71.36C21.06,-71.11 21.23,-70.85 21.37,-70.57C21.51,-70.29 21.62,-69.99 21.72,-69.67C21.81,-69.34 21.89,-68.99 21.95,-68.64C22.01,-68.29 22.05,-67.92 22.06,-67.56C22.08,-67.2 22.08,-66.83 22.05,-66.48C22.02,-66.13 21.98,-65.81 21.9,-65.48C21.82,-65.15 21.72,-64.83 21.59,-64.5C21.47,-64.17 21.31,-63.83 21.14,-63.51C20.97,-63.19 20.77,-62.86 20.56,-62.57C20.36,-62.28 20.13,-61.99 19.9,-61.75C19.67,-61.51 19.43,-61.29 19.17,-61.11C18.91,-60.94 18.64,-60.8 18.35,-60.68C18.05,-60.57 17.73,-60.48 17.41,-60.41C17.09,-60.34 16.74,-60.3 16.41,-60.27C16.07,-60.24 15.72,-60.24 15.39,-60.24C15.06,-60.25 14.75,-60.27 14.42,-60.3C14.1,-60.33 13.78,-60.37 13.45,-60.43C13.12,-60.49 12.77,-60.56 12.43,-60.65C12.1,-60.75 11.76,-60.85 11.45,-60.99C11.14,-61.12 10.83,-61.27 10.56,-61.44C10.29,-61.62 10.05,-61.8 9.84,-62.04C9.63,-62.27 9.45,-62.53 9.28,-62.83C9.12,-63.12 8.97,-63.46 8.84,-63.8C8.72,-64.15 8.61,-64.52 8.53,-64.88C8.44,-65.24 8.38,-65.62 8.33,-65.98C8.29,-66.33 8.26,-66.67 8.26,-67C8.26,-67.34 8.28,-67.66 8.32,-68C8.37,-68.33 8.44,-68.68 8.52,-69.01C8.61,-69.34 8.72,-69.68 8.84,-70C8.96,-70.31 9.1,-70.63 9.25,-70.91C9.4,-71.19 9.56,-71.46 9.75,-71.7C9.93,-71.95 10.13,-72.17 10.35,-72.39C10.57,-72.6 10.82,-72.8 11.08,-72.99C11.33,-73.18 11.61,-73.35 11.88,-73.5C12.15,-73.65 12.44,-73.79 12.72,-73.9C13,-74.01 13.27,-74.1 13.55,-74.17Z" fill="#2E2A33"/></g><path d="M18.88,-56.12C18.78,-54.96 18.41,-53.62 18.18,-52.64C17.96,-51.65 17.77,-50.97 17.55,-50.21C17.32,-49.45 17.09,-48.77 16.85,-48.1C16.6,-47.43 16.34,-46.8 16.07,-46.2C15.8,-45.59 15.52,-45.02 15.22,-44.47C14.93,-43.92 14.62,-43.4 14.3,-42.9C13.98,-42.4 13.65,-41.93 13.31,-41.48C12.97,-41.03 12.61,-40.61 12.25,-40.21C11.89,-39.81 11.51,-39.43 11.12,-39.08C10.74,-38.73 10.34,-38.4 9.93,-38.1C9.52,-37.79 9.1,-37.51 8.67,-37.26C8.23,-37.01 7.79,-36.78 7.32,-36.57C6.86,-36.37 6.38,-36.19 5.88,-36.04C5.38,-35.88 4.87,-35.76 4.31,-35.65C3.76,-35.55 3.25,-35.47 2.53,-35.42C1.81,-35.37 0.84,-35.35 0,-35.35C-0.84,-35.35 -1.81,-35.37 -2.53,-35.42C-3.25,-35.47 -3.76,-35.55 -4.31,-35.65C-4.87,-35.76 -5.38,-35.88 -5.88,-36.04C-6.38,-36.19 -6.86,-36.37 -7.32,-36.57C-7.79,-36.78 -8.23,-37.01 -8.67,-37.26C-9.1,-37.51 -9.52,-37.79 -9.93,-38.1C-10.34,-38.4 -10.74,-38.73 -11.12,-39.08C-11.51,-39.43 -11.89,-39.81 -12.25,-40.21C-12.61,-40.61 -12.97,-41.03 -13.31,-41.48C-13.65,-41.93 -13.98,-42.4 -14.3,-42.9C-14.62,-43.4 -14.93,-43.92 -15.22,-44.47C-15.52,-45.02 -15.8,-45.59 -16.07,-46.2C-16.34,-46.8 -16.6,-47.43 -16.85,-48.1C-17.09,-48.77 -17.32,-49.45 -17.55,-50.21C-17.77,-50.97 -17.96,-51.65 -18.18,-52.64C-18.41,-53.62 -18.78,-54.96 -18.88,-56.12C-18.99,-57.28 -18.86,-58.61 -18.81,-59.6C-18.77,-60.58 -18.7,-61.27 -18.6,-62.03C-18.51,-62.79 -18.4,-63.47 -18.26,-64.14C-18.12,-64.81 -17.95,-65.44 -17.77,-66.04C-17.58,-66.65 -17.38,-67.22 -17.14,-67.77C-16.91,-68.32 -16.66,-68.84 -16.39,-69.34C-16.11,-69.83 -15.81,-70.31 -15.49,-70.76C-15.17,-71.21 -14.83,-71.63 -14.47,-72.03C-14.1,-72.43 -13.72,-72.81 -13.31,-73.16C-12.9,-73.51 -12.47,-73.84 -12.02,-74.14C-11.56,-74.45 -11.09,-74.72 -10.59,-74.98C-10.09,-75.23 -9.57,-75.46 -9.02,-75.66C-8.47,-75.87 -7.9,-76.05 -7.29,-76.2C-6.68,-76.35 -6.06,-76.48 -5.37,-76.58C-4.68,-76.69 -4.06,-76.76 -3.16,-76.82C-2.27,-76.87 -1.05,-76.89 0,-76.89C1.05,-76.89 2.27,-76.87 3.16,-76.82C4.06,-76.76 4.68,-76.69 5.37,-76.58C6.06,-76.48 6.68,-76.35 7.29,-76.2C7.9,-76.05 8.47,-75.87 9.02,-75.66C9.57,-75.46 10.09,-75.23 10.59,-74.98C11.09,-74.72 11.56,-74.45 12.02,-74.14C12.47,-73.84 12.9,-73.51 13.31,-73.16C13.72,-72.81 14.1,-72.43 14.47,-72.03C14.83,-71.63 15.17,-71.21 15.49,-70.76C15.81,-70.31 16.11,-69.83 16.39,-69.34C16.66,-68.84 16.91,-68.32 17.14,-67.77C17.38,-67.22 17.58,-66.65 17.77,-66.04C17.95,-65.44 18.12,-64.81 18.26,-64.14C18.4,-63.47 18.51,-62.79 18.6,-62.03C18.7,-61.27 18.77,-60.58 18.81,-59.6C18.86,-58.61 18.99,-57.28 18.88,-56.12Z" fill="none" stroke="#4B3326" stroke-width="2.4" stroke-linejoin="round"/><ellipse cx="-4.53" cy="-59.03" rx="1.59" ry="1.74" fill="#2E1D19"/><ellipse cx="4.53" cy="-59.03" rx="1.59" ry="1.74" fill="#2E1D19"/><path d="M13.22,-44.49C13.22,-44.11 13.18,-43.72 13.11,-43.36C13.04,-43.01 12.94,-42.68 12.8,-42.36C12.66,-42.04 12.49,-41.73 12.28,-41.43C12.07,-41.13 11.83,-40.84 11.56,-40.56C11.29,-40.29 10.99,-40.02 10.66,-39.77C10.33,-39.52 9.96,-39.29 9.58,-39.07C9.19,-38.85 8.77,-38.64 8.33,-38.46C7.89,-38.27 7.42,-38.1 6.94,-37.94C6.45,-37.79 5.94,-37.66 5.41,-37.54C4.88,-37.42 4.33,-37.32 3.76,-37.24C3.19,-37.17 2.62,-37.11 1.99,-37.07C1.36,-37.03 0.66,-37.01 0,-37.01C-0.66,-37.01 -1.36,-37.03 -1.99,-37.07C-2.62,-37.11 -3.19,-37.17 -3.76,-37.24C-4.33,-37.32 -4.88,-37.42 -5.41,-37.54C-5.94,-37.66 -6.45,-37.79 -6.94,-37.94C-7.42,-38.1 -7.89,-38.27 -8.33,-38.46C-8.77,-38.64 -9.19,-38.85 -9.58,-39.07C-9.96,-39.29 -10.33,-39.52 -10.66,-39.77C-10.99,-40.02 -11.29,-40.29 -11.56,-40.56C-11.83,-40.84 -12.07,-41.13 -12.28,-41.43C-12.49,-41.73 -12.66,-42.04 -12.8,-42.36C-12.94,-42.68 -13.04,-43.01 -13.11,-43.36C-13.18,-43.72 -13.22,-44.11 -13.22,-44.49C-13.22,-44.86 -13.18,-45.26 -13.11,-45.61C-13.04,-45.97 -12.94,-46.29 -12.8,-46.61C-12.66,-46.94 -12.49,-47.25 -12.28,-47.55C-12.07,-47.85 -11.83,-48.13 -11.56,-48.41C-11.29,-48.69 -10.99,-48.95 -10.66,-49.2C-10.33,-49.45 -9.96,-49.68 -9.58,-49.9C-9.19,-50.12 -8.77,-50.33 -8.33,-50.52C-7.89,-50.7 -7.42,-50.87 -6.94,-51.03C-6.45,-51.18 -5.94,-51.32 -5.41,-51.43C-4.88,-51.55 -4.33,-51.65 -3.76,-51.73C-3.19,-51.81 -2.62,-51.87 -1.99,-51.9C-1.36,-51.94 -0.66,-51.96 0,-51.96C0.66,-51.96 1.36,-51.94 1.99,-51.9C2.62,-51.87 3.19,-51.81 3.76,-51.73C4.33,-51.65 4.88,-51.55 5.41,-51.43C5.94,-51.32 6.45,-51.18 6.94,-51.03C7.42,-50.87 7.89,-50.7 8.33,-50.52C8.77,-50.33 9.19,-50.12 9.58,-49.9C9.96,-49.68 10.33,-49.45 10.66,-49.2C10.99,-48.95 11.29,-48.69 11.56,-48.41C11.83,-48.13 12.07,-47.85 12.28,-47.55C12.49,-47.25 12.66,-46.94 12.8,-46.61C12.94,-46.29 13.04,-45.97 13.11,-45.61C13.18,-45.26 13.22,-44.86 13.22,-44.49Z" fill="#F7C3C6" stroke="#4B3326" stroke-width="2.28" stroke-linejoin="round"/><ellipse cx="-4.49" cy="-45.23" rx="1.06" ry="1.28" fill="#C98088"/><ellipse cx="4.49" cy="-45.23" rx="1.06" ry="1.28" fill="#C98088"/><path d="M18.51,-64.13C18.51,-66.15 18.66,-71.12 18.51,-72.9C18.36,-74.68 18.19,-74.21 17.6,-74.82C17.01,-75.44 16.09,-76.04 14.97,-76.56C13.85,-77.08 12.42,-77.56 10.88,-77.94C9.34,-78.32 7.53,-78.63 5.72,-78.83C3.91,-79.02 1.91,-79.13 0,-79.13C-1.91,-79.13 -3.91,-79.02 -5.72,-78.83C-7.53,-78.63 -9.34,-78.32 -10.88,-77.94C-12.42,-77.56 -13.85,-77.08 -14.97,-76.56C-16.09,-76.04 -17.01,-75.44 -17.6,-74.82C-18.19,-74.21 -18.36,-74.68 -18.51,-72.9C-18.66,-71.12 -19.02,-66.43 -18.51,-64.13C-17.99,-61.83 -16.45,-59.66 -15.42,-59.11C-14.39,-58.55 -13.37,-61.08 -12.34,-60.81C-11.31,-60.54 -10.28,-57.49 -9.25,-57.49C-8.23,-57.49 -7.2,-60.81 -6.17,-60.81C-5.14,-60.81 -4.11,-57.49 -3.08,-57.49C-2.06,-57.49 -1.03,-60.81 0,-60.81C1.03,-60.81 2.06,-57.49 3.08,-57.49C4.11,-57.49 5.14,-60.81 6.17,-60.81C7.2,-60.81 8.23,-57.49 9.25,-57.49C10.28,-57.49 11.31,-60.54 12.34,-60.81C13.37,-61.08 14.39,-59.11 15.42,-59.11C16.45,-59.11 17.99,-59.97 18.51,-60.81C19.02,-61.65 18.51,-62.12 18.51,-64.13Z" fill="#ffffff" stroke="#4B3326" stroke-width="2.04" stroke-linejoin="round"/><path d="M22.1,-63.65C22.1,-63.5 22.1,-62.92 22.1,-62.77" fill="none" stroke="#4B3326" stroke-width="4.99" stroke-linecap="round" stroke-linejoin="round"/><path d="M22.1,-63.65C22.1,-63.5 22.1,-62.92 22.1,-62.77" fill="none" stroke="#E9B949" stroke-width="0.91" stroke-linecap="round" stroke-linejoin="round"/><ellipse cx="22.1" cy="-61.02" rx="2.19" ry="2.3" fill="#FFD45E" stroke="#4B3326" stroke-width="1.8"/><ellipse cx="22.1" cy="-61.02" rx="0.74" ry="0.74" fill="#E9B949"/></g></svg>
