<svg xmlns="http://www.w3.org/2000/svg" viewBox="-26.3 -63.75 52.6 67.75" width="52.6" height="67.75"><g transform="translate(0,0) scale(0.63,0.63)"><defs><clipPath id="c-k0"><path d="M-16.42,-2.53C-16.42,-2.25 -16.46,-1.95 -16.56,-1.71C-16.65,-1.46 -16.8,-1.26 -16.98,-1.06C-17.17,-0.86 -17.4,-0.68 -17.68,-0.52C-17.95,-0.35 -18.27,-0.21 -18.62,-0.08C-18.98,0.05 -19.37,0.16 -19.8,0.24C-20.22,0.33 -20.66,0.4 -21.19,0.44C-21.72,0.48 -22.37,0.51 -22.96,0.51C-23.56,0.51 -24.21,0.48 -24.74,0.44C-25.26,0.4 -25.7,0.33 -26.13,0.24C-26.56,0.16 -26.95,0.05 -27.31,-0.08C-27.66,-0.21 -27.98,-0.35 -28.25,-0.52C-28.52,-0.68 -28.76,-0.86 -28.94,-1.06C-29.13,-1.26 -29.27,-1.46 -29.37,-1.71C-29.46,-1.95 -29.51,-2.25 -29.51,-2.53C-29.51,-2.8 -29.46,-3.1 -29.37,-3.35C-29.27,-3.59 -29.13,-3.8 -28.94,-4C-28.76,-4.19 -28.52,-4.38 -28.25,-4.54C-27.98,-4.7 -27.66,-4.85 -27.31,-4.98C-26.95,-5.1 -26.56,-5.21 -26.13,-5.3C-25.7,-5.38 -25.26,-5.45 -24.74,-5.49C-24.21,-5.54 -23.56,-5.56 -22.96,-5.56C-22.37,-5.56 -21.72,-5.54 -21.19,-5.49C-20.66,-5.45 -20.22,-5.38 -19.8,-5.3C-19.37,-5.21 -18.98,-5.1 -18.62,-4.98C-18.27,-4.85 -17.95,-4.7 -17.68,-4.54C-17.4,-4.38 -17.17,-4.19 -16.98,-4C-16.8,-3.8 -16.65,-3.59 -16.56,-3.35C-16.46,-3.1 -16.42,-2.8 -16.42,-2.53Z"/></clipPath><clipPath id="c-k1"><path d="M29.51,-2.53C29.51,-2.25 29.46,-1.95 29.37,-1.71C29.27,-1.46 29.13,-1.26 28.94,-1.06C28.76,-0.86 28.52,-0.68 28.25,-0.52C27.98,-0.35 27.66,-0.21 27.31,-0.08C26.95,0.05 26.56,0.16 26.13,0.24C25.7,0.33 25.26,0.4 24.74,0.44C24.21,0.48 23.56,0.51 22.96,0.51C22.37,0.51 21.72,0.48 21.19,0.44C20.66,0.4 20.22,0.33 19.8,0.24C19.37,0.16 18.98,0.05 18.62,-0.08C18.27,-0.21 17.95,-0.35 17.68,-0.52C17.4,-0.68 17.17,-0.86 16.98,-1.06C16.8,-1.26 16.65,-1.46 16.56,-1.71C16.46,-1.95 16.42,-2.25 16.42,-2.53C16.42,-2.8 16.46,-3.1 16.56,-3.35C16.65,-3.59 16.8,-3.8 16.98,-4C17.17,-4.19 17.4,-4.38 17.68,-4.54C17.95,-4.7 18.27,-4.85 18.62,-4.98C18.98,-5.1 19.37,-5.21 19.8,-5.3C20.22,-5.38 20.66,-5.45 21.19,-5.49C21.72,-5.54 22.37,-5.56 22.96,-5.56C23.56,-5.56 24.21,-5.54 24.74,-5.49C25.26,-5.45 25.7,-5.38 26.13,-5.3C26.56,-5.21 26.95,-5.1 27.31,-4.98C27.66,-4.85 27.98,-4.7 28.25,-4.54C28.52,-4.38 28.76,-4.19 28.94,-4C29.13,-3.8 29.27,-3.59 29.37,-3.35C29.46,-3.1 29.51,-2.8 29.51,-2.53Z"/></clipPath><clipPath id="c-k2"><path d="M0,-51.55C0.85,-51.55 1.68,-51.58 2.55,-51.59C3.43,-51.61 4.36,-51.64 5.25,-51.66C6.13,-51.67 7.04,-51.69 7.87,-51.68C8.7,-51.67 9.52,-51.65 10.22,-51.59C10.92,-51.52 11.56,-51.42 12.09,-51.3C12.62,-51.18 13.02,-51.02 13.38,-50.85C13.74,-50.67 14,-50.49 14.24,-50.27C14.47,-50.05 14.64,-49.82 14.8,-49.54C14.96,-49.27 15.07,-48.97 15.21,-48.63C15.34,-48.29 15.49,-47.93 15.62,-47.51C15.74,-47.09 15.88,-46.62 15.99,-46.1C16.09,-45.59 16.16,-45.01 16.22,-44.43C16.29,-43.85 16.33,-43.22 16.38,-42.6C16.42,-41.99 16.45,-41.34 16.49,-40.73C16.53,-40.11 16.58,-39.51 16.62,-38.92C16.66,-38.32 16.7,-37.75 16.73,-37.16C16.76,-36.58 16.77,-35.99 16.79,-35.4C16.81,-34.8 16.82,-34.21 16.85,-33.62C16.87,-33.03 16.9,-32.43 16.94,-31.84C16.99,-31.25 17.05,-30.66 17.13,-30.07C17.2,-29.47 17.3,-28.88 17.39,-28.28C17.49,-27.68 17.6,-27.07 17.71,-26.47C17.83,-25.87 17.95,-25.26 18.09,-24.67C18.23,-24.08 18.37,-23.48 18.54,-22.91C18.7,-22.34 18.86,-21.77 19.06,-21.22C19.25,-20.67 19.48,-20.14 19.72,-19.62C19.97,-19.09 20.25,-18.58 20.53,-18.07C20.8,-17.57 21.1,-17.07 21.36,-16.57C21.63,-16.08 21.91,-15.59 22.13,-15.1C22.36,-14.61 22.55,-14.13 22.72,-13.64C22.89,-13.15 23.02,-12.65 23.14,-12.16C23.27,-11.66 23.38,-11.16 23.47,-10.67C23.56,-10.18 23.63,-9.69 23.68,-9.22C23.73,-8.75 23.76,-8.28 23.76,-7.84C23.77,-7.4 23.74,-6.98 23.7,-6.56C23.66,-6.15 23.59,-5.75 23.52,-5.35C23.44,-4.95 23.36,-4.55 23.24,-4.17C23.12,-3.8 22.99,-3.43 22.81,-3.1C22.63,-2.77 22.42,-2.46 22.16,-2.19C21.9,-1.93 21.62,-1.69 21.25,-1.51C20.88,-1.32 20.44,-1.18 19.95,-1.08C19.45,-0.97 18.86,-0.91 18.28,-0.87C17.69,-0.83 17.05,-0.82 16.45,-0.83C15.84,-0.83 15.21,-0.86 14.65,-0.89C14.09,-0.92 13.56,-0.95 13.1,-1C12.63,-1.05 12.24,-1.11 11.85,-1.2C11.47,-1.29 11.13,-1.41 10.79,-1.53C10.44,-1.65 10.13,-1.79 9.79,-1.92C9.45,-2.05 9.12,-2.19 8.75,-2.32C8.38,-2.44 7.99,-2.55 7.56,-2.67C7.13,-2.78 6.65,-2.89 6.17,-3C5.69,-3.12 5.19,-3.25 4.68,-3.37C4.17,-3.48 3.64,-3.6 3.12,-3.7C2.6,-3.79 2.06,-3.88 1.54,-3.94C1.02,-4 0.51,-4.03 0,-4.03C-0.51,-4.03 -1.02,-4 -1.54,-3.94C-2.06,-3.88 -2.6,-3.79 -3.12,-3.7C-3.64,-3.6 -4.17,-3.48 -4.68,-3.37C-5.19,-3.25 -5.69,-3.12 -6.17,-3C-6.65,-2.89 -7.13,-2.78 -7.56,-2.67C-7.99,-2.55 -8.38,-2.44 -8.75,-2.32C-9.12,-2.19 -9.45,-2.05 -9.79,-1.92C-10.13,-1.79 -10.44,-1.65 -10.79,-1.53C-11.13,-1.41 -11.47,-1.29 -11.85,-1.2C-12.24,-1.11 -12.63,-1.05 -13.1,-1C-13.56,-0.95 -14.09,-0.92 -14.65,-0.89C-15.21,-0.86 -15.84,-0.83 -16.45,-0.83C-17.05,-0.82 -17.69,-0.83 -18.28,-0.87C-18.86,-0.91 -19.45,-0.97 -19.95,-1.08C-20.44,-1.18 -20.88,-1.32 -21.25,-1.51C-21.62,-1.69 -21.9,-1.93 -22.16,-2.19C-22.42,-2.46 -22.63,-2.77 -22.81,-3.1C-22.99,-3.43 -23.12,-3.8 -23.24,-4.17C-23.36,-4.55 -23.44,-4.95 -23.52,-5.35C-23.59,-5.75 -23.66,-6.15 -23.7,-6.56C-23.74,-6.98 -23.77,-7.4 -23.76,-7.84C-23.76,-8.28 -23.73,-8.75 -23.68,-9.22C-23.63,-9.69 -23.56,-10.18 -23.47,-10.67C-23.38,-11.16 -23.27,-11.66 -23.14,-12.16C-23.02,-12.65 -22.89,-13.15 -22.72,-13.64C-22.55,-14.13 -22.36,-14.61 -22.13,-15.1C-21.91,-15.59 -21.63,-16.08 -21.36,-16.57C-21.1,-17.07 -20.8,-17.57 -20.53,-18.07C-20.25,-18.58 -19.97,-19.09 -19.72,-19.62C-19.48,-20.14 -19.25,-20.67 -19.06,-21.22C-18.86,-21.77 -18.7,-22.34 -18.54,-22.91C-18.37,-23.48 -18.23,-24.08 -18.09,-24.67C-17.95,-25.26 -17.83,-25.87 -17.71,-26.47C-17.6,-27.07 -17.49,-27.68 -17.39,-28.28C-17.3,-28.88 -17.2,-29.47 -17.13,-30.07C-17.05,-30.66 -16.99,-31.25 -16.94,-31.84C-16.9,-32.43 -16.87,-33.03 -16.85,-33.62C-16.82,-34.21 -16.81,-34.8 -16.79,-35.4C-16.77,-35.99 -16.76,-36.58 -16.73,-37.16C-16.7,-37.75 -16.66,-38.32 -16.62,-38.92C-16.58,-39.51 -16.53,-40.11 -16.49,-40.73C-16.45,-41.34 -16.42,-41.99 -16.38,-42.6C-16.33,-43.22 -16.29,-43.85 -16.22,-44.43C-16.16,-45.01 -16.09,-45.59 -15.99,-46.1C-15.88,-46.62 -15.74,-47.09 -15.62,-47.51C-15.49,-47.93 -15.34,-48.29 -15.21,-48.63C-15.07,-48.97 -14.96,-49.27 -14.8,-49.54C-14.64,-49.82 -14.47,-50.05 -14.24,-50.27C-14,-50.49 -13.74,-50.67 -13.38,-50.85C-13.02,-51.02 -12.62,-51.18 -12.09,-51.3C-11.56,-51.42 -10.92,-51.52 -10.22,-51.59C-9.52,-51.65 -8.7,-51.67 -7.87,-51.68C-7.04,-51.69 -6.13,-51.67 -5.25,-51.66C-4.36,-51.64 -3.43,-51.61 -2.55,-51.59C-1.68,-51.58 -0.85,-51.55 0,-51.55Z"/></clipPath><clipPath id="c-k3"><path d="M-8.46,-30.32C-7.59,-32.05 -4.33,-32.05 -3.63,-30.32C-2.92,-28.59 -4.11,-21.78 -4.25,-19.92C-4.4,-18.07 -3.77,-19.32 -4.49,-19.2C-5.22,-19.08 -7.88,-19.08 -8.6,-19.2C-9.33,-19.32 -8.87,-18.07 -8.85,-19.92C-8.82,-21.78 -9.33,-28.59 -8.46,-30.32Z"/></clipPath><clipPath id="c-k4"><path d="M3.63,-30.32C4.33,-32.05 7.59,-32.05 8.46,-30.32C9.33,-28.59 8.82,-21.78 8.85,-19.92C8.87,-18.07 9.33,-19.32 8.6,-19.2C7.88,-19.08 5.22,-19.08 4.49,-19.2C3.77,-19.32 4.4,-18.07 4.25,-19.92C4.11,-21.78 2.92,-28.59 3.63,-30.32Z"/></clipPath><clipPath id="c-k5"><path d="M-4.5,-82.66C-4.5,-82.47 -4.53,-82.27 -4.58,-82.09C-4.63,-81.92 -4.71,-81.75 -4.8,-81.6C-4.9,-81.45 -5.03,-81.32 -5.17,-81.2C-5.3,-81.09 -5.47,-80.99 -5.64,-80.92C-5.81,-80.85 -6,-80.8 -6.19,-80.77C-6.39,-80.75 -6.62,-80.75 -6.82,-80.77C-7.02,-80.8 -7.21,-80.85 -7.38,-80.92C-7.55,-80.99 -7.71,-81.09 -7.85,-81.2C-7.99,-81.32 -8.11,-81.45 -8.21,-81.6C-8.31,-81.75 -8.39,-81.92 -8.44,-82.09C-8.49,-82.27 -8.52,-82.47 -8.52,-82.66C-8.52,-82.85 -8.49,-83.06 -8.44,-83.23C-8.39,-83.41 -8.31,-83.58 -8.21,-83.73C-8.11,-83.87 -7.99,-84.01 -7.85,-84.13C-7.71,-84.24 -7.55,-84.34 -7.38,-84.41C-7.21,-84.48 -7.02,-84.53 -6.82,-84.55C-6.62,-84.58 -6.39,-84.58 -6.19,-84.55C-6,-84.53 -5.81,-84.48 -5.64,-84.41C-5.47,-84.34 -5.3,-84.24 -5.17,-84.13C-5.03,-84.01 -4.9,-83.87 -4.8,-83.73C-4.71,-83.58 -4.63,-83.41 -4.58,-83.23C-4.53,-83.06 -4.5,-82.85 -4.5,-82.66Z"/></clipPath><clipPath id="c-k6"><path d="M8.52,-82.66C8.52,-82.47 8.49,-82.27 8.44,-82.09C8.39,-81.92 8.31,-81.75 8.21,-81.6C8.11,-81.45 7.99,-81.32 7.85,-81.2C7.71,-81.09 7.55,-80.99 7.38,-80.92C7.21,-80.85 7.02,-80.8 6.82,-80.77C6.62,-80.75 6.39,-80.75 6.19,-80.77C6,-80.8 5.81,-80.85 5.64,-80.92C5.47,-80.99 5.3,-81.09 5.17,-81.2C5.03,-81.32 4.9,-81.45 4.8,-81.6C4.71,-81.75 4.63,-81.92 4.58,-82.09C4.53,-82.27 4.5,-82.47 4.5,-82.66C4.5,-82.85 4.53,-83.06 4.58,-83.23C4.63,-83.41 4.71,-83.58 4.8,-83.73C4.9,-83.87 5.03,-84.01 5.17,-84.13C5.3,-84.24 5.47,-84.34 5.64,-84.41C5.81,-84.48 6,-84.53 6.19,-84.55C6.39,-84.58 6.62,-84.58 6.82,-84.55C7.02,-84.53 7.21,-84.48 7.38,-84.41C7.55,-84.34 7.71,-84.24 7.85,-84.13C7.99,-84.01 8.11,-83.87 8.21,-83.73C8.31,-83.58 8.39,-83.41 8.44,-83.23C8.49,-83.06 8.52,-82.85 8.52,-82.66Z"/></clipPath><clipPath id="c-k7"><path d="M20.34,-62.07C20.22,-60.82 19.82,-59.38 19.58,-58.32C19.34,-57.26 19.14,-56.52 18.9,-55.7C18.66,-54.89 18.41,-54.15 18.14,-53.43C17.88,-52.71 17.6,-52.03 17.31,-51.38C17.02,-50.73 16.71,-50.11 16.39,-49.52C16.08,-48.93 15.74,-48.37 15.4,-47.83C15.06,-47.3 14.7,-46.79 14.33,-46.3C13.96,-45.82 13.58,-45.36 13.19,-44.93C12.8,-44.5 12.4,-44.09 11.98,-43.72C11.56,-43.34 11.14,-42.98 10.69,-42.66C10.25,-42.33 9.8,-42.03 9.33,-41.76C8.87,-41.48 8.39,-41.24 7.89,-41.02C7.39,-40.8 6.88,-40.61 6.34,-40.44C5.8,-40.28 5.25,-40.14 4.65,-40.03C4.04,-39.92 3.5,-39.83 2.73,-39.78C1.95,-39.72 0.91,-39.7 0,-39.7C-0.91,-39.7 -1.95,-39.72 -2.73,-39.78C-3.5,-39.83 -4.04,-39.92 -4.65,-40.03C-5.25,-40.14 -5.8,-40.28 -6.34,-40.44C-6.88,-40.61 -7.39,-40.8 -7.89,-41.02C-8.39,-41.24 -8.87,-41.48 -9.33,-41.76C-9.8,-42.03 -10.25,-42.33 -10.69,-42.66C-11.14,-42.98 -11.56,-43.34 -11.98,-43.72C-12.4,-44.09 -12.8,-44.5 -13.19,-44.93C-13.58,-45.36 -13.96,-45.82 -14.33,-46.3C-14.7,-46.79 -15.06,-47.3 -15.4,-47.83C-15.74,-48.37 -16.08,-48.93 -16.39,-49.52C-16.71,-50.11 -17.02,-50.73 -17.31,-51.38C-17.6,-52.03 -17.88,-52.71 -18.14,-53.43C-18.41,-54.15 -18.66,-54.89 -18.9,-55.7C-19.14,-56.52 -19.34,-57.26 -19.58,-58.32C-19.82,-59.38 -20.22,-60.82 -20.34,-62.07C-20.45,-63.32 -20.31,-64.75 -20.26,-65.81C-20.21,-66.88 -20.14,-67.62 -20.04,-68.43C-19.94,-69.25 -19.81,-69.99 -19.66,-70.71C-19.51,-71.43 -19.34,-72.1 -19.14,-72.75C-18.94,-73.4 -18.71,-74.02 -18.46,-74.61C-18.22,-75.2 -17.94,-75.76 -17.65,-76.3C-17.35,-76.84 -17.03,-77.35 -16.68,-77.83C-16.34,-78.31 -15.97,-78.77 -15.58,-79.2C-15.19,-79.63 -14.77,-80.04 -14.33,-80.42C-13.89,-80.8 -13.43,-81.15 -12.94,-81.48C-12.45,-81.8 -11.94,-82.1 -11.4,-82.38C-10.87,-82.65 -10.31,-82.9 -9.71,-83.12C-9.12,-83.34 -8.51,-83.53 -7.85,-83.69C-7.2,-83.86 -6.53,-84 -5.79,-84.11C-5.04,-84.22 -4.37,-84.3 -3.41,-84.36C-2.44,-84.41 -1.14,-84.44 0,-84.44C1.14,-84.44 2.44,-84.41 3.41,-84.36C4.37,-84.3 5.04,-84.22 5.79,-84.11C6.53,-84 7.2,-83.86 7.85,-83.69C8.51,-83.53 9.12,-83.34 9.71,-83.12C10.31,-82.9 10.87,-82.65 11.4,-82.38C11.94,-82.1 12.45,-81.8 12.94,-81.48C13.43,-81.15 13.89,-80.8 14.33,-80.42C14.77,-80.04 15.19,-79.63 15.58,-79.2C15.97,-78.77 16.34,-78.31 16.68,-77.83C17.03,-77.35 17.35,-76.84 17.65,-76.3C17.94,-75.76 18.22,-75.2 18.46,-74.61C18.71,-74.02 18.94,-73.4 19.14,-72.75C19.34,-72.1 19.51,-71.43 19.66,-70.71C19.81,-69.99 19.94,-69.25 20.04,-68.43C20.14,-67.62 20.21,-66.88 20.26,-65.81C20.31,-64.75 20.45,-63.32 20.34,-62.07Z"/></clipPath></defs><path d="M-16.42,-2.53C-16.42,-2.25 -16.46,-1.95 -16.56,-1.71C-16.65,-1.46 -16.8,-1.26 -16.98,-1.06C-17.17,-0.86 -17.4,-0.68 -17.68,-0.52C-17.95,-0.35 -18.27,-0.21 -18.62,-0.08C-18.98,0.05 -19.37,0.16 -19.8,0.24C-20.22,0.33 -20.66,0.4 -21.19,0.44C-21.72,0.48 -22.37,0.51 -22.96,0.51C-23.56,0.51 -24.21,0.48 -24.74,0.44C-25.26,0.4 -25.7,0.33 -26.13,0.24C-26.56,0.16 -26.95,0.05 -27.31,-0.08C-27.66,-0.21 -27.98,-0.35 -28.25,-0.52C-28.52,-0.68 -28.76,-0.86 -28.94,-1.06C-29.13,-1.26 -29.27,-1.46 -29.37,-1.71C-29.46,-1.95 -29.51,-2.25 -29.51,-2.53C-29.51,-2.8 -29.46,-3.1 -29.37,-3.35C-29.27,-3.59 -29.13,-3.8 -28.94,-4C-28.76,-4.19 -28.52,-4.38 -28.25,-4.54C-27.98,-4.7 -27.66,-4.85 -27.31,-4.98C-26.95,-5.1 -26.56,-5.21 -26.13,-5.3C-25.7,-5.38 -25.26,-5.45 -24.74,-5.49C-24.21,-5.54 -23.56,-5.56 -22.96,-5.56C-22.37,-5.56 -21.72,-5.54 -21.19,-5.49C-20.66,-5.45 -20.22,-5.38 -19.8,-5.3C-19.37,-5.21 -18.98,-5.1 -18.62,-4.98C-18.27,-4.85 -17.95,-4.7 -17.68,-4.54C-17.4,-4.38 -17.17,-4.19 -16.98,-4C-16.8,-3.8 -16.65,-3.59 -16.56,-3.35C-16.46,-3.1 -16.42,-2.8 -16.42,-2.53Z" fill="#4b4650"/><g clip-path="url(#c-k0)"><rect x="-32.46" y="-8.59" width="6.55" height="12.13" fill="#1C1414"/></g><path d="M-16.42,-2.53C-16.42,-2.25 -16.46,-1.95 -16.56,-1.71C-16.65,-1.46 -16.8,-1.26 -16.98,-1.06C-17.17,-0.86 -17.4,-0.68 -17.68,-0.52C-17.95,-0.35 -18.27,-0.21 -18.62,-0.08C-18.98,0.05 -19.37,0.16 -19.8,0.24C-20.22,0.33 -20.66,0.4 -21.19,0.44C-21.72,0.48 -22.37,0.51 -22.96,0.51C-23.56,0.51 -24.21,0.48 -24.74,0.44C-25.26,0.4 -25.7,0.33 -26.13,0.24C-26.56,0.16 -26.95,0.05 -27.31,-0.08C-27.66,-0.21 -27.98,-0.35 -28.25,-0.52C-28.52,-0.68 -28.76,-0.86 -28.94,-1.06C-29.13,-1.26 -29.27,-1.46 -29.37,-1.71C-29.46,-1.95 -29.51,-2.25 -29.51,-2.53C-29.51,-2.8 -29.46,-3.1 -29.37,-3.35C-29.27,-3.59 -29.13,-3.8 -28.94,-4C-28.76,-4.19 -28.52,-4.38 -28.25,-4.54C-27.98,-4.7 -27.66,-4.85 -27.31,-4.98C-26.95,-5.1 -26.56,-5.21 -26.13,-5.3C-25.7,-5.38 -25.26,-5.45 -24.74,-5.49C-24.21,-5.54 -23.56,-5.56 -22.96,-5.56C-22.37,-5.56 -21.72,-5.54 -21.19,-5.49C-20.66,-5.45 -20.22,-5.38 -19.8,-5.3C-19.37,-5.21 -18.98,-5.1 -18.62,-4.98C-18.27,-4.85 -17.95,-4.7 -17.68,-4.54C-17.4,-4.38 -17.17,-4.19 -16.98,-4C-16.8,-3.8 -16.65,-3.59 -16.56,-3.35C-16.46,-3.1 -16.42,-2.8 -16.42,-2.53Z" fill="none" stroke="#1C1311" stroke-width="2.16" stroke-linejoin="round"/><path d="M29.51,-2.53C29.51,-2.25 29.46,-1.95 29.37,-1.71C29.27,-1.46 29.13,-1.26 28.94,-1.06C28.76,-0.86 28.52,-0.68 28.25,-0.52C27.98,-0.35 27.66,-0.21 27.31,-0.08C26.95,0.05 26.56,0.16 26.13,0.24C25.7,0.33 25.26,0.4 24.74,0.44C24.21,0.48 23.56,0.51 22.96,0.51C22.37,0.51 21.72,0.48 21.19,0.44C20.66,0.4 20.22,0.33 19.8,0.24C19.37,0.16 18.98,0.05 18.62,-0.08C18.27,-0.21 17.95,-0.35 17.68,-0.52C17.4,-0.68 17.17,-0.86 16.98,-1.06C16.8,-1.26 16.65,-1.46 16.56,-1.71C16.46,-1.95 16.42,-2.25 16.42,-2.53C16.42,-2.8 16.46,-3.1 16.56,-3.35C16.65,-3.59 16.8,-3.8 16.98,-4C17.17,-4.19 17.4,-4.38 17.68,-4.54C17.95,-4.7 18.27,-4.85 18.62,-4.98C18.98,-5.1 19.37,-5.21 19.8,-5.3C20.22,-5.38 20.66,-5.45 21.19,-5.49C21.72,-5.54 22.37,-5.56 22.96,-5.56C23.56,-5.56 24.21,-5.54 24.74,-5.49C25.26,-5.45 25.7,-5.38 26.13,-5.3C26.56,-5.21 26.95,-5.1 27.31,-4.98C27.66,-4.85 27.98,-4.7 28.25,-4.54C28.52,-4.38 28.76,-4.19 28.94,-4C29.13,-3.8 29.27,-3.59 29.37,-3.35C29.46,-3.1 29.51,-2.8 29.51,-2.53Z" fill="#4b4650"/><g clip-path="url(#c-k1)"><rect x="25.91" y="-8.59" width="6.55" height="12.13" fill="#1C1414"/></g><path d="M29.51,-2.53C29.51,-2.25 29.46,-1.95 29.37,-1.71C29.27,-1.46 29.13,-1.26 28.94,-1.06C28.76,-0.86 28.52,-0.68 28.25,-0.52C27.98,-0.35 27.66,-0.21 27.31,-0.08C26.95,0.05 26.56,0.16 26.13,0.24C25.7,0.33 25.26,0.4 24.74,0.44C24.21,0.48 23.56,0.51 22.96,0.51C22.37,0.51 21.72,0.48 21.19,0.44C20.66,0.4 20.22,0.33 19.8,0.24C19.37,0.16 18.98,0.05 18.62,-0.08C18.27,-0.21 17.95,-0.35 17.68,-0.52C17.4,-0.68 17.17,-0.86 16.98,-1.06C16.8,-1.26 16.65,-1.46 16.56,-1.71C16.46,-1.95 16.42,-2.25 16.42,-2.53C16.42,-2.8 16.46,-3.1 16.56,-3.35C16.65,-3.59 16.8,-3.8 16.98,-4C17.17,-4.19 17.4,-4.38 17.68,-4.54C17.95,-4.7 18.27,-4.85 18.62,-4.98C18.98,-5.1 19.37,-5.21 19.8,-5.3C20.22,-5.38 20.66,-5.45 21.19,-5.49C21.72,-5.54 22.37,-5.56 22.96,-5.56C23.56,-5.56 24.21,-5.54 24.74,-5.49C25.26,-5.45 25.7,-5.38 26.13,-5.3C26.56,-5.21 26.95,-5.1 27.31,-4.98C27.66,-4.85 27.98,-4.7 28.25,-4.54C28.52,-4.38 28.76,-4.19 28.94,-4C29.13,-3.8 29.27,-3.59 29.37,-3.35C29.46,-3.1 29.51,-2.8 29.51,-2.53Z" fill="none" stroke="#1C1311" stroke-width="2.16" stroke-linejoin="round"/><path d="M0,-51.55C0.85,-51.55 1.68,-51.58 2.55,-51.59C3.43,-51.61 4.36,-51.64 5.25,-51.66C6.13,-51.67 7.04,-51.69 7.87,-51.68C8.7,-51.67 9.52,-51.65 10.22,-51.59C10.92,-51.52 11.56,-51.42 12.09,-51.3C12.62,-51.18 13.02,-51.02 13.38,-50.85C13.74,-50.67 14,-50.49 14.24,-50.27C14.47,-50.05 14.64,-49.82 14.8,-49.54C14.96,-49.27 15.07,-48.97 15.21,-48.63C15.34,-48.29 15.49,-47.93 15.62,-47.51C15.74,-47.09 15.88,-46.62 15.99,-46.1C16.09,-45.59 16.16,-45.01 16.22,-44.43C16.29,-43.85 16.33,-43.22 16.38,-42.6C16.42,-41.99 16.45,-41.34 16.49,-40.73C16.53,-40.11 16.58,-39.51 16.62,-38.92C16.66,-38.32 16.7,-37.75 16.73,-37.16C16.76,-36.58 16.77,-35.99 16.79,-35.4C16.81,-34.8 16.82,-34.21 16.85,-33.62C16.87,-33.03 16.9,-32.43 16.94,-31.84C16.99,-31.25 17.05,-30.66 17.13,-30.07C17.2,-29.47 17.3,-28.88 17.39,-28.28C17.49,-27.68 17.6,-27.07 17.71,-26.47C17.83,-25.87 17.95,-25.26 18.09,-24.67C18.23,-24.08 18.37,-23.48 18.54,-22.91C18.7,-22.34 18.86,-21.77 19.06,-21.22C19.25,-20.67 19.48,-20.14 19.72,-19.62C19.97,-19.09 20.25,-18.58 20.53,-18.07C20.8,-17.57 21.1,-17.07 21.36,-16.57C21.63,-16.08 21.91,-15.59 22.13,-15.1C22.36,-14.61 22.55,-14.13 22.72,-13.64C22.89,-13.15 23.02,-12.65 23.14,-12.16C23.27,-11.66 23.38,-11.16 23.47,-10.67C23.56,-10.18 23.63,-9.69 23.68,-9.22C23.73,-8.75 23.76,-8.28 23.76,-7.84C23.77,-7.4 23.74,-6.98 23.7,-6.56C23.66,-6.15 23.59,-5.75 23.52,-5.35C23.44,-4.95 23.36,-4.55 23.24,-4.17C23.12,-3.8 22.99,-3.43 22.81,-3.1C22.63,-2.77 22.42,-2.46 22.16,-2.19C21.9,-1.93 21.62,-1.69 21.25,-1.51C20.88,-1.32 20.44,-1.18 19.95,-1.08C19.45,-0.97 18.86,-0.91 18.28,-0.87C17.69,-0.83 17.05,-0.82 16.45,-0.83C15.84,-0.83 15.21,-0.86 14.65,-0.89C14.09,-0.92 13.56,-0.95 13.1,-1C12.63,-1.05 12.24,-1.11 11.85,-1.2C11.47,-1.29 11.13,-1.41 10.79,-1.53C10.44,-1.65 10.13,-1.79 9.79,-1.92C9.45,-2.05 9.12,-2.19 8.75,-2.32C8.38,-2.44 7.99,-2.55 7.56,-2.67C7.13,-2.78 6.65,-2.89 6.17,-3C5.69,-3.12 5.19,-3.25 4.68,-3.37C4.17,-3.48 3.64,-3.6 3.12,-3.7C2.6,-3.79 2.06,-3.88 1.54,-3.94C1.02,-4 0.51,-4.03 0,-4.03C-0.51,-4.03 -1.02,-4 -1.54,-3.94C-2.06,-3.88 -2.6,-3.79 -3.12,-3.7C-3.64,-3.6 -4.17,-3.48 -4.68,-3.37C-5.19,-3.25 -5.69,-3.12 -6.17,-3C-6.65,-2.89 -7.13,-2.78 -7.56,-2.67C-7.99,-2.55 -8.38,-2.44 -8.75,-2.32C-9.12,-2.19 -9.45,-2.05 -9.79,-1.92C-10.13,-1.79 -10.44,-1.65 -10.79,-1.53C-11.13,-1.41 -11.47,-1.29 -11.85,-1.2C-12.24,-1.11 -12.63,-1.05 -13.1,-1C-13.56,-0.95 -14.09,-0.92 -14.65,-0.89C-15.21,-0.86 -15.84,-0.83 -16.45,-0.83C-17.05,-0.82 -17.69,-0.83 -18.28,-0.87C-18.86,-0.91 -19.45,-0.97 -19.95,-1.08C-20.44,-1.18 -20.88,-1.32 -21.25,-1.51C-21.62,-1.69 -21.9,-1.93 -22.16,-2.19C-22.42,-2.46 -22.63,-2.77 -22.81,-3.1C-22.99,-3.43 -23.12,-3.8 -23.24,-4.17C-23.36,-4.55 -23.44,-4.95 -23.52,-5.35C-23.59,-5.75 -23.66,-6.15 -23.7,-6.56C-23.74,-6.98 -23.77,-7.4 -23.76,-7.84C-23.76,-8.28 -23.73,-8.75 -23.68,-9.22C-23.63,-9.69 -23.56,-10.18 -23.47,-10.67C-23.38,-11.16 -23.27,-11.66 -23.14,-12.16C-23.02,-12.65 -22.89,-13.15 -22.72,-13.64C-22.55,-14.13 -22.36,-14.61 -22.13,-15.1C-21.91,-15.59 -21.63,-16.08 -21.36,-16.57C-21.1,-17.07 -20.8,-17.57 -20.53,-18.07C-20.25,-18.58 -19.97,-19.09 -19.72,-19.62C-19.48,-20.14 -19.25,-20.67 -19.06,-21.22C-18.86,-21.77 -18.7,-22.34 -18.54,-22.91C-18.37,-23.48 -18.23,-24.08 -18.09,-24.67C-17.95,-25.26 -17.83,-25.87 -17.71,-26.47C-17.6,-27.07 -17.49,-27.68 -17.39,-28.28C-17.3,-28.88 -17.2,-29.47 -17.13,-30.07C-17.05,-30.66 -16.99,-31.25 -16.94,-31.84C-16.9,-32.43 -16.87,-33.03 -16.85,-33.62C-16.82,-34.21 -16.81,-34.8 -16.79,-35.4C-16.77,-35.99 -16.76,-36.58 -16.73,-37.16C-16.7,-37.75 -16.66,-38.32 -16.62,-38.92C-16.58,-39.51 -16.53,-40.11 -16.49,-40.73C-16.45,-41.34 -16.42,-41.99 -16.38,-42.6C-16.33,-43.22 -16.29,-43.85 -16.22,-44.43C-16.16,-45.01 -16.09,-45.59 -15.99,-46.1C-15.88,-46.62 -15.74,-47.09 -15.62,-47.51C-15.49,-47.93 -15.34,-48.29 -15.21,-48.63C-15.07,-48.97 -14.96,-49.27 -14.8,-49.54C-14.64,-49.82 -14.47,-50.05 -14.24,-50.27C-14,-50.49 -13.74,-50.67 -13.38,-50.85C-13.02,-51.02 -12.62,-51.18 -12.09,-51.3C-11.56,-51.42 -10.92,-51.52 -10.22,-51.59C-9.52,-51.65 -8.7,-51.67 -7.87,-51.68C-7.04,-51.69 -6.13,-51.67 -5.25,-51.66C-4.36,-51.64 -3.43,-51.61 -2.55,-51.59C-1.68,-51.58 -0.85,-51.55 0,-51.55Z" fill="#4b4650"/><g clip-path="url(#c-k2)"><path d="M7.54,-23.62C7.18,-23.74 6.83,-23.85 6.48,-23.97C6.12,-24.1 5.75,-24.23 5.4,-24.37C5.04,-24.51 4.69,-24.66 4.36,-24.83C4.03,-25 3.71,-25.18 3.43,-25.39C3.14,-25.6 2.89,-25.82 2.66,-26.07C2.43,-26.33 2.24,-26.61 2.06,-26.92C1.88,-27.22 1.72,-27.56 1.58,-27.91C1.45,-28.25 1.33,-28.62 1.24,-28.98C1.14,-29.34 1.06,-29.72 1.01,-30.08C0.95,-30.43 0.92,-30.78 0.9,-31.12C0.89,-31.47 0.9,-31.8 0.94,-32.13C0.97,-32.47 1.04,-32.81 1.12,-33.15C1.19,-33.48 1.3,-33.82 1.41,-34.15C1.52,-34.49 1.65,-34.82 1.78,-35.14C1.92,-35.46 2.06,-35.77 2.21,-36.09C2.36,-36.41 2.52,-36.73 2.69,-37.06C2.86,-37.38 3.05,-37.72 3.24,-38.05C3.44,-38.37 3.64,-38.69 3.87,-38.99C4.09,-39.28 4.33,-39.56 4.59,-39.8C4.84,-40.04 5.11,-40.25 5.4,-40.41C5.7,-40.58 6.02,-40.7 6.36,-40.8C6.71,-40.9 7.08,-40.96 7.46,-41C7.84,-41.05 8.24,-41.07 8.63,-41.07C9.02,-41.08 9.42,-41.07 9.8,-41.05C10.18,-41.03 10.55,-41.01 10.91,-40.97C11.28,-40.94 11.63,-40.91 11.98,-40.85C12.34,-40.8 12.7,-40.74 13.05,-40.66C13.41,-40.58 13.76,-40.49 14.1,-40.38C14.44,-40.27 14.78,-40.15 15.1,-40.01C15.42,-39.86 15.72,-39.71 16.02,-39.53C16.33,-39.35 16.62,-39.15 16.92,-38.93C17.21,-38.71 17.51,-38.47 17.79,-38.22C18.07,-37.97 18.34,-37.7 18.59,-37.42C18.84,-37.14 19.07,-36.85 19.26,-36.55C19.45,-36.26 19.62,-35.96 19.75,-35.65C19.87,-35.34 19.96,-35.02 20.02,-34.69C20.08,-34.36 20.11,-34 20.12,-33.65C20.13,-33.29 20.11,-32.92 20.08,-32.56C20.05,-32.2 20,-31.83 19.95,-31.47C19.9,-31.12 19.84,-30.77 19.77,-30.43C19.71,-30.08 19.64,-29.73 19.56,-29.38C19.48,-29.03 19.4,-28.67 19.29,-28.32C19.19,-27.97 19.07,-27.62 18.94,-27.29C18.8,-26.96 18.65,-26.63 18.47,-26.33C18.29,-26.02 18.1,-25.75 17.87,-25.48C17.64,-25.21 17.37,-24.97 17.09,-24.72C16.8,-24.48 16.48,-24.25 16.15,-24.03C15.83,-23.82 15.47,-23.61 15.12,-23.44C14.77,-23.26 14.4,-23.1 14.04,-22.98C13.69,-22.86 13.34,-22.76 12.98,-22.7C12.63,-22.64 12.28,-22.61 11.92,-22.62C11.56,-22.63 11.19,-22.67 10.82,-22.73C10.45,-22.78 10.07,-22.87 9.7,-22.96C9.33,-23.06 8.96,-23.17 8.6,-23.28C8.24,-23.39 7.89,-23.51 7.54,-23.62Z" fill="#FFFFFF"/><path d="M-5.8,-16.98C-5.75,-16.74 -5.71,-16.51 -5.69,-16.27C-5.67,-16.03 -5.66,-15.77 -5.66,-15.52C-5.66,-15.28 -5.68,-15.02 -5.71,-14.77C-5.74,-14.53 -5.78,-14.28 -5.84,-14.04C-5.9,-13.8 -5.97,-13.58 -6.06,-13.35C-6.15,-13.13 -6.26,-12.91 -6.39,-12.69C-6.51,-12.48 -6.65,-12.26 -6.81,-12.05C-6.96,-11.84 -7.13,-11.63 -7.31,-11.44C-7.49,-11.24 -7.68,-11.05 -7.88,-10.88C-8.07,-10.71 -8.27,-10.55 -8.49,-10.4C-8.7,-10.25 -8.92,-10.12 -9.16,-9.99C-9.39,-9.86 -9.65,-9.73 -9.9,-9.62C-10.16,-9.51 -10.43,-9.41 -10.69,-9.33C-10.96,-9.24 -11.24,-9.17 -11.5,-9.12C-11.77,-9.07 -12.03,-9.04 -12.3,-9.03C-12.57,-9.01 -12.84,-9.02 -13.12,-9.04C-13.4,-9.06 -13.69,-9.1 -13.97,-9.16C-14.26,-9.21 -14.55,-9.29 -14.82,-9.37C-15.09,-9.45 -15.36,-9.56 -15.61,-9.67C-15.86,-9.78 -16.09,-9.9 -16.31,-10.04C-16.52,-10.19 -16.71,-10.34 -16.89,-10.52C-17.07,-10.7 -17.23,-10.9 -17.39,-11.11C-17.55,-11.32 -17.69,-11.55 -17.83,-11.77C-17.97,-12 -18.1,-12.23 -18.22,-12.46C-18.35,-12.69 -18.46,-12.92 -18.58,-13.15C-18.7,-13.38 -18.82,-13.6 -18.94,-13.84C-19.06,-14.08 -19.18,-14.32 -19.29,-14.56C-19.4,-14.81 -19.5,-15.06 -19.58,-15.3C-19.66,-15.55 -19.73,-15.79 -19.76,-16.03C-19.79,-16.27 -19.81,-16.51 -19.78,-16.74C-19.76,-16.98 -19.7,-17.21 -19.61,-17.44C-19.53,-17.67 -19.42,-17.91 -19.29,-18.14C-19.16,-18.37 -19.01,-18.6 -18.86,-18.82C-18.7,-19.04 -18.53,-19.26 -18.36,-19.47C-18.19,-19.68 -18.03,-19.88 -17.85,-20.08C-17.68,-20.29 -17.51,-20.48 -17.32,-20.69C-17.13,-20.89 -16.94,-21.1 -16.74,-21.29C-16.54,-21.49 -16.33,-21.68 -16.11,-21.85C-15.9,-22.02 -15.67,-22.18 -15.45,-22.3C-15.22,-22.42 -14.99,-22.52 -14.75,-22.59C-14.51,-22.65 -14.26,-22.67 -14,-22.68C-13.73,-22.68 -13.46,-22.66 -13.18,-22.62C-12.9,-22.58 -12.62,-22.51 -12.34,-22.45C-12.06,-22.38 -11.78,-22.29 -11.52,-22.21C-11.25,-22.13 -11,-22.05 -10.75,-21.96C-10.5,-21.88 -10.26,-21.8 -10.02,-21.71C-9.78,-21.62 -9.54,-21.52 -9.3,-21.41C-9.07,-21.3 -8.84,-21.19 -8.62,-21.06C-8.41,-20.94 -8.2,-20.81 -8,-20.66C-7.81,-20.52 -7.63,-20.37 -7.46,-20.2C-7.29,-20.03 -7.14,-19.85 -6.99,-19.65C-6.85,-19.46 -6.71,-19.25 -6.58,-19.03C-6.46,-18.82 -6.35,-18.59 -6.24,-18.36C-6.14,-18.14 -6.05,-17.9 -5.98,-17.67C-5.9,-17.44 -5.84,-17.21 -5.8,-16.98Z" fill="#FFFFFF"/><path d="M-4.71,-42.53C-4.74,-42.64 -4.76,-42.75 -4.78,-42.87C-4.81,-42.99 -4.83,-43.11 -4.84,-43.23C-4.85,-43.36 -4.86,-43.48 -4.86,-43.6C-4.86,-43.72 -4.86,-43.84 -4.84,-43.96C-4.82,-44.07 -4.79,-44.18 -4.75,-44.29C-4.71,-44.39 -4.65,-44.5 -4.59,-44.6C-4.52,-44.7 -4.44,-44.81 -4.36,-44.9C-4.28,-45 -4.18,-45.1 -4.09,-45.19C-3.99,-45.28 -3.89,-45.36 -3.78,-45.43C-3.68,-45.51 -3.58,-45.57 -3.47,-45.63C-3.36,-45.69 -3.26,-45.73 -3.14,-45.77C-3.02,-45.81 -2.9,-45.83 -2.78,-45.86C-2.65,-45.88 -2.52,-45.9 -2.4,-45.91C-2.27,-45.92 -2.14,-45.93 -2.02,-45.93C-1.89,-45.93 -1.77,-45.93 -1.65,-45.93C-1.53,-45.92 -1.41,-45.92 -1.29,-45.91C-1.16,-45.9 -1.04,-45.88 -0.92,-45.86C-0.79,-45.84 -0.67,-45.81 -0.55,-45.78C-0.44,-45.75 -0.32,-45.71 -0.21,-45.67C-0.11,-45.63 -0.01,-45.58 0.09,-45.52C0.19,-45.46 0.27,-45.39 0.36,-45.31C0.45,-45.24 0.53,-45.15 0.61,-45.06C0.68,-44.98 0.76,-44.88 0.82,-44.78C0.89,-44.69 0.95,-44.58 1.01,-44.48C1.07,-44.38 1.12,-44.28 1.17,-44.18C1.22,-44.08 1.26,-43.98 1.3,-43.88C1.33,-43.77 1.37,-43.66 1.39,-43.55C1.42,-43.45 1.44,-43.33 1.46,-43.22C1.48,-43.11 1.49,-43 1.49,-42.89C1.5,-42.77 1.5,-42.66 1.49,-42.55C1.49,-42.43 1.48,-42.32 1.47,-42.2C1.45,-42.08 1.43,-41.95 1.41,-41.82C1.39,-41.7 1.36,-41.58 1.32,-41.46C1.28,-41.34 1.24,-41.22 1.18,-41.12C1.13,-41.01 1.07,-40.92 1,-40.83C0.92,-40.74 0.83,-40.66 0.74,-40.59C0.64,-40.51 0.53,-40.44 0.41,-40.38C0.3,-40.31 0.17,-40.26 0.05,-40.21C-0.07,-40.15 -0.2,-40.11 -0.33,-40.07C-0.45,-40.03 -0.57,-40 -0.69,-39.97C-0.81,-39.94 -0.93,-39.92 -1.06,-39.91C-1.18,-39.9 -1.31,-39.89 -1.44,-39.89C-1.56,-39.88 -1.69,-39.89 -1.82,-39.9C-1.94,-39.91 -2.07,-39.92 -2.19,-39.95C-2.31,-39.97 -2.42,-40 -2.53,-40.03C-2.64,-40.07 -2.75,-40.12 -2.85,-40.17C-2.96,-40.22 -3.06,-40.28 -3.16,-40.35C-3.26,-40.41 -3.36,-40.49 -3.45,-40.56C-3.55,-40.64 -3.64,-40.72 -3.72,-40.8C-3.8,-40.88 -3.88,-40.96 -3.96,-41.05C-4.03,-41.13 -4.1,-41.22 -4.16,-41.31C-4.22,-41.4 -4.28,-41.5 -4.34,-41.59C-4.39,-41.69 -4.45,-41.79 -4.49,-41.89C-4.54,-42 -4.58,-42.1 -4.61,-42.21C-4.65,-42.31 -4.68,-42.42 -4.71,-42.53Z" fill="#FFFFFF"/><path d="M26.36,-2.07C26.14,-2 25.92,-1.93 25.69,-1.87C25.46,-1.82 25.23,-1.77 24.99,-1.74C24.76,-1.71 24.52,-1.68 24.28,-1.67C24.04,-1.66 23.81,-1.66 23.57,-1.67C23.34,-1.69 23.11,-1.71 22.88,-1.75C22.65,-1.79 22.42,-1.84 22.19,-1.9C21.96,-1.97 21.72,-2.05 21.49,-2.13C21.25,-2.22 21.02,-2.32 20.8,-2.43C20.58,-2.55 20.36,-2.67 20.16,-2.81C19.96,-2.94 19.78,-3.08 19.61,-3.25C19.44,-3.41 19.28,-3.59 19.12,-3.78C18.97,-3.97 18.82,-4.19 18.69,-4.41C18.55,-4.62 18.43,-4.86 18.32,-5.09C18.21,-5.32 18.11,-5.56 18.03,-5.8C17.95,-6.03 17.89,-6.26 17.85,-6.5C17.81,-6.73 17.79,-6.97 17.79,-7.21C17.79,-7.45 17.8,-7.7 17.83,-7.95C17.86,-8.19 17.9,-8.44 17.96,-8.69C18.01,-8.93 18.08,-9.18 18.15,-9.41C18.22,-9.64 18.3,-9.87 18.39,-10.09C18.48,-10.3 18.58,-10.51 18.69,-10.72C18.8,-10.93 18.92,-11.14 19.05,-11.34C19.18,-11.54 19.32,-11.73 19.47,-11.92C19.62,-12.11 19.78,-12.29 19.94,-12.45C20.1,-12.62 20.27,-12.78 20.45,-12.93C20.63,-13.08 20.82,-13.23 21.02,-13.37C21.22,-13.51 21.43,-13.65 21.65,-13.77C21.87,-13.9 22.09,-14.02 22.32,-14.12C22.54,-14.22 22.78,-14.31 23,-14.37C23.23,-14.44 23.46,-14.48 23.69,-14.51C23.91,-14.53 24.14,-14.52 24.38,-14.49C24.61,-14.47 24.85,-14.42 25.09,-14.36C25.33,-14.3 25.57,-14.23 25.81,-14.14C26.04,-14.05 26.28,-13.95 26.51,-13.85C26.73,-13.75 26.94,-13.64 27.16,-13.52C27.37,-13.41 27.58,-13.29 27.79,-13.16C27.99,-13.02 28.21,-12.88 28.41,-12.73C28.61,-12.58 28.8,-12.42 28.99,-12.25C29.17,-12.08 29.35,-11.91 29.5,-11.72C29.65,-11.53 29.79,-11.34 29.91,-11.14C30.04,-10.93 30.14,-10.72 30.23,-10.49C30.33,-10.26 30.41,-10.01 30.48,-9.76C30.55,-9.51 30.6,-9.25 30.64,-8.99C30.68,-8.74 30.71,-8.47 30.72,-8.22C30.73,-7.97 30.73,-7.73 30.71,-7.48C30.69,-7.24 30.66,-7 30.61,-6.75C30.56,-6.51 30.49,-6.25 30.41,-6.01C30.33,-5.76 30.24,-5.51 30.14,-5.28C30.03,-5.05 29.91,-4.82 29.79,-4.61C29.66,-4.39 29.53,-4.2 29.38,-4.01C29.23,-3.83 29.07,-3.66 28.89,-3.5C28.71,-3.34 28.52,-3.19 28.31,-3.05C28.11,-2.91 27.9,-2.78 27.68,-2.66C27.46,-2.54 27.24,-2.43 27.02,-2.33C26.8,-2.23 26.58,-2.15 26.36,-2.07Z" fill="#FFFFFF"/><path d="M7.71,-7.01C7.75,-6.92 7.78,-6.83 7.81,-6.74C7.84,-6.64 7.87,-6.54 7.89,-6.44C7.91,-6.33 7.93,-6.23 7.94,-6.13C7.95,-6.02 7.95,-5.92 7.95,-5.82C7.95,-5.72 7.94,-5.63 7.92,-5.53C7.9,-5.44 7.87,-5.35 7.83,-5.26C7.79,-5.17 7.75,-5.08 7.7,-4.99C7.65,-4.9 7.59,-4.81 7.53,-4.73C7.47,-4.65 7.4,-4.57 7.34,-4.5C7.27,-4.42 7.2,-4.35 7.14,-4.29C7.07,-4.23 7,-4.17 6.92,-4.12C6.85,-4.07 6.76,-4.02 6.68,-3.97C6.6,-3.93 6.52,-3.89 6.43,-3.85C6.34,-3.82 6.26,-3.78 6.17,-3.76C6.08,-3.73 5.99,-3.7 5.9,-3.68C5.82,-3.65 5.73,-3.63 5.63,-3.61C5.54,-3.59 5.45,-3.57 5.35,-3.56C5.26,-3.55 5.16,-3.54 5.06,-3.53C4.97,-3.53 4.87,-3.53 4.78,-3.54C4.69,-3.55 4.6,-3.56 4.51,-3.59C4.42,-3.61 4.34,-3.65 4.25,-3.68C4.16,-3.72 4.07,-3.77 3.98,-3.82C3.89,-3.88 3.8,-3.93 3.72,-4C3.64,-4.06 3.56,-4.13 3.49,-4.19C3.42,-4.26 3.36,-4.34 3.31,-4.41C3.25,-4.49 3.21,-4.57 3.17,-4.66C3.13,-4.74 3.1,-4.84 3.08,-4.93C3.05,-5.03 3.03,-5.13 3.01,-5.23C2.99,-5.33 2.98,-5.43 2.97,-5.53C2.96,-5.63 2.95,-5.73 2.94,-5.83C2.93,-5.93 2.92,-6.03 2.91,-6.13C2.9,-6.23 2.9,-6.34 2.9,-6.44C2.89,-6.54 2.89,-6.65 2.9,-6.75C2.91,-6.85 2.92,-6.94 2.94,-7.04C2.97,-7.13 2.99,-7.22 3.03,-7.31C3.07,-7.39 3.12,-7.47 3.18,-7.55C3.23,-7.63 3.3,-7.71 3.37,-7.79C3.44,-7.86 3.52,-7.94 3.6,-8C3.68,-8.07 3.76,-8.13 3.85,-8.19C3.93,-8.24 4.01,-8.29 4.1,-8.33C4.18,-8.37 4.27,-8.41 4.35,-8.44C4.44,-8.46 4.54,-8.48 4.63,-8.5C4.73,-8.52 4.82,-8.53 4.92,-8.54C5.01,-8.54 5.11,-8.55 5.21,-8.54C5.3,-8.54 5.39,-8.54 5.48,-8.53C5.58,-8.52 5.67,-8.51 5.76,-8.5C5.85,-8.48 5.94,-8.47 6.03,-8.44C6.12,-8.42 6.22,-8.39 6.3,-8.36C6.39,-8.33 6.48,-8.29 6.56,-8.25C6.64,-8.21 6.72,-8.17 6.8,-8.11C6.87,-8.06 6.94,-8.01 7.02,-7.94C7.09,-7.88 7.16,-7.81 7.22,-7.74C7.29,-7.67 7.36,-7.59 7.42,-7.51C7.47,-7.43 7.53,-7.35 7.58,-7.27C7.63,-7.18 7.67,-7.1 7.71,-7.01Z" fill="#FFFFFF"/></g><path d="M0,-51.55C0.85,-51.55 1.68,-51.58 2.55,-51.59C3.43,-51.61 4.36,-51.64 5.25,-51.66C6.13,-51.67 7.04,-51.69 7.87,-51.68C8.7,-51.67 9.52,-51.65 10.22,-51.59C10.92,-51.52 11.56,-51.42 12.09,-51.3C12.62,-51.18 13.02,-51.02 13.38,-50.85C13.74,-50.67 14,-50.49 14.24,-50.27C14.47,-50.05 14.64,-49.82 14.8,-49.54C14.96,-49.27 15.07,-48.97 15.21,-48.63C15.34,-48.29 15.49,-47.93 15.62,-47.51C15.74,-47.09 15.88,-46.62 15.99,-46.1C16.09,-45.59 16.16,-45.01 16.22,-44.43C16.29,-43.85 16.33,-43.22 16.38,-42.6C16.42,-41.99 16.45,-41.34 16.49,-40.73C16.53,-40.11 16.58,-39.51 16.62,-38.92C16.66,-38.32 16.7,-37.75 16.73,-37.16C16.76,-36.58 16.77,-35.99 16.79,-35.4C16.81,-34.8 16.82,-34.21 16.85,-33.62C16.87,-33.03 16.9,-32.43 16.94,-31.84C16.99,-31.25 17.05,-30.66 17.13,-30.07C17.2,-29.47 17.3,-28.88 17.39,-28.28C17.49,-27.68 17.6,-27.07 17.71,-26.47C17.83,-25.87 17.95,-25.26 18.09,-24.67C18.23,-24.08 18.37,-23.48 18.54,-22.91C18.7,-22.34 18.86,-21.77 19.06,-21.22C19.25,-20.67 19.48,-20.14 19.72,-19.62C19.97,-19.09 20.25,-18.58 20.53,-18.07C20.8,-17.57 21.1,-17.07 21.36,-16.57C21.63,-16.08 21.91,-15.59 22.13,-15.1C22.36,-14.61 22.55,-14.13 22.72,-13.64C22.89,-13.15 23.02,-12.65 23.14,-12.16C23.27,-11.66 23.38,-11.16 23.47,-10.67C23.56,-10.18 23.63,-9.69 23.68,-9.22C23.73,-8.75 23.76,-8.28 23.76,-7.84C23.77,-7.4 23.74,-6.98 23.7,-6.56C23.66,-6.15 23.59,-5.75 23.52,-5.35C23.44,-4.95 23.36,-4.55 23.24,-4.17C23.12,-3.8 22.99,-3.43 22.81,-3.1C22.63,-2.77 22.42,-2.46 22.16,-2.19C21.9,-1.93 21.62,-1.69 21.25,-1.51C20.88,-1.32 20.44,-1.18 19.95,-1.08C19.45,-0.97 18.86,-0.91 18.28,-0.87C17.69,-0.83 17.05,-0.82 16.45,-0.83C15.84,-0.83 15.21,-0.86 14.65,-0.89C14.09,-0.92 13.56,-0.95 13.1,-1C12.63,-1.05 12.24,-1.11 11.85,-1.2C11.47,-1.29 11.13,-1.41 10.79,-1.53C10.44,-1.65 10.13,-1.79 9.79,-1.92C9.45,-2.05 9.12,-2.19 8.75,-2.32C8.38,-2.44 7.99,-2.55 7.56,-2.67C7.13,-2.78 6.65,-2.89 6.17,-3C5.69,-3.12 5.19,-3.25 4.68,-3.37C4.17,-3.48 3.64,-3.6 3.12,-3.7C2.6,-3.79 2.06,-3.88 1.54,-3.94C1.02,-4 0.51,-4.03 0,-4.03C-0.51,-4.03 -1.02,-4 -1.54,-3.94C-2.06,-3.88 -2.6,-3.79 -3.12,-3.7C-3.64,-3.6 -4.17,-3.48 -4.68,-3.37C-5.19,-3.25 -5.69,-3.12 -6.17,-3C-6.65,-2.89 -7.13,-2.78 -7.56,-2.67C-7.99,-2.55 -8.38,-2.44 -8.75,-2.32C-9.12,-2.19 -9.45,-2.05 -9.79,-1.92C-10.13,-1.79 -10.44,-1.65 -10.79,-1.53C-11.13,-1.41 -11.47,-1.29 -11.85,-1.2C-12.24,-1.11 -12.63,-1.05 -13.1,-1C-13.56,-0.95 -14.09,-0.92 -14.65,-0.89C-15.21,-0.86 -15.84,-0.83 -16.45,-0.83C-17.05,-0.82 -17.69,-0.83 -18.28,-0.87C-18.86,-0.91 -19.45,-0.97 -19.95,-1.08C-20.44,-1.18 -20.88,-1.32 -21.25,-1.51C-21.62,-1.69 -21.9,-1.93 -22.16,-2.19C-22.42,-2.46 -22.63,-2.77 -22.81,-3.1C-22.99,-3.43 -23.12,-3.8 -23.24,-4.17C-23.36,-4.55 -23.44,-4.95 -23.52,-5.35C-23.59,-5.75 -23.66,-6.15 -23.7,-6.56C-23.74,-6.98 -23.77,-7.4 -23.76,-7.84C-23.76,-8.28 -23.73,-8.75 -23.68,-9.22C-23.63,-9.69 -23.56,-10.18 -23.47,-10.67C-23.38,-11.16 -23.27,-11.66 -23.14,-12.16C-23.02,-12.65 -22.89,-13.15 -22.72,-13.64C-22.55,-14.13 -22.36,-14.61 -22.13,-15.1C-21.91,-15.59 -21.63,-16.08 -21.36,-16.57C-21.1,-17.07 -20.8,-17.57 -20.53,-18.07C-20.25,-18.58 -19.97,-19.09 -19.72,-19.62C-19.48,-20.14 -19.25,-20.67 -19.06,-21.22C-18.86,-21.77 -18.7,-22.34 -18.54,-22.91C-18.37,-23.48 -18.23,-24.08 -18.09,-24.67C-17.95,-25.26 -17.83,-25.87 -17.71,-26.47C-17.6,-27.07 -17.49,-27.68 -17.39,-28.28C-17.3,-28.88 -17.2,-29.47 -17.13,-30.07C-17.05,-30.66 -16.99,-31.25 -16.94,-31.84C-16.9,-32.43 -16.87,-33.03 -16.85,-33.62C-16.82,-34.21 -16.81,-34.8 -16.79,-35.4C-16.77,-35.99 -16.76,-36.58 -16.73,-37.16C-16.7,-37.75 -16.66,-38.32 -16.62,-38.92C-16.58,-39.51 -16.53,-40.11 -16.49,-40.73C-16.45,-41.34 -16.42,-41.99 -16.38,-42.6C-16.33,-43.22 -16.29,-43.85 -16.22,-44.43C-16.16,-45.01 -16.09,-45.59 -15.99,-46.1C-15.88,-46.62 -15.74,-47.09 -15.62,-47.51C-15.49,-47.93 -15.34,-48.29 -15.21,-48.63C-15.07,-48.97 -14.96,-49.27 -14.8,-49.54C-14.64,-49.82 -14.47,-50.05 -14.24,-50.27C-14,-50.49 -13.74,-50.67 -13.38,-50.85C-13.02,-51.02 -12.62,-51.18 -12.09,-51.3C-11.56,-51.42 -10.92,-51.52 -10.22,-51.59C-9.52,-51.65 -8.7,-51.67 -7.87,-51.68C-7.04,-51.69 -6.13,-51.67 -5.25,-51.66C-4.36,-51.64 -3.43,-51.61 -2.55,-51.59C-1.68,-51.58 -0.85,-51.55 0,-51.55Z" fill="none" stroke="#1C1311" stroke-width="2.4" stroke-linejoin="round"/><path d="M-17.13,-17.18C-16.71,-16.08 -14.69,-12.88 -14.61,-10.61C-14.52,-8.33 -16.29,-4.71 -16.62,-3.53" fill="none" stroke="#1C1311" stroke-width="1.92" stroke-linecap="round" stroke-linejoin="round" opacity="1"/><path d="M17.13,-17.18C16.71,-16.08 14.69,-12.88 14.61,-10.61C14.52,-8.33 16.29,-4.71 16.62,-3.53" fill="none" stroke="#1C1311" stroke-width="1.92" stroke-linecap="round" stroke-linejoin="round" opacity="1"/><path d="M-8.46,-30.32C-7.59,-32.05 -4.33,-32.05 -3.63,-30.32C-2.92,-28.59 -4.11,-21.78 -4.25,-19.92C-4.4,-18.07 -3.77,-19.32 -4.49,-19.2C-5.22,-19.08 -7.88,-19.08 -8.6,-19.2C-9.33,-19.32 -8.87,-18.07 -8.85,-19.92C-8.82,-21.78 -9.33,-28.59 -8.46,-30.32Z" fill="#4b4650"/><g clip-path="url(#c-k3)"><rect x="-36.548256" y="-21.37560832" width="60" height="6.176035840000001" fill="#1C1414"/><rect x="-36.548256" y="-21.37560832" width="60" height="1" fill="#1C1414"/></g><path d="M-8.46,-30.32C-7.59,-32.05 -4.33,-32.05 -3.63,-30.32C-2.92,-28.59 -4.11,-21.78 -4.25,-19.92C-4.4,-18.07 -3.77,-19.32 -4.49,-19.2C-5.22,-19.08 -7.88,-19.08 -8.6,-19.2C-9.33,-19.32 -8.87,-18.07 -8.85,-19.92C-8.82,-21.78 -9.33,-28.59 -8.46,-30.32Z" fill="none" stroke="#1C1311" stroke-width="2.16" stroke-linejoin="round"/><path d="M3.63,-30.32C4.33,-32.05 7.59,-32.05 8.46,-30.32C9.33,-28.59 8.82,-21.78 8.85,-19.92C8.87,-18.07 9.33,-19.32 8.6,-19.2C7.88,-19.08 5.22,-19.08 4.49,-19.2C3.77,-19.32 4.4,-18.07 4.25,-19.92C4.11,-21.78 2.92,-28.59 3.63,-30.32Z" fill="#4b4650"/><g clip-path="url(#c-k4)"><rect x="-23.451743999999998" y="-21.37560832" width="60" height="6.176035840000001" fill="#1C1414"/><rect x="-23.451743999999998" y="-21.37560832" width="60" height="1" fill="#1C1414"/></g><path d="M3.63,-30.32C4.33,-32.05 7.59,-32.05 8.46,-30.32C9.33,-28.59 8.82,-21.78 8.85,-19.92C8.87,-18.07 9.33,-19.32 8.6,-19.2C7.88,-19.08 5.22,-19.08 4.49,-19.2C3.77,-19.32 4.4,-18.07 4.25,-19.92C4.11,-21.78 2.92,-28.59 3.63,-30.32Z" fill="none" stroke="#1C1311" stroke-width="2.16" stroke-linejoin="round"/><path d="M-18.3,-72.36C-18.5,-73.24 -19.39,-74.27 -19.83,-74.78C-20.27,-75.3 -20.6,-75.31 -20.96,-75.46C-21.32,-75.61 -21.66,-75.67 -22,-75.7C-22.33,-75.74 -22.66,-75.72 -22.97,-75.67C-23.29,-75.63 -23.6,-75.55 -23.91,-75.45C-24.21,-75.35 -24.51,-75.22 -24.81,-75.08C-25.1,-74.94 -25.39,-74.77 -25.68,-74.6C-25.97,-74.42 -26.25,-74.22 -26.53,-74.02C-26.82,-73.82 -27.1,-73.6 -27.37,-73.37C-27.65,-73.15 -27.92,-72.91 -28.2,-72.67C-28.47,-72.43 -28.74,-72.18 -29.01,-71.93C-29.28,-71.67 -29.55,-71.41 -29.82,-71.15C-30.09,-70.88 -30.36,-70.62 -30.62,-70.33C-30.89,-70.04 -31.45,-69.66 -31.4,-69.43C-31.35,-69.2 -30.67,-69.09 -30.31,-68.95C-29.95,-68.8 -29.6,-68.67 -29.24,-68.55C-28.89,-68.42 -28.53,-68.3 -28.18,-68.19C-27.82,-68.07 -27.47,-67.96 -27.12,-67.86C-26.77,-67.76 -26.42,-67.66 -26.08,-67.58C-25.73,-67.49 -25.38,-67.41 -25.04,-67.35C-24.7,-67.28 -24.36,-67.23 -24.03,-67.19C-23.69,-67.15 -23.36,-67.13 -23.03,-67.12C-22.7,-67.12 -22.37,-67.13 -22.06,-67.17C-21.74,-67.21 -21.42,-67.27 -21.12,-67.37C-20.81,-67.47 -20.51,-67.58 -20.22,-67.76C-19.93,-67.93 -19.65,-68.13 -19.39,-68.42C-19.13,-68.71 -18.83,-68.86 -18.65,-69.51C-18.47,-70.17 -18.11,-71.48 -18.3,-72.36Z" fill="#4b4650" stroke="#1C1311" stroke-width="2.4" stroke-linejoin="round"/><path d="M-21.19,-71.71C-21.28,-72.15 -21.79,-72.65 -22.04,-72.91C-22.29,-73.16 -22.49,-73.15 -22.7,-73.22C-22.91,-73.29 -23.11,-73.31 -23.31,-73.32C-23.51,-73.33 -23.71,-73.32 -23.9,-73.29C-24.09,-73.26 -24.27,-73.21 -24.46,-73.16C-24.64,-73.1 -24.82,-73.03 -25,-72.95C-25.18,-72.87 -25.35,-72.78 -25.53,-72.69C-25.7,-72.59 -25.88,-72.49 -26.05,-72.38C-26.22,-72.27 -26.39,-72.15 -26.56,-72.03C-26.73,-71.91 -26.9,-71.79 -27.07,-71.66C-27.24,-71.53 -27.4,-71.4 -27.57,-71.27C-27.74,-71.13 -27.9,-71 -28.07,-70.86C-28.23,-70.72 -28.4,-70.58 -28.56,-70.43C-28.72,-70.28 -29.07,-70.07 -29.04,-69.96C-29.02,-69.84 -28.62,-69.8 -28.41,-69.74C-28.19,-69.67 -27.99,-69.61 -27.78,-69.56C-27.57,-69.5 -27.36,-69.45 -27.15,-69.4C-26.94,-69.35 -26.74,-69.3 -26.53,-69.25C-26.32,-69.21 -26.12,-69.17 -25.91,-69.13C-25.71,-69.1 -25.51,-69.07 -25.3,-69.04C-25.1,-69.02 -24.9,-69 -24.7,-68.98C-24.5,-68.97 -24.3,-68.97 -24.11,-68.97C-23.91,-68.98 -23.72,-68.99 -23.53,-69.02C-23.34,-69.04 -23.15,-69.08 -22.97,-69.13C-22.78,-69.19 -22.6,-69.26 -22.43,-69.35C-22.25,-69.45 -22.08,-69.55 -21.91,-69.7C-21.75,-69.86 -21.57,-69.93 -21.45,-70.27C-21.33,-70.61 -21.09,-71.27 -21.19,-71.71Z" fill="#C99A94"/><path d="M18.3,-72.36C18.11,-71.48 18.47,-70.17 18.65,-69.51C18.83,-68.86 19.13,-68.71 19.39,-68.42C19.65,-68.13 19.93,-67.93 20.22,-67.76C20.51,-67.58 20.81,-67.47 21.12,-67.37C21.42,-67.27 21.74,-67.21 22.06,-67.17C22.37,-67.13 22.7,-67.12 23.03,-67.12C23.36,-67.13 23.69,-67.15 24.03,-67.19C24.36,-67.23 24.7,-67.28 25.04,-67.35C25.38,-67.41 25.73,-67.49 26.08,-67.58C26.42,-67.66 26.77,-67.76 27.12,-67.86C27.47,-67.96 27.82,-68.07 28.18,-68.19C28.53,-68.3 28.89,-68.42 29.24,-68.55C29.6,-68.67 29.95,-68.8 30.31,-68.95C30.67,-69.09 31.35,-69.2 31.4,-69.43C31.45,-69.66 30.89,-70.04 30.62,-70.33C30.36,-70.62 30.09,-70.88 29.82,-71.15C29.55,-71.41 29.28,-71.67 29.01,-71.93C28.74,-72.18 28.47,-72.43 28.2,-72.67C27.92,-72.91 27.65,-73.15 27.37,-73.37C27.1,-73.6 26.82,-73.82 26.53,-74.02C26.25,-74.22 25.97,-74.42 25.68,-74.6C25.39,-74.77 25.1,-74.94 24.81,-75.08C24.51,-75.22 24.21,-75.35 23.91,-75.45C23.6,-75.55 23.29,-75.63 22.97,-75.67C22.66,-75.72 22.33,-75.74 22,-75.7C21.66,-75.67 21.32,-75.61 20.96,-75.46C20.6,-75.31 20.27,-75.3 19.83,-74.78C19.39,-74.27 18.5,-73.24 18.3,-72.36Z" fill="#4b4650" stroke="#1C1311" stroke-width="2.4" stroke-linejoin="round"/><path d="M21.19,-71.71C21.09,-71.27 21.33,-70.61 21.45,-70.27C21.57,-69.93 21.75,-69.86 21.91,-69.7C22.08,-69.55 22.25,-69.45 22.43,-69.35C22.6,-69.26 22.78,-69.19 22.97,-69.13C23.15,-69.08 23.34,-69.04 23.53,-69.02C23.72,-68.99 23.91,-68.98 24.11,-68.97C24.3,-68.97 24.5,-68.97 24.7,-68.98C24.9,-69 25.1,-69.02 25.3,-69.04C25.51,-69.07 25.71,-69.1 25.91,-69.13C26.12,-69.17 26.32,-69.21 26.53,-69.25C26.74,-69.3 26.94,-69.35 27.15,-69.4C27.36,-69.45 27.57,-69.5 27.78,-69.56C27.99,-69.61 28.19,-69.67 28.41,-69.74C28.62,-69.8 29.02,-69.84 29.04,-69.96C29.07,-70.07 28.72,-70.28 28.56,-70.43C28.4,-70.58 28.23,-70.72 28.07,-70.86C27.9,-71 27.74,-71.13 27.57,-71.27C27.4,-71.4 27.24,-71.53 27.07,-71.66C26.9,-71.79 26.73,-71.91 26.56,-72.03C26.39,-72.15 26.22,-72.27 26.05,-72.38C25.88,-72.49 25.7,-72.59 25.53,-72.69C25.35,-72.78 25.18,-72.87 25,-72.95C24.82,-73.03 24.64,-73.1 24.46,-73.16C24.27,-73.21 24.09,-73.26 23.9,-73.29C23.71,-73.32 23.51,-73.33 23.31,-73.32C23.11,-73.31 22.91,-73.29 22.7,-73.22C22.49,-73.15 22.29,-73.16 22.04,-72.91C21.79,-72.65 21.28,-72.15 21.19,-71.71Z" fill="#C99A94"/><path d="M-4.5,-82.66C-4.5,-82.47 -4.53,-82.27 -4.58,-82.09C-4.63,-81.92 -4.71,-81.75 -4.8,-81.6C-4.9,-81.45 -5.03,-81.32 -5.17,-81.2C-5.3,-81.09 -5.47,-80.99 -5.64,-80.92C-5.81,-80.85 -6,-80.8 -6.19,-80.77C-6.39,-80.75 -6.62,-80.75 -6.82,-80.77C-7.02,-80.8 -7.21,-80.85 -7.38,-80.92C-7.55,-80.99 -7.71,-81.09 -7.85,-81.2C-7.99,-81.32 -8.11,-81.45 -8.21,-81.6C-8.31,-81.75 -8.39,-81.92 -8.44,-82.09C-8.49,-82.27 -8.52,-82.47 -8.52,-82.66C-8.52,-82.85 -8.49,-83.06 -8.44,-83.23C-8.39,-83.41 -8.31,-83.58 -8.21,-83.73C-8.11,-83.87 -7.99,-84.01 -7.85,-84.13C-7.71,-84.24 -7.55,-84.34 -7.38,-84.41C-7.21,-84.48 -7.02,-84.53 -6.82,-84.55C-6.62,-84.58 -6.39,-84.58 -6.19,-84.55C-6,-84.53 -5.81,-84.48 -5.64,-84.41C-5.47,-84.34 -5.3,-84.24 -5.17,-84.13C-5.03,-84.01 -4.9,-83.87 -4.8,-83.73C-4.71,-83.58 -4.63,-83.41 -4.58,-83.23C-4.53,-83.06 -4.5,-82.85 -4.5,-82.66Z" fill="#FFF1CF"/><g clip-path="url(#c-k5)"><ellipse cx="-6.507970560000001" cy="-84.87378740737789" rx="2.2102695014400005" ry="1.4065351372800001" fill="#E6C98F" opacity="0.55"/></g><path d="M-4.5,-82.66C-4.5,-82.47 -4.53,-82.27 -4.58,-82.09C-4.63,-81.92 -4.71,-81.75 -4.8,-81.6C-4.9,-81.45 -5.03,-81.32 -5.17,-81.2C-5.3,-81.09 -5.47,-80.99 -5.64,-80.92C-5.81,-80.85 -6,-80.8 -6.19,-80.77C-6.39,-80.75 -6.62,-80.75 -6.82,-80.77C-7.02,-80.8 -7.21,-80.85 -7.38,-80.92C-7.55,-80.99 -7.71,-81.09 -7.85,-81.2C-7.99,-81.32 -8.11,-81.45 -8.21,-81.6C-8.31,-81.75 -8.39,-81.92 -8.44,-82.09C-8.49,-82.27 -8.52,-82.47 -8.52,-82.66C-8.52,-82.85 -8.49,-83.06 -8.44,-83.23C-8.39,-83.41 -8.31,-83.58 -8.21,-83.73C-8.11,-83.87 -7.99,-84.01 -7.85,-84.13C-7.71,-84.24 -7.55,-84.34 -7.38,-84.41C-7.21,-84.48 -7.02,-84.53 -6.82,-84.55C-6.62,-84.58 -6.39,-84.58 -6.19,-84.55C-6,-84.53 -5.81,-84.48 -5.64,-84.41C-5.47,-84.34 -5.3,-84.24 -5.17,-84.13C-5.03,-84.01 -4.9,-83.87 -4.8,-83.73C-4.71,-83.58 -4.63,-83.41 -4.58,-83.23C-4.53,-83.06 -4.5,-82.85 -4.5,-82.66Z" fill="none" stroke="#1C1311" stroke-width="2.04" stroke-linejoin="round"/><path d="M8.52,-82.66C8.52,-82.47 8.49,-82.27 8.44,-82.09C8.39,-81.92 8.31,-81.75 8.21,-81.6C8.11,-81.45 7.99,-81.32 7.85,-81.2C7.71,-81.09 7.55,-80.99 7.38,-80.92C7.21,-80.85 7.02,-80.8 6.82,-80.77C6.62,-80.75 6.39,-80.75 6.19,-80.77C6,-80.8 5.81,-80.85 5.64,-80.92C5.47,-80.99 5.3,-81.09 5.17,-81.2C5.03,-81.32 4.9,-81.45 4.8,-81.6C4.71,-81.75 4.63,-81.92 4.58,-82.09C4.53,-82.27 4.5,-82.47 4.5,-82.66C4.5,-82.85 4.53,-83.06 4.58,-83.23C4.63,-83.41 4.71,-83.58 4.8,-83.73C4.9,-83.87 5.03,-84.01 5.17,-84.13C5.3,-84.24 5.47,-84.34 5.64,-84.41C5.81,-84.48 6,-84.53 6.19,-84.55C6.39,-84.58 6.62,-84.58 6.82,-84.55C7.02,-84.53 7.21,-84.48 7.38,-84.41C7.55,-84.34 7.71,-84.24 7.85,-84.13C7.99,-84.01 8.11,-83.87 8.21,-83.73C8.31,-83.58 8.39,-83.41 8.44,-83.23C8.49,-83.06 8.52,-82.85 8.52,-82.66Z" fill="#FFF1CF"/><g clip-path="url(#c-k6)"><ellipse cx="6.507970560000001" cy="-84.87378740737789" rx="2.2102695014400005" ry="1.4065351372800001" fill="#E6C98F" opacity="0.55"/></g><path d="M8.52,-82.66C8.52,-82.47 8.49,-82.27 8.44,-82.09C8.39,-81.92 8.31,-81.75 8.21,-81.6C8.11,-81.45 7.99,-81.32 7.85,-81.2C7.71,-81.09 7.55,-80.99 7.38,-80.92C7.21,-80.85 7.02,-80.8 6.82,-80.77C6.62,-80.75 6.39,-80.75 6.19,-80.77C6,-80.8 5.81,-80.85 5.64,-80.92C5.47,-80.99 5.3,-81.09 5.17,-81.2C5.03,-81.32 4.9,-81.45 4.8,-81.6C4.71,-81.75 4.63,-81.92 4.58,-82.09C4.53,-82.27 4.5,-82.47 4.5,-82.66C4.5,-82.85 4.53,-83.06 4.58,-83.23C4.63,-83.41 4.71,-83.58 4.8,-83.73C4.9,-83.87 5.03,-84.01 5.17,-84.13C5.3,-84.24 5.47,-84.34 5.64,-84.41C5.81,-84.48 6,-84.53 6.19,-84.55C6.39,-84.58 6.62,-84.58 6.82,-84.55C7.02,-84.53 7.21,-84.48 7.38,-84.41C7.55,-84.34 7.71,-84.24 7.85,-84.13C7.99,-84.01 8.11,-83.87 8.21,-83.73C8.31,-83.58 8.39,-83.41 8.44,-83.23C8.49,-83.06 8.52,-82.85 8.52,-82.66Z" fill="none" stroke="#1C1311" stroke-width="2.04" stroke-linejoin="round"/><path d="M20.34,-62.07C20.22,-60.82 19.82,-59.38 19.58,-58.32C19.34,-57.26 19.14,-56.52 18.9,-55.7C18.66,-54.89 18.41,-54.15 18.14,-53.43C17.88,-52.71 17.6,-52.03 17.31,-51.38C17.02,-50.73 16.71,-50.11 16.39,-49.52C16.08,-48.93 15.74,-48.37 15.4,-47.83C15.06,-47.3 14.7,-46.79 14.33,-46.3C13.96,-45.82 13.58,-45.36 13.19,-44.93C12.8,-44.5 12.4,-44.09 11.98,-43.72C11.56,-43.34 11.14,-42.98 10.69,-42.66C10.25,-42.33 9.8,-42.03 9.33,-41.76C8.87,-41.48 8.39,-41.24 7.89,-41.02C7.39,-40.8 6.88,-40.61 6.34,-40.44C5.8,-40.28 5.25,-40.14 4.65,-40.03C4.04,-39.92 3.5,-39.83 2.73,-39.78C1.95,-39.72 0.91,-39.7 0,-39.7C-0.91,-39.7 -1.95,-39.72 -2.73,-39.78C-3.5,-39.83 -4.04,-39.92 -4.65,-40.03C-5.25,-40.14 -5.8,-40.28 -6.34,-40.44C-6.88,-40.61 -7.39,-40.8 -7.89,-41.02C-8.39,-41.24 -8.87,-41.48 -9.33,-41.76C-9.8,-42.03 -10.25,-42.33 -10.69,-42.66C-11.14,-42.98 -11.56,-43.34 -11.98,-43.72C-12.4,-44.09 -12.8,-44.5 -13.19,-44.93C-13.58,-45.36 -13.96,-45.82 -14.33,-46.3C-14.7,-46.79 -15.06,-47.3 -15.4,-47.83C-15.74,-48.37 -16.08,-48.93 -16.39,-49.52C-16.71,-50.11 -17.02,-50.73 -17.31,-51.38C-17.6,-52.03 -17.88,-52.71 -18.14,-53.43C-18.41,-54.15 -18.66,-54.89 -18.9,-55.7C-19.14,-56.52 -19.34,-57.26 -19.58,-58.32C-19.82,-59.38 -20.22,-60.82 -20.34,-62.07C-20.45,-63.32 -20.31,-64.75 -20.26,-65.81C-20.21,-66.88 -20.14,-67.62 -20.04,-68.43C-19.94,-69.25 -19.81,-69.99 -19.66,-70.71C-19.51,-71.43 -19.34,-72.1 -19.14,-72.75C-18.94,-73.4 -18.71,-74.02 -18.46,-74.61C-18.22,-75.2 -17.94,-75.76 -17.65,-76.3C-17.35,-76.84 -17.03,-77.35 -16.68,-77.83C-16.34,-78.31 -15.97,-78.77 -15.58,-79.2C-15.19,-79.63 -14.77,-80.04 -14.33,-80.42C-13.89,-80.8 -13.43,-81.15 -12.94,-81.48C-12.45,-81.8 -11.94,-82.1 -11.4,-82.38C-10.87,-82.65 -10.31,-82.9 -9.71,-83.12C-9.12,-83.34 -8.51,-83.53 -7.85,-83.69C-7.2,-83.86 -6.53,-84 -5.79,-84.11C-5.04,-84.22 -4.37,-84.3 -3.41,-84.36C-2.44,-84.41 -1.14,-84.44 0,-84.44C1.14,-84.44 2.44,-84.41 3.41,-84.36C4.37,-84.3 5.04,-84.22 5.79,-84.11C6.53,-84 7.2,-83.86 7.85,-83.69C8.51,-83.53 9.12,-83.34 9.71,-83.12C10.31,-82.9 10.87,-82.65 11.4,-82.38C11.94,-82.1 12.45,-81.8 12.94,-81.48C13.43,-81.15 13.89,-80.8 14.33,-80.42C14.77,-80.04 15.19,-79.63 15.58,-79.2C15.97,-78.77 16.34,-78.31 16.68,-77.83C17.03,-77.35 17.35,-76.84 17.65,-76.3C17.94,-75.76 18.22,-75.2 18.46,-74.61C18.71,-74.02 18.94,-73.4 19.14,-72.75C19.34,-72.1 19.51,-71.43 19.66,-70.71C19.81,-69.99 19.94,-69.25 20.04,-68.43C20.14,-67.62 20.21,-66.88 20.26,-65.81C20.31,-64.75 20.45,-63.32 20.34,-62.07Z" fill="#4b4650"/><g clip-path="url(#c-k7)"><path d="M20.63,-68.14C20.36,-68.01 20.04,-67.95 19.68,-67.91C19.33,-67.87 18.93,-67.88 18.53,-67.91C18.12,-67.94 17.68,-68 17.26,-68.07C16.83,-68.13 16.39,-68.22 15.97,-68.3C15.56,-68.37 15.16,-68.45 14.77,-68.52C14.37,-68.58 13.99,-68.63 13.59,-68.69C13.19,-68.76 12.77,-68.81 12.37,-68.89C11.97,-68.96 11.56,-69.04 11.19,-69.14C10.82,-69.24 10.45,-69.36 10.14,-69.5C9.82,-69.64 9.54,-69.81 9.29,-70.01C9.04,-70.21 8.83,-70.46 8.64,-70.73C8.44,-71 8.27,-71.31 8.13,-71.62C7.99,-71.94 7.87,-72.28 7.78,-72.61C7.69,-72.94 7.63,-73.29 7.59,-73.61C7.56,-73.93 7.55,-74.23 7.59,-74.53C7.62,-74.83 7.68,-75.11 7.78,-75.41C7.88,-75.71 8.02,-76.02 8.17,-76.31C8.33,-76.61 8.52,-76.9 8.72,-77.18C8.92,-77.45 9.15,-77.72 9.39,-77.96C9.62,-78.19 9.86,-78.4 10.12,-78.59C10.38,-78.78 10.66,-78.93 10.97,-79.07C11.27,-79.21 11.61,-79.32 11.95,-79.43C12.29,-79.53 12.66,-79.61 13.02,-79.68C13.37,-79.76 13.75,-79.81 14.11,-79.87C14.47,-79.92 14.82,-79.96 15.17,-80C15.52,-80.03 15.87,-80.07 16.22,-80.09C16.58,-80.11 16.95,-80.13 17.31,-80.13C17.67,-80.13 18.03,-80.13 18.39,-80.1C18.74,-80.07 19.1,-80.03 19.44,-79.96C19.77,-79.89 20.09,-79.81 20.42,-79.69C20.75,-79.58 21.08,-79.43 21.42,-79.27C21.76,-79.1 22.12,-78.9 22.45,-78.7C22.78,-78.49 23.12,-78.26 23.4,-78.03C23.69,-77.8 23.96,-77.55 24.16,-77.31C24.36,-77.06 24.52,-76.82 24.6,-76.57C24.68,-76.32 24.69,-76.06 24.65,-75.79C24.61,-75.53 24.5,-75.24 24.38,-74.96C24.26,-74.67 24.08,-74.38 23.91,-74.09C23.75,-73.8 23.55,-73.5 23.38,-73.21C23.22,-72.92 23.05,-72.64 22.92,-72.35C22.78,-72.05 22.67,-71.75 22.56,-71.43C22.44,-71.12 22.34,-70.77 22.22,-70.45C22.1,-70.12 21.98,-69.79 21.83,-69.5C21.69,-69.2 21.53,-68.92 21.33,-68.69C21.13,-68.47 20.91,-68.28 20.63,-68.14Z" fill="#FFFFFF"/></g><path d="M20.34,-62.07C20.22,-60.82 19.82,-59.38 19.58,-58.32C19.34,-57.26 19.14,-56.52 18.9,-55.7C18.66,-54.89 18.41,-54.15 18.14,-53.43C17.88,-52.71 17.6,-52.03 17.31,-51.38C17.02,-50.73 16.71,-50.11 16.39,-49.52C16.08,-48.93 15.74,-48.37 15.4,-47.83C15.06,-47.3 14.7,-46.79 14.33,-46.3C13.96,-45.82 13.58,-45.36 13.19,-44.93C12.8,-44.5 12.4,-44.09 11.98,-43.72C11.56,-43.34 11.14,-42.98 10.69,-42.66C10.25,-42.33 9.8,-42.03 9.33,-41.76C8.87,-41.48 8.39,-41.24 7.89,-41.02C7.39,-40.8 6.88,-40.61 6.34,-40.44C5.8,-40.28 5.25,-40.14 4.65,-40.03C4.04,-39.92 3.5,-39.83 2.73,-39.78C1.95,-39.72 0.91,-39.7 0,-39.7C-0.91,-39.7 -1.95,-39.72 -2.73,-39.78C-3.5,-39.83 -4.04,-39.92 -4.65,-40.03C-5.25,-40.14 -5.8,-40.28 -6.34,-40.44C-6.88,-40.61 -7.39,-40.8 -7.89,-41.02C-8.39,-41.24 -8.87,-41.48 -9.33,-41.76C-9.8,-42.03 -10.25,-42.33 -10.69,-42.66C-11.14,-42.98 -11.56,-43.34 -11.98,-43.72C-12.4,-44.09 -12.8,-44.5 -13.19,-44.93C-13.58,-45.36 -13.96,-45.82 -14.33,-46.3C-14.7,-46.79 -15.06,-47.3 -15.4,-47.83C-15.74,-48.37 -16.08,-48.93 -16.39,-49.52C-16.71,-50.11 -17.02,-50.73 -17.31,-51.38C-17.6,-52.03 -17.88,-52.71 -18.14,-53.43C-18.41,-54.15 -18.66,-54.89 -18.9,-55.7C-19.14,-56.52 -19.34,-57.26 -19.58,-58.32C-19.82,-59.38 -20.22,-60.82 -20.34,-62.07C-20.45,-63.32 -20.31,-64.75 -20.26,-65.81C-20.21,-66.88 -20.14,-67.62 -20.04,-68.43C-19.94,-69.25 -19.81,-69.99 -19.66,-70.71C-19.51,-71.43 -19.34,-72.1 -19.14,-72.75C-18.94,-73.4 -18.71,-74.02 -18.46,-74.61C-18.22,-75.2 -17.94,-75.76 -17.65,-76.3C-17.35,-76.84 -17.03,-77.35 -16.68,-77.83C-16.34,-78.31 -15.97,-78.77 -15.58,-79.2C-15.19,-79.63 -14.77,-80.04 -14.33,-80.42C-13.89,-80.8 -13.43,-81.15 -12.94,-81.48C-12.45,-81.8 -11.94,-82.1 -11.4,-82.38C-10.87,-82.65 -10.31,-82.9 -9.71,-83.12C-9.12,-83.34 -8.51,-83.53 -7.85,-83.69C-7.2,-83.86 -6.53,-84 -5.79,-84.11C-5.04,-84.22 -4.37,-84.3 -3.41,-84.36C-2.44,-84.41 -1.14,-84.44 0,-84.44C1.14,-84.44 2.44,-84.41 3.41,-84.36C4.37,-84.3 5.04,-84.22 5.79,-84.11C6.53,-84 7.2,-83.86 7.85,-83.69C8.51,-83.53 9.12,-83.34 9.71,-83.12C10.31,-82.9 10.87,-82.65 11.4,-82.38C11.94,-82.1 12.45,-81.8 12.94,-81.48C13.43,-81.15 13.89,-80.8 14.33,-80.42C14.77,-80.04 15.19,-79.63 15.58,-79.2C15.97,-78.77 16.34,-78.31 16.68,-77.83C17.03,-77.35 17.35,-76.84 17.65,-76.3C17.94,-75.76 18.22,-75.2 18.46,-74.61C18.71,-74.02 18.94,-73.4 19.14,-72.75C19.34,-72.1 19.51,-71.43 19.66,-70.71C19.81,-69.99 19.94,-69.25 20.04,-68.43C20.14,-67.62 20.21,-66.88 20.26,-65.81C20.31,-64.75 20.45,-63.32 20.34,-62.07Z" fill="none" stroke="#1C1311" stroke-width="2.4" stroke-linejoin="round"/><ellipse cx="-4.88" cy="-65.2" rx="1.85" ry="2.03" fill="#140D0D"/><ellipse cx="-5.43" cy="-65.84" rx="0.59" ry="0.59" fill="#FFFFFF" opacity="0.85"/><ellipse cx="4.88" cy="-65.2" rx="1.85" ry="2.03" fill="#140D0D"/><ellipse cx="4.33" cy="-65.84" rx="0.59" ry="0.59" fill="#FFFFFF" opacity="0.85"/><path d="M14.24,-49.54C14.24,-49.14 14.2,-48.71 14.12,-48.33C14.05,-47.95 13.93,-47.6 13.78,-47.25C13.63,-46.9 13.45,-46.57 13.23,-46.24C13,-45.92 12.74,-45.61 12.45,-45.31C12.16,-45.02 11.83,-44.73 11.48,-44.46C11.12,-44.2 10.73,-43.94 10.31,-43.71C9.9,-43.47 9.45,-43.25 8.97,-43.05C8.5,-42.84 8,-42.66 7.47,-42.49C6.95,-42.33 6.4,-42.18 5.83,-42.06C5.26,-41.93 4.66,-41.83 4.05,-41.74C3.44,-41.66 2.82,-41.59 2.14,-41.55C1.47,-41.51 0.71,-41.49 0,-41.49C-0.71,-41.49 -1.47,-41.51 -2.14,-41.55C-2.82,-41.59 -3.44,-41.66 -4.05,-41.74C-4.66,-41.83 -5.26,-41.93 -5.83,-42.06C-6.4,-42.18 -6.95,-42.33 -7.47,-42.49C-8,-42.66 -8.5,-42.84 -8.97,-43.05C-9.45,-43.25 -9.9,-43.47 -10.31,-43.71C-10.73,-43.94 -11.12,-44.2 -11.48,-44.46C-11.83,-44.73 -12.16,-45.02 -12.45,-45.31C-12.74,-45.61 -13,-45.92 -13.23,-46.24C-13.45,-46.57 -13.63,-46.9 -13.78,-47.25C-13.93,-47.6 -14.05,-47.95 -14.12,-48.33C-14.2,-48.71 -14.24,-49.14 -14.24,-49.54C-14.24,-49.94 -14.2,-50.37 -14.12,-50.75C-14.05,-51.13 -13.93,-51.48 -13.78,-51.83C-13.63,-52.18 -13.45,-52.51 -13.23,-52.84C-13,-53.16 -12.74,-53.47 -12.45,-53.77C-12.16,-54.06 -11.83,-54.35 -11.48,-54.61C-11.12,-54.88 -10.73,-55.14 -10.31,-55.37C-9.9,-55.61 -9.45,-55.83 -8.97,-56.03C-8.5,-56.23 -8,-56.42 -7.47,-56.58C-6.95,-56.75 -6.4,-56.9 -5.83,-57.02C-5.26,-57.15 -4.66,-57.25 -4.05,-57.34C-3.44,-57.42 -2.82,-57.49 -2.14,-57.53C-1.47,-57.57 -0.71,-57.59 0,-57.59C0.71,-57.59 1.47,-57.57 2.14,-57.53C2.82,-57.49 3.44,-57.42 4.05,-57.34C4.66,-57.25 5.26,-57.15 5.83,-57.02C6.4,-56.9 6.95,-56.75 7.47,-56.58C8,-56.42 8.5,-56.23 8.97,-56.03C9.45,-55.83 9.9,-55.61 10.31,-55.37C10.73,-55.14 11.12,-54.88 11.48,-54.61C11.83,-54.35 12.16,-54.06 12.45,-53.77C12.74,-53.47 13,-53.16 13.23,-52.84C13.45,-52.51 13.63,-52.18 13.78,-51.83C13.93,-51.48 14.05,-51.13 14.12,-50.75C14.2,-50.37 14.24,-49.94 14.24,-49.54Z" fill="#D4A5A8" stroke="#1C1311" stroke-width="2.28" stroke-linejoin="round"/><ellipse cx="-4.84" cy="-50.34" rx="1.14" ry="1.38" fill="#8E5F63"/><ellipse cx="4.84" cy="-50.34" rx="1.14" ry="1.38" fill="#8E5F63"/><path d="M23.81,-70.18C23.81,-70.02 23.81,-69.39 23.81,-69.23" fill="none" stroke="#1C1311" stroke-width="5.06" stroke-linecap="round" stroke-linejoin="round"/><path d="M23.81,-70.18C23.81,-70.02 23.81,-69.39 23.81,-69.23" fill="none" stroke="#E9B949" stroke-width="0.98" stroke-linecap="round" stroke-linejoin="round"/><ellipse cx="23.81" cy="-67.34" rx="2.36" ry="2.48" fill="#FFD45E" stroke="#1C1311" stroke-width="1.8"/><ellipse cx="23.81" cy="-67.34" rx="0.8" ry="0.8" fill="#E9B949"/><path d="M-13.42,-68.78C-12.95,-69.97 -12.07,-74 -10.58,-75.94C-9.08,-77.88 -5.49,-79.67 -4.47,-80.41" fill="none" stroke="#FFFFFF" stroke-width="2.64" stroke-linecap="round" stroke-linejoin="round" opacity="0.9"/><path d="M-0.41,-81.31C0.07,-81.31 1.97,-81.31 2.44,-81.31" fill="none" stroke="#FFFFFF" stroke-width="2.44" stroke-linecap="round" stroke-linejoin="round" opacity="0.9"/></g><g transform="translate(6.43 -51.83) rotate(-14)"><path d="M0 0C-1.89 -7.17 -8.15 -6.79 -7.55 -0.38C-8 5.89 -1.89 6.19 0 0Z" fill="#FF8FB1" stroke="#4B3326" stroke-width="1.11" stroke-linejoin="round"/><path d="M0 0C1.89 -7.17 8.15 -6.79 7.55 -0.38C8 5.89 1.89 6.19 0 0Z" fill="#FF8FB1" stroke="#4B3326" stroke-width="1.11" stroke-linejoin="round"/><path d="M-5.43 -1.66Q-4.53 -4.15 -2.26 -3.77" stroke="#FFFFFF" stroke-width="1.11" stroke-linecap="round" fill="none" opacity="0.8"/><ellipse cx="0" cy="0" rx="1.96" ry="2.41" fill="#FF6F9A" stroke="#4B3326" stroke-width="1.11"/></g></svg>
