<svg xmlns="http://www.w3.org/2000/svg" viewBox="-34.02 -76.87 68.04 80.87" width="68.04" height="80.87"><g transform="translate(0,0) scale(0.82,0.82)"><defs><clipPath id="c-k0"><path d="M-17.4,-2.53C-17.4,-2.25 -17.45,-1.95 -17.55,-1.71C-17.65,-1.46 -17.81,-1.26 -18,-1.06C-18.2,-0.86 -18.45,-0.68 -18.74,-0.52C-19.03,-0.35 -19.37,-0.21 -19.74,-0.08C-20.11,0.05 -20.53,0.16 -20.98,0.24C-21.44,0.33 -21.9,0.4 -22.46,0.44C-23.02,0.48 -23.72,0.51 -24.34,0.51C-24.97,0.51 -25.66,0.48 -26.22,0.44C-26.78,0.4 -27.25,0.33 -27.7,0.24C-28.15,0.16 -28.57,0.05 -28.94,-0.08C-29.32,-0.21 -29.66,-0.35 -29.95,-0.52C-30.24,-0.68 -30.48,-0.86 -30.68,-1.06C-30.88,-1.26 -31.03,-1.46 -31.13,-1.71C-31.23,-1.95 -31.28,-2.25 -31.28,-2.53C-31.28,-2.8 -31.23,-3.1 -31.13,-3.35C-31.03,-3.59 -30.88,-3.8 -30.68,-4C-30.48,-4.19 -30.24,-4.38 -29.95,-4.54C-29.66,-4.7 -29.32,-4.85 -28.94,-4.98C-28.57,-5.1 -28.15,-5.21 -27.7,-5.3C-27.25,-5.38 -26.78,-5.45 -26.22,-5.49C-25.66,-5.54 -24.97,-5.56 -24.34,-5.56C-23.72,-5.56 -23.02,-5.54 -22.46,-5.49C-21.9,-5.45 -21.44,-5.38 -20.98,-5.3C-20.53,-5.21 -20.11,-5.1 -19.74,-4.98C-19.37,-4.85 -19.03,-4.7 -18.74,-4.54C-18.45,-4.38 -18.2,-4.19 -18,-4C-17.81,-3.8 -17.65,-3.59 -17.55,-3.35C-17.45,-3.1 -17.4,-2.8 -17.4,-2.53Z"/></clipPath><clipPath id="c-k1"><path d="M31.28,-2.53C31.28,-2.25 31.23,-1.95 31.13,-1.71C31.03,-1.46 30.88,-1.26 30.68,-1.06C30.48,-0.86 30.24,-0.68 29.95,-0.52C29.66,-0.35 29.32,-0.21 28.94,-0.08C28.57,0.05 28.15,0.16 27.7,0.24C27.25,0.33 26.78,0.4 26.22,0.44C25.66,0.48 24.97,0.51 24.34,0.51C23.72,0.51 23.02,0.48 22.46,0.44C21.9,0.4 21.44,0.33 20.98,0.24C20.53,0.16 20.11,0.05 19.74,-0.08C19.37,-0.21 19.03,-0.35 18.74,-0.52C18.45,-0.68 18.2,-0.86 18,-1.06C17.81,-1.26 17.65,-1.46 17.55,-1.71C17.45,-1.95 17.4,-2.25 17.4,-2.53C17.4,-2.8 17.45,-3.1 17.55,-3.35C17.65,-3.59 17.81,-3.8 18,-4C18.2,-4.19 18.45,-4.38 18.74,-4.54C19.03,-4.7 19.37,-4.85 19.74,-4.98C20.11,-5.1 20.53,-5.21 20.98,-5.3C21.44,-5.38 21.9,-5.45 22.46,-5.49C23.02,-5.54 23.72,-5.56 24.34,-5.56C24.97,-5.56 25.66,-5.54 26.22,-5.49C26.78,-5.45 27.25,-5.38 27.7,-5.3C28.15,-5.21 28.57,-5.1 28.94,-4.98C29.32,-4.85 29.66,-4.7 29.95,-4.54C30.24,-4.38 30.48,-4.19 30.68,-4C30.88,-3.8 31.03,-3.59 31.13,-3.35C31.23,-3.1 31.28,-2.8 31.28,-2.53Z"/></clipPath><clipPath id="c-k2"><path d="M0,-51.55C1.05,-51.55 2.07,-51.58 3.14,-51.59C4.22,-51.61 5.36,-51.64 6.45,-51.66C7.54,-51.67 8.66,-51.69 9.68,-51.68C10.7,-51.67 11.7,-51.65 12.57,-51.59C13.43,-51.52 14.22,-51.42 14.86,-51.3C15.51,-51.18 16.02,-51.02 16.46,-50.85C16.9,-50.67 17.22,-50.49 17.51,-50.27C17.8,-50.05 18,-49.82 18.19,-49.54C18.39,-49.27 18.53,-48.97 18.7,-48.63C18.87,-48.29 19.04,-47.93 19.2,-47.51C19.36,-47.09 19.54,-46.62 19.67,-46.1C19.8,-45.59 19.9,-45.01 19.99,-44.43C20.08,-43.85 20.14,-43.22 20.2,-42.6C20.25,-41.99 20.29,-41.34 20.33,-40.73C20.37,-40.11 20.41,-39.51 20.44,-38.92C20.46,-38.32 20.48,-37.75 20.48,-37.16C20.49,-36.58 20.47,-35.99 20.45,-35.4C20.42,-34.8 20.39,-34.21 20.36,-33.62C20.33,-33.03 20.29,-32.43 20.27,-31.84C20.25,-31.25 20.24,-30.66 20.22,-30.07C20.19,-29.47 20.17,-28.88 20.14,-28.28C20.1,-27.68 20.04,-27.07 20.01,-26.47C19.97,-25.87 19.92,-25.26 19.91,-24.67C19.91,-24.08 19.9,-23.48 19.95,-22.91C20,-22.34 20.06,-21.77 20.2,-21.22C20.34,-20.67 20.54,-20.14 20.77,-19.62C21.01,-19.09 21.31,-18.58 21.61,-18.07C21.9,-17.57 22.24,-17.07 22.55,-16.57C22.85,-16.08 23.17,-15.59 23.43,-15.1C23.68,-14.61 23.9,-14.13 24.08,-13.64C24.27,-13.15 24.4,-12.65 24.53,-12.16C24.66,-11.66 24.78,-11.16 24.88,-10.67C24.97,-10.18 25.05,-9.69 25.1,-9.22C25.15,-8.75 25.19,-8.28 25.19,-7.84C25.19,-7.4 25.16,-6.98 25.12,-6.56C25.08,-6.15 25.01,-5.75 24.93,-5.35C24.85,-4.95 24.76,-4.55 24.63,-4.17C24.51,-3.8 24.37,-3.43 24.18,-3.1C23.99,-2.77 23.77,-2.46 23.49,-2.19C23.22,-1.93 22.92,-1.69 22.53,-1.51C22.14,-1.32 21.67,-1.18 21.14,-1.08C20.62,-0.97 19.99,-0.91 19.37,-0.87C18.76,-0.83 18.07,-0.82 17.43,-0.83C16.79,-0.83 16.12,-0.86 15.53,-0.89C14.94,-0.92 14.38,-0.95 13.88,-1C13.39,-1.05 12.97,-1.11 12.56,-1.2C12.16,-1.29 11.8,-1.41 11.44,-1.53C11.07,-1.65 10.74,-1.79 10.38,-1.92C10.02,-2.05 9.67,-2.19 9.28,-2.32C8.88,-2.44 8.46,-2.55 8.01,-2.67C7.55,-2.78 7.05,-2.89 6.54,-3C6.04,-3.12 5.5,-3.25 4.96,-3.37C4.42,-3.48 3.86,-3.6 3.31,-3.7C2.75,-3.79 2.19,-3.88 1.64,-3.94C1.08,-4 0.55,-4.03 0,-4.03C-0.55,-4.03 -1.08,-4 -1.64,-3.94C-2.19,-3.88 -2.75,-3.79 -3.31,-3.7C-3.86,-3.6 -4.42,-3.48 -4.96,-3.37C-5.5,-3.25 -6.04,-3.12 -6.54,-3C-7.05,-2.89 -7.55,-2.78 -8.01,-2.67C-8.46,-2.55 -8.88,-2.44 -9.28,-2.32C-9.67,-2.19 -10.02,-2.05 -10.38,-1.92C-10.74,-1.79 -11.07,-1.65 -11.44,-1.53C-11.8,-1.41 -12.16,-1.29 -12.56,-1.2C-12.97,-1.11 -13.39,-1.05 -13.88,-1C-14.38,-0.95 -14.94,-0.92 -15.53,-0.89C-16.12,-0.86 -16.79,-0.83 -17.43,-0.83C-18.07,-0.82 -18.76,-0.83 -19.37,-0.87C-19.99,-0.91 -20.62,-0.97 -21.14,-1.08C-21.67,-1.18 -22.14,-1.32 -22.53,-1.51C-22.92,-1.69 -23.22,-1.93 -23.49,-2.19C-23.77,-2.46 -23.99,-2.77 -24.18,-3.1C-24.37,-3.43 -24.51,-3.8 -24.63,-4.17C-24.76,-4.55 -24.85,-4.95 -24.93,-5.35C-25.01,-5.75 -25.08,-6.15 -25.12,-6.56C-25.16,-6.98 -25.19,-7.4 -25.19,-7.84C-25.19,-8.28 -25.15,-8.75 -25.1,-9.22C-25.05,-9.69 -24.97,-10.18 -24.88,-10.67C-24.78,-11.16 -24.66,-11.66 -24.53,-12.16C-24.4,-12.65 -24.27,-13.15 -24.08,-13.64C-23.9,-14.13 -23.68,-14.61 -23.43,-15.1C-23.17,-15.59 -22.85,-16.08 -22.55,-16.57C-22.24,-17.07 -21.9,-17.57 -21.61,-18.07C-21.31,-18.58 -21.01,-19.09 -20.77,-19.62C-20.54,-20.14 -20.34,-20.67 -20.2,-21.22C-20.06,-21.77 -20,-22.34 -19.95,-22.91C-19.9,-23.48 -19.91,-24.08 -19.91,-24.67C-19.92,-25.26 -19.97,-25.87 -20.01,-26.47C-20.04,-27.07 -20.1,-27.68 -20.14,-28.28C-20.17,-28.88 -20.19,-29.47 -20.22,-30.07C-20.24,-30.66 -20.25,-31.25 -20.27,-31.84C-20.29,-32.43 -20.33,-33.03 -20.36,-33.62C-20.39,-34.21 -20.42,-34.8 -20.45,-35.4C-20.47,-35.99 -20.49,-36.58 -20.48,-37.16C-20.48,-37.75 -20.46,-38.32 -20.44,-38.92C-20.41,-39.51 -20.37,-40.11 -20.33,-40.73C-20.29,-41.34 -20.25,-41.99 -20.2,-42.6C-20.14,-43.22 -20.08,-43.85 -19.99,-44.43C-19.9,-45.01 -19.8,-45.59 -19.67,-46.1C-19.54,-46.62 -19.36,-47.09 -19.2,-47.51C-19.04,-47.93 -18.87,-48.29 -18.7,-48.63C-18.53,-48.97 -18.39,-49.27 -18.19,-49.54C-18,-49.82 -17.8,-50.05 -17.51,-50.27C-17.22,-50.49 -16.9,-50.67 -16.46,-50.85C-16.02,-51.02 -15.51,-51.18 -14.86,-51.3C-14.22,-51.42 -13.43,-51.52 -12.57,-51.59C-11.7,-51.65 -10.7,-51.67 -9.68,-51.68C-8.66,-51.69 -7.54,-51.67 -6.45,-51.66C-5.36,-51.64 -4.22,-51.61 -3.14,-51.59C-2.07,-51.58 -1.05,-51.55 0,-51.55Z"/></clipPath><clipPath id="c-k3"><path d="M-8.97,-30.32C-8.05,-32.05 -4.59,-32.05 -3.84,-30.32C-3.1,-28.6 -4.35,-21.82 -4.51,-19.97C-4.66,-18.11 -3.99,-19.33 -4.76,-19.2C-5.53,-19.07 -8.35,-19.07 -9.12,-19.2C-9.89,-19.33 -9.4,-18.11 -9.38,-19.97C-9.35,-21.82 -9.89,-28.6 -8.97,-30.32Z"/></clipPath><clipPath id="c-k4"><path d="M3.84,-30.32C4.59,-32.05 8.05,-32.05 8.97,-30.32C9.89,-28.6 9.35,-21.82 9.38,-19.97C9.4,-18.11 9.89,-19.33 9.12,-19.2C8.35,-19.07 5.53,-19.07 4.76,-19.2C3.99,-19.33 4.66,-18.11 4.51,-19.97C4.35,-21.82 3.1,-28.6 3.84,-30.32Z"/></clipPath><clipPath id="c-k5"><path d="M-4.68,-83.97C-4.68,-83.77 -4.71,-83.56 -4.76,-83.37C-4.81,-83.19 -4.89,-83.02 -5,-82.86C-5.1,-82.71 -5.23,-82.57 -5.37,-82.45C-5.52,-82.33 -5.68,-82.23 -5.86,-82.15C-6.04,-82.08 -6.24,-82.03 -6.44,-82C-6.65,-81.98 -6.89,-81.98 -7.09,-82C-7.3,-82.03 -7.5,-82.08 -7.67,-82.15C-7.85,-82.23 -8.02,-82.33 -8.16,-82.45C-8.31,-82.57 -8.44,-82.71 -8.54,-82.86C-8.64,-83.02 -8.72,-83.19 -8.78,-83.37C-8.83,-83.56 -8.86,-83.77 -8.86,-83.97C-8.86,-84.17 -8.83,-84.38 -8.78,-84.56C-8.72,-84.75 -8.64,-84.92 -8.54,-85.07C-8.44,-85.23 -8.31,-85.37 -8.16,-85.49C-8.02,-85.61 -7.85,-85.71 -7.67,-85.78C-7.5,-85.86 -7.3,-85.91 -7.09,-85.93C-6.89,-85.96 -6.65,-85.96 -6.44,-85.93C-6.24,-85.91 -6.04,-85.86 -5.86,-85.78C-5.68,-85.71 -5.52,-85.61 -5.37,-85.49C-5.23,-85.37 -5.1,-85.23 -5,-85.07C-4.89,-84.92 -4.81,-84.75 -4.76,-84.56C-4.71,-84.38 -4.68,-84.17 -4.68,-83.97Z"/></clipPath><clipPath id="c-k6"><path d="M8.86,-83.97C8.86,-83.77 8.83,-83.56 8.78,-83.37C8.72,-83.19 8.64,-83.02 8.54,-82.86C8.44,-82.71 8.31,-82.57 8.16,-82.45C8.02,-82.33 7.85,-82.23 7.67,-82.15C7.5,-82.08 7.3,-82.03 7.09,-82C6.89,-81.98 6.65,-81.98 6.44,-82C6.24,-82.03 6.04,-82.08 5.86,-82.15C5.68,-82.23 5.52,-82.33 5.37,-82.45C5.23,-82.57 5.1,-82.71 5,-82.86C4.89,-83.02 4.81,-83.19 4.76,-83.37C4.71,-83.56 4.68,-83.77 4.68,-83.97C4.68,-84.17 4.71,-84.38 4.76,-84.56C4.81,-84.75 4.89,-84.92 5,-85.07C5.1,-85.23 5.23,-85.37 5.37,-85.49C5.52,-85.61 5.68,-85.71 5.86,-85.78C6.04,-85.86 6.24,-85.91 6.44,-85.93C6.65,-85.96 6.89,-85.96 7.09,-85.93C7.3,-85.91 7.5,-85.86 7.67,-85.78C7.85,-85.71 8.02,-85.61 8.16,-85.49C8.31,-85.37 8.44,-85.23 8.54,-85.07C8.64,-84.92 8.72,-84.75 8.78,-84.56C8.83,-84.38 8.86,-84.17 8.86,-83.97Z"/></clipPath><clipPath id="c-k7"><path d="M21.15,-62.49C21.03,-61.19 20.62,-59.69 20.37,-58.59C20.12,-57.49 19.9,-56.72 19.65,-55.87C19.4,-55.02 19.14,-54.25 18.87,-53.5C18.59,-52.75 18.3,-52.05 18,-51.37C17.7,-50.7 17.38,-50.06 17.05,-49.44C16.72,-48.83 16.37,-48.24 16.02,-47.68C15.66,-47.13 15.29,-46.6 14.91,-46.09C14.52,-45.59 14.13,-45.12 13.72,-44.67C13.31,-44.22 12.89,-43.8 12.46,-43.4C12.03,-43.01 11.58,-42.64 11.12,-42.3C10.66,-41.96 10.19,-41.65 9.71,-41.37C9.22,-41.08 8.72,-40.82 8.2,-40.6C7.68,-40.37 7.15,-40.17 6.59,-40C6.03,-39.82 5.46,-39.68 4.83,-39.57C4.21,-39.45 3.64,-39.37 2.84,-39.31C2.03,-39.25 0.95,-39.22 0,-39.22C-0.95,-39.22 -2.03,-39.25 -2.84,-39.31C-3.64,-39.37 -4.21,-39.45 -4.83,-39.57C-5.46,-39.68 -6.03,-39.82 -6.59,-40C-7.15,-40.17 -7.68,-40.37 -8.2,-40.6C-8.72,-40.82 -9.22,-41.08 -9.71,-41.37C-10.19,-41.65 -10.66,-41.96 -11.12,-42.3C-11.58,-42.64 -12.03,-43.01 -12.46,-43.4C-12.89,-43.8 -13.31,-44.22 -13.72,-44.67C-14.13,-45.12 -14.52,-45.59 -14.91,-46.09C-15.29,-46.6 -15.66,-47.13 -16.02,-47.68C-16.37,-48.24 -16.72,-48.83 -17.05,-49.44C-17.38,-50.06 -17.7,-50.7 -18,-51.37C-18.3,-52.05 -18.59,-52.75 -18.87,-53.5C-19.14,-54.25 -19.4,-55.02 -19.65,-55.87C-19.9,-56.72 -20.12,-57.49 -20.37,-58.59C-20.62,-59.69 -21.03,-61.19 -21.15,-62.49C-21.27,-63.79 -21.12,-65.28 -21.07,-66.39C-21.02,-67.49 -20.94,-68.26 -20.84,-69.11C-20.73,-69.95 -20.6,-70.72 -20.45,-71.47C-20.29,-72.22 -20.11,-72.92 -19.9,-73.6C-19.69,-74.28 -19.46,-74.92 -19.2,-75.53C-18.94,-76.15 -18.66,-76.73 -18.35,-77.29C-18.04,-77.85 -17.71,-78.38 -17.35,-78.88C-16.99,-79.38 -16.61,-79.86 -16.2,-80.31C-15.79,-80.76 -15.36,-81.18 -14.9,-81.57C-14.45,-81.97 -13.97,-82.33 -13.46,-82.67C-12.95,-83.01 -12.42,-83.33 -11.86,-83.61C-11.3,-83.89 -10.72,-84.15 -10.1,-84.38C-9.49,-84.61 -8.85,-84.81 -8.17,-84.98C-7.49,-85.15 -6.79,-85.29 -6.02,-85.41C-5.25,-85.52 -4.55,-85.61 -3.54,-85.67C-2.54,-85.72 -1.18,-85.75 0,-85.75C1.18,-85.75 2.54,-85.72 3.54,-85.67C4.55,-85.61 5.25,-85.52 6.02,-85.41C6.79,-85.29 7.49,-85.15 8.17,-84.98C8.85,-84.81 9.49,-84.61 10.1,-84.38C10.72,-84.15 11.3,-83.89 11.86,-83.61C12.42,-83.33 12.95,-83.01 13.46,-82.67C13.97,-82.33 14.45,-81.97 14.9,-81.57C15.36,-81.18 15.79,-80.76 16.2,-80.31C16.61,-79.86 16.99,-79.38 17.35,-78.88C17.71,-78.38 18.04,-77.85 18.35,-77.29C18.66,-76.73 18.94,-76.15 19.2,-75.53C19.46,-74.92 19.69,-74.28 19.9,-73.6C20.11,-72.92 20.29,-72.22 20.45,-71.47C20.6,-70.72 20.73,-69.95 20.84,-69.11C20.94,-68.26 21.02,-67.49 21.07,-66.39C21.12,-65.28 21.27,-63.79 21.15,-62.49Z"/></clipPath></defs><path d="M-17.4,-2.53C-17.4,-2.25 -17.45,-1.95 -17.55,-1.71C-17.65,-1.46 -17.81,-1.26 -18,-1.06C-18.2,-0.86 -18.45,-0.68 -18.74,-0.52C-19.03,-0.35 -19.37,-0.21 -19.74,-0.08C-20.11,0.05 -20.53,0.16 -20.98,0.24C-21.44,0.33 -21.9,0.4 -22.46,0.44C-23.02,0.48 -23.72,0.51 -24.34,0.51C-24.97,0.51 -25.66,0.48 -26.22,0.44C-26.78,0.4 -27.25,0.33 -27.7,0.24C-28.15,0.16 -28.57,0.05 -28.94,-0.08C-29.32,-0.21 -29.66,-0.35 -29.95,-0.52C-30.24,-0.68 -30.48,-0.86 -30.68,-1.06C-30.88,-1.26 -31.03,-1.46 -31.13,-1.71C-31.23,-1.95 -31.28,-2.25 -31.28,-2.53C-31.28,-2.8 -31.23,-3.1 -31.13,-3.35C-31.03,-3.59 -30.88,-3.8 -30.68,-4C-30.48,-4.19 -30.24,-4.38 -29.95,-4.54C-29.66,-4.7 -29.32,-4.85 -28.94,-4.98C-28.57,-5.1 -28.15,-5.21 -27.7,-5.3C-27.25,-5.38 -26.78,-5.45 -26.22,-5.49C-25.66,-5.54 -24.97,-5.56 -24.34,-5.56C-23.72,-5.56 -23.02,-5.54 -22.46,-5.49C-21.9,-5.45 -21.44,-5.38 -20.98,-5.3C-20.53,-5.21 -20.11,-5.1 -19.74,-4.98C-19.37,-4.85 -19.03,-4.7 -18.74,-4.54C-18.45,-4.38 -18.2,-4.19 -18,-4C-17.81,-3.8 -17.65,-3.59 -17.55,-3.35C-17.45,-3.1 -17.4,-2.8 -17.4,-2.53Z" fill="#4b4650"/><g clip-path="url(#c-k0)"><rect x="-34.41" y="-8.59" width="6.94" height="12.13" fill="#1C1414"/></g><path d="M-17.4,-2.53C-17.4,-2.25 -17.45,-1.95 -17.55,-1.71C-17.65,-1.46 -17.81,-1.26 -18,-1.06C-18.2,-0.86 -18.45,-0.68 -18.74,-0.52C-19.03,-0.35 -19.37,-0.21 -19.74,-0.08C-20.11,0.05 -20.53,0.16 -20.98,0.24C-21.44,0.33 -21.9,0.4 -22.46,0.44C-23.02,0.48 -23.72,0.51 -24.34,0.51C-24.97,0.51 -25.66,0.48 -26.22,0.44C-26.78,0.4 -27.25,0.33 -27.7,0.24C-28.15,0.16 -28.57,0.05 -28.94,-0.08C-29.32,-0.21 -29.66,-0.35 -29.95,-0.52C-30.24,-0.68 -30.48,-0.86 -30.68,-1.06C-30.88,-1.26 -31.03,-1.46 -31.13,-1.71C-31.23,-1.95 -31.28,-2.25 -31.28,-2.53C-31.28,-2.8 -31.23,-3.1 -31.13,-3.35C-31.03,-3.59 -30.88,-3.8 -30.68,-4C-30.48,-4.19 -30.24,-4.38 -29.95,-4.54C-29.66,-4.7 -29.32,-4.85 -28.94,-4.98C-28.57,-5.1 -28.15,-5.21 -27.7,-5.3C-27.25,-5.38 -26.78,-5.45 -26.22,-5.49C-25.66,-5.54 -24.97,-5.56 -24.34,-5.56C-23.72,-5.56 -23.02,-5.54 -22.46,-5.49C-21.9,-5.45 -21.44,-5.38 -20.98,-5.3C-20.53,-5.21 -20.11,-5.1 -19.74,-4.98C-19.37,-4.85 -19.03,-4.7 -18.74,-4.54C-18.45,-4.38 -18.2,-4.19 -18,-4C-17.81,-3.8 -17.65,-3.59 -17.55,-3.35C-17.45,-3.1 -17.4,-2.8 -17.4,-2.53Z" fill="none" stroke="#1C1311" stroke-width="2.16" stroke-linejoin="round"/><path d="M31.28,-2.53C31.28,-2.25 31.23,-1.95 31.13,-1.71C31.03,-1.46 30.88,-1.26 30.68,-1.06C30.48,-0.86 30.24,-0.68 29.95,-0.52C29.66,-0.35 29.32,-0.21 28.94,-0.08C28.57,0.05 28.15,0.16 27.7,0.24C27.25,0.33 26.78,0.4 26.22,0.44C25.66,0.48 24.97,0.51 24.34,0.51C23.72,0.51 23.02,0.48 22.46,0.44C21.9,0.4 21.44,0.33 20.98,0.24C20.53,0.16 20.11,0.05 19.74,-0.08C19.37,-0.21 19.03,-0.35 18.74,-0.52C18.45,-0.68 18.2,-0.86 18,-1.06C17.81,-1.26 17.65,-1.46 17.55,-1.71C17.45,-1.95 17.4,-2.25 17.4,-2.53C17.4,-2.8 17.45,-3.1 17.55,-3.35C17.65,-3.59 17.81,-3.8 18,-4C18.2,-4.19 18.45,-4.38 18.74,-4.54C19.03,-4.7 19.37,-4.85 19.74,-4.98C20.11,-5.1 20.53,-5.21 20.98,-5.3C21.44,-5.38 21.9,-5.45 22.46,-5.49C23.02,-5.54 23.72,-5.56 24.34,-5.56C24.97,-5.56 25.66,-5.54 26.22,-5.49C26.78,-5.45 27.25,-5.38 27.7,-5.3C28.15,-5.21 28.57,-5.1 28.94,-4.98C29.32,-4.85 29.66,-4.7 29.95,-4.54C30.24,-4.38 30.48,-4.19 30.68,-4C30.88,-3.8 31.03,-3.59 31.13,-3.35C31.23,-3.1 31.28,-2.8 31.28,-2.53Z" fill="#4b4650"/><g clip-path="url(#c-k1)"><rect x="27.47" y="-8.59" width="6.94" height="12.13" fill="#1C1414"/></g><path d="M31.28,-2.53C31.28,-2.25 31.23,-1.95 31.13,-1.71C31.03,-1.46 30.88,-1.26 30.68,-1.06C30.48,-0.86 30.24,-0.68 29.95,-0.52C29.66,-0.35 29.32,-0.21 28.94,-0.08C28.57,0.05 28.15,0.16 27.7,0.24C27.25,0.33 26.78,0.4 26.22,0.44C25.66,0.48 24.97,0.51 24.34,0.51C23.72,0.51 23.02,0.48 22.46,0.44C21.9,0.4 21.44,0.33 20.98,0.24C20.53,0.16 20.11,0.05 19.74,-0.08C19.37,-0.21 19.03,-0.35 18.74,-0.52C18.45,-0.68 18.2,-0.86 18,-1.06C17.81,-1.26 17.65,-1.46 17.55,-1.71C17.45,-1.95 17.4,-2.25 17.4,-2.53C17.4,-2.8 17.45,-3.1 17.55,-3.35C17.65,-3.59 17.81,-3.8 18,-4C18.2,-4.19 18.45,-4.38 18.74,-4.54C19.03,-4.7 19.37,-4.85 19.74,-4.98C20.11,-5.1 20.53,-5.21 20.98,-5.3C21.44,-5.38 21.9,-5.45 22.46,-5.49C23.02,-5.54 23.72,-5.56 24.34,-5.56C24.97,-5.56 25.66,-5.54 26.22,-5.49C26.78,-5.45 27.25,-5.38 27.7,-5.3C28.15,-5.21 28.57,-5.1 28.94,-4.98C29.32,-4.85 29.66,-4.7 29.95,-4.54C30.24,-4.38 30.48,-4.19 30.68,-4C30.88,-3.8 31.03,-3.59 31.13,-3.35C31.23,-3.1 31.28,-2.8 31.28,-2.53Z" fill="none" stroke="#1C1311" stroke-width="2.16" stroke-linejoin="round"/><path d="M0,-51.55C1.05,-51.55 2.07,-51.58 3.14,-51.59C4.22,-51.61 5.36,-51.64 6.45,-51.66C7.54,-51.67 8.66,-51.69 9.68,-51.68C10.7,-51.67 11.7,-51.65 12.57,-51.59C13.43,-51.52 14.22,-51.42 14.86,-51.3C15.51,-51.18 16.02,-51.02 16.46,-50.85C16.9,-50.67 17.22,-50.49 17.51,-50.27C17.8,-50.05 18,-49.82 18.19,-49.54C18.39,-49.27 18.53,-48.97 18.7,-48.63C18.87,-48.29 19.04,-47.93 19.2,-47.51C19.36,-47.09 19.54,-46.62 19.67,-46.1C19.8,-45.59 19.9,-45.01 19.99,-44.43C20.08,-43.85 20.14,-43.22 20.2,-42.6C20.25,-41.99 20.29,-41.34 20.33,-40.73C20.37,-40.11 20.41,-39.51 20.44,-38.92C20.46,-38.32 20.48,-37.75 20.48,-37.16C20.49,-36.58 20.47,-35.99 20.45,-35.4C20.42,-34.8 20.39,-34.21 20.36,-33.62C20.33,-33.03 20.29,-32.43 20.27,-31.84C20.25,-31.25 20.24,-30.66 20.22,-30.07C20.19,-29.47 20.17,-28.88 20.14,-28.28C20.1,-27.68 20.04,-27.07 20.01,-26.47C19.97,-25.87 19.92,-25.26 19.91,-24.67C19.91,-24.08 19.9,-23.48 19.95,-22.91C20,-22.34 20.06,-21.77 20.2,-21.22C20.34,-20.67 20.54,-20.14 20.77,-19.62C21.01,-19.09 21.31,-18.58 21.61,-18.07C21.9,-17.57 22.24,-17.07 22.55,-16.57C22.85,-16.08 23.17,-15.59 23.43,-15.1C23.68,-14.61 23.9,-14.13 24.08,-13.64C24.27,-13.15 24.4,-12.65 24.53,-12.16C24.66,-11.66 24.78,-11.16 24.88,-10.67C24.97,-10.18 25.05,-9.69 25.1,-9.22C25.15,-8.75 25.19,-8.28 25.19,-7.84C25.19,-7.4 25.16,-6.98 25.12,-6.56C25.08,-6.15 25.01,-5.75 24.93,-5.35C24.85,-4.95 24.76,-4.55 24.63,-4.17C24.51,-3.8 24.37,-3.43 24.18,-3.1C23.99,-2.77 23.77,-2.46 23.49,-2.19C23.22,-1.93 22.92,-1.69 22.53,-1.51C22.14,-1.32 21.67,-1.18 21.14,-1.08C20.62,-0.97 19.99,-0.91 19.37,-0.87C18.76,-0.83 18.07,-0.82 17.43,-0.83C16.79,-0.83 16.12,-0.86 15.53,-0.89C14.94,-0.92 14.38,-0.95 13.88,-1C13.39,-1.05 12.97,-1.11 12.56,-1.2C12.16,-1.29 11.8,-1.41 11.44,-1.53C11.07,-1.65 10.74,-1.79 10.38,-1.92C10.02,-2.05 9.67,-2.19 9.28,-2.32C8.88,-2.44 8.46,-2.55 8.01,-2.67C7.55,-2.78 7.05,-2.89 6.54,-3C6.04,-3.12 5.5,-3.25 4.96,-3.37C4.42,-3.48 3.86,-3.6 3.31,-3.7C2.75,-3.79 2.19,-3.88 1.64,-3.94C1.08,-4 0.55,-4.03 0,-4.03C-0.55,-4.03 -1.08,-4 -1.64,-3.94C-2.19,-3.88 -2.75,-3.79 -3.31,-3.7C-3.86,-3.6 -4.42,-3.48 -4.96,-3.37C-5.5,-3.25 -6.04,-3.12 -6.54,-3C-7.05,-2.89 -7.55,-2.78 -8.01,-2.67C-8.46,-2.55 -8.88,-2.44 -9.28,-2.32C-9.67,-2.19 -10.02,-2.05 -10.38,-1.92C-10.74,-1.79 -11.07,-1.65 -11.44,-1.53C-11.8,-1.41 -12.16,-1.29 -12.56,-1.2C-12.97,-1.11 -13.39,-1.05 -13.88,-1C-14.38,-0.95 -14.94,-0.92 -15.53,-0.89C-16.12,-0.86 -16.79,-0.83 -17.43,-0.83C-18.07,-0.82 -18.76,-0.83 -19.37,-0.87C-19.99,-0.91 -20.62,-0.97 -21.14,-1.08C-21.67,-1.18 -22.14,-1.32 -22.53,-1.51C-22.92,-1.69 -23.22,-1.93 -23.49,-2.19C-23.77,-2.46 -23.99,-2.77 -24.18,-3.1C-24.37,-3.43 -24.51,-3.8 -24.63,-4.17C-24.76,-4.55 -24.85,-4.95 -24.93,-5.35C-25.01,-5.75 -25.08,-6.15 -25.12,-6.56C-25.16,-6.98 -25.19,-7.4 -25.19,-7.84C-25.19,-8.28 -25.15,-8.75 -25.1,-9.22C-25.05,-9.69 -24.97,-10.18 -24.88,-10.67C-24.78,-11.16 -24.66,-11.66 -24.53,-12.16C-24.4,-12.65 -24.27,-13.15 -24.08,-13.64C-23.9,-14.13 -23.68,-14.61 -23.43,-15.1C-23.17,-15.59 -22.85,-16.08 -22.55,-16.57C-22.24,-17.07 -21.9,-17.57 -21.61,-18.07C-21.31,-18.58 -21.01,-19.09 -20.77,-19.62C-20.54,-20.14 -20.34,-20.67 -20.2,-21.22C-20.06,-21.77 -20,-22.34 -19.95,-22.91C-19.9,-23.48 -19.91,-24.08 -19.91,-24.67C-19.92,-25.26 -19.97,-25.87 -20.01,-26.47C-20.04,-27.07 -20.1,-27.68 -20.14,-28.28C-20.17,-28.88 -20.19,-29.47 -20.22,-30.07C-20.24,-30.66 -20.25,-31.25 -20.27,-31.84C-20.29,-32.43 -20.33,-33.03 -20.36,-33.62C-20.39,-34.21 -20.42,-34.8 -20.45,-35.4C-20.47,-35.99 -20.49,-36.58 -20.48,-37.16C-20.48,-37.75 -20.46,-38.32 -20.44,-38.92C-20.41,-39.51 -20.37,-40.11 -20.33,-40.73C-20.29,-41.34 -20.25,-41.99 -20.2,-42.6C-20.14,-43.22 -20.08,-43.85 -19.99,-44.43C-19.9,-45.01 -19.8,-45.59 -19.67,-46.1C-19.54,-46.62 -19.36,-47.09 -19.2,-47.51C-19.04,-47.93 -18.87,-48.29 -18.7,-48.63C-18.53,-48.97 -18.39,-49.27 -18.19,-49.54C-18,-49.82 -17.8,-50.05 -17.51,-50.27C-17.22,-50.49 -16.9,-50.67 -16.46,-50.85C-16.02,-51.02 -15.51,-51.18 -14.86,-51.3C-14.22,-51.42 -13.43,-51.52 -12.57,-51.59C-11.7,-51.65 -10.7,-51.67 -9.68,-51.68C-8.66,-51.69 -7.54,-51.67 -6.45,-51.66C-5.36,-51.64 -4.22,-51.61 -3.14,-51.59C-2.07,-51.58 -1.05,-51.55 0,-51.55Z" fill="#4b4650"/><g clip-path="url(#c-k2)"><path d="M9.03,-41.36C9.39,-41.45 9.76,-41.5 10.15,-41.52C10.53,-41.55 10.94,-41.55 11.34,-41.52C11.75,-41.5 12.16,-41.45 12.56,-41.38C12.96,-41.31 13.36,-41.22 13.74,-41.12C14.11,-41.01 14.47,-40.9 14.81,-40.75C15.15,-40.61 15.47,-40.45 15.78,-40.26C16.09,-40.07 16.4,-39.85 16.69,-39.62C16.99,-39.39 17.27,-39.14 17.54,-38.88C17.82,-38.62 18.08,-38.35 18.33,-38.07C18.57,-37.8 18.81,-37.52 19.03,-37.24C19.26,-36.96 19.48,-36.67 19.69,-36.37C19.9,-36.07 20.1,-35.76 20.29,-35.44C20.48,-35.12 20.66,-34.79 20.81,-34.46C20.97,-34.13 21.11,-33.79 21.22,-33.45C21.33,-33.11 21.41,-32.77 21.47,-32.42C21.53,-32.06 21.56,-31.7 21.57,-31.33C21.59,-30.95 21.58,-30.56 21.55,-30.17C21.52,-29.78 21.47,-29.39 21.39,-29C21.32,-28.62 21.22,-28.24 21.1,-27.88C20.98,-27.52 20.84,-27.19 20.67,-26.86C20.49,-26.53 20.29,-26.22 20.06,-25.91C19.82,-25.6 19.56,-25.29 19.28,-24.99C18.99,-24.7 18.69,-24.42 18.37,-24.16C18.06,-23.89 17.72,-23.65 17.39,-23.43C17.05,-23.21 16.72,-23.02 16.37,-22.85C16.02,-22.68 15.67,-22.54 15.29,-22.41C14.91,-22.29 14.51,-22.18 14.11,-22.1C13.71,-22.02 13.3,-21.95 12.89,-21.91C12.48,-21.87 12.07,-21.85 11.67,-21.85C11.27,-21.85 10.89,-21.86 10.51,-21.91C10.13,-21.95 9.77,-22.02 9.39,-22.12C9.02,-22.21 8.65,-22.33 8.28,-22.47C7.92,-22.61 7.55,-22.77 7.2,-22.94C6.85,-23.11 6.51,-23.3 6.18,-23.5C5.85,-23.7 5.55,-23.9 5.24,-24.12C4.94,-24.34 4.65,-24.57 4.37,-24.82C4.09,-25.07 3.81,-25.33 3.54,-25.61C3.28,-25.88 3.02,-26.17 2.79,-26.47C2.56,-26.76 2.34,-27.07 2.16,-27.38C1.97,-27.7 1.81,-28.01 1.67,-28.34C1.53,-28.67 1.42,-29.01 1.33,-29.36C1.24,-29.72 1.16,-30.1 1.11,-30.47C1.05,-30.84 1.02,-31.23 1.01,-31.61C1.01,-31.99 1.02,-32.37 1.06,-32.73C1.09,-33.09 1.15,-33.44 1.24,-33.78C1.33,-34.12 1.45,-34.45 1.6,-34.77C1.75,-35.1 1.93,-35.42 2.12,-35.74C2.32,-36.05 2.54,-36.36 2.77,-36.66C3,-36.96 3.25,-37.25 3.5,-37.53C3.76,-37.8 4.01,-38.06 4.28,-38.32C4.54,-38.58 4.81,-38.84 5.1,-39.09C5.39,-39.34 5.69,-39.59 6.01,-39.82C6.32,-40.06 6.64,-40.28 6.98,-40.48C7.31,-40.68 7.65,-40.87 7.99,-41.01C8.33,-41.16 8.67,-41.28 9.03,-41.36Z" fill="#FFFFFF"/><path d="M-9.07,-10.02C-9.29,-9.85 -9.5,-9.68 -9.72,-9.52C-9.95,-9.36 -10.19,-9.2 -10.42,-9.05C-10.66,-8.91 -10.91,-8.76 -11.16,-8.64C-11.41,-8.52 -11.67,-8.41 -11.92,-8.33C-12.18,-8.24 -12.43,-8.18 -12.7,-8.13C-12.96,-8.09 -13.24,-8.07 -13.52,-8.06C-13.8,-8.06 -14.09,-8.07 -14.38,-8.09C-14.67,-8.12 -14.97,-8.17 -15.26,-8.23C-15.54,-8.29 -15.83,-8.36 -16.09,-8.46C-16.36,-8.55 -16.61,-8.65 -16.85,-8.78C-17.09,-8.9 -17.3,-9.05 -17.52,-9.22C-17.74,-9.38 -17.94,-9.58 -18.14,-9.78C-18.34,-9.98 -18.53,-10.19 -18.71,-10.42C-18.89,-10.64 -19.06,-10.87 -19.22,-11.11C-19.38,-11.34 -19.53,-11.57 -19.67,-11.81C-19.81,-12.04 -19.94,-12.28 -20.07,-12.53C-20.2,-12.79 -20.33,-13.05 -20.44,-13.31C-20.55,-13.58 -20.66,-13.85 -20.74,-14.12C-20.82,-14.39 -20.89,-14.66 -20.93,-14.93C-20.97,-15.2 -20.99,-15.46 -20.98,-15.72C-20.97,-15.98 -20.92,-16.23 -20.86,-16.49C-20.79,-16.75 -20.7,-17.01 -20.59,-17.27C-20.48,-17.53 -20.35,-17.79 -20.22,-18.04C-20.09,-18.29 -19.93,-18.54 -19.79,-18.78C-19.64,-19.02 -19.48,-19.24 -19.33,-19.47C-19.17,-19.7 -19.02,-19.93 -18.85,-20.16C-18.68,-20.38 -18.51,-20.62 -18.32,-20.84C-18.14,-21.06 -17.94,-21.28 -17.74,-21.47C-17.54,-21.67 -17.33,-21.86 -17.11,-22.01C-16.89,-22.17 -16.67,-22.31 -16.43,-22.42C-16.19,-22.53 -15.94,-22.61 -15.67,-22.68C-15.4,-22.75 -15.11,-22.79 -14.83,-22.82C-14.54,-22.85 -14.24,-22.86 -13.95,-22.86C-13.66,-22.86 -13.36,-22.84 -13.07,-22.82C-12.79,-22.79 -12.52,-22.75 -12.25,-22.69C-11.98,-22.64 -11.72,-22.57 -11.46,-22.49C-11.19,-22.4 -10.93,-22.3 -10.67,-22.19C-10.42,-22.07 -10.16,-21.95 -9.91,-21.81C-9.67,-21.67 -9.43,-21.52 -9.2,-21.36C-8.97,-21.2 -8.76,-21.04 -8.55,-20.86C-8.34,-20.68 -8.14,-20.49 -7.94,-20.28C-7.74,-20.08 -7.54,-19.86 -7.35,-19.63C-7.17,-19.4 -6.98,-19.16 -6.83,-18.92C-6.67,-18.67 -6.52,-18.42 -6.4,-18.17C-6.28,-17.91 -6.19,-17.66 -6.12,-17.4C-6.04,-17.14 -6,-16.87 -5.97,-16.59C-5.95,-16.31 -5.94,-16.01 -5.95,-15.71C-5.96,-15.42 -6,-15.12 -6.04,-14.82C-6.09,-14.53 -6.15,-14.24 -6.22,-13.96C-6.3,-13.69 -6.38,-13.43 -6.48,-13.17C-6.59,-12.92 -6.7,-12.69 -6.84,-12.45C-6.98,-12.22 -7.14,-11.99 -7.31,-11.77C-7.48,-11.55 -7.67,-11.34 -7.86,-11.14C-8.05,-10.93 -8.25,-10.74 -8.45,-10.55C-8.66,-10.36 -8.86,-10.19 -9.07,-10.02Z" fill="#FFFFFF"/><path d="M-3.67,-39.6C-3.79,-39.65 -3.89,-39.72 -4,-39.8C-4.1,-39.87 -4.2,-39.97 -4.3,-40.06C-4.4,-40.16 -4.49,-40.26 -4.57,-40.37C-4.66,-40.48 -4.74,-40.59 -4.82,-40.7C-4.89,-40.82 -4.96,-40.92 -5.03,-41.03C-5.09,-41.15 -5.15,-41.25 -5.21,-41.37C-5.26,-41.48 -5.31,-41.6 -5.36,-41.72C-5.4,-41.84 -5.44,-41.96 -5.47,-42.08C-5.5,-42.2 -5.53,-42.32 -5.55,-42.45C-5.57,-42.57 -5.59,-42.69 -5.59,-42.81C-5.6,-42.93 -5.6,-43.06 -5.59,-43.18C-5.58,-43.31 -5.57,-43.43 -5.55,-43.56C-5.53,-43.69 -5.51,-43.81 -5.48,-43.94C-5.45,-44.06 -5.41,-44.19 -5.36,-44.3C-5.32,-44.42 -5.27,-44.53 -5.22,-44.65C-5.16,-44.76 -5.1,-44.87 -5.03,-44.98C-4.96,-45.09 -4.88,-45.21 -4.8,-45.32C-4.71,-45.42 -4.63,-45.53 -4.53,-45.63C-4.44,-45.73 -4.34,-45.82 -4.24,-45.9C-4.14,-45.98 -4.04,-46.05 -3.93,-46.1C-3.82,-46.16 -3.7,-46.2 -3.58,-46.23C-3.46,-46.27 -3.33,-46.29 -3.2,-46.31C-3.07,-46.33 -2.93,-46.34 -2.8,-46.34C-2.66,-46.34 -2.53,-46.34 -2.39,-46.33C-2.26,-46.33 -2.13,-46.32 -2.01,-46.3C-1.88,-46.29 -1.76,-46.27 -1.63,-46.24C-1.5,-46.22 -1.38,-46.19 -1.25,-46.15C-1.13,-46.12 -1,-46.08 -0.88,-46.03C-0.76,-45.98 -0.64,-45.93 -0.53,-45.87C-0.42,-45.81 -0.31,-45.74 -0.2,-45.67C-0.1,-45.6 0,-45.52 0.11,-45.43C0.21,-45.34 0.31,-45.24 0.41,-45.14C0.51,-45.04 0.6,-44.93 0.68,-44.82C0.77,-44.71 0.84,-44.6 0.91,-44.48C0.97,-44.37 1.02,-44.25 1.06,-44.13C1.09,-44.01 1.11,-43.89 1.12,-43.77C1.12,-43.64 1.11,-43.51 1.1,-43.38C1.09,-43.24 1.06,-43.11 1.04,-42.97C1.01,-42.84 0.97,-42.7 0.94,-42.57C0.91,-42.44 0.88,-42.31 0.85,-42.18C0.82,-42.04 0.79,-41.91 0.76,-41.78C0.73,-41.64 0.71,-41.5 0.67,-41.37C0.64,-41.23 0.6,-41.09 0.55,-40.96C0.51,-40.84 0.46,-40.71 0.4,-40.6C0.33,-40.49 0.26,-40.39 0.18,-40.3C0.09,-40.2 -0.01,-40.13 -0.11,-40.05C-0.22,-39.98 -0.35,-39.92 -0.47,-39.86C-0.6,-39.8 -0.73,-39.75 -0.87,-39.71C-1,-39.67 -1.14,-39.63 -1.28,-39.6C-1.42,-39.56 -1.55,-39.54 -1.68,-39.51C-1.81,-39.49 -1.94,-39.47 -2.08,-39.45C-2.22,-39.44 -2.36,-39.42 -2.5,-39.42C-2.64,-39.42 -2.78,-39.42 -2.92,-39.43C-3.05,-39.44 -3.19,-39.45 -3.31,-39.48C-3.44,-39.51 -3.56,-39.55 -3.67,-39.6Z" fill="#FFFFFF"/><path d="M31.36,-4.34C31.21,-4.12 31.05,-3.91 30.89,-3.71C30.72,-3.5 30.55,-3.29 30.36,-3.09C30.17,-2.89 29.98,-2.7 29.78,-2.52C29.57,-2.34 29.36,-2.18 29.14,-2.03C28.93,-1.88 28.71,-1.76 28.47,-1.65C28.24,-1.53 27.99,-1.44 27.73,-1.36C27.47,-1.28 27.2,-1.21 26.92,-1.15C26.64,-1.1 26.35,-1.06 26.07,-1.04C25.8,-1.01 25.51,-1.01 25.25,-1.02C24.98,-1.04 24.72,-1.07 24.48,-1.13C24.23,-1.19 24,-1.27 23.77,-1.38C23.54,-1.49 23.32,-1.63 23.1,-1.77C22.89,-1.92 22.67,-2.09 22.46,-2.26C22.25,-2.42 22.05,-2.61 21.85,-2.78C21.64,-2.96 21.45,-3.14 21.25,-3.31C21.04,-3.49 20.83,-3.65 20.62,-3.83C20.41,-4.01 20.18,-4.19 19.97,-4.38C19.76,-4.57 19.55,-4.76 19.37,-4.96C19.19,-5.15 19.01,-5.36 18.88,-5.57C18.74,-5.78 18.63,-6 18.56,-6.23C18.5,-6.46 18.47,-6.7 18.47,-6.96C18.46,-7.21 18.49,-7.48 18.53,-7.75C18.58,-8.02 18.65,-8.3 18.72,-8.57C18.8,-8.85 18.89,-9.12 18.98,-9.38C19.07,-9.64 19.16,-9.89 19.25,-10.14C19.35,-10.38 19.44,-10.61 19.54,-10.85C19.64,-11.08 19.76,-11.32 19.88,-11.55C20,-11.77 20.13,-12 20.27,-12.21C20.41,-12.43 20.56,-12.63 20.72,-12.83C20.88,-13.02 21.05,-13.2 21.23,-13.38C21.42,-13.56 21.62,-13.73 21.83,-13.9C22.04,-14.06 22.27,-14.23 22.51,-14.38C22.74,-14.54 22.99,-14.68 23.24,-14.81C23.48,-14.93 23.74,-15.04 23.99,-15.12C24.24,-15.2 24.48,-15.26 24.73,-15.29C24.98,-15.32 25.23,-15.31 25.49,-15.29C25.75,-15.26 26.02,-15.21 26.28,-15.14C26.55,-15.08 26.82,-14.98 27.08,-14.89C27.34,-14.79 27.6,-14.68 27.85,-14.57C28.09,-14.45 28.33,-14.34 28.56,-14.21C28.78,-14.09 29,-13.96 29.22,-13.82C29.43,-13.68 29.65,-13.53 29.85,-13.37C30.05,-13.21 30.25,-13.04 30.44,-12.86C30.63,-12.69 30.81,-12.5 30.98,-12.31C31.14,-12.11 31.29,-11.92 31.44,-11.71C31.59,-11.5 31.72,-11.28 31.85,-11.04C31.98,-10.81 32.11,-10.56 32.23,-10.32C32.34,-10.07 32.44,-9.81 32.53,-9.55C32.61,-9.29 32.68,-9.03 32.73,-8.77C32.77,-8.52 32.8,-8.27 32.79,-8.02C32.79,-7.76 32.76,-7.52 32.71,-7.26C32.66,-7.01 32.58,-6.75 32.49,-6.5C32.4,-6.24 32.29,-5.99 32.17,-5.74C32.05,-5.49 31.92,-5.25 31.78,-5.01C31.64,-4.78 31.5,-4.56 31.36,-4.34Z" fill="#FFFFFF"/><path d="M6.68,-3.63C6.6,-3.58 6.51,-3.54 6.41,-3.51C6.32,-3.48 6.22,-3.45 6.11,-3.43C6.01,-3.41 5.9,-3.4 5.79,-3.39C5.69,-3.39 5.58,-3.38 5.47,-3.38C5.37,-3.38 5.26,-3.39 5.16,-3.39C5.06,-3.4 4.96,-3.4 4.85,-3.42C4.75,-3.43 4.64,-3.44 4.54,-3.46C4.44,-3.48 4.33,-3.5 4.23,-3.53C4.13,-3.56 4.03,-3.6 3.94,-3.64C3.85,-3.68 3.76,-3.73 3.68,-3.78C3.6,-3.84 3.52,-3.9 3.45,-3.97C3.37,-4.04 3.3,-4.12 3.23,-4.21C3.17,-4.29 3.1,-4.38 3.04,-4.47C2.98,-4.56 2.93,-4.65 2.88,-4.75C2.84,-4.84 2.8,-4.93 2.76,-5.03C2.73,-5.12 2.71,-5.22 2.69,-5.31C2.67,-5.41 2.65,-5.52 2.65,-5.62C2.64,-5.72 2.63,-5.83 2.64,-5.93C2.64,-6.04 2.65,-6.14 2.66,-6.24C2.67,-6.34 2.69,-6.44 2.71,-6.53C2.73,-6.63 2.75,-6.72 2.78,-6.82C2.81,-6.91 2.85,-7.01 2.89,-7.1C2.93,-7.19 2.98,-7.28 3.03,-7.37C3.08,-7.45 3.13,-7.54 3.19,-7.62C3.24,-7.7 3.3,-7.78 3.37,-7.85C3.43,-7.93 3.5,-8 3.57,-8.07C3.65,-8.14 3.72,-8.21 3.8,-8.28C3.89,-8.34 3.97,-8.41 4.06,-8.46C4.14,-8.52 4.23,-8.57 4.33,-8.62C4.42,-8.66 4.51,-8.7 4.6,-8.73C4.7,-8.76 4.8,-8.79 4.9,-8.81C5.01,-8.83 5.12,-8.84 5.23,-8.85C5.34,-8.86 5.46,-8.86 5.56,-8.86C5.67,-8.86 5.78,-8.85 5.88,-8.83C5.99,-8.81 6.08,-8.78 6.17,-8.74C6.26,-8.71 6.34,-8.66 6.43,-8.6C6.51,-8.54 6.58,-8.47 6.66,-8.39C6.73,-8.32 6.8,-8.24 6.87,-8.15C6.94,-8.07 7.01,-7.98 7.07,-7.9C7.13,-7.81 7.19,-7.73 7.25,-7.64C7.31,-7.56 7.37,-7.48 7.42,-7.4C7.48,-7.31 7.53,-7.23 7.59,-7.14C7.64,-7.05 7.69,-6.96 7.73,-6.87C7.77,-6.79 7.81,-6.69 7.84,-6.6C7.87,-6.51 7.89,-6.42 7.9,-6.33C7.91,-6.23 7.91,-6.14 7.91,-6.04C7.91,-5.94 7.9,-5.84 7.88,-5.74C7.86,-5.64 7.84,-5.54 7.81,-5.44C7.79,-5.34 7.75,-5.24 7.72,-5.14C7.68,-5.05 7.64,-4.96 7.6,-4.86C7.56,-4.77 7.52,-4.68 7.47,-4.59C7.42,-4.49 7.37,-4.4 7.31,-4.31C7.25,-4.22 7.19,-4.12 7.12,-4.04C7.06,-3.96 6.99,-3.88 6.91,-3.81C6.84,-3.74 6.76,-3.68 6.68,-3.63Z" fill="#FFFFFF"/></g><path d="M0,-51.55C1.05,-51.55 2.07,-51.58 3.14,-51.59C4.22,-51.61 5.36,-51.64 6.45,-51.66C7.54,-51.67 8.66,-51.69 9.68,-51.68C10.7,-51.67 11.7,-51.65 12.57,-51.59C13.43,-51.52 14.22,-51.42 14.86,-51.3C15.51,-51.18 16.02,-51.02 16.46,-50.85C16.9,-50.67 17.22,-50.49 17.51,-50.27C17.8,-50.05 18,-49.82 18.19,-49.54C18.39,-49.27 18.53,-48.97 18.7,-48.63C18.87,-48.29 19.04,-47.93 19.2,-47.51C19.36,-47.09 19.54,-46.62 19.67,-46.1C19.8,-45.59 19.9,-45.01 19.99,-44.43C20.08,-43.85 20.14,-43.22 20.2,-42.6C20.25,-41.99 20.29,-41.34 20.33,-40.73C20.37,-40.11 20.41,-39.51 20.44,-38.92C20.46,-38.32 20.48,-37.75 20.48,-37.16C20.49,-36.58 20.47,-35.99 20.45,-35.4C20.42,-34.8 20.39,-34.21 20.36,-33.62C20.33,-33.03 20.29,-32.43 20.27,-31.84C20.25,-31.25 20.24,-30.66 20.22,-30.07C20.19,-29.47 20.17,-28.88 20.14,-28.28C20.1,-27.68 20.04,-27.07 20.01,-26.47C19.97,-25.87 19.92,-25.26 19.91,-24.67C19.91,-24.08 19.9,-23.48 19.95,-22.91C20,-22.34 20.06,-21.77 20.2,-21.22C20.34,-20.67 20.54,-20.14 20.77,-19.62C21.01,-19.09 21.31,-18.58 21.61,-18.07C21.9,-17.57 22.24,-17.07 22.55,-16.57C22.85,-16.08 23.17,-15.59 23.43,-15.1C23.68,-14.61 23.9,-14.13 24.08,-13.64C24.27,-13.15 24.4,-12.65 24.53,-12.16C24.66,-11.66 24.78,-11.16 24.88,-10.67C24.97,-10.18 25.05,-9.69 25.1,-9.22C25.15,-8.75 25.19,-8.28 25.19,-7.84C25.19,-7.4 25.16,-6.98 25.12,-6.56C25.08,-6.15 25.01,-5.75 24.93,-5.35C24.85,-4.95 24.76,-4.55 24.63,-4.17C24.51,-3.8 24.37,-3.43 24.18,-3.1C23.99,-2.77 23.77,-2.46 23.49,-2.19C23.22,-1.93 22.92,-1.69 22.53,-1.51C22.14,-1.32 21.67,-1.18 21.14,-1.08C20.62,-0.97 19.99,-0.91 19.37,-0.87C18.76,-0.83 18.07,-0.82 17.43,-0.83C16.79,-0.83 16.12,-0.86 15.53,-0.89C14.94,-0.92 14.38,-0.95 13.88,-1C13.39,-1.05 12.97,-1.11 12.56,-1.2C12.16,-1.29 11.8,-1.41 11.44,-1.53C11.07,-1.65 10.74,-1.79 10.38,-1.92C10.02,-2.05 9.67,-2.19 9.28,-2.32C8.88,-2.44 8.46,-2.55 8.01,-2.67C7.55,-2.78 7.05,-2.89 6.54,-3C6.04,-3.12 5.5,-3.25 4.96,-3.37C4.42,-3.48 3.86,-3.6 3.31,-3.7C2.75,-3.79 2.19,-3.88 1.64,-3.94C1.08,-4 0.55,-4.03 0,-4.03C-0.55,-4.03 -1.08,-4 -1.64,-3.94C-2.19,-3.88 -2.75,-3.79 -3.31,-3.7C-3.86,-3.6 -4.42,-3.48 -4.96,-3.37C-5.5,-3.25 -6.04,-3.12 -6.54,-3C-7.05,-2.89 -7.55,-2.78 -8.01,-2.67C-8.46,-2.55 -8.88,-2.44 -9.28,-2.32C-9.67,-2.19 -10.02,-2.05 -10.38,-1.92C-10.74,-1.79 -11.07,-1.65 -11.44,-1.53C-11.8,-1.41 -12.16,-1.29 -12.56,-1.2C-12.97,-1.11 -13.39,-1.05 -13.88,-1C-14.38,-0.95 -14.94,-0.92 -15.53,-0.89C-16.12,-0.86 -16.79,-0.83 -17.43,-0.83C-18.07,-0.82 -18.76,-0.83 -19.37,-0.87C-19.99,-0.91 -20.62,-0.97 -21.14,-1.08C-21.67,-1.18 -22.14,-1.32 -22.53,-1.51C-22.92,-1.69 -23.22,-1.93 -23.49,-2.19C-23.77,-2.46 -23.99,-2.77 -24.18,-3.1C-24.37,-3.43 -24.51,-3.8 -24.63,-4.17C-24.76,-4.55 -24.85,-4.95 -24.93,-5.35C-25.01,-5.75 -25.08,-6.15 -25.12,-6.56C-25.16,-6.98 -25.19,-7.4 -25.19,-7.84C-25.19,-8.28 -25.15,-8.75 -25.1,-9.22C-25.05,-9.69 -24.97,-10.18 -24.88,-10.67C-24.78,-11.16 -24.66,-11.66 -24.53,-12.16C-24.4,-12.65 -24.27,-13.15 -24.08,-13.64C-23.9,-14.13 -23.68,-14.61 -23.43,-15.1C-23.17,-15.59 -22.85,-16.08 -22.55,-16.57C-22.24,-17.07 -21.9,-17.57 -21.61,-18.07C-21.31,-18.58 -21.01,-19.09 -20.77,-19.62C-20.54,-20.14 -20.34,-20.67 -20.2,-21.22C-20.06,-21.77 -20,-22.34 -19.95,-22.91C-19.9,-23.48 -19.91,-24.08 -19.91,-24.67C-19.92,-25.26 -19.97,-25.87 -20.01,-26.47C-20.04,-27.07 -20.1,-27.68 -20.14,-28.28C-20.17,-28.88 -20.19,-29.47 -20.22,-30.07C-20.24,-30.66 -20.25,-31.25 -20.27,-31.84C-20.29,-32.43 -20.33,-33.03 -20.36,-33.62C-20.39,-34.21 -20.42,-34.8 -20.45,-35.4C-20.47,-35.99 -20.49,-36.58 -20.48,-37.16C-20.48,-37.75 -20.46,-38.32 -20.44,-38.92C-20.41,-39.51 -20.37,-40.11 -20.33,-40.73C-20.29,-41.34 -20.25,-41.99 -20.2,-42.6C-20.14,-43.22 -20.08,-43.85 -19.99,-44.43C-19.9,-45.01 -19.8,-45.59 -19.67,-46.1C-19.54,-46.62 -19.36,-47.09 -19.2,-47.51C-19.04,-47.93 -18.87,-48.29 -18.7,-48.63C-18.53,-48.97 -18.39,-49.27 -18.19,-49.54C-18,-49.82 -17.8,-50.05 -17.51,-50.27C-17.22,-50.49 -16.9,-50.67 -16.46,-50.85C-16.02,-51.02 -15.51,-51.18 -14.86,-51.3C-14.22,-51.42 -13.43,-51.52 -12.57,-51.59C-11.7,-51.65 -10.7,-51.67 -9.68,-51.68C-8.66,-51.69 -7.54,-51.67 -6.45,-51.66C-5.36,-51.64 -4.22,-51.61 -3.14,-51.59C-2.07,-51.58 -1.05,-51.55 0,-51.55Z" fill="none" stroke="#1C1311" stroke-width="2.4" stroke-linejoin="round"/><path d="M-18.15,-17.18C-17.71,-16.08 -15.57,-12.88 -15.48,-10.61C-15.4,-8.33 -17.26,-4.71 -17.62,-3.53" fill="none" stroke="#1C1311" stroke-width="1.92" stroke-linecap="round" stroke-linejoin="round" opacity="1"/><path d="M18.15,-17.18C17.71,-16.08 15.57,-12.88 15.48,-10.61C15.4,-8.33 17.26,-4.71 17.62,-3.53" fill="none" stroke="#1C1311" stroke-width="1.92" stroke-linecap="round" stroke-linejoin="round" opacity="1"/><path d="M-8.97,-30.32C-8.05,-32.05 -4.59,-32.05 -3.84,-30.32C-3.1,-28.6 -4.35,-21.82 -4.51,-19.97C-4.66,-18.11 -3.99,-19.33 -4.76,-19.2C-5.53,-19.07 -8.35,-19.07 -9.12,-19.2C-9.89,-19.33 -9.4,-18.11 -9.38,-19.97C-9.35,-21.82 -9.89,-28.6 -8.97,-30.32Z" fill="#4b4650"/><g clip-path="url(#c-k3)"><rect x="-36.94115136" y="-21.5061704704" width="60" height="6.3065979904" fill="#1C1414"/><rect x="-36.94115136" y="-21.5061704704" width="60" height="1" fill="#1C1414"/></g><path d="M-8.97,-30.32C-8.05,-32.05 -4.59,-32.05 -3.84,-30.32C-3.1,-28.6 -4.35,-21.82 -4.51,-19.97C-4.66,-18.11 -3.99,-19.33 -4.76,-19.2C-5.53,-19.07 -8.35,-19.07 -9.12,-19.2C-9.89,-19.33 -9.4,-18.11 -9.38,-19.97C-9.35,-21.82 -9.89,-28.6 -8.97,-30.32Z" fill="none" stroke="#1C1311" stroke-width="2.16" stroke-linejoin="round"/><path d="M3.84,-30.32C4.59,-32.05 8.05,-32.05 8.97,-30.32C9.89,-28.6 9.35,-21.82 9.38,-19.97C9.4,-18.11 9.89,-19.33 9.12,-19.2C8.35,-19.07 5.53,-19.07 4.76,-19.2C3.99,-19.33 4.66,-18.11 4.51,-19.97C4.35,-21.82 3.1,-28.6 3.84,-30.32Z" fill="#4b4650"/><g clip-path="url(#c-k4)"><rect x="-23.058848639999997" y="-21.5061704704" width="60" height="6.3065979904" fill="#1C1414"/><rect x="-23.058848639999997" y="-21.5061704704" width="60" height="1" fill="#1C1414"/></g><path d="M3.84,-30.32C4.59,-32.05 8.05,-32.05 8.97,-30.32C9.89,-28.6 9.35,-21.82 9.38,-19.97C9.4,-18.11 9.89,-19.33 9.12,-19.2C8.35,-19.07 5.53,-19.07 4.76,-19.2C3.99,-19.33 4.66,-18.11 4.51,-19.97C4.35,-21.82 3.1,-28.6 3.84,-30.32Z" fill="none" stroke="#1C1311" stroke-width="2.16" stroke-linejoin="round"/><path d="M-19.04,-73.19C-19.24,-74.1 -20.16,-75.18 -20.62,-75.71C-21.08,-76.25 -21.42,-76.26 -21.8,-76.42C-22.18,-76.58 -22.53,-76.63 -22.88,-76.67C-23.23,-76.71 -23.56,-76.68 -23.89,-76.64C-24.22,-76.6 -24.55,-76.51 -24.86,-76.41C-25.18,-76.3 -25.49,-76.17 -25.8,-76.02C-26.11,-75.87 -26.41,-75.7 -26.71,-75.52C-27.01,-75.33 -27.3,-75.13 -27.6,-74.92C-27.89,-74.71 -28.18,-74.48 -28.47,-74.25C-28.76,-74.01 -29.04,-73.77 -29.33,-73.52C-29.61,-73.27 -29.89,-73.01 -30.17,-72.74C-30.46,-72.48 -30.74,-72.21 -31.02,-71.93C-31.29,-71.65 -31.57,-71.38 -31.85,-71.08C-32.12,-70.78 -32.71,-70.38 -32.66,-70.14C-32.61,-69.9 -31.9,-69.79 -31.52,-69.64C-31.15,-69.49 -30.78,-69.36 -30.41,-69.23C-30.04,-69.1 -29.67,-68.97 -29.3,-68.85C-28.94,-68.73 -28.57,-68.62 -28.21,-68.51C-27.84,-68.41 -27.48,-68.31 -27.12,-68.22C-26.76,-68.13 -26.4,-68.05 -26.04,-67.98C-25.69,-67.91 -25.34,-67.86 -24.99,-67.82C-24.64,-67.78 -24.29,-67.75 -23.95,-67.75C-23.61,-67.74 -23.27,-67.75 -22.94,-67.8C-22.61,-67.84 -22.28,-67.9 -21.96,-68C-21.64,-68.1 -21.33,-68.22 -21.03,-68.41C-20.73,-68.59 -20.44,-68.79 -20.16,-69.09C-19.89,-69.4 -19.58,-69.55 -19.4,-70.23C-19.21,-70.91 -18.83,-72.28 -19.04,-73.19Z" fill="#4b4650" stroke="#1C1311" stroke-width="2.4" stroke-linejoin="round"/><path d="M-22.03,-72.52C-22.14,-72.98 -22.66,-73.5 -22.92,-73.76C-23.19,-74.02 -23.39,-74.02 -23.61,-74.09C-23.83,-74.16 -24.04,-74.18 -24.25,-74.19C-24.45,-74.2 -24.65,-74.19 -24.85,-74.16C-25.05,-74.13 -25.24,-74.08 -25.43,-74.02C-25.62,-73.96 -25.81,-73.89 -26,-73.81C-26.18,-73.72 -26.37,-73.63 -26.55,-73.53C-26.73,-73.43 -26.91,-73.32 -27.09,-73.21C-27.27,-73.1 -27.45,-72.98 -27.62,-72.85C-27.8,-72.73 -27.98,-72.6 -28.15,-72.47C-28.33,-72.33 -28.5,-72.2 -28.67,-72.06C-28.85,-71.92 -29.02,-71.77 -29.19,-71.63C-29.36,-71.48 -29.53,-71.34 -29.7,-71.18C-29.87,-71.03 -30.23,-70.81 -30.21,-70.69C-30.18,-70.57 -29.76,-70.53 -29.54,-70.46C-29.32,-70.39 -29.11,-70.34 -28.89,-70.28C-28.67,-70.22 -28.45,-70.16 -28.24,-70.11C-28.02,-70.06 -27.81,-70.01 -27.59,-69.96C-27.38,-69.92 -27.16,-69.87 -26.95,-69.84C-26.74,-69.8 -26.53,-69.77 -26.32,-69.74C-26.11,-69.71 -25.9,-69.69 -25.69,-69.68C-25.48,-69.67 -25.28,-69.66 -25.07,-69.67C-24.87,-69.67 -24.67,-69.69 -24.47,-69.71C-24.27,-69.74 -24.08,-69.78 -23.89,-69.84C-23.69,-69.9 -23.5,-69.96 -23.32,-70.06C-23.14,-70.16 -22.96,-70.27 -22.79,-70.43C-22.62,-70.59 -22.44,-70.67 -22.31,-71.02C-22.18,-71.37 -21.93,-72.06 -22.03,-72.52Z" fill="#C99A94"/><path d="M19.04,-73.19C18.83,-72.28 19.21,-70.91 19.4,-70.23C19.58,-69.55 19.89,-69.4 20.16,-69.09C20.44,-68.79 20.73,-68.59 21.03,-68.41C21.33,-68.22 21.64,-68.1 21.96,-68C22.28,-67.9 22.61,-67.84 22.94,-67.8C23.27,-67.75 23.61,-67.74 23.95,-67.75C24.29,-67.75 24.64,-67.78 24.99,-67.82C25.34,-67.86 25.69,-67.91 26.04,-67.98C26.4,-68.05 26.76,-68.13 27.12,-68.22C27.48,-68.31 27.84,-68.41 28.21,-68.51C28.57,-68.62 28.94,-68.73 29.3,-68.85C29.67,-68.97 30.04,-69.1 30.41,-69.23C30.78,-69.36 31.15,-69.49 31.52,-69.64C31.9,-69.79 32.61,-69.9 32.66,-70.14C32.71,-70.38 32.12,-70.78 31.85,-71.08C31.57,-71.38 31.29,-71.65 31.02,-71.93C30.74,-72.21 30.46,-72.48 30.17,-72.74C29.89,-73.01 29.61,-73.27 29.33,-73.52C29.04,-73.77 28.76,-74.01 28.47,-74.25C28.18,-74.48 27.89,-74.71 27.6,-74.92C27.3,-75.13 27.01,-75.33 26.71,-75.52C26.41,-75.7 26.11,-75.87 25.8,-76.02C25.49,-76.17 25.18,-76.3 24.86,-76.41C24.55,-76.51 24.22,-76.6 23.89,-76.64C23.56,-76.68 23.23,-76.71 22.88,-76.67C22.53,-76.63 22.18,-76.58 21.8,-76.42C21.42,-76.26 21.08,-76.25 20.62,-75.71C20.16,-75.18 19.24,-74.1 19.04,-73.19Z" fill="#4b4650" stroke="#1C1311" stroke-width="2.4" stroke-linejoin="round"/><path d="M22.03,-72.52C21.93,-72.06 22.18,-71.37 22.31,-71.02C22.44,-70.67 22.62,-70.59 22.79,-70.43C22.96,-70.27 23.14,-70.16 23.32,-70.06C23.5,-69.96 23.69,-69.9 23.89,-69.84C24.08,-69.78 24.27,-69.74 24.47,-69.71C24.67,-69.69 24.87,-69.67 25.07,-69.67C25.28,-69.66 25.48,-69.67 25.69,-69.68C25.9,-69.69 26.11,-69.71 26.32,-69.74C26.53,-69.77 26.74,-69.8 26.95,-69.84C27.16,-69.87 27.38,-69.92 27.59,-69.96C27.81,-70.01 28.02,-70.06 28.24,-70.11C28.45,-70.16 28.67,-70.22 28.89,-70.28C29.11,-70.34 29.32,-70.39 29.54,-70.46C29.76,-70.53 30.18,-70.57 30.21,-70.69C30.23,-70.81 29.87,-71.03 29.7,-71.18C29.53,-71.34 29.36,-71.48 29.19,-71.63C29.02,-71.77 28.85,-71.92 28.67,-72.06C28.5,-72.2 28.33,-72.33 28.15,-72.47C27.98,-72.6 27.8,-72.73 27.62,-72.85C27.45,-72.98 27.27,-73.1 27.09,-73.21C26.91,-73.32 26.73,-73.43 26.55,-73.53C26.37,-73.63 26.18,-73.72 26,-73.81C25.81,-73.89 25.62,-73.96 25.43,-74.02C25.24,-74.08 25.05,-74.13 24.85,-74.16C24.65,-74.19 24.45,-74.2 24.25,-74.19C24.04,-74.18 23.83,-74.16 23.61,-74.09C23.39,-74.02 23.19,-74.02 22.92,-73.76C22.66,-73.5 22.14,-72.98 22.03,-72.52Z" fill="#C99A94"/><path d="M-4.68,-83.97C-4.68,-83.77 -4.71,-83.56 -4.76,-83.37C-4.81,-83.19 -4.89,-83.02 -5,-82.86C-5.1,-82.71 -5.23,-82.57 -5.37,-82.45C-5.52,-82.33 -5.68,-82.23 -5.86,-82.15C-6.04,-82.08 -6.24,-82.03 -6.44,-82C-6.65,-81.98 -6.89,-81.98 -7.09,-82C-7.3,-82.03 -7.5,-82.08 -7.67,-82.15C-7.85,-82.23 -8.02,-82.33 -8.16,-82.45C-8.31,-82.57 -8.44,-82.71 -8.54,-82.86C-8.64,-83.02 -8.72,-83.19 -8.78,-83.37C-8.83,-83.56 -8.86,-83.77 -8.86,-83.97C-8.86,-84.17 -8.83,-84.38 -8.78,-84.56C-8.72,-84.75 -8.64,-84.92 -8.54,-85.07C-8.44,-85.23 -8.31,-85.37 -8.16,-85.49C-8.02,-85.61 -7.85,-85.71 -7.67,-85.78C-7.5,-85.86 -7.3,-85.91 -7.09,-85.93C-6.89,-85.96 -6.65,-85.96 -6.44,-85.93C-6.24,-85.91 -6.04,-85.86 -5.86,-85.78C-5.68,-85.71 -5.52,-85.61 -5.37,-85.49C-5.23,-85.37 -5.1,-85.23 -5,-85.07C-4.89,-84.92 -4.81,-84.75 -4.76,-84.56C-4.71,-84.38 -4.68,-84.17 -4.68,-83.97Z" fill="#FFF1CF"/><g clip-path="url(#c-k5)"><ellipse cx="-6.768289382400002" cy="-86.26656418367298" rx="2.298680281497601" ry="1.4627965427712002" fill="#E6C98F" opacity="0.55"/></g><path d="M-4.68,-83.97C-4.68,-83.77 -4.71,-83.56 -4.76,-83.37C-4.81,-83.19 -4.89,-83.02 -5,-82.86C-5.1,-82.71 -5.23,-82.57 -5.37,-82.45C-5.52,-82.33 -5.68,-82.23 -5.86,-82.15C-6.04,-82.08 -6.24,-82.03 -6.44,-82C-6.65,-81.98 -6.89,-81.98 -7.09,-82C-7.3,-82.03 -7.5,-82.08 -7.67,-82.15C-7.85,-82.23 -8.02,-82.33 -8.16,-82.45C-8.31,-82.57 -8.44,-82.71 -8.54,-82.86C-8.64,-83.02 -8.72,-83.19 -8.78,-83.37C-8.83,-83.56 -8.86,-83.77 -8.86,-83.97C-8.86,-84.17 -8.83,-84.38 -8.78,-84.56C-8.72,-84.75 -8.64,-84.92 -8.54,-85.07C-8.44,-85.23 -8.31,-85.37 -8.16,-85.49C-8.02,-85.61 -7.85,-85.71 -7.67,-85.78C-7.5,-85.86 -7.3,-85.91 -7.09,-85.93C-6.89,-85.96 -6.65,-85.96 -6.44,-85.93C-6.24,-85.91 -6.04,-85.86 -5.86,-85.78C-5.68,-85.71 -5.52,-85.61 -5.37,-85.49C-5.23,-85.37 -5.1,-85.23 -5,-85.07C-4.89,-84.92 -4.81,-84.75 -4.76,-84.56C-4.71,-84.38 -4.68,-84.17 -4.68,-83.97Z" fill="none" stroke="#1C1311" stroke-width="2.04" stroke-linejoin="round"/><path d="M8.86,-83.97C8.86,-83.77 8.83,-83.56 8.78,-83.37C8.72,-83.19 8.64,-83.02 8.54,-82.86C8.44,-82.71 8.31,-82.57 8.16,-82.45C8.02,-82.33 7.85,-82.23 7.67,-82.15C7.5,-82.08 7.3,-82.03 7.09,-82C6.89,-81.98 6.65,-81.98 6.44,-82C6.24,-82.03 6.04,-82.08 5.86,-82.15C5.68,-82.23 5.52,-82.33 5.37,-82.45C5.23,-82.57 5.1,-82.71 5,-82.86C4.89,-83.02 4.81,-83.19 4.76,-83.37C4.71,-83.56 4.68,-83.77 4.68,-83.97C4.68,-84.17 4.71,-84.38 4.76,-84.56C4.81,-84.75 4.89,-84.92 5,-85.07C5.1,-85.23 5.23,-85.37 5.37,-85.49C5.52,-85.61 5.68,-85.71 5.86,-85.78C6.04,-85.86 6.24,-85.91 6.44,-85.93C6.65,-85.96 6.89,-85.96 7.09,-85.93C7.3,-85.91 7.5,-85.86 7.67,-85.78C7.85,-85.71 8.02,-85.61 8.16,-85.49C8.31,-85.37 8.44,-85.23 8.54,-85.07C8.64,-84.92 8.72,-84.75 8.78,-84.56C8.83,-84.38 8.86,-84.17 8.86,-83.97Z" fill="#FFF1CF"/><g clip-path="url(#c-k6)"><ellipse cx="6.768289382400002" cy="-86.26656418367298" rx="2.298680281497601" ry="1.4627965427712002" fill="#E6C98F" opacity="0.55"/></g><path d="M8.86,-83.97C8.86,-83.77 8.83,-83.56 8.78,-83.37C8.72,-83.19 8.64,-83.02 8.54,-82.86C8.44,-82.71 8.31,-82.57 8.16,-82.45C8.02,-82.33 7.85,-82.23 7.67,-82.15C7.5,-82.08 7.3,-82.03 7.09,-82C6.89,-81.98 6.65,-81.98 6.44,-82C6.24,-82.03 6.04,-82.08 5.86,-82.15C5.68,-82.23 5.52,-82.33 5.37,-82.45C5.23,-82.57 5.1,-82.71 5,-82.86C4.89,-83.02 4.81,-83.19 4.76,-83.37C4.71,-83.56 4.68,-83.77 4.68,-83.97C4.68,-84.17 4.71,-84.38 4.76,-84.56C4.81,-84.75 4.89,-84.92 5,-85.07C5.1,-85.23 5.23,-85.37 5.37,-85.49C5.52,-85.61 5.68,-85.71 5.86,-85.78C6.04,-85.86 6.24,-85.91 6.44,-85.93C6.65,-85.96 6.89,-85.96 7.09,-85.93C7.3,-85.91 7.5,-85.86 7.67,-85.78C7.85,-85.71 8.02,-85.61 8.16,-85.49C8.31,-85.37 8.44,-85.23 8.54,-85.07C8.64,-84.92 8.72,-84.75 8.78,-84.56C8.83,-84.38 8.86,-84.17 8.86,-83.97Z" fill="none" stroke="#1C1311" stroke-width="2.04" stroke-linejoin="round"/><path d="M21.15,-62.49C21.03,-61.19 20.62,-59.69 20.37,-58.59C20.12,-57.49 19.9,-56.72 19.65,-55.87C19.4,-55.02 19.14,-54.25 18.87,-53.5C18.59,-52.75 18.3,-52.05 18,-51.37C17.7,-50.7 17.38,-50.06 17.05,-49.44C16.72,-48.83 16.37,-48.24 16.02,-47.68C15.66,-47.13 15.29,-46.6 14.91,-46.09C14.52,-45.59 14.13,-45.12 13.72,-44.67C13.31,-44.22 12.89,-43.8 12.46,-43.4C12.03,-43.01 11.58,-42.64 11.12,-42.3C10.66,-41.96 10.19,-41.65 9.71,-41.37C9.22,-41.08 8.72,-40.82 8.2,-40.6C7.68,-40.37 7.15,-40.17 6.59,-40C6.03,-39.82 5.46,-39.68 4.83,-39.57C4.21,-39.45 3.64,-39.37 2.84,-39.31C2.03,-39.25 0.95,-39.22 0,-39.22C-0.95,-39.22 -2.03,-39.25 -2.84,-39.31C-3.64,-39.37 -4.21,-39.45 -4.83,-39.57C-5.46,-39.68 -6.03,-39.82 -6.59,-40C-7.15,-40.17 -7.68,-40.37 -8.2,-40.6C-8.72,-40.82 -9.22,-41.08 -9.71,-41.37C-10.19,-41.65 -10.66,-41.96 -11.12,-42.3C-11.58,-42.64 -12.03,-43.01 -12.46,-43.4C-12.89,-43.8 -13.31,-44.22 -13.72,-44.67C-14.13,-45.12 -14.52,-45.59 -14.91,-46.09C-15.29,-46.6 -15.66,-47.13 -16.02,-47.68C-16.37,-48.24 -16.72,-48.83 -17.05,-49.44C-17.38,-50.06 -17.7,-50.7 -18,-51.37C-18.3,-52.05 -18.59,-52.75 -18.87,-53.5C-19.14,-54.25 -19.4,-55.02 -19.65,-55.87C-19.9,-56.72 -20.12,-57.49 -20.37,-58.59C-20.62,-59.69 -21.03,-61.19 -21.15,-62.49C-21.27,-63.79 -21.12,-65.28 -21.07,-66.39C-21.02,-67.49 -20.94,-68.26 -20.84,-69.11C-20.73,-69.95 -20.6,-70.72 -20.45,-71.47C-20.29,-72.22 -20.11,-72.92 -19.9,-73.6C-19.69,-74.28 -19.46,-74.92 -19.2,-75.53C-18.94,-76.15 -18.66,-76.73 -18.35,-77.29C-18.04,-77.85 -17.71,-78.38 -17.35,-78.88C-16.99,-79.38 -16.61,-79.86 -16.2,-80.31C-15.79,-80.76 -15.36,-81.18 -14.9,-81.57C-14.45,-81.97 -13.97,-82.33 -13.46,-82.67C-12.95,-83.01 -12.42,-83.33 -11.86,-83.61C-11.3,-83.89 -10.72,-84.15 -10.1,-84.38C-9.49,-84.61 -8.85,-84.81 -8.17,-84.98C-7.49,-85.15 -6.79,-85.29 -6.02,-85.41C-5.25,-85.52 -4.55,-85.61 -3.54,-85.67C-2.54,-85.72 -1.18,-85.75 0,-85.75C1.18,-85.75 2.54,-85.72 3.54,-85.67C4.55,-85.61 5.25,-85.52 6.02,-85.41C6.79,-85.29 7.49,-85.15 8.17,-84.98C8.85,-84.81 9.49,-84.61 10.1,-84.38C10.72,-84.15 11.3,-83.89 11.86,-83.61C12.42,-83.33 12.95,-83.01 13.46,-82.67C13.97,-82.33 14.45,-81.97 14.9,-81.57C15.36,-81.18 15.79,-80.76 16.2,-80.31C16.61,-79.86 16.99,-79.38 17.35,-78.88C17.71,-78.38 18.04,-77.85 18.35,-77.29C18.66,-76.73 18.94,-76.15 19.2,-75.53C19.46,-74.92 19.69,-74.28 19.9,-73.6C20.11,-72.92 20.29,-72.22 20.45,-71.47C20.6,-70.72 20.73,-69.95 20.84,-69.11C20.94,-68.26 21.02,-67.49 21.07,-66.39C21.12,-65.28 21.27,-63.79 21.15,-62.49Z" fill="#4b4650"/><g clip-path="url(#c-k7)"><path d="M19.08,-83.3C19.41,-83.17 19.69,-83 19.97,-82.79C20.26,-82.58 20.52,-82.32 20.77,-82.05C21.02,-81.78 21.26,-81.47 21.49,-81.17C21.71,-80.86 21.93,-80.54 22.13,-80.23C22.34,-79.92 22.53,-79.62 22.73,-79.32C22.92,-79.03 23.11,-78.74 23.29,-78.45C23.47,-78.16 23.65,-77.86 23.81,-77.56C23.97,-77.26 24.13,-76.96 24.26,-76.64C24.39,-76.32 24.51,-76 24.6,-75.66C24.69,-75.33 24.75,-75 24.8,-74.62C24.84,-74.24 24.87,-73.82 24.89,-73.39C24.9,-72.95 24.91,-72.45 24.89,-71.98C24.87,-71.51 24.84,-71.02 24.76,-70.58C24.69,-70.14 24.59,-69.69 24.44,-69.34C24.29,-68.98 24.11,-68.67 23.86,-68.44C23.61,-68.21 23.29,-68.06 22.93,-67.95C22.56,-67.83 22.12,-67.77 21.67,-67.74C21.23,-67.7 20.73,-67.71 20.26,-67.72C19.78,-67.73 19.29,-67.78 18.84,-67.81C18.4,-67.84 17.98,-67.88 17.59,-67.92C17.19,-67.95 16.85,-67.97 16.49,-68.02C16.13,-68.06 15.78,-68.11 15.44,-68.18C15.09,-68.25 14.76,-68.32 14.44,-68.42C14.12,-68.52 13.81,-68.63 13.51,-68.76C13.21,-68.9 12.93,-69.05 12.65,-69.23C12.37,-69.41 12.1,-69.62 11.83,-69.85C11.56,-70.08 11.29,-70.34 11.04,-70.61C10.78,-70.87 10.54,-71.17 10.33,-71.46C10.12,-71.75 9.92,-72.06 9.77,-72.36C9.61,-72.67 9.49,-72.97 9.41,-73.28C9.33,-73.59 9.3,-73.9 9.29,-74.23C9.29,-74.55 9.33,-74.89 9.38,-75.23C9.43,-75.57 9.52,-75.92 9.61,-76.27C9.71,-76.62 9.83,-76.97 9.95,-77.31C10.06,-77.65 10.19,-77.97 10.32,-78.31C10.45,-78.66 10.58,-79 10.73,-79.36C10.87,-79.72 11.02,-80.1 11.2,-80.47C11.37,-80.83 11.55,-81.2 11.75,-81.53C11.96,-81.85 12.17,-82.18 12.42,-82.44C12.66,-82.7 12.92,-82.92 13.22,-83.1C13.52,-83.27 13.87,-83.4 14.24,-83.5C14.61,-83.6 15.04,-83.67 15.46,-83.71C15.87,-83.75 16.33,-83.76 16.75,-83.74C17.17,-83.72 17.61,-83.68 18,-83.6C18.39,-83.53 18.75,-83.44 19.08,-83.3Z" fill="#FFFFFF"/></g><path d="M21.15,-62.49C21.03,-61.19 20.62,-59.69 20.37,-58.59C20.12,-57.49 19.9,-56.72 19.65,-55.87C19.4,-55.02 19.14,-54.25 18.87,-53.5C18.59,-52.75 18.3,-52.05 18,-51.37C17.7,-50.7 17.38,-50.06 17.05,-49.44C16.72,-48.83 16.37,-48.24 16.02,-47.68C15.66,-47.13 15.29,-46.6 14.91,-46.09C14.52,-45.59 14.13,-45.12 13.72,-44.67C13.31,-44.22 12.89,-43.8 12.46,-43.4C12.03,-43.01 11.58,-42.64 11.12,-42.3C10.66,-41.96 10.19,-41.65 9.71,-41.37C9.22,-41.08 8.72,-40.82 8.2,-40.6C7.68,-40.37 7.15,-40.17 6.59,-40C6.03,-39.82 5.46,-39.68 4.83,-39.57C4.21,-39.45 3.64,-39.37 2.84,-39.31C2.03,-39.25 0.95,-39.22 0,-39.22C-0.95,-39.22 -2.03,-39.25 -2.84,-39.31C-3.64,-39.37 -4.21,-39.45 -4.83,-39.57C-5.46,-39.68 -6.03,-39.82 -6.59,-40C-7.15,-40.17 -7.68,-40.37 -8.2,-40.6C-8.72,-40.82 -9.22,-41.08 -9.71,-41.37C-10.19,-41.65 -10.66,-41.96 -11.12,-42.3C-11.58,-42.64 -12.03,-43.01 -12.46,-43.4C-12.89,-43.8 -13.31,-44.22 -13.72,-44.67C-14.13,-45.12 -14.52,-45.59 -14.91,-46.09C-15.29,-46.6 -15.66,-47.13 -16.02,-47.68C-16.37,-48.24 -16.72,-48.83 -17.05,-49.44C-17.38,-50.06 -17.7,-50.7 -18,-51.37C-18.3,-52.05 -18.59,-52.75 -18.87,-53.5C-19.14,-54.25 -19.4,-55.02 -19.65,-55.87C-19.9,-56.72 -20.12,-57.49 -20.37,-58.59C-20.62,-59.69 -21.03,-61.19 -21.15,-62.49C-21.27,-63.79 -21.12,-65.28 -21.07,-66.39C-21.02,-67.49 -20.94,-68.26 -20.84,-69.11C-20.73,-69.95 -20.6,-70.72 -20.45,-71.47C-20.29,-72.22 -20.11,-72.92 -19.9,-73.6C-19.69,-74.28 -19.46,-74.92 -19.2,-75.53C-18.94,-76.15 -18.66,-76.73 -18.35,-77.29C-18.04,-77.85 -17.71,-78.38 -17.35,-78.88C-16.99,-79.38 -16.61,-79.86 -16.2,-80.31C-15.79,-80.76 -15.36,-81.18 -14.9,-81.57C-14.45,-81.97 -13.97,-82.33 -13.46,-82.67C-12.95,-83.01 -12.42,-83.33 -11.86,-83.61C-11.3,-83.89 -10.72,-84.15 -10.1,-84.38C-9.49,-84.61 -8.85,-84.81 -8.17,-84.98C-7.49,-85.15 -6.79,-85.29 -6.02,-85.41C-5.25,-85.52 -4.55,-85.61 -3.54,-85.67C-2.54,-85.72 -1.18,-85.75 0,-85.75C1.18,-85.75 2.54,-85.72 3.54,-85.67C4.55,-85.61 5.25,-85.52 6.02,-85.41C6.79,-85.29 7.49,-85.15 8.17,-84.98C8.85,-84.81 9.49,-84.61 10.1,-84.38C10.72,-84.15 11.3,-83.89 11.86,-83.61C12.42,-83.33 12.95,-83.01 13.46,-82.67C13.97,-82.33 14.45,-81.97 14.9,-81.57C15.36,-81.18 15.79,-80.76 16.2,-80.31C16.61,-79.86 16.99,-79.38 17.35,-78.88C17.71,-78.38 18.04,-77.85 18.35,-77.29C18.66,-76.73 18.94,-76.15 19.2,-75.53C19.46,-74.92 19.69,-74.28 19.9,-73.6C20.11,-72.92 20.29,-72.22 20.45,-71.47C20.6,-70.72 20.73,-69.95 20.84,-69.11C20.94,-68.26 21.02,-67.49 21.07,-66.39C21.12,-65.28 21.27,-63.79 21.15,-62.49Z" fill="none" stroke="#1C1311" stroke-width="2.4" stroke-linejoin="round"/><ellipse cx="-5.08" cy="-65.74" rx="1.92" ry="2.11" fill="#140D0D"/><ellipse cx="-5.65" cy="-66.42" rx="0.61" ry="0.61" fill="#FFFFFF" opacity="0.85"/><ellipse cx="5.08" cy="-65.74" rx="1.92" ry="2.11" fill="#140D0D"/><ellipse cx="4.5" cy="-66.42" rx="0.61" ry="0.61" fill="#FFFFFF" opacity="0.85"/><path d="M14.81,-49.46C14.81,-49.04 14.77,-48.6 14.69,-48.2C14.61,-47.8 14.49,-47.44 14.34,-47.08C14.18,-46.72 13.99,-46.37 13.75,-46.03C13.52,-45.7 13.25,-45.37 12.95,-45.06C12.65,-44.75 12.31,-44.46 11.94,-44.18C11.57,-43.9 11.16,-43.64 10.73,-43.39C10.29,-43.15 9.82,-42.92 9.33,-42.71C8.84,-42.5 8.31,-42.3 7.77,-42.13C7.22,-41.96 6.65,-41.81 6.06,-41.68C5.47,-41.55 4.85,-41.44 4.21,-41.35C3.57,-41.26 2.93,-41.19 2.23,-41.15C1.53,-41.11 0.74,-41.08 0,-41.08C-0.74,-41.08 -1.53,-41.11 -2.23,-41.15C-2.93,-41.19 -3.57,-41.26 -4.21,-41.35C-4.85,-41.44 -5.47,-41.55 -6.06,-41.68C-6.65,-41.81 -7.22,-41.96 -7.77,-42.13C-8.31,-42.3 -8.84,-42.5 -9.33,-42.71C-9.82,-42.92 -10.29,-43.15 -10.73,-43.39C-11.16,-43.64 -11.57,-43.9 -11.94,-44.18C-12.31,-44.46 -12.65,-44.75 -12.95,-45.06C-13.25,-45.37 -13.52,-45.7 -13.75,-46.03C-13.99,-46.37 -14.18,-46.72 -14.34,-47.08C-14.49,-47.44 -14.61,-47.8 -14.69,-48.2C-14.77,-48.6 -14.81,-49.04 -14.81,-49.46C-14.81,-49.88 -14.77,-50.32 -14.69,-50.72C-14.61,-51.12 -14.49,-51.48 -14.34,-51.84C-14.18,-52.2 -13.99,-52.55 -13.75,-52.89C-13.52,-53.22 -13.25,-53.55 -12.95,-53.85C-12.65,-54.16 -12.31,-54.46 -11.94,-54.74C-11.57,-55.02 -11.16,-55.28 -10.73,-55.53C-10.29,-55.77 -9.82,-56 -9.33,-56.21C-8.84,-56.42 -8.31,-56.61 -7.77,-56.79C-7.22,-56.96 -6.65,-57.11 -6.06,-57.24C-5.47,-57.37 -4.85,-57.48 -4.21,-57.57C-3.57,-57.66 -2.93,-57.72 -2.23,-57.77C-1.53,-57.81 -0.74,-57.83 0,-57.83C0.74,-57.83 1.53,-57.81 2.23,-57.77C2.93,-57.72 3.57,-57.66 4.21,-57.57C4.85,-57.48 5.47,-57.37 6.06,-57.24C6.65,-57.11 7.22,-56.96 7.77,-56.79C8.31,-56.61 8.84,-56.42 9.33,-56.21C9.82,-56 10.29,-55.77 10.73,-55.53C11.16,-55.28 11.57,-55.02 11.94,-54.74C12.31,-54.46 12.65,-54.16 12.95,-53.85C13.25,-53.55 13.52,-53.22 13.75,-52.89C13.99,-52.55 14.18,-52.2 14.34,-51.84C14.49,-51.48 14.61,-51.12 14.69,-50.72C14.77,-50.32 14.81,-49.88 14.81,-49.46Z" fill="#D4A5A8" stroke="#1C1311" stroke-width="2.28" stroke-linejoin="round"/><ellipse cx="-5.03" cy="-50.3" rx="1.18" ry="1.44" fill="#8E5F63"/><ellipse cx="5.03" cy="-50.3" rx="1.18" ry="1.44" fill="#8E5F63"/><path d="M24.76,-70.92C24.76,-70.76 24.76,-70.1 24.76,-69.94" fill="none" stroke="#1C1311" stroke-width="5.1" stroke-linecap="round" stroke-linejoin="round"/><path d="M24.76,-70.92C24.76,-70.76 24.76,-70.1 24.76,-69.94" fill="none" stroke="#E9B949" stroke-width="1.02" stroke-linecap="round" stroke-linejoin="round"/><ellipse cx="24.76" cy="-67.98" rx="2.45" ry="2.58" fill="#FFD45E" stroke="#1C1311" stroke-width="1.8"/><ellipse cx="24.76" cy="-67.98" rx="0.83" ry="0.83" fill="#E9B949"/><path d="M-13.96,-69.47C-13.47,-70.71 -12.55,-74.9 -11,-76.91C-9.45,-78.93 -5.71,-80.79 -4.65,-81.57" fill="none" stroke="#FFFFFF" stroke-width="2.75" stroke-linecap="round" stroke-linejoin="round" opacity="0.9"/><path d="M-0.42,-82.5C0.07,-82.5 2.04,-82.5 2.54,-82.5" fill="none" stroke="#FFFFFF" stroke-width="2.54" stroke-linecap="round" stroke-linejoin="round" opacity="0.9"/></g></svg>
