<svg xmlns="http://www.w3.org/2000/svg" viewBox="-55.92 -82.47 109.89 86.47" width="109.89" height="86.47"><g transform="translate(0,0) scale(0.97,0.97)"><defs><clipPath id="c-k0"><path d="M-29.81,-2.48C-29.81,-2.21 -29.89,-1.91 -30.05,-1.67C-30.2,-1.43 -30.44,-1.23 -30.75,-1.04C-31.05,-0.84 -31.44,-0.67 -31.89,-0.51C-32.34,-0.35 -32.87,-0.2 -33.45,-0.08C-34.03,0.05 -34.68,0.15 -35.39,0.24C-36.09,0.32 -36.82,0.39 -37.69,0.43C-38.56,0.47 -39.64,0.5 -40.61,0.5C-41.59,0.5 -42.66,0.47 -43.54,0.43C-44.41,0.39 -45.13,0.32 -45.84,0.24C-46.54,0.15 -47.19,0.05 -47.77,-0.08C-48.36,-0.2 -48.88,-0.35 -49.33,-0.51C-49.78,-0.67 -50.17,-0.84 -50.48,-1.04C-50.78,-1.23 -51.02,-1.43 -51.18,-1.67C-51.33,-1.91 -51.41,-2.21 -51.41,-2.48C-51.41,-2.75 -51.33,-3.04 -51.18,-3.28C-51.02,-3.52 -50.78,-3.72 -50.48,-3.92C-50.17,-4.11 -49.78,-4.29 -49.33,-4.45C-48.88,-4.61 -48.36,-4.75 -47.77,-4.88C-47.19,-5 -46.54,-5.11 -45.84,-5.19C-45.13,-5.28 -44.41,-5.34 -43.54,-5.39C-42.66,-5.43 -41.59,-5.45 -40.61,-5.45C-39.64,-5.45 -38.56,-5.43 -37.69,-5.39C-36.82,-5.34 -36.09,-5.28 -35.39,-5.19C-34.68,-5.11 -34.03,-5 -33.45,-4.88C-32.87,-4.75 -32.34,-4.61 -31.89,-4.45C-31.44,-4.29 -31.05,-4.11 -30.75,-3.92C-30.44,-3.72 -30.2,-3.52 -30.05,-3.28C-29.89,-3.04 -29.81,-2.75 -29.81,-2.48Z"/></clipPath><clipPath id="c-k1"><path d="M51.41,-2.48C51.41,-2.21 51.33,-1.91 51.18,-1.67C51.02,-1.43 50.78,-1.23 50.48,-1.04C50.17,-0.84 49.78,-0.67 49.33,-0.51C48.88,-0.35 48.36,-0.2 47.77,-0.08C47.19,0.05 46.54,0.15 45.84,0.24C45.13,0.32 44.41,0.39 43.54,0.43C42.66,0.47 41.59,0.5 40.61,0.5C39.64,0.5 38.56,0.47 37.69,0.43C36.82,0.39 36.09,0.32 35.39,0.24C34.68,0.15 34.03,0.05 33.45,-0.08C32.87,-0.2 32.34,-0.35 31.89,-0.51C31.44,-0.67 31.05,-0.84 30.75,-1.04C30.44,-1.23 30.2,-1.43 30.05,-1.67C29.89,-1.91 29.81,-2.21 29.81,-2.48C29.81,-2.75 29.89,-3.04 30.05,-3.28C30.2,-3.52 30.44,-3.72 30.75,-3.92C31.05,-4.11 31.44,-4.29 31.89,-4.45C32.34,-4.61 32.87,-4.75 33.45,-4.88C34.03,-5 34.68,-5.11 35.39,-5.19C36.09,-5.28 36.82,-5.34 37.69,-5.39C38.56,-5.43 39.64,-5.45 40.61,-5.45C41.59,-5.45 42.66,-5.43 43.54,-5.39C44.41,-5.34 45.13,-5.28 45.84,-5.19C46.54,-5.11 47.19,-5 47.77,-4.88C48.36,-4.75 48.88,-4.61 49.33,-4.45C49.78,-4.29 50.17,-4.11 50.48,-3.92C50.78,-3.72 51.02,-3.52 51.18,-3.28C51.33,-3.04 51.41,-2.75 51.41,-2.48Z"/></clipPath><clipPath id="c-k2"><path d="M0,-50.55C0.89,-50.55 1.8,-51.75 2.67,-52.19C3.54,-52.64 4.4,-53.04 5.22,-53.22C6.03,-53.39 6.81,-53.4 7.56,-53.24C8.31,-53.09 9.01,-52.7 9.7,-52.27C10.4,-51.84 10.94,-50.75 11.72,-50.67C12.5,-50.59 13.53,-51.5 14.38,-51.8C15.22,-52.1 16.04,-52.37 16.77,-52.47C17.49,-52.56 18.15,-52.54 18.73,-52.39C19.31,-52.24 19.8,-51.92 20.26,-51.57C20.73,-51.23 21.11,-50.48 21.54,-50.3C21.96,-50.12 22.42,-50.48 22.83,-50.52C23.23,-50.57 23.63,-50.6 23.96,-50.56C24.29,-50.52 24.59,-50.43 24.84,-50.29C25.08,-50.15 25.27,-49.94 25.45,-49.71C25.63,-49.49 25.72,-49.11 25.91,-48.95C26.1,-48.8 26.39,-48.86 26.6,-48.78C26.81,-48.7 27.01,-48.62 27.17,-48.49C27.33,-48.36 27.46,-48.2 27.55,-48.02C27.65,-47.83 27.7,-47.6 27.74,-47.36C27.79,-47.12 27.69,-46.78 27.82,-46.58C27.95,-46.39 28.32,-46.33 28.53,-46.17C28.74,-46.01 28.94,-45.84 29.07,-45.61C29.21,-45.39 29.29,-45.13 29.33,-44.83C29.37,-44.54 29.35,-44.19 29.32,-43.83C29.28,-43.47 29.05,-42.97 29.13,-42.68C29.2,-42.4 29.59,-42.33 29.76,-42.12C29.94,-41.92 30.11,-41.7 30.19,-41.43C30.28,-41.17 30.31,-40.87 30.29,-40.53C30.27,-40.19 30.17,-39.81 30.05,-39.41C29.94,-39.02 29.6,-38.47 29.61,-38.16C29.62,-37.85 29.97,-37.78 30.1,-37.57C30.22,-37.35 30.33,-37.13 30.37,-36.87C30.4,-36.61 30.38,-36.32 30.3,-36C30.23,-35.69 30.07,-35.33 29.9,-34.97C29.73,-34.61 29.29,-34.14 29.29,-33.84C29.28,-33.54 29.71,-33.41 29.87,-33.17C30.02,-32.93 30.17,-32.69 30.23,-32.42C30.29,-32.15 30.29,-31.86 30.23,-31.55C30.17,-31.24 30.02,-30.9 29.87,-30.56C29.71,-30.22 29.22,-29.79 29.29,-29.49C29.36,-29.19 30.01,-28.99 30.3,-28.73C30.6,-28.47 30.88,-28.21 31.07,-27.93C31.25,-27.64 31.37,-27.35 31.42,-27.04C31.47,-26.74 31.43,-26.41 31.37,-26.08C31.31,-25.76 30.91,-25.38 31.07,-25.08C31.22,-24.77 31.93,-24.53 32.3,-24.25C32.67,-23.98 33.01,-23.7 33.26,-23.42C33.51,-23.14 33.69,-22.86 33.79,-22.57C33.89,-22.28 33.89,-21.99 33.88,-21.7C33.86,-21.41 33.5,-21.1 33.7,-20.82C33.9,-20.54 34.68,-20.27 35.1,-20C35.52,-19.73 35.93,-19.46 36.23,-19.2C36.53,-18.94 36.76,-18.69 36.91,-18.44C37.06,-18.19 37.11,-17.94 37.15,-17.7C37.18,-17.46 36.9,-17.25 37.11,-16.99C37.31,-16.74 38,-16.43 38.38,-16.16C38.76,-15.89 39.13,-15.63 39.4,-15.37C39.68,-15.12 39.88,-14.88 40.02,-14.65C40.15,-14.42 40.2,-14.21 40.22,-14C40.25,-13.79 40.05,-13.63 40.18,-13.39C40.31,-13.14 40.78,-12.81 41.03,-12.53C41.28,-12.25 41.51,-11.98 41.67,-11.72C41.83,-11.47 41.93,-11.23 41.98,-11C42.02,-10.77 41.99,-10.56 41.95,-10.36C41.91,-10.15 41.68,-10 41.72,-9.76C41.76,-9.53 42.07,-9.22 42.2,-8.96C42.34,-8.7 42.46,-8.44 42.52,-8.21C42.57,-7.97 42.59,-7.75 42.55,-7.54C42.52,-7.34 42.42,-7.15 42.32,-6.97C42.21,-6.79 41.94,-6.66 41.91,-6.45C41.87,-6.24 42.06,-5.95 42.1,-5.71C42.14,-5.48 42.17,-5.25 42.14,-5.04C42.11,-4.83 42.04,-4.64 41.93,-4.46C41.81,-4.29 41.65,-4.13 41.47,-3.99C41.29,-3.84 40.98,-3.75 40.85,-3.57C40.73,-3.39 40.78,-3.12 40.69,-2.92C40.61,-2.71 40.51,-2.52 40.34,-2.35C40.18,-2.19 39.96,-2.05 39.69,-1.94C39.42,-1.83 39.08,-1.75 38.73,-1.67C38.38,-1.6 37.88,-1.64 37.59,-1.5C37.3,-1.35 37.24,-1 36.98,-0.8C36.72,-0.6 36.44,-0.42 36.02,-0.32C35.6,-0.22 35.09,-0.17 34.48,-0.19C33.87,-0.2 33.13,-0.3 32.37,-0.4C31.6,-0.51 30.43,-0.88 29.9,-0.84C29.36,-0.79 29.46,-0.32 29.15,-0.14C28.84,0.05 28.51,0.22 28.05,0.28C27.6,0.35 27.04,0.34 26.4,0.25C25.75,0.16 24.97,-0.03 24.17,-0.23C23.37,-0.44 22.11,-0.93 21.6,-1C21.09,-1.07 21.31,-0.73 21.11,-0.65C20.92,-0.56 20.72,-0.48 20.45,-0.48C20.18,-0.48 19.86,-0.52 19.49,-0.62C19.12,-0.72 18.69,-0.89 18.24,-1.07C17.79,-1.25 17.13,-1.65 16.81,-1.7C16.49,-1.76 16.51,-1.46 16.32,-1.39C16.13,-1.32 15.93,-1.25 15.68,-1.26C15.43,-1.28 15.14,-1.34 14.81,-1.45C14.48,-1.57 14.1,-1.75 13.71,-1.95C13.32,-2.14 12.81,-2.62 12.46,-2.64C12.12,-2.65 11.94,-2.19 11.65,-2.04C11.35,-1.89 11.05,-1.76 10.68,-1.74C10.32,-1.72 9.92,-1.77 9.48,-1.91C9.04,-2.05 8.54,-2.29 8.03,-2.55C7.53,-2.82 6.89,-3.47 6.44,-3.49C5.99,-3.51 5.7,-2.9 5.31,-2.69C4.93,-2.48 4.54,-2.29 4.12,-2.23C3.71,-2.17 3.28,-2.2 2.84,-2.33C2.39,-2.45 1.92,-2.71 1.45,-2.98C0.98,-3.25 0.48,-3.97 0,-3.97C-0.48,-3.97 -0.98,-3.25 -1.45,-2.98C-1.92,-2.71 -2.39,-2.45 -2.84,-2.33C-3.28,-2.2 -3.71,-2.17 -4.12,-2.23C-4.54,-2.29 -4.93,-2.48 -5.31,-2.69C-5.7,-2.9 -5.99,-3.51 -6.44,-3.49C-6.89,-3.47 -7.53,-2.82 -8.03,-2.55C-8.54,-2.29 -9.04,-2.05 -9.48,-1.91C-9.92,-1.77 -10.32,-1.72 -10.68,-1.74C-11.05,-1.76 -11.35,-1.89 -11.65,-2.04C-11.94,-2.19 -12.12,-2.65 -12.46,-2.64C-12.81,-2.62 -13.32,-2.14 -13.71,-1.95C-14.1,-1.75 -14.48,-1.57 -14.81,-1.45C-15.14,-1.34 -15.43,-1.28 -15.68,-1.26C-15.93,-1.25 -16.13,-1.32 -16.32,-1.39C-16.51,-1.46 -16.49,-1.76 -16.81,-1.7C-17.13,-1.65 -17.79,-1.25 -18.24,-1.07C-18.69,-0.89 -19.12,-0.72 -19.49,-0.62C-19.86,-0.52 -20.18,-0.48 -20.45,-0.48C-20.72,-0.48 -20.92,-0.56 -21.11,-0.65C-21.31,-0.73 -21.09,-1.07 -21.6,-1C-22.11,-0.93 -23.37,-0.44 -24.17,-0.23C-24.97,-0.03 -25.75,0.16 -26.4,0.25C-27.04,0.34 -27.6,0.35 -28.05,0.28C-28.51,0.22 -28.84,0.05 -29.15,-0.14C-29.46,-0.32 -29.36,-0.79 -29.9,-0.84C-30.43,-0.88 -31.6,-0.51 -32.37,-0.4C-33.13,-0.3 -33.87,-0.2 -34.48,-0.19C-35.09,-0.17 -35.6,-0.22 -36.02,-0.32C-36.44,-0.42 -36.72,-0.6 -36.98,-0.8C-37.24,-1 -37.3,-1.35 -37.59,-1.5C-37.88,-1.64 -38.38,-1.6 -38.73,-1.67C-39.08,-1.75 -39.42,-1.83 -39.69,-1.94C-39.96,-2.05 -40.18,-2.19 -40.34,-2.35C-40.51,-2.52 -40.61,-2.71 -40.69,-2.92C-40.78,-3.12 -40.73,-3.39 -40.85,-3.57C-40.98,-3.75 -41.29,-3.84 -41.47,-3.99C-41.65,-4.13 -41.81,-4.29 -41.93,-4.46C-42.04,-4.64 -42.11,-4.83 -42.14,-5.04C-42.17,-5.25 -42.14,-5.48 -42.1,-5.71C-42.06,-5.95 -41.87,-6.24 -41.91,-6.45C-41.94,-6.66 -42.21,-6.79 -42.32,-6.97C-42.42,-7.15 -42.52,-7.34 -42.55,-7.54C-42.59,-7.75 -42.57,-7.97 -42.52,-8.21C-42.46,-8.44 -42.34,-8.7 -42.2,-8.96C-42.07,-9.22 -41.76,-9.53 -41.72,-9.76C-41.68,-10 -41.91,-10.15 -41.95,-10.36C-41.99,-10.56 -42.02,-10.77 -41.98,-11C-41.93,-11.23 -41.83,-11.47 -41.67,-11.72C-41.51,-11.98 -41.28,-12.25 -41.03,-12.53C-40.78,-12.81 -40.31,-13.14 -40.18,-13.39C-40.05,-13.63 -40.25,-13.79 -40.22,-14C-40.2,-14.21 -40.15,-14.42 -40.02,-14.65C-39.88,-14.88 -39.68,-15.12 -39.4,-15.37C-39.13,-15.63 -38.76,-15.89 -38.38,-16.16C-38,-16.43 -37.31,-16.74 -37.11,-16.99C-36.9,-17.25 -37.18,-17.46 -37.15,-17.7C-37.11,-17.94 -37.06,-18.19 -36.91,-18.44C-36.76,-18.69 -36.53,-18.94 -36.23,-19.2C-35.93,-19.46 -35.52,-19.73 -35.1,-20C-34.68,-20.27 -33.9,-20.54 -33.7,-20.82C-33.5,-21.1 -33.86,-21.41 -33.88,-21.7C-33.89,-21.99 -33.89,-22.28 -33.79,-22.57C-33.69,-22.86 -33.51,-23.14 -33.26,-23.42C-33.01,-23.7 -32.67,-23.98 -32.3,-24.25C-31.93,-24.53 -31.22,-24.77 -31.07,-25.08C-30.91,-25.38 -31.31,-25.76 -31.37,-26.08C-31.43,-26.41 -31.47,-26.74 -31.42,-27.04C-31.37,-27.35 -31.25,-27.64 -31.07,-27.93C-30.88,-28.21 -30.6,-28.47 -30.3,-28.73C-30.01,-28.99 -29.36,-29.19 -29.29,-29.49C-29.22,-29.79 -29.71,-30.22 -29.87,-30.56C-30.02,-30.9 -30.17,-31.24 -30.23,-31.55C-30.29,-31.86 -30.29,-32.15 -30.23,-32.42C-30.17,-32.69 -30.02,-32.93 -29.87,-33.17C-29.71,-33.41 -29.28,-33.54 -29.29,-33.84C-29.29,-34.14 -29.73,-34.61 -29.9,-34.97C-30.07,-35.33 -30.23,-35.69 -30.3,-36C-30.38,-36.32 -30.4,-36.61 -30.37,-36.87C-30.33,-37.13 -30.22,-37.35 -30.1,-37.57C-29.97,-37.78 -29.62,-37.85 -29.61,-38.16C-29.6,-38.47 -29.94,-39.02 -30.05,-39.41C-30.17,-39.81 -30.27,-40.19 -30.29,-40.53C-30.31,-40.87 -30.28,-41.17 -30.19,-41.43C-30.11,-41.7 -29.94,-41.92 -29.76,-42.12C-29.59,-42.33 -29.2,-42.4 -29.13,-42.68C-29.05,-42.97 -29.28,-43.47 -29.32,-43.83C-29.35,-44.19 -29.37,-44.54 -29.33,-44.83C-29.29,-45.13 -29.21,-45.39 -29.07,-45.61C-28.94,-45.84 -28.74,-46.01 -28.53,-46.17C-28.32,-46.33 -27.95,-46.39 -27.82,-46.58C-27.69,-46.78 -27.79,-47.12 -27.74,-47.36C-27.7,-47.6 -27.65,-47.83 -27.55,-48.02C-27.46,-48.2 -27.33,-48.36 -27.17,-48.49C-27.01,-48.62 -26.81,-48.7 -26.6,-48.78C-26.39,-48.86 -26.1,-48.8 -25.91,-48.95C-25.72,-49.11 -25.63,-49.49 -25.45,-49.71C-25.27,-49.94 -25.08,-50.15 -24.84,-50.29C-24.59,-50.43 -24.29,-50.52 -23.96,-50.56C-23.63,-50.6 -23.23,-50.57 -22.83,-50.52C-22.42,-50.48 -21.96,-50.12 -21.54,-50.3C-21.11,-50.48 -20.73,-51.23 -20.26,-51.57C-19.8,-51.92 -19.31,-52.24 -18.73,-52.39C-18.15,-52.54 -17.49,-52.56 -16.77,-52.47C-16.04,-52.37 -15.22,-52.1 -14.38,-51.8C-13.53,-51.5 -12.5,-50.59 -11.72,-50.67C-10.94,-50.75 -10.4,-51.84 -9.7,-52.27C-9.01,-52.7 -8.31,-53.09 -7.56,-53.24C-6.81,-53.4 -6.03,-53.39 -5.22,-53.22C-4.4,-53.04 -3.54,-52.64 -2.67,-52.19C-1.8,-51.75 -0.89,-50.55 0,-50.55Z"/></clipPath><clipPath id="c-k3"><path d="M-13.96,-29.74C-12.52,-31.35 -7.14,-31.35 -5.98,-29.74C-4.82,-28.12 -6.77,-21.85 -7.01,-20.03C-7.25,-18.22 -6.21,-19.04 -7.41,-18.84C-8.61,-18.64 -12.99,-18.64 -14.19,-18.84C-15.39,-19.04 -14.63,-18.22 -14.59,-20.03C-14.55,-21.85 -15.39,-28.12 -13.96,-29.74Z"/></clipPath><clipPath id="c-k4"><path d="M5.98,-29.74C7.14,-31.35 12.52,-31.35 13.96,-29.74C15.39,-28.12 14.55,-21.85 14.59,-20.03C14.63,-18.22 15.39,-19.04 14.19,-18.84C12.99,-18.64 8.61,-18.64 7.41,-18.84C6.21,-19.04 7.25,-18.22 7.01,-20.03C6.77,-21.85 4.82,-28.12 5.98,-29.74Z"/></clipPath><clipPath id="c-k5"><path d="M20.85,-59.17C20.74,-57.97 20.32,-56.58 20.08,-55.56C19.83,-54.54 19.62,-53.82 19.37,-53.04C19.13,-52.25 18.87,-51.54 18.6,-50.85C18.33,-50.15 18.04,-49.5 17.74,-48.87C17.45,-48.25 17.13,-47.65 16.81,-47.08C16.48,-46.51 16.14,-45.97 15.79,-45.45C15.44,-44.94 15.07,-44.45 14.69,-43.98C14.32,-43.51 13.93,-43.07 13.52,-42.66C13.12,-42.24 12.71,-41.85 12.28,-41.49C11.86,-41.12 11.42,-40.78 10.96,-40.47C10.51,-40.15 10.05,-39.86 9.57,-39.6C9.09,-39.33 8.6,-39.1 8.09,-38.89C7.57,-38.67 7.05,-38.49 6.5,-38.33C5.94,-38.17 5.38,-38.04 4.76,-37.93C4.15,-37.82 3.59,-37.74 2.8,-37.69C2,-37.64 0.93,-37.61 0,-37.61C-0.93,-37.61 -2,-37.64 -2.8,-37.69C-3.59,-37.74 -4.15,-37.82 -4.76,-37.93C-5.38,-38.04 -5.94,-38.17 -6.5,-38.33C-7.05,-38.49 -7.57,-38.67 -8.09,-38.89C-8.6,-39.1 -9.09,-39.33 -9.57,-39.6C-10.05,-39.86 -10.51,-40.15 -10.96,-40.47C-11.42,-40.78 -11.86,-41.12 -12.28,-41.49C-12.71,-41.85 -13.12,-42.24 -13.52,-42.66C-13.93,-43.07 -14.32,-43.51 -14.69,-43.98C-15.07,-44.45 -15.44,-44.94 -15.79,-45.45C-16.14,-45.97 -16.48,-46.51 -16.81,-47.08C-17.13,-47.65 -17.45,-48.25 -17.74,-48.87C-18.04,-49.5 -18.33,-50.15 -18.6,-50.85C-18.87,-51.54 -19.13,-52.25 -19.37,-53.04C-19.62,-53.82 -19.83,-54.54 -20.08,-55.56C-20.32,-56.58 -20.74,-57.97 -20.85,-59.17C-20.97,-60.38 -20.83,-61.76 -20.77,-62.78C-20.72,-63.81 -20.65,-64.52 -20.54,-65.3C-20.44,-66.09 -20.31,-66.8 -20.16,-67.5C-20,-68.19 -19.82,-68.84 -19.62,-69.47C-19.41,-70.1 -19.18,-70.69 -18.93,-71.26C-18.68,-71.83 -18.4,-72.37 -18.09,-72.89C-17.79,-73.41 -17.46,-73.9 -17.1,-74.36C-16.75,-74.83 -16.37,-75.27 -15.97,-75.69C-15.57,-76.1 -15.14,-76.49 -14.69,-76.86C-14.24,-77.22 -13.77,-77.56 -13.27,-77.88C-12.77,-78.19 -12.24,-78.48 -11.69,-78.75C-11.14,-79.01 -10.57,-79.25 -9.96,-79.46C-9.35,-79.67 -8.72,-79.85 -8.05,-80.01C-7.38,-80.17 -6.69,-80.31 -5.93,-80.41C-5.17,-80.52 -4.48,-80.6 -3.49,-80.65C-2.5,-80.7 -1.16,-80.73 0,-80.73C1.16,-80.73 2.5,-80.7 3.49,-80.65C4.48,-80.6 5.17,-80.52 5.93,-80.41C6.69,-80.31 7.38,-80.17 8.05,-80.01C8.72,-79.85 9.35,-79.67 9.96,-79.46C10.57,-79.25 11.14,-79.01 11.69,-78.75C12.24,-78.48 12.77,-78.19 13.27,-77.88C13.77,-77.56 14.24,-77.22 14.69,-76.86C15.14,-76.49 15.57,-76.1 15.97,-75.69C16.37,-75.27 16.75,-74.83 17.1,-74.36C17.46,-73.9 17.79,-73.41 18.09,-72.89C18.4,-72.37 18.68,-71.83 18.93,-71.26C19.18,-70.69 19.41,-70.1 19.62,-69.47C19.82,-68.84 20,-68.19 20.16,-67.5C20.31,-66.8 20.44,-66.09 20.54,-65.3C20.65,-64.52 20.72,-63.81 20.77,-62.78C20.83,-61.76 20.97,-60.38 20.85,-59.17Z"/></clipPath></defs><path d="M-29.81,-2.48C-29.81,-2.21 -29.89,-1.91 -30.05,-1.67C-30.2,-1.43 -30.44,-1.23 -30.75,-1.04C-31.05,-0.84 -31.44,-0.67 -31.89,-0.51C-32.34,-0.35 -32.87,-0.2 -33.45,-0.08C-34.03,0.05 -34.68,0.15 -35.39,0.24C-36.09,0.32 -36.82,0.39 -37.69,0.43C-38.56,0.47 -39.64,0.5 -40.61,0.5C-41.59,0.5 -42.66,0.47 -43.54,0.43C-44.41,0.39 -45.13,0.32 -45.84,0.24C-46.54,0.15 -47.19,0.05 -47.77,-0.08C-48.36,-0.2 -48.88,-0.35 -49.33,-0.51C-49.78,-0.67 -50.17,-0.84 -50.48,-1.04C-50.78,-1.23 -51.02,-1.43 -51.18,-1.67C-51.33,-1.91 -51.41,-2.21 -51.41,-2.48C-51.41,-2.75 -51.33,-3.04 -51.18,-3.28C-51.02,-3.52 -50.78,-3.72 -50.48,-3.92C-50.17,-4.11 -49.78,-4.29 -49.33,-4.45C-48.88,-4.61 -48.36,-4.75 -47.77,-4.88C-47.19,-5 -46.54,-5.11 -45.84,-5.19C-45.13,-5.28 -44.41,-5.34 -43.54,-5.39C-42.66,-5.43 -41.59,-5.45 -40.61,-5.45C-39.64,-5.45 -38.56,-5.43 -37.69,-5.39C-36.82,-5.34 -36.09,-5.28 -35.39,-5.19C-34.68,-5.11 -34.03,-5 -33.45,-4.88C-32.87,-4.75 -32.34,-4.61 -31.89,-4.45C-31.44,-4.29 -31.05,-4.11 -30.75,-3.92C-30.44,-3.72 -30.2,-3.52 -30.05,-3.28C-29.89,-3.04 -29.81,-2.75 -29.81,-2.48Z" fill="#F7EEDD"/><g clip-path="url(#c-k0)"><rect x="-56.27" y="-8.42" width="10.8" height="11.89" fill="#5A4038"/></g><path d="M-29.81,-2.48C-29.81,-2.21 -29.89,-1.91 -30.05,-1.67C-30.2,-1.43 -30.44,-1.23 -30.75,-1.04C-31.05,-0.84 -31.44,-0.67 -31.89,-0.51C-32.34,-0.35 -32.87,-0.2 -33.45,-0.08C-34.03,0.05 -34.68,0.15 -35.39,0.24C-36.09,0.32 -36.82,0.39 -37.69,0.43C-38.56,0.47 -39.64,0.5 -40.61,0.5C-41.59,0.5 -42.66,0.47 -43.54,0.43C-44.41,0.39 -45.13,0.32 -45.84,0.24C-46.54,0.15 -47.19,0.05 -47.77,-0.08C-48.36,-0.2 -48.88,-0.35 -49.33,-0.51C-49.78,-0.67 -50.17,-0.84 -50.48,-1.04C-50.78,-1.23 -51.02,-1.43 -51.18,-1.67C-51.33,-1.91 -51.41,-2.21 -51.41,-2.48C-51.41,-2.75 -51.33,-3.04 -51.18,-3.28C-51.02,-3.52 -50.78,-3.72 -50.48,-3.92C-50.17,-4.11 -49.78,-4.29 -49.33,-4.45C-48.88,-4.61 -48.36,-4.75 -47.77,-4.88C-47.19,-5 -46.54,-5.11 -45.84,-5.19C-45.13,-5.28 -44.41,-5.34 -43.54,-5.39C-42.66,-5.43 -41.59,-5.45 -40.61,-5.45C-39.64,-5.45 -38.56,-5.43 -37.69,-5.39C-36.82,-5.34 -36.09,-5.28 -35.39,-5.19C-34.68,-5.11 -34.03,-5 -33.45,-4.88C-32.87,-4.75 -32.34,-4.61 -31.89,-4.45C-31.44,-4.29 -31.05,-4.11 -30.75,-3.92C-30.44,-3.72 -30.2,-3.52 -30.05,-3.28C-29.89,-3.04 -29.81,-2.75 -29.81,-2.48Z" fill="none" stroke="#4B3326" stroke-width="2.16" stroke-linejoin="round"/><path d="M51.41,-2.48C51.41,-2.21 51.33,-1.91 51.18,-1.67C51.02,-1.43 50.78,-1.23 50.48,-1.04C50.17,-0.84 49.78,-0.67 49.33,-0.51C48.88,-0.35 48.36,-0.2 47.77,-0.08C47.19,0.05 46.54,0.15 45.84,0.24C45.13,0.32 44.41,0.39 43.54,0.43C42.66,0.47 41.59,0.5 40.61,0.5C39.64,0.5 38.56,0.47 37.69,0.43C36.82,0.39 36.09,0.32 35.39,0.24C34.68,0.15 34.03,0.05 33.45,-0.08C32.87,-0.2 32.34,-0.35 31.89,-0.51C31.44,-0.67 31.05,-0.84 30.75,-1.04C30.44,-1.23 30.2,-1.43 30.05,-1.67C29.89,-1.91 29.81,-2.21 29.81,-2.48C29.81,-2.75 29.89,-3.04 30.05,-3.28C30.2,-3.52 30.44,-3.72 30.75,-3.92C31.05,-4.11 31.44,-4.29 31.89,-4.45C32.34,-4.61 32.87,-4.75 33.45,-4.88C34.03,-5 34.68,-5.11 35.39,-5.19C36.09,-5.28 36.82,-5.34 37.69,-5.39C38.56,-5.43 39.64,-5.45 40.61,-5.45C41.59,-5.45 42.66,-5.43 43.54,-5.39C44.41,-5.34 45.13,-5.28 45.84,-5.19C46.54,-5.11 47.19,-5 47.77,-4.88C48.36,-4.75 48.88,-4.61 49.33,-4.45C49.78,-4.29 50.17,-4.11 50.48,-3.92C50.78,-3.72 51.02,-3.52 51.18,-3.28C51.33,-3.04 51.41,-2.75 51.41,-2.48Z" fill="#F7EEDD"/><g clip-path="url(#c-k1)"><rect x="45.47" y="-8.42" width="10.8" height="11.89" fill="#5A4038"/></g><path d="M51.41,-2.48C51.41,-2.21 51.33,-1.91 51.18,-1.67C51.02,-1.43 50.78,-1.23 50.48,-1.04C50.17,-0.84 49.78,-0.67 49.33,-0.51C48.88,-0.35 48.36,-0.2 47.77,-0.08C47.19,0.05 46.54,0.15 45.84,0.24C45.13,0.32 44.41,0.39 43.54,0.43C42.66,0.47 41.59,0.5 40.61,0.5C39.64,0.5 38.56,0.47 37.69,0.43C36.82,0.39 36.09,0.32 35.39,0.24C34.68,0.15 34.03,0.05 33.45,-0.08C32.87,-0.2 32.34,-0.35 31.89,-0.51C31.44,-0.67 31.05,-0.84 30.75,-1.04C30.44,-1.23 30.2,-1.43 30.05,-1.67C29.89,-1.91 29.81,-2.21 29.81,-2.48C29.81,-2.75 29.89,-3.04 30.05,-3.28C30.2,-3.52 30.44,-3.72 30.75,-3.92C31.05,-4.11 31.44,-4.29 31.89,-4.45C32.34,-4.61 32.87,-4.75 33.45,-4.88C34.03,-5 34.68,-5.11 35.39,-5.19C36.09,-5.28 36.82,-5.34 37.69,-5.39C38.56,-5.43 39.64,-5.45 40.61,-5.45C41.59,-5.45 42.66,-5.43 43.54,-5.39C44.41,-5.34 45.13,-5.28 45.84,-5.19C46.54,-5.11 47.19,-5 47.77,-4.88C48.36,-4.75 48.88,-4.61 49.33,-4.45C49.78,-4.29 50.17,-4.11 50.48,-3.92C50.78,-3.72 51.02,-3.52 51.18,-3.28C51.33,-3.04 51.41,-2.75 51.41,-2.48Z" fill="none" stroke="#4B3326" stroke-width="2.16" stroke-linejoin="round"/><path d="M0,-50.55C0.89,-50.55 1.8,-51.75 2.67,-52.19C3.54,-52.64 4.4,-53.04 5.22,-53.22C6.03,-53.39 6.81,-53.4 7.56,-53.24C8.31,-53.09 9.01,-52.7 9.7,-52.27C10.4,-51.84 10.94,-50.75 11.72,-50.67C12.5,-50.59 13.53,-51.5 14.38,-51.8C15.22,-52.1 16.04,-52.37 16.77,-52.47C17.49,-52.56 18.15,-52.54 18.73,-52.39C19.31,-52.24 19.8,-51.92 20.26,-51.57C20.73,-51.23 21.11,-50.48 21.54,-50.3C21.96,-50.12 22.42,-50.48 22.83,-50.52C23.23,-50.57 23.63,-50.6 23.96,-50.56C24.29,-50.52 24.59,-50.43 24.84,-50.29C25.08,-50.15 25.27,-49.94 25.45,-49.71C25.63,-49.49 25.72,-49.11 25.91,-48.95C26.1,-48.8 26.39,-48.86 26.6,-48.78C26.81,-48.7 27.01,-48.62 27.17,-48.49C27.33,-48.36 27.46,-48.2 27.55,-48.02C27.65,-47.83 27.7,-47.6 27.74,-47.36C27.79,-47.12 27.69,-46.78 27.82,-46.58C27.95,-46.39 28.32,-46.33 28.53,-46.17C28.74,-46.01 28.94,-45.84 29.07,-45.61C29.21,-45.39 29.29,-45.13 29.33,-44.83C29.37,-44.54 29.35,-44.19 29.32,-43.83C29.28,-43.47 29.05,-42.97 29.13,-42.68C29.2,-42.4 29.59,-42.33 29.76,-42.12C29.94,-41.92 30.11,-41.7 30.19,-41.43C30.28,-41.17 30.31,-40.87 30.29,-40.53C30.27,-40.19 30.17,-39.81 30.05,-39.41C29.94,-39.02 29.6,-38.47 29.61,-38.16C29.62,-37.85 29.97,-37.78 30.1,-37.57C30.22,-37.35 30.33,-37.13 30.37,-36.87C30.4,-36.61 30.38,-36.32 30.3,-36C30.23,-35.69 30.07,-35.33 29.9,-34.97C29.73,-34.61 29.29,-34.14 29.29,-33.84C29.28,-33.54 29.71,-33.41 29.87,-33.17C30.02,-32.93 30.17,-32.69 30.23,-32.42C30.29,-32.15 30.29,-31.86 30.23,-31.55C30.17,-31.24 30.02,-30.9 29.87,-30.56C29.71,-30.22 29.22,-29.79 29.29,-29.49C29.36,-29.19 30.01,-28.99 30.3,-28.73C30.6,-28.47 30.88,-28.21 31.07,-27.93C31.25,-27.64 31.37,-27.35 31.42,-27.04C31.47,-26.74 31.43,-26.41 31.37,-26.08C31.31,-25.76 30.91,-25.38 31.07,-25.08C31.22,-24.77 31.93,-24.53 32.3,-24.25C32.67,-23.98 33.01,-23.7 33.26,-23.42C33.51,-23.14 33.69,-22.86 33.79,-22.57C33.89,-22.28 33.89,-21.99 33.88,-21.7C33.86,-21.41 33.5,-21.1 33.7,-20.82C33.9,-20.54 34.68,-20.27 35.1,-20C35.52,-19.73 35.93,-19.46 36.23,-19.2C36.53,-18.94 36.76,-18.69 36.91,-18.44C37.06,-18.19 37.11,-17.94 37.15,-17.7C37.18,-17.46 36.9,-17.25 37.11,-16.99C37.31,-16.74 38,-16.43 38.38,-16.16C38.76,-15.89 39.13,-15.63 39.4,-15.37C39.68,-15.12 39.88,-14.88 40.02,-14.65C40.15,-14.42 40.2,-14.21 40.22,-14C40.25,-13.79 40.05,-13.63 40.18,-13.39C40.31,-13.14 40.78,-12.81 41.03,-12.53C41.28,-12.25 41.51,-11.98 41.67,-11.72C41.83,-11.47 41.93,-11.23 41.98,-11C42.02,-10.77 41.99,-10.56 41.95,-10.36C41.91,-10.15 41.68,-10 41.72,-9.76C41.76,-9.53 42.07,-9.22 42.2,-8.96C42.34,-8.7 42.46,-8.44 42.52,-8.21C42.57,-7.97 42.59,-7.75 42.55,-7.54C42.52,-7.34 42.42,-7.15 42.32,-6.97C42.21,-6.79 41.94,-6.66 41.91,-6.45C41.87,-6.24 42.06,-5.95 42.1,-5.71C42.14,-5.48 42.17,-5.25 42.14,-5.04C42.11,-4.83 42.04,-4.64 41.93,-4.46C41.81,-4.29 41.65,-4.13 41.47,-3.99C41.29,-3.84 40.98,-3.75 40.85,-3.57C40.73,-3.39 40.78,-3.12 40.69,-2.92C40.61,-2.71 40.51,-2.52 40.34,-2.35C40.18,-2.19 39.96,-2.05 39.69,-1.94C39.42,-1.83 39.08,-1.75 38.73,-1.67C38.38,-1.6 37.88,-1.64 37.59,-1.5C37.3,-1.35 37.24,-1 36.98,-0.8C36.72,-0.6 36.44,-0.42 36.02,-0.32C35.6,-0.22 35.09,-0.17 34.48,-0.19C33.87,-0.2 33.13,-0.3 32.37,-0.4C31.6,-0.51 30.43,-0.88 29.9,-0.84C29.36,-0.79 29.46,-0.32 29.15,-0.14C28.84,0.05 28.51,0.22 28.05,0.28C27.6,0.35 27.04,0.34 26.4,0.25C25.75,0.16 24.97,-0.03 24.17,-0.23C23.37,-0.44 22.11,-0.93 21.6,-1C21.09,-1.07 21.31,-0.73 21.11,-0.65C20.92,-0.56 20.72,-0.48 20.45,-0.48C20.18,-0.48 19.86,-0.52 19.49,-0.62C19.12,-0.72 18.69,-0.89 18.24,-1.07C17.79,-1.25 17.13,-1.65 16.81,-1.7C16.49,-1.76 16.51,-1.46 16.32,-1.39C16.13,-1.32 15.93,-1.25 15.68,-1.26C15.43,-1.28 15.14,-1.34 14.81,-1.45C14.48,-1.57 14.1,-1.75 13.71,-1.95C13.32,-2.14 12.81,-2.62 12.46,-2.64C12.12,-2.65 11.94,-2.19 11.65,-2.04C11.35,-1.89 11.05,-1.76 10.68,-1.74C10.32,-1.72 9.92,-1.77 9.48,-1.91C9.04,-2.05 8.54,-2.29 8.03,-2.55C7.53,-2.82 6.89,-3.47 6.44,-3.49C5.99,-3.51 5.7,-2.9 5.31,-2.69C4.93,-2.48 4.54,-2.29 4.12,-2.23C3.71,-2.17 3.28,-2.2 2.84,-2.33C2.39,-2.45 1.92,-2.71 1.45,-2.98C0.98,-3.25 0.48,-3.97 0,-3.97C-0.48,-3.97 -0.98,-3.25 -1.45,-2.98C-1.92,-2.71 -2.39,-2.45 -2.84,-2.33C-3.28,-2.2 -3.71,-2.17 -4.12,-2.23C-4.54,-2.29 -4.93,-2.48 -5.31,-2.69C-5.7,-2.9 -5.99,-3.51 -6.44,-3.49C-6.89,-3.47 -7.53,-2.82 -8.03,-2.55C-8.54,-2.29 -9.04,-2.05 -9.48,-1.91C-9.92,-1.77 -10.32,-1.72 -10.68,-1.74C-11.05,-1.76 -11.35,-1.89 -11.65,-2.04C-11.94,-2.19 -12.12,-2.65 -12.46,-2.64C-12.81,-2.62 -13.32,-2.14 -13.71,-1.95C-14.1,-1.75 -14.48,-1.57 -14.81,-1.45C-15.14,-1.34 -15.43,-1.28 -15.68,-1.26C-15.93,-1.25 -16.13,-1.32 -16.32,-1.39C-16.51,-1.46 -16.49,-1.76 -16.81,-1.7C-17.13,-1.65 -17.79,-1.25 -18.24,-1.07C-18.69,-0.89 -19.12,-0.72 -19.49,-0.62C-19.86,-0.52 -20.18,-0.48 -20.45,-0.48C-20.72,-0.48 -20.92,-0.56 -21.11,-0.65C-21.31,-0.73 -21.09,-1.07 -21.6,-1C-22.11,-0.93 -23.37,-0.44 -24.17,-0.23C-24.97,-0.03 -25.75,0.16 -26.4,0.25C-27.04,0.34 -27.6,0.35 -28.05,0.28C-28.51,0.22 -28.84,0.05 -29.15,-0.14C-29.46,-0.32 -29.36,-0.79 -29.9,-0.84C-30.43,-0.88 -31.6,-0.51 -32.37,-0.4C-33.13,-0.3 -33.87,-0.2 -34.48,-0.19C-35.09,-0.17 -35.6,-0.22 -36.02,-0.32C-36.44,-0.42 -36.72,-0.6 -36.98,-0.8C-37.24,-1 -37.3,-1.35 -37.59,-1.5C-37.88,-1.64 -38.38,-1.6 -38.73,-1.67C-39.08,-1.75 -39.42,-1.83 -39.69,-1.94C-39.96,-2.05 -40.18,-2.19 -40.34,-2.35C-40.51,-2.52 -40.61,-2.71 -40.69,-2.92C-40.78,-3.12 -40.73,-3.39 -40.85,-3.57C-40.98,-3.75 -41.29,-3.84 -41.47,-3.99C-41.65,-4.13 -41.81,-4.29 -41.93,-4.46C-42.04,-4.64 -42.11,-4.83 -42.14,-5.04C-42.17,-5.25 -42.14,-5.48 -42.1,-5.71C-42.06,-5.95 -41.87,-6.24 -41.91,-6.45C-41.94,-6.66 -42.21,-6.79 -42.32,-6.97C-42.42,-7.15 -42.52,-7.34 -42.55,-7.54C-42.59,-7.75 -42.57,-7.97 -42.52,-8.21C-42.46,-8.44 -42.34,-8.7 -42.2,-8.96C-42.07,-9.22 -41.76,-9.53 -41.72,-9.76C-41.68,-10 -41.91,-10.15 -41.95,-10.36C-41.99,-10.56 -42.02,-10.77 -41.98,-11C-41.93,-11.23 -41.83,-11.47 -41.67,-11.72C-41.51,-11.98 -41.28,-12.25 -41.03,-12.53C-40.78,-12.81 -40.31,-13.14 -40.18,-13.39C-40.05,-13.63 -40.25,-13.79 -40.22,-14C-40.2,-14.21 -40.15,-14.42 -40.02,-14.65C-39.88,-14.88 -39.68,-15.12 -39.4,-15.37C-39.13,-15.63 -38.76,-15.89 -38.38,-16.16C-38,-16.43 -37.31,-16.74 -37.11,-16.99C-36.9,-17.25 -37.18,-17.46 -37.15,-17.7C-37.11,-17.94 -37.06,-18.19 -36.91,-18.44C-36.76,-18.69 -36.53,-18.94 -36.23,-19.2C-35.93,-19.46 -35.52,-19.73 -35.1,-20C-34.68,-20.27 -33.9,-20.54 -33.7,-20.82C-33.5,-21.1 -33.86,-21.41 -33.88,-21.7C-33.89,-21.99 -33.89,-22.28 -33.79,-22.57C-33.69,-22.86 -33.51,-23.14 -33.26,-23.42C-33.01,-23.7 -32.67,-23.98 -32.3,-24.25C-31.93,-24.53 -31.22,-24.77 -31.07,-25.08C-30.91,-25.38 -31.31,-25.76 -31.37,-26.08C-31.43,-26.41 -31.47,-26.74 -31.42,-27.04C-31.37,-27.35 -31.25,-27.64 -31.07,-27.93C-30.88,-28.21 -30.6,-28.47 -30.3,-28.73C-30.01,-28.99 -29.36,-29.19 -29.29,-29.49C-29.22,-29.79 -29.71,-30.22 -29.87,-30.56C-30.02,-30.9 -30.17,-31.24 -30.23,-31.55C-30.29,-31.86 -30.29,-32.15 -30.23,-32.42C-30.17,-32.69 -30.02,-32.93 -29.87,-33.17C-29.71,-33.41 -29.28,-33.54 -29.29,-33.84C-29.29,-34.14 -29.73,-34.61 -29.9,-34.97C-30.07,-35.33 -30.23,-35.69 -30.3,-36C-30.38,-36.32 -30.4,-36.61 -30.37,-36.87C-30.33,-37.13 -30.22,-37.35 -30.1,-37.57C-29.97,-37.78 -29.62,-37.85 -29.61,-38.16C-29.6,-38.47 -29.94,-39.02 -30.05,-39.41C-30.17,-39.81 -30.27,-40.19 -30.29,-40.53C-30.31,-40.87 -30.28,-41.17 -30.19,-41.43C-30.11,-41.7 -29.94,-41.92 -29.76,-42.12C-29.59,-42.33 -29.2,-42.4 -29.13,-42.68C-29.05,-42.97 -29.28,-43.47 -29.32,-43.83C-29.35,-44.19 -29.37,-44.54 -29.33,-44.83C-29.29,-45.13 -29.21,-45.39 -29.07,-45.61C-28.94,-45.84 -28.74,-46.01 -28.53,-46.17C-28.32,-46.33 -27.95,-46.39 -27.82,-46.58C-27.69,-46.78 -27.79,-47.12 -27.74,-47.36C-27.7,-47.6 -27.65,-47.83 -27.55,-48.02C-27.46,-48.2 -27.33,-48.36 -27.17,-48.49C-27.01,-48.62 -26.81,-48.7 -26.6,-48.78C-26.39,-48.86 -26.1,-48.8 -25.91,-48.95C-25.72,-49.11 -25.63,-49.49 -25.45,-49.71C-25.27,-49.94 -25.08,-50.15 -24.84,-50.29C-24.59,-50.43 -24.29,-50.52 -23.96,-50.56C-23.63,-50.6 -23.23,-50.57 -22.83,-50.52C-22.42,-50.48 -21.96,-50.12 -21.54,-50.3C-21.11,-50.48 -20.73,-51.23 -20.26,-51.57C-19.8,-51.92 -19.31,-52.24 -18.73,-52.39C-18.15,-52.54 -17.49,-52.56 -16.77,-52.47C-16.04,-52.37 -15.22,-52.1 -14.38,-51.8C-13.53,-51.5 -12.5,-50.59 -11.72,-50.67C-10.94,-50.75 -10.4,-51.84 -9.7,-52.27C-9.01,-52.7 -8.31,-53.09 -7.56,-53.24C-6.81,-53.4 -6.03,-53.39 -5.22,-53.22C-4.4,-53.04 -3.54,-52.64 -2.67,-52.19C-1.8,-51.75 -0.89,-50.55 0,-50.55Z" fill="#F7EEDD"/><g clip-path="url(#c-k2)"><path d="M-18.45,-40.94a2.83,2.83 0 1 1 4.8,2.06" fill="none" stroke="#eacca7" stroke-width="1.92" stroke-linecap="round"/><path d="M-5.83,-40.98a2.83,2.83 0 1 1 4.8,2.06" fill="none" stroke="#eacca7" stroke-width="1.92" stroke-linecap="round"/><path d="M9.8,-42.64a2.83,2.83 0 1 1 4.8,2.06" fill="none" stroke="#eacca7" stroke-width="1.92" stroke-linecap="round"/><path d="M-20.82,-32.32a2.83,2.83 0 1 1 4.8,2.06" fill="none" stroke="#eacca7" stroke-width="1.92" stroke-linecap="round"/><path d="M-11.31,-30.48a2.83,2.83 0 1 1 4.8,2.06" fill="none" stroke="#eacca7" stroke-width="1.92" stroke-linecap="round"/><path d="M1.22,-32.8a2.83,2.83 0 1 1 4.8,2.06" fill="none" stroke="#eacca7" stroke-width="1.92" stroke-linecap="round"/><path d="M16.1,-33.43a2.83,2.83 0 1 1 4.8,2.06" fill="none" stroke="#eacca7" stroke-width="1.92" stroke-linecap="round"/><path d="M-18.07,-24.22a2.83,2.83 0 1 1 4.8,2.06" fill="none" stroke="#eacca7" stroke-width="1.92" stroke-linecap="round"/><path d="M-3.74,-22.12a2.83,2.83 0 1 1 4.8,2.06" fill="none" stroke="#eacca7" stroke-width="1.92" stroke-linecap="round"/><path d="M9.99,-25.27a2.83,2.83 0 1 1 4.8,2.06" fill="none" stroke="#eacca7" stroke-width="1.92" stroke-linecap="round"/><path d="M-20.58,-16.95a2.83,2.83 0 1 1 4.8,2.06" fill="none" stroke="#eacca7" stroke-width="1.92" stroke-linecap="round"/><path d="M-11.82,-16.29a2.83,2.83 0 1 1 4.8,2.06" fill="none" stroke="#eacca7" stroke-width="1.92" stroke-linecap="round"/><path d="M2.01,-16.87a2.83,2.83 0 1 1 4.8,2.06" fill="none" stroke="#eacca7" stroke-width="1.92" stroke-linecap="round"/><path d="M16.26,-13.77a2.83,2.83 0 1 1 4.8,2.06" fill="none" stroke="#eacca7" stroke-width="1.92" stroke-linecap="round"/><path d="M25.55,-15.63a2.83,2.83 0 1 1 4.8,2.06" fill="none" stroke="#eacca7" stroke-width="1.92" stroke-linecap="round"/><path d="M-31.18,-8.32a2.83,2.83 0 1 1 4.8,2.06" fill="none" stroke="#eacca7" stroke-width="1.92" stroke-linecap="round"/><path d="M18.59,-8.88a2.83,2.83 0 1 1 4.8,2.06" fill="none" stroke="#eacca7" stroke-width="1.92" stroke-linecap="round"/></g><path d="M0,-50.55C0.89,-50.55 1.8,-51.75 2.67,-52.19C3.54,-52.64 4.4,-53.04 5.22,-53.22C6.03,-53.39 6.81,-53.4 7.56,-53.24C8.31,-53.09 9.01,-52.7 9.7,-52.27C10.4,-51.84 10.94,-50.75 11.72,-50.67C12.5,-50.59 13.53,-51.5 14.38,-51.8C15.22,-52.1 16.04,-52.37 16.77,-52.47C17.49,-52.56 18.15,-52.54 18.73,-52.39C19.31,-52.24 19.8,-51.92 20.26,-51.57C20.73,-51.23 21.11,-50.48 21.54,-50.3C21.96,-50.12 22.42,-50.48 22.83,-50.52C23.23,-50.57 23.63,-50.6 23.96,-50.56C24.29,-50.52 24.59,-50.43 24.84,-50.29C25.08,-50.15 25.27,-49.94 25.45,-49.71C25.63,-49.49 25.72,-49.11 25.91,-48.95C26.1,-48.8 26.39,-48.86 26.6,-48.78C26.81,-48.7 27.01,-48.62 27.17,-48.49C27.33,-48.36 27.46,-48.2 27.55,-48.02C27.65,-47.83 27.7,-47.6 27.74,-47.36C27.79,-47.12 27.69,-46.78 27.82,-46.58C27.95,-46.39 28.32,-46.33 28.53,-46.17C28.74,-46.01 28.94,-45.84 29.07,-45.61C29.21,-45.39 29.29,-45.13 29.33,-44.83C29.37,-44.54 29.35,-44.19 29.32,-43.83C29.28,-43.47 29.05,-42.97 29.13,-42.68C29.2,-42.4 29.59,-42.33 29.76,-42.12C29.94,-41.92 30.11,-41.7 30.19,-41.43C30.28,-41.17 30.31,-40.87 30.29,-40.53C30.27,-40.19 30.17,-39.81 30.05,-39.41C29.94,-39.02 29.6,-38.47 29.61,-38.16C29.62,-37.85 29.97,-37.78 30.1,-37.57C30.22,-37.35 30.33,-37.13 30.37,-36.87C30.4,-36.61 30.38,-36.32 30.3,-36C30.23,-35.69 30.07,-35.33 29.9,-34.97C29.73,-34.61 29.29,-34.14 29.29,-33.84C29.28,-33.54 29.71,-33.41 29.87,-33.17C30.02,-32.93 30.17,-32.69 30.23,-32.42C30.29,-32.15 30.29,-31.86 30.23,-31.55C30.17,-31.24 30.02,-30.9 29.87,-30.56C29.71,-30.22 29.22,-29.79 29.29,-29.49C29.36,-29.19 30.01,-28.99 30.3,-28.73C30.6,-28.47 30.88,-28.21 31.07,-27.93C31.25,-27.64 31.37,-27.35 31.42,-27.04C31.47,-26.74 31.43,-26.41 31.37,-26.08C31.31,-25.76 30.91,-25.38 31.07,-25.08C31.22,-24.77 31.93,-24.53 32.3,-24.25C32.67,-23.98 33.01,-23.7 33.26,-23.42C33.51,-23.14 33.69,-22.86 33.79,-22.57C33.89,-22.28 33.89,-21.99 33.88,-21.7C33.86,-21.41 33.5,-21.1 33.7,-20.82C33.9,-20.54 34.68,-20.27 35.1,-20C35.52,-19.73 35.93,-19.46 36.23,-19.2C36.53,-18.94 36.76,-18.69 36.91,-18.44C37.06,-18.19 37.11,-17.94 37.15,-17.7C37.18,-17.46 36.9,-17.25 37.11,-16.99C37.31,-16.74 38,-16.43 38.38,-16.16C38.76,-15.89 39.13,-15.63 39.4,-15.37C39.68,-15.12 39.88,-14.88 40.02,-14.65C40.15,-14.42 40.2,-14.21 40.22,-14C40.25,-13.79 40.05,-13.63 40.18,-13.39C40.31,-13.14 40.78,-12.81 41.03,-12.53C41.28,-12.25 41.51,-11.98 41.67,-11.72C41.83,-11.47 41.93,-11.23 41.98,-11C42.02,-10.77 41.99,-10.56 41.95,-10.36C41.91,-10.15 41.68,-10 41.72,-9.76C41.76,-9.53 42.07,-9.22 42.2,-8.96C42.34,-8.7 42.46,-8.44 42.52,-8.21C42.57,-7.97 42.59,-7.75 42.55,-7.54C42.52,-7.34 42.42,-7.15 42.32,-6.97C42.21,-6.79 41.94,-6.66 41.91,-6.45C41.87,-6.24 42.06,-5.95 42.1,-5.71C42.14,-5.48 42.17,-5.25 42.14,-5.04C42.11,-4.83 42.04,-4.64 41.93,-4.46C41.81,-4.29 41.65,-4.13 41.47,-3.99C41.29,-3.84 40.98,-3.75 40.85,-3.57C40.73,-3.39 40.78,-3.12 40.69,-2.92C40.61,-2.71 40.51,-2.52 40.34,-2.35C40.18,-2.19 39.96,-2.05 39.69,-1.94C39.42,-1.83 39.08,-1.75 38.73,-1.67C38.38,-1.6 37.88,-1.64 37.59,-1.5C37.3,-1.35 37.24,-1 36.98,-0.8C36.72,-0.6 36.44,-0.42 36.02,-0.32C35.6,-0.22 35.09,-0.17 34.48,-0.19C33.87,-0.2 33.13,-0.3 32.37,-0.4C31.6,-0.51 30.43,-0.88 29.9,-0.84C29.36,-0.79 29.46,-0.32 29.15,-0.14C28.84,0.05 28.51,0.22 28.05,0.28C27.6,0.35 27.04,0.34 26.4,0.25C25.75,0.16 24.97,-0.03 24.17,-0.23C23.37,-0.44 22.11,-0.93 21.6,-1C21.09,-1.07 21.31,-0.73 21.11,-0.65C20.92,-0.56 20.72,-0.48 20.45,-0.48C20.18,-0.48 19.86,-0.52 19.49,-0.62C19.12,-0.72 18.69,-0.89 18.24,-1.07C17.79,-1.25 17.13,-1.65 16.81,-1.7C16.49,-1.76 16.51,-1.46 16.32,-1.39C16.13,-1.32 15.93,-1.25 15.68,-1.26C15.43,-1.28 15.14,-1.34 14.81,-1.45C14.48,-1.57 14.1,-1.75 13.71,-1.95C13.32,-2.14 12.81,-2.62 12.46,-2.64C12.12,-2.65 11.94,-2.19 11.65,-2.04C11.35,-1.89 11.05,-1.76 10.68,-1.74C10.32,-1.72 9.92,-1.77 9.48,-1.91C9.04,-2.05 8.54,-2.29 8.03,-2.55C7.53,-2.82 6.89,-3.47 6.44,-3.49C5.99,-3.51 5.7,-2.9 5.31,-2.69C4.93,-2.48 4.54,-2.29 4.12,-2.23C3.71,-2.17 3.28,-2.2 2.84,-2.33C2.39,-2.45 1.92,-2.71 1.45,-2.98C0.98,-3.25 0.48,-3.97 0,-3.97C-0.48,-3.97 -0.98,-3.25 -1.45,-2.98C-1.92,-2.71 -2.39,-2.45 -2.84,-2.33C-3.28,-2.2 -3.71,-2.17 -4.12,-2.23C-4.54,-2.29 -4.93,-2.48 -5.31,-2.69C-5.7,-2.9 -5.99,-3.51 -6.44,-3.49C-6.89,-3.47 -7.53,-2.82 -8.03,-2.55C-8.54,-2.29 -9.04,-2.05 -9.48,-1.91C-9.92,-1.77 -10.32,-1.72 -10.68,-1.74C-11.05,-1.76 -11.35,-1.89 -11.65,-2.04C-11.94,-2.19 -12.12,-2.65 -12.46,-2.64C-12.81,-2.62 -13.32,-2.14 -13.71,-1.95C-14.1,-1.75 -14.48,-1.57 -14.81,-1.45C-15.14,-1.34 -15.43,-1.28 -15.68,-1.26C-15.93,-1.25 -16.13,-1.32 -16.32,-1.39C-16.51,-1.46 -16.49,-1.76 -16.81,-1.7C-17.13,-1.65 -17.79,-1.25 -18.24,-1.07C-18.69,-0.89 -19.12,-0.72 -19.49,-0.62C-19.86,-0.52 -20.18,-0.48 -20.45,-0.48C-20.72,-0.48 -20.92,-0.56 -21.11,-0.65C-21.31,-0.73 -21.09,-1.07 -21.6,-1C-22.11,-0.93 -23.37,-0.44 -24.17,-0.23C-24.97,-0.03 -25.75,0.16 -26.4,0.25C-27.04,0.34 -27.6,0.35 -28.05,0.28C-28.51,0.22 -28.84,0.05 -29.15,-0.14C-29.46,-0.32 -29.36,-0.79 -29.9,-0.84C-30.43,-0.88 -31.6,-0.51 -32.37,-0.4C-33.13,-0.3 -33.87,-0.2 -34.48,-0.19C-35.09,-0.17 -35.6,-0.22 -36.02,-0.32C-36.44,-0.42 -36.72,-0.6 -36.98,-0.8C-37.24,-1 -37.3,-1.35 -37.59,-1.5C-37.88,-1.64 -38.38,-1.6 -38.73,-1.67C-39.08,-1.75 -39.42,-1.83 -39.69,-1.94C-39.96,-2.05 -40.18,-2.19 -40.34,-2.35C-40.51,-2.52 -40.61,-2.71 -40.69,-2.92C-40.78,-3.12 -40.73,-3.39 -40.85,-3.57C-40.98,-3.75 -41.29,-3.84 -41.47,-3.99C-41.65,-4.13 -41.81,-4.29 -41.93,-4.46C-42.04,-4.64 -42.11,-4.83 -42.14,-5.04C-42.17,-5.25 -42.14,-5.48 -42.1,-5.71C-42.06,-5.95 -41.87,-6.24 -41.91,-6.45C-41.94,-6.66 -42.21,-6.79 -42.32,-6.97C-42.42,-7.15 -42.52,-7.34 -42.55,-7.54C-42.59,-7.75 -42.57,-7.97 -42.52,-8.21C-42.46,-8.44 -42.34,-8.7 -42.2,-8.96C-42.07,-9.22 -41.76,-9.53 -41.72,-9.76C-41.68,-10 -41.91,-10.15 -41.95,-10.36C-41.99,-10.56 -42.02,-10.77 -41.98,-11C-41.93,-11.23 -41.83,-11.47 -41.67,-11.72C-41.51,-11.98 -41.28,-12.25 -41.03,-12.53C-40.78,-12.81 -40.31,-13.14 -40.18,-13.39C-40.05,-13.63 -40.25,-13.79 -40.22,-14C-40.2,-14.21 -40.15,-14.42 -40.02,-14.65C-39.88,-14.88 -39.68,-15.12 -39.4,-15.37C-39.13,-15.63 -38.76,-15.89 -38.38,-16.16C-38,-16.43 -37.31,-16.74 -37.11,-16.99C-36.9,-17.25 -37.18,-17.46 -37.15,-17.7C-37.11,-17.94 -37.06,-18.19 -36.91,-18.44C-36.76,-18.69 -36.53,-18.94 -36.23,-19.2C-35.93,-19.46 -35.52,-19.73 -35.1,-20C-34.68,-20.27 -33.9,-20.54 -33.7,-20.82C-33.5,-21.1 -33.86,-21.41 -33.88,-21.7C-33.89,-21.99 -33.89,-22.28 -33.79,-22.57C-33.69,-22.86 -33.51,-23.14 -33.26,-23.42C-33.01,-23.7 -32.67,-23.98 -32.3,-24.25C-31.93,-24.53 -31.22,-24.77 -31.07,-25.08C-30.91,-25.38 -31.31,-25.76 -31.37,-26.08C-31.43,-26.41 -31.47,-26.74 -31.42,-27.04C-31.37,-27.35 -31.25,-27.64 -31.07,-27.93C-30.88,-28.21 -30.6,-28.47 -30.3,-28.73C-30.01,-28.99 -29.36,-29.19 -29.29,-29.49C-29.22,-29.79 -29.71,-30.22 -29.87,-30.56C-30.02,-30.9 -30.17,-31.24 -30.23,-31.55C-30.29,-31.86 -30.29,-32.15 -30.23,-32.42C-30.17,-32.69 -30.02,-32.93 -29.87,-33.17C-29.71,-33.41 -29.28,-33.54 -29.29,-33.84C-29.29,-34.14 -29.73,-34.61 -29.9,-34.97C-30.07,-35.33 -30.23,-35.69 -30.3,-36C-30.38,-36.32 -30.4,-36.61 -30.37,-36.87C-30.33,-37.13 -30.22,-37.35 -30.1,-37.57C-29.97,-37.78 -29.62,-37.85 -29.61,-38.16C-29.6,-38.47 -29.94,-39.02 -30.05,-39.41C-30.17,-39.81 -30.27,-40.19 -30.29,-40.53C-30.31,-40.87 -30.28,-41.17 -30.19,-41.43C-30.11,-41.7 -29.94,-41.92 -29.76,-42.12C-29.59,-42.33 -29.2,-42.4 -29.13,-42.68C-29.05,-42.97 -29.28,-43.47 -29.32,-43.83C-29.35,-44.19 -29.37,-44.54 -29.33,-44.83C-29.29,-45.13 -29.21,-45.39 -29.07,-45.61C-28.94,-45.84 -28.74,-46.01 -28.53,-46.17C-28.32,-46.33 -27.95,-46.39 -27.82,-46.58C-27.69,-46.78 -27.79,-47.12 -27.74,-47.36C-27.7,-47.6 -27.65,-47.83 -27.55,-48.02C-27.46,-48.2 -27.33,-48.36 -27.17,-48.49C-27.01,-48.62 -26.81,-48.7 -26.6,-48.78C-26.39,-48.86 -26.1,-48.8 -25.91,-48.95C-25.72,-49.11 -25.63,-49.49 -25.45,-49.71C-25.27,-49.94 -25.08,-50.15 -24.84,-50.29C-24.59,-50.43 -24.29,-50.52 -23.96,-50.56C-23.63,-50.6 -23.23,-50.57 -22.83,-50.52C-22.42,-50.48 -21.96,-50.12 -21.54,-50.3C-21.11,-50.48 -20.73,-51.23 -20.26,-51.57C-19.8,-51.92 -19.31,-52.24 -18.73,-52.39C-18.15,-52.54 -17.49,-52.56 -16.77,-52.47C-16.04,-52.37 -15.22,-52.1 -14.38,-51.8C-13.53,-51.5 -12.5,-50.59 -11.72,-50.67C-10.94,-50.75 -10.4,-51.84 -9.7,-52.27C-9.01,-52.7 -8.31,-53.09 -7.56,-53.24C-6.81,-53.4 -6.03,-53.39 -5.22,-53.22C-4.4,-53.04 -3.54,-52.64 -2.67,-52.19C-1.8,-51.75 -0.89,-50.55 0,-50.55Z" fill="none" stroke="#4B3326" stroke-width="2.4" stroke-linejoin="round"/><path d="M-28.25,-16.86C-27.56,-15.78 -24.23,-12.64 -24.09,-10.41C-23.96,-8.18 -26.86,-4.63 -27.42,-3.48" fill="none" stroke="#4B3326" stroke-width="1.92" stroke-linecap="round" stroke-linejoin="round" opacity="1"/><path d="M28.25,-16.86C27.56,-15.78 24.23,-12.64 24.09,-10.41C23.96,-8.18 26.86,-4.63 27.42,-3.48" fill="none" stroke="#4B3326" stroke-width="1.92" stroke-linecap="round" stroke-linejoin="round" opacity="1"/><path d="M-13.96,-29.74C-12.52,-31.35 -7.14,-31.35 -5.98,-29.74C-4.82,-28.12 -6.77,-21.85 -7.01,-20.03C-7.25,-18.22 -6.21,-19.04 -7.41,-18.84C-8.61,-18.64 -12.99,-18.64 -14.19,-18.84C-15.39,-19.04 -14.63,-18.22 -14.59,-20.03C-14.55,-21.85 -15.39,-28.12 -13.96,-29.74Z" fill="#F7EEDD"/><g clip-path="url(#c-k3)"><rect x="-40.801050624" y="-22.426379407360002" width="60" height="7.5892722073600005" fill="#5A4038"/><rect x="-40.801050624" y="-22.426379407360002" width="60" height="1" fill="#5A4038"/></g><path d="M-13.96,-29.74C-12.52,-31.35 -7.14,-31.35 -5.98,-29.74C-4.82,-28.12 -6.77,-21.85 -7.01,-20.03C-7.25,-18.22 -6.21,-19.04 -7.41,-18.84C-8.61,-18.64 -12.99,-18.64 -14.19,-18.84C-15.39,-19.04 -14.63,-18.22 -14.59,-20.03C-14.55,-21.85 -15.39,-28.12 -13.96,-29.74Z" fill="none" stroke="#4B3326" stroke-width="2.16" stroke-linejoin="round"/><path d="M5.98,-29.74C7.14,-31.35 12.52,-31.35 13.96,-29.74C15.39,-28.12 14.55,-21.85 14.59,-20.03C14.63,-18.22 15.39,-19.04 14.19,-18.84C12.99,-18.64 8.61,-18.64 7.41,-18.84C6.21,-19.04 7.25,-18.22 7.01,-20.03C6.77,-21.85 4.82,-28.12 5.98,-29.74Z" fill="#F7EEDD"/><g clip-path="url(#c-k4)"><rect x="-19.198949375999998" y="-22.426379407360002" width="60" height="7.5892722073600005" fill="#5A4038"/><rect x="-19.198949375999998" y="-22.426379407360002" width="60" height="1" fill="#5A4038"/></g><path d="M5.98,-29.74C7.14,-31.35 12.52,-31.35 13.96,-29.74C15.39,-28.12 14.55,-21.85 14.59,-20.03C14.63,-18.22 15.39,-19.04 14.19,-18.84C12.99,-18.64 8.61,-18.64 7.41,-18.84C6.21,-19.04 7.25,-18.22 7.01,-20.03C6.77,-21.85 4.82,-28.12 5.98,-29.74Z" fill="none" stroke="#4B3326" stroke-width="2.16" stroke-linejoin="round"/><path d="M-18.77,-69.09C-18.97,-69.99 -19.88,-71.05 -20.33,-71.58C-20.78,-72.11 -21.12,-72.11 -21.49,-72.27C-21.86,-72.43 -22.21,-72.48 -22.55,-72.52C-22.9,-72.55 -23.23,-72.53 -23.56,-72.49C-23.88,-72.45 -24.2,-72.36 -24.51,-72.26C-24.82,-72.16 -25.13,-72.03 -25.43,-71.88C-25.74,-71.73 -26.03,-71.56 -26.33,-71.38C-26.63,-71.2 -26.92,-71 -27.21,-70.79C-27.49,-70.58 -27.78,-70.36 -28.06,-70.13C-28.35,-69.9 -28.63,-69.66 -28.91,-69.41C-29.19,-69.16 -29.47,-68.91 -29.75,-68.65C-30.02,-68.39 -30.3,-68.12 -30.58,-67.85C-30.85,-67.57 -31.13,-67.3 -31.4,-67.01C-31.67,-66.72 -32.25,-66.32 -32.2,-66.09C-32.14,-65.85 -31.45,-65.74 -31.08,-65.59C-30.71,-65.44 -30.34,-65.31 -29.98,-65.18C-29.61,-65.05 -29.25,-64.93 -28.89,-64.81C-28.53,-64.69 -28.17,-64.58 -27.81,-64.48C-27.45,-64.37 -27.09,-64.27 -26.73,-64.19C-26.38,-64.1 -26.03,-64.02 -25.68,-63.95C-25.32,-63.89 -24.98,-63.83 -24.63,-63.79C-24.29,-63.75 -23.95,-63.73 -23.61,-63.72C-23.27,-63.72 -22.94,-63.73 -22.61,-63.77C-22.29,-63.81 -21.96,-63.87 -21.65,-63.97C-21.34,-64.07 -21.03,-64.19 -20.73,-64.37C-20.44,-64.55 -20.15,-64.75 -19.88,-65.05C-19.61,-65.35 -19.31,-65.5 -19.12,-66.17C-18.94,-66.85 -18.56,-68.19 -18.77,-69.09Z" fill="#F7EEDD" stroke="#4B3326" stroke-width="2.4" stroke-linejoin="round"/><path d="M-21.72,-68.43C-21.82,-68.88 -22.34,-69.39 -22.6,-69.65C-22.86,-69.91 -23.06,-69.9 -23.28,-69.98C-23.49,-70.05 -23.7,-70.07 -23.9,-70.08C-24.11,-70.09 -24.3,-70.07 -24.5,-70.04C-24.69,-70.01 -24.88,-69.96 -25.07,-69.91C-25.26,-69.85 -25.45,-69.78 -25.63,-69.7C-25.81,-69.62 -25.99,-69.52 -26.17,-69.43C-26.35,-69.33 -26.53,-69.22 -26.71,-69.11C-26.88,-69 -27.06,-68.88 -27.23,-68.76C-27.41,-68.63 -27.58,-68.51 -27.75,-68.38C-27.92,-68.24 -28.1,-68.11 -28.27,-67.97C-28.44,-67.83 -28.61,-67.69 -28.78,-67.55C-28.95,-67.41 -29.12,-67.26 -29.28,-67.11C-29.45,-66.96 -29.81,-66.74 -29.78,-66.63C-29.75,-66.51 -29.34,-66.47 -29.12,-66.4C-28.91,-66.33 -28.69,-66.28 -28.48,-66.22C-28.26,-66.16 -28.05,-66.11 -27.84,-66.05C-27.62,-66 -27.41,-65.95 -27.2,-65.91C-26.99,-65.86 -26.78,-65.82 -26.57,-65.78C-26.36,-65.75 -26.15,-65.71 -25.94,-65.69C-25.74,-65.66 -25.53,-65.64 -25.33,-65.63C-25.12,-65.62 -24.92,-65.61 -24.72,-65.62C-24.52,-65.62 -24.32,-65.63 -24.12,-65.66C-23.93,-65.69 -23.74,-65.73 -23.55,-65.78C-23.36,-65.84 -23.17,-65.91 -22.99,-66.01C-22.81,-66.1 -22.63,-66.21 -22.47,-66.37C-22.3,-66.52 -22.12,-66.6 -21.99,-66.95C-21.87,-67.29 -21.62,-67.98 -21.72,-68.43Z" fill="#F6BDB4"/><path d="M18.77,-69.09C18.56,-68.19 18.94,-66.85 19.12,-66.17C19.31,-65.5 19.61,-65.35 19.88,-65.05C20.15,-64.75 20.44,-64.55 20.73,-64.37C21.03,-64.19 21.34,-64.07 21.65,-63.97C21.96,-63.87 22.29,-63.81 22.61,-63.77C22.94,-63.73 23.27,-63.72 23.61,-63.72C23.95,-63.73 24.29,-63.75 24.63,-63.79C24.98,-63.83 25.32,-63.89 25.68,-63.95C26.03,-64.02 26.38,-64.1 26.73,-64.19C27.09,-64.27 27.45,-64.37 27.81,-64.48C28.17,-64.58 28.53,-64.69 28.89,-64.81C29.25,-64.93 29.61,-65.05 29.98,-65.18C30.34,-65.31 30.71,-65.44 31.08,-65.59C31.45,-65.74 32.14,-65.85 32.2,-66.09C32.25,-66.32 31.67,-66.72 31.4,-67.01C31.13,-67.3 30.85,-67.57 30.58,-67.85C30.3,-68.12 30.02,-68.39 29.75,-68.65C29.47,-68.91 29.19,-69.16 28.91,-69.41C28.63,-69.66 28.35,-69.9 28.06,-70.13C27.78,-70.36 27.49,-70.58 27.21,-70.79C26.92,-71 26.63,-71.2 26.33,-71.38C26.03,-71.56 25.74,-71.73 25.43,-71.88C25.13,-72.03 24.82,-72.16 24.51,-72.26C24.2,-72.36 23.88,-72.45 23.56,-72.49C23.23,-72.53 22.9,-72.55 22.55,-72.52C22.21,-72.48 21.86,-72.43 21.49,-72.27C21.12,-72.11 20.78,-72.11 20.33,-71.58C19.88,-71.05 18.97,-69.99 18.77,-69.09Z" fill="#F7EEDD" stroke="#4B3326" stroke-width="2.4" stroke-linejoin="round"/><path d="M21.72,-68.43C21.62,-67.98 21.87,-67.29 21.99,-66.95C22.12,-66.6 22.3,-66.52 22.47,-66.37C22.63,-66.21 22.81,-66.1 22.99,-66.01C23.17,-65.91 23.36,-65.84 23.55,-65.78C23.74,-65.73 23.93,-65.69 24.12,-65.66C24.32,-65.63 24.52,-65.62 24.72,-65.62C24.92,-65.61 25.12,-65.62 25.33,-65.63C25.53,-65.64 25.74,-65.66 25.94,-65.69C26.15,-65.71 26.36,-65.75 26.57,-65.78C26.78,-65.82 26.99,-65.86 27.2,-65.91C27.41,-65.95 27.62,-66 27.84,-66.05C28.05,-66.11 28.26,-66.16 28.48,-66.22C28.69,-66.28 28.91,-66.33 29.12,-66.4C29.34,-66.47 29.75,-66.51 29.78,-66.63C29.81,-66.74 29.45,-66.96 29.28,-67.11C29.12,-67.26 28.95,-67.41 28.78,-67.55C28.61,-67.69 28.44,-67.83 28.27,-67.97C28.1,-68.11 27.92,-68.24 27.75,-68.38C27.58,-68.51 27.41,-68.63 27.23,-68.76C27.06,-68.88 26.88,-69 26.71,-69.11C26.53,-69.22 26.35,-69.33 26.17,-69.43C25.99,-69.52 25.81,-69.62 25.63,-69.7C25.45,-69.78 25.26,-69.85 25.07,-69.91C24.88,-69.96 24.69,-70.01 24.5,-70.04C24.3,-70.07 24.11,-70.09 23.9,-70.08C23.7,-70.07 23.49,-70.05 23.28,-69.98C23.06,-69.9 22.86,-69.91 22.6,-69.65C22.34,-69.39 21.82,-68.88 21.72,-68.43Z" fill="#F6BDB4"/><path d="M20.85,-59.17C20.74,-57.97 20.32,-56.58 20.08,-55.56C19.83,-54.54 19.62,-53.82 19.37,-53.04C19.13,-52.25 18.87,-51.54 18.6,-50.85C18.33,-50.15 18.04,-49.5 17.74,-48.87C17.45,-48.25 17.13,-47.65 16.81,-47.08C16.48,-46.51 16.14,-45.97 15.79,-45.45C15.44,-44.94 15.07,-44.45 14.69,-43.98C14.32,-43.51 13.93,-43.07 13.52,-42.66C13.12,-42.24 12.71,-41.85 12.28,-41.49C11.86,-41.12 11.42,-40.78 10.96,-40.47C10.51,-40.15 10.05,-39.86 9.57,-39.6C9.09,-39.33 8.6,-39.1 8.09,-38.89C7.57,-38.67 7.05,-38.49 6.5,-38.33C5.94,-38.17 5.38,-38.04 4.76,-37.93C4.15,-37.82 3.59,-37.74 2.8,-37.69C2,-37.64 0.93,-37.61 0,-37.61C-0.93,-37.61 -2,-37.64 -2.8,-37.69C-3.59,-37.74 -4.15,-37.82 -4.76,-37.93C-5.38,-38.04 -5.94,-38.17 -6.5,-38.33C-7.05,-38.49 -7.57,-38.67 -8.09,-38.89C-8.6,-39.1 -9.09,-39.33 -9.57,-39.6C-10.05,-39.86 -10.51,-40.15 -10.96,-40.47C-11.42,-40.78 -11.86,-41.12 -12.28,-41.49C-12.71,-41.85 -13.12,-42.24 -13.52,-42.66C-13.93,-43.07 -14.32,-43.51 -14.69,-43.98C-15.07,-44.45 -15.44,-44.94 -15.79,-45.45C-16.14,-45.97 -16.48,-46.51 -16.81,-47.08C-17.13,-47.65 -17.45,-48.25 -17.74,-48.87C-18.04,-49.5 -18.33,-50.15 -18.6,-50.85C-18.87,-51.54 -19.13,-52.25 -19.37,-53.04C-19.62,-53.82 -19.83,-54.54 -20.08,-55.56C-20.32,-56.58 -20.74,-57.97 -20.85,-59.17C-20.97,-60.38 -20.83,-61.76 -20.77,-62.78C-20.72,-63.81 -20.65,-64.52 -20.54,-65.3C-20.44,-66.09 -20.31,-66.8 -20.16,-67.5C-20,-68.19 -19.82,-68.84 -19.62,-69.47C-19.41,-70.1 -19.18,-70.69 -18.93,-71.26C-18.68,-71.83 -18.4,-72.37 -18.09,-72.89C-17.79,-73.41 -17.46,-73.9 -17.1,-74.36C-16.75,-74.83 -16.37,-75.27 -15.97,-75.69C-15.57,-76.1 -15.14,-76.49 -14.69,-76.86C-14.24,-77.22 -13.77,-77.56 -13.27,-77.88C-12.77,-78.19 -12.24,-78.48 -11.69,-78.75C-11.14,-79.01 -10.57,-79.25 -9.96,-79.46C-9.35,-79.67 -8.72,-79.85 -8.05,-80.01C-7.38,-80.17 -6.69,-80.31 -5.93,-80.41C-5.17,-80.52 -4.48,-80.6 -3.49,-80.65C-2.5,-80.7 -1.16,-80.73 0,-80.73C1.16,-80.73 2.5,-80.7 3.49,-80.65C4.48,-80.6 5.17,-80.52 5.93,-80.41C6.69,-80.31 7.38,-80.17 8.05,-80.01C8.72,-79.85 9.35,-79.67 9.96,-79.46C10.57,-79.25 11.14,-79.01 11.69,-78.75C12.24,-78.48 12.77,-78.19 13.27,-77.88C13.77,-77.56 14.24,-77.22 14.69,-76.86C15.14,-76.49 15.57,-76.1 15.97,-75.69C16.37,-75.27 16.75,-74.83 17.1,-74.36C17.46,-73.9 17.79,-73.41 18.09,-72.89C18.4,-72.37 18.68,-71.83 18.93,-71.26C19.18,-70.69 19.41,-70.1 19.62,-69.47C19.82,-68.84 20,-68.19 20.16,-67.5C20.31,-66.8 20.44,-66.09 20.54,-65.3C20.65,-64.52 20.72,-63.81 20.77,-62.78C20.83,-61.76 20.97,-60.38 20.85,-59.17Z" fill="#d4e5c8"/><g clip-path="url(#c-k5)"></g><path d="M20.85,-59.17C20.74,-57.97 20.32,-56.58 20.08,-55.56C19.83,-54.54 19.62,-53.82 19.37,-53.04C19.13,-52.25 18.87,-51.54 18.6,-50.85C18.33,-50.15 18.04,-49.5 17.74,-48.87C17.45,-48.25 17.13,-47.65 16.81,-47.08C16.48,-46.51 16.14,-45.97 15.79,-45.45C15.44,-44.94 15.07,-44.45 14.69,-43.98C14.32,-43.51 13.93,-43.07 13.52,-42.66C13.12,-42.24 12.71,-41.85 12.28,-41.49C11.86,-41.12 11.42,-40.78 10.96,-40.47C10.51,-40.15 10.05,-39.86 9.57,-39.6C9.09,-39.33 8.6,-39.1 8.09,-38.89C7.57,-38.67 7.05,-38.49 6.5,-38.33C5.94,-38.17 5.38,-38.04 4.76,-37.93C4.15,-37.82 3.59,-37.74 2.8,-37.69C2,-37.64 0.93,-37.61 0,-37.61C-0.93,-37.61 -2,-37.64 -2.8,-37.69C-3.59,-37.74 -4.15,-37.82 -4.76,-37.93C-5.38,-38.04 -5.94,-38.17 -6.5,-38.33C-7.05,-38.49 -7.57,-38.67 -8.09,-38.89C-8.6,-39.1 -9.09,-39.33 -9.57,-39.6C-10.05,-39.86 -10.51,-40.15 -10.96,-40.47C-11.42,-40.78 -11.86,-41.12 -12.28,-41.49C-12.71,-41.85 -13.12,-42.24 -13.52,-42.66C-13.93,-43.07 -14.32,-43.51 -14.69,-43.98C-15.07,-44.45 -15.44,-44.94 -15.79,-45.45C-16.14,-45.97 -16.48,-46.51 -16.81,-47.08C-17.13,-47.65 -17.45,-48.25 -17.74,-48.87C-18.04,-49.5 -18.33,-50.15 -18.6,-50.85C-18.87,-51.54 -19.13,-52.25 -19.37,-53.04C-19.62,-53.82 -19.83,-54.54 -20.08,-55.56C-20.32,-56.58 -20.74,-57.97 -20.85,-59.17C-20.97,-60.38 -20.83,-61.76 -20.77,-62.78C-20.72,-63.81 -20.65,-64.52 -20.54,-65.3C-20.44,-66.09 -20.31,-66.8 -20.16,-67.5C-20,-68.19 -19.82,-68.84 -19.62,-69.47C-19.41,-70.1 -19.18,-70.69 -18.93,-71.26C-18.68,-71.83 -18.4,-72.37 -18.09,-72.89C-17.79,-73.41 -17.46,-73.9 -17.1,-74.36C-16.75,-74.83 -16.37,-75.27 -15.97,-75.69C-15.57,-76.1 -15.14,-76.49 -14.69,-76.86C-14.24,-77.22 -13.77,-77.56 -13.27,-77.88C-12.77,-78.19 -12.24,-78.48 -11.69,-78.75C-11.14,-79.01 -10.57,-79.25 -9.96,-79.46C-9.35,-79.67 -8.72,-79.85 -8.05,-80.01C-7.38,-80.17 -6.69,-80.31 -5.93,-80.41C-5.17,-80.52 -4.48,-80.6 -3.49,-80.65C-2.5,-80.7 -1.16,-80.73 0,-80.73C1.16,-80.73 2.5,-80.7 3.49,-80.65C4.48,-80.6 5.17,-80.52 5.93,-80.41C6.69,-80.31 7.38,-80.17 8.05,-80.01C8.72,-79.85 9.35,-79.67 9.96,-79.46C10.57,-79.25 11.14,-79.01 11.69,-78.75C12.24,-78.48 12.77,-78.19 13.27,-77.88C13.77,-77.56 14.24,-77.22 14.69,-76.86C15.14,-76.49 15.57,-76.1 15.97,-75.69C16.37,-75.27 16.75,-74.83 17.1,-74.36C17.46,-73.9 17.79,-73.41 18.09,-72.89C18.4,-72.37 18.68,-71.83 18.93,-71.26C19.18,-70.69 19.41,-70.1 19.62,-69.47C19.82,-68.84 20,-68.19 20.16,-67.5C20.31,-66.8 20.44,-66.09 20.54,-65.3C20.65,-64.52 20.72,-63.81 20.77,-62.78C20.83,-61.76 20.97,-60.38 20.85,-59.17Z" fill="none" stroke="#4B3326" stroke-width="2.4" stroke-linejoin="round"/><ellipse cx="-5" cy="-62.19" rx="2.1" ry="2.31" fill="#2E1D19"/><ellipse cx="5" cy="-62.19" rx="2.1" ry="2.31" fill="#2E1D19"/><path d="M14.6,-47.1C14.6,-46.71 14.56,-46.3 14.48,-45.93C14.4,-45.56 14.29,-45.23 14.13,-44.89C13.98,-44.56 13.79,-44.23 13.56,-43.92C13.33,-43.61 13.07,-43.31 12.77,-43.02C12.47,-42.74 12.13,-42.46 11.77,-42.21C11.4,-41.95 11,-41.7 10.57,-41.48C10.15,-41.25 9.68,-41.03 9.2,-40.84C8.71,-40.65 8.2,-40.47 7.66,-40.31C7.12,-40.15 6.56,-40.01 5.97,-39.89C5.39,-39.77 4.78,-39.66 4.15,-39.58C3.52,-39.5 2.89,-39.44 2.2,-39.4C1.5,-39.36 0.73,-39.34 0,-39.34C-0.73,-39.34 -1.5,-39.36 -2.2,-39.4C-2.89,-39.44 -3.52,-39.5 -4.15,-39.58C-4.78,-39.66 -5.39,-39.77 -5.97,-39.89C-6.56,-40.01 -7.12,-40.15 -7.66,-40.31C-8.2,-40.47 -8.71,-40.65 -9.2,-40.84C-9.68,-41.03 -10.15,-41.25 -10.57,-41.48C-11,-41.7 -11.4,-41.95 -11.77,-42.21C-12.13,-42.46 -12.47,-42.74 -12.77,-43.02C-13.07,-43.31 -13.33,-43.61 -13.56,-43.92C-13.79,-44.23 -13.98,-44.56 -14.13,-44.89C-14.29,-45.23 -14.4,-45.56 -14.48,-45.93C-14.56,-46.3 -14.6,-46.71 -14.6,-47.1C-14.6,-47.49 -14.56,-47.9 -14.48,-48.27C-14.4,-48.63 -14.29,-48.97 -14.13,-49.31C-13.98,-49.64 -13.79,-49.96 -13.56,-50.27C-13.33,-50.58 -13.07,-50.89 -12.77,-51.17C-12.47,-51.46 -12.13,-51.73 -11.77,-51.99C-11.4,-52.25 -11,-52.49 -10.57,-52.72C-10.15,-52.95 -9.68,-53.16 -9.2,-53.36C-8.71,-53.55 -8.2,-53.73 -7.66,-53.89C-7.12,-54.05 -6.56,-54.19 -5.97,-54.31C-5.39,-54.43 -4.78,-54.53 -4.15,-54.61C-3.52,-54.69 -2.89,-54.76 -2.2,-54.8C-1.5,-54.84 -0.73,-54.86 0,-54.86C0.73,-54.86 1.5,-54.84 2.2,-54.8C2.89,-54.76 3.52,-54.69 4.15,-54.61C4.78,-54.53 5.39,-54.43 5.97,-54.31C6.56,-54.19 7.12,-54.05 7.66,-53.89C8.2,-53.73 8.71,-53.55 9.2,-53.36C9.68,-53.16 10.15,-52.95 10.57,-52.72C11,-52.49 11.4,-52.25 11.77,-51.99C12.13,-51.73 12.47,-51.46 12.77,-51.17C13.07,-50.89 13.33,-50.58 13.56,-50.27C13.79,-49.96 13.98,-49.64 14.13,-49.31C14.29,-48.97 14.4,-48.63 14.48,-48.27C14.56,-47.9 14.6,-47.49 14.6,-47.1Z" fill="#F7C3C6" stroke="#4B3326" stroke-width="2.28" stroke-linejoin="round"/><ellipse cx="-4.96" cy="-47.87" rx="1.17" ry="1.42" fill="#C98088"/><ellipse cx="4.96" cy="-47.87" rx="1.17" ry="1.42" fill="#C98088"/><path d="M20.43,-67.76C20.43,-69.8 20.6,-74.75 20.43,-76.54C20.27,-78.34 20.08,-77.91 19.43,-78.54C18.78,-79.17 17.77,-79.8 16.53,-80.34C15.29,-80.88 13.71,-81.38 12.01,-81.77C10.31,-82.17 8.32,-82.49 6.31,-82.69C4.31,-82.9 2.1,-83.01 0,-83.01C-2.1,-83.01 -4.31,-82.9 -6.31,-82.69C-8.32,-82.49 -10.31,-82.17 -12.01,-81.77C-13.71,-81.38 -15.29,-80.88 -16.53,-80.34C-17.77,-79.8 -18.78,-79.17 -19.43,-78.54C-20.08,-77.91 -20.27,-78.34 -20.43,-76.54C-20.6,-74.75 -21,-70.1 -20.43,-67.76C-19.87,-65.43 -18.16,-63.12 -17.03,-62.55C-15.89,-61.97 -14.76,-64.59 -13.62,-64.31C-12.49,-64.03 -11.35,-60.86 -10.22,-60.86C-9.08,-60.86 -7.95,-64.31 -6.81,-64.31C-5.68,-64.31 -4.54,-60.86 -3.41,-60.86C-2.27,-60.86 -1.14,-64.31 0,-64.31C1.14,-64.31 2.27,-60.86 3.41,-60.86C4.54,-60.86 5.68,-64.31 6.81,-64.31C7.95,-64.31 9.08,-60.86 10.22,-60.86C11.35,-60.86 12.49,-64.03 13.62,-64.31C14.76,-64.59 15.89,-62.55 17.03,-62.55C18.16,-62.55 19.87,-63.44 20.43,-64.31C21,-65.18 20.43,-65.72 20.43,-67.76Z" fill="#fdfaf6" stroke="#4B3326" stroke-width="2.04" stroke-linejoin="round"/><path d="M24.41,-66.85C24.41,-66.69 24.41,-66.05 24.41,-65.88" fill="none" stroke="#4B3326" stroke-width="5.08" stroke-linecap="round" stroke-linejoin="round"/><path d="M24.41,-66.85C24.41,-66.69 24.41,-66.05 24.41,-65.88" fill="none" stroke="#E9B949" stroke-width="1" stroke-linecap="round" stroke-linejoin="round"/><ellipse cx="24.41" cy="-63.95" rx="2.42" ry="2.54" fill="#FFD45E" stroke="#4B3326" stroke-width="1.8"/><ellipse cx="24.41" cy="-63.95" rx="0.82" ry="0.82" fill="#E9B949"/></g><path d="M-7.33 -70.76v6.44" stroke="#7F9FE6" stroke-width="1.88" stroke-linecap="round"/><path d="M-2.44 -72.37v7.52" stroke="#7F9FE6" stroke-width="1.88" stroke-linecap="round"/><path d="M2.44 -72.37v7.52" stroke="#7F9FE6" stroke-width="1.88" stroke-linecap="round"/><path d="M7.33 -70.76v6.44" stroke="#7F9FE6" stroke-width="1.88" stroke-linecap="round"/></svg>
