<svg xmlns="http://www.w3.org/2000/svg" viewBox="0 0 40 46" width="40" height="46"><circle cx="20" cy="26" r="17.5" fill="#FFFFFF" stroke="#4B3326" stroke-width="2"/><g transform="translate(20 30)"><path d="M-10 -1h20c0 5.6-4.4 9.6-10 9.6S-10 4.6-10-1z" fill="#F2C489" stroke="#4B3326" stroke-width="1.8" stroke-linejoin="round"/><ellipse cx="0" cy="-1" rx="10" ry="2.6" fill="#E9DCC6" stroke="#4B3326" stroke-width="1.4"/><path d="M-6.4 3.6q2.4 1.6 4.6 1.4" fill="none" stroke="#FFF1D8" stroke-width="1.4" stroke-linecap="round"/></g><path d="M15.6 12.4q0-5.2 4.8-5.2 4.8 0 4.8 4.2 0 2.8-2.8 4-2 .9-2 3" fill="none" stroke="#4B3326" stroke-width="4.8" stroke-linecap="round"/><path d="M15.6 12.4q0-5.2 4.8-5.2 4.8 0 4.8 4.2 0 2.8-2.8 4-2 .9-2 3" fill="none" stroke="#FF9784" stroke-width="2.6" stroke-linecap="round"/><circle cx="20.4" cy="22.6" r="2" fill="#FF9784" stroke="#4B3326" stroke-width="1.2"/></svg>
